<?xml version="1.0" encoding="UTF-8"?>
<svg version="1.1" xmlns="http://www.w3.org/2000/svg" width="551" height="551">
<path d="M0 0 C0.99 0 1.98 0 3 0 C3.50471197 1.76949612 4.00360685 3.54065223 4.5 5.3125 C4.7784375 6.29863281 5.056875 7.28476563 5.34375 8.30078125 C6 11 6 11 6 14 C6.70382812 13.98952637 7.40765625 13.97905273 8.1328125 13.96826172 C28.49163089 13.70580306 46.47125931 15.07809021 66 21 C66 21.66 66 22.32 66 23 C66.81726563 23.08121094 67.63453125 23.16242188 68.4765625 23.24609375 C72.87459821 24.18713687 76.41244692 25.98807122 80.375 28.0625 C81.11105469 28.43955078 81.84710938 28.81660156 82.60546875 29.20507812 C84.40739646 30.12944364 86.20423099 31.06372614 88 32 C88 32.66 88 33.32 88 34 C88.72703125 34.26941406 89.4540625 34.53882813 90.203125 34.81640625 C92.94411552 35.97635056 95.26865374 37.30131027 97.75 38.9375 C98.52859375 39.44152344 99.3071875 39.94554687 100.109375 40.46484375 C102 42 102 42 103 45 C103.7425 45.28875 104.485 45.5775 105.25 45.875 C109.20701103 47.49377724 112.10533246 50.09137591 113.9375 54 C115.2752617 56.51813967 117.20876616 57.77553277 119.41796875 59.51171875 C121.74466615 61.70053778 123.17824949 64.26246806 124.7265625 67.03515625 C125.94974022 69.09966747 125.94974022 69.09966747 127.9140625 70.76953125 C130.68882308 73.73655052 132.10643796 76.94285671 133.75 80.625 C134.06582031 81.305625 134.38164062 81.98625 134.70703125 82.6875 C137 87.71019345 137 87.71019345 137 90 C137.66 90 138.32 90 139 90 C147.52114716 113.09820394 147.52114716 113.09820394 147 123 C146.01 123.495 146.01 123.495 145 124 C145.33 129.94 145.66 135.88 146 142 C148.31 142.33 150.62 142.66 153 143 C152.83826325 143.54750538 152.67652651 144.09501076 152.50988865 144.65910721 C151.93095214 147.31699791 151.8600259 149.73328057 151.84178162 152.45428467 C151.82709839 154.11591393 151.82709839 154.11591393 151.81211853 155.81111145 C151.80636307 157.02167709 151.8006076 158.23224274 151.79467773 159.47949219 C151.78477814 160.75779404 151.77487854 162.03609589 151.76467896 163.35313416 C151.73767034 166.85483181 151.71663893 170.35654289 151.69667697 173.85828686 C151.67479244 177.5191765 151.64741583 181.18002495 151.62062073 184.84088135 C151.57072719 191.77163039 151.52577599 198.70240233 151.48259836 205.63319612 C151.43319744 213.52433881 151.37828991 221.41544017 151.32291877 229.30654287 C151.20914998 245.53765714 151.10229985 261.76880931 151 278 C152.32 278 153.64 278 155 278 C155 299.45 155 320.9 155 343 C69.53 343 -15.94 343 -104 343 C-104 321.55 -104 300.1 -104 278 C-103.01 278 -102.02 278 -101 278 C-101.00138269 276.9577519 -101.00138269 276.9577519 -101.00279331 275.89444828 C-101.02484795 259.01175747 -101.04141126 242.1290712 -101.05181217 225.24636936 C-101.05697526 217.08212836 -101.0640182 208.91789695 -101.07543945 200.75366211 C-101.0853859 193.64028716 -101.09185333 186.52691915 -101.09408849 179.41353744 C-101.09539567 175.64474276 -101.09848194 171.87596797 -101.10573006 168.10717964 C-101.11374316 163.90681184 -101.11399116 159.70647892 -101.11352539 155.50610352 C-101.11712067 154.24734909 -101.12071594 152.98859467 -101.12442017 151.69169617 C-101.1230455 150.55441071 -101.12167084 149.41712524 -101.12025452 148.24537659 C-101.12117631 147.25076196 -101.1220981 146.25614733 -101.12304783 145.23139286 C-101 143 -101 143 -100 142 C-98.50716202 141.90428029 -97.00980345 141.87811773 -95.51390076 141.87974548 C-94.54489838 141.87837082 -93.575896 141.87699615 -92.57752991 141.87557983 C-90.96992043 141.88097275 -90.96992043 141.88097275 -89.32983398 141.88647461 C-87.64712402 141.88625557 -87.64712402 141.88625557 -85.93041992 141.8860321 C-82.20229189 141.8867318 -78.47421311 141.89452685 -74.74609375 141.90234375 C-72.16919482 141.90420773 -69.59229553 141.90563173 -67.01539612 141.90663147 C-60.91324885 141.91006658 -54.81112206 141.9179574 -48.70898253 141.92798096 C-41.7635075 141.93914311 -34.81803165 141.9446528 -27.87254989 141.94967639 C-13.58169034 141.96014004 0.7091542 141.97773885 15 142 C14.35947632 138.79555266 13.71881275 135.59113329 13.078125 132.38671875 C12.89781738 131.48465698 12.71750977 130.58259521 12.53173828 129.65319824 C11.78230916 125.90519713 11.03190199 122.15746384 10.27294922 118.41137695 C9.15184484 112.83987548 8.81363344 107.68417999 9 102 C8.34 102 7.68 102 7 102 C5.71035548 94.29663169 4.42953788 86.59183282 3.15478516 78.88598633 C2.72091243 76.26573537 2.28378369 73.64608724 1.84521484 71.02661133 C1.21442331 67.25688097 0.59089748 63.4860091 -0.03125 59.71484375 C-0.22811401 58.54791489 -0.42497803 57.38098602 -0.62780762 56.17869568 C-1.52194214 50.71716389 -2.2517949 45.53599076 -2 40 C-2.66 40 -3.32 40 -4 40 C-4.70078836 36.08559007 -5.38331354 32.168211 -6.0625 28.25 C-6.26166016 27.13882813 -6.46082031 26.02765625 -6.66601562 24.8828125 C-6.84970703 23.81289062 -7.03339844 22.74296875 -7.22265625 21.640625 C-7.39547119 20.65610352 -7.56828613 19.67158203 -7.74633789 18.65722656 C-7.99058184 16.09865957 -7.80486291 14.41709608 -7 12 C-4 12 -4 12 -2 13 C-2 13.66 -2 14.32 -2 15 C-1.34 15 -0.68 15 0 15 C-0.165 14.34 -0.33 13.68 -0.5 13 C-1.20043005 8.79741967 -1.9479197 3.89583941 0 0 Z " fill="#7B8090" transform="translate(262,118)"/>
<path d="M0 0 C0.33 6.93 0.66 13.86 1 21 C2.65 21 4.3 21 6 21 C5.67 21.66 5.34 22.32 5 23 C-27.67 23 -60.34 23 -94 23 C-94 23.99 -94 24.98 -94 26 C-86.74 26 -79.48 26 -72 26 C-72 27.98 -72 29.96 -72 32 C-89.82 32 -107.64 32 -126 32 C-126 31.01 -126 30.02 -126 29 C-145.8 28.505 -145.8 28.505 -166 28 C-166 28.66 -166 29.32 -166 30 C-153.13 30 -140.26 30 -127 30 C-127 30.66 -127 31.32 -127 32 C-140.2 32 -153.4 32 -167 32 C-167 30.02 -167 28.04 -167 26 C-155.45 25.67 -143.9 25.34 -132 25 C-132.98226561 23.79827589 -132.98226561 23.79827589 -134.8409586 23.87695217 C-135.65121463 23.87787396 -136.46147066 23.87879576 -137.29627991 23.87974548 C-138.22321152 23.87837082 -139.15014313 23.87699615 -140.10516357 23.87557983 C-141.64264252 23.88097275 -141.64264252 23.88097275 -143.21118164 23.88647461 C-144.28422043 23.88632858 -145.35725922 23.88618256 -146.46281433 23.8860321 C-150.02861516 23.88673176 -153.59436449 23.89452662 -157.16015625 23.90234375 C-159.62495393 23.90420774 -162.08975199 23.90563173 -164.55455017 23.90663147 C-171.05653905 23.91045813 -177.55850575 23.92028968 -184.06048584 23.93133545 C-191.85394933 23.94397053 -199.64742423 23.9479511 -207.44089508 23.95378876 C-219.2939455 23.96350135 -231.14694722 23.98265689 -243 24 C-243.33 41.82 -243.66 59.64 -244 78 C-244.66 78 -245.32 78 -246 78 C-246.02312916 70.71578452 -246.04091801 63.4315769 -246.05181217 56.14733219 C-246.05703975 52.76528187 -246.06413511 49.3832566 -246.07543945 46.0012207 C-246.08834267 42.11670223 -246.09322924 38.23219403 -246.09765625 34.34765625 C-246.10281754 33.12788589 -246.10797882 31.90811554 -246.11329651 30.65138245 C-246.11337204 29.53029587 -246.11344757 28.40920929 -246.11352539 27.25415039 C-246.115746 26.26153702 -246.11796661 25.26892365 -246.12025452 24.24623108 C-246 22 -246 22 -245 21 C-243.4818148 20.90421407 -241.95917604 20.87811853 -240.43797302 20.87974548 C-238.95922699 20.87768349 -238.95922699 20.87768349 -237.4506073 20.87557983 C-236.36016617 20.87917511 -235.26972504 20.88277039 -234.14624023 20.88647461 C-233.00492645 20.88632858 -231.86361267 20.88618256 -230.68771362 20.8860321 C-226.89465469 20.88673182 -223.10164416 20.89452693 -219.30859375 20.90234375 C-216.68685432 20.90420772 -214.06511454 20.90563172 -211.44337463 20.90663147 C-205.23498045 20.90974449 -199.02660379 20.91795748 -192.81821734 20.92798096 C-185.75182559 20.93914301 -178.68543301 20.94465278 -171.61903465 20.94967639 C-157.07934737 20.96014012 -142.53967393 20.977739 -128 21 C-128 19.35 -128 17.7 -128 16 C-127.34 16.33 -126.68 16.66 -126 17 C-126 18.32 -126 19.64 -126 21 C-124.06215735 20.85879286 -122.12473045 20.71187127 -120.1875 20.5625 C-119.10855469 20.48128906 -118.02960938 20.40007812 -116.91796875 20.31640625 C-113.94010095 20.09787539 -113.94010095 20.09787539 -111 19 C-109.43881572 18.93259135 -107.8749748 18.91485544 -106.3125 18.9375 C-105.10013672 18.95103516 -105.10013672 18.95103516 -103.86328125 18.96484375 C-103.24839844 18.97644531 -102.63351562 18.98804688 -102 19 C-102 18.34 -102 17.68 -102 17 C-101.2616391 16.87916046 -100.5232782 16.75832092 -99.76254272 16.63381958 C-92.78814223 15.49149613 -85.81454115 14.34443519 -78.84178734 13.19211006 C-75.25741303 12.59992232 -71.67276116 12.00953997 -68.08740234 11.42333984 C-64.62427654 10.85705538 -61.16197574 10.28595516 -57.70018387 9.71157455 C-55.74324366 9.38815173 -53.78549059 9.06965973 -51.82772827 8.75125122 C-50.62693634 8.55119476 -49.42614441 8.35113831 -48.18896484 8.14501953 C-47.13639496 7.97181183 -46.08382507 7.79860413 -44.99935913 7.62014771 C-41.8908625 6.97743472 -39.00027213 6.02779745 -36 5 C-33.52692991 4.52277661 -31.04365441 4.0967633 -28.5546875 3.7109375 C-27.86239044 3.60278717 -27.17009338 3.49463684 -26.45681763 3.38320923 C-25.0033334 3.15728934 -23.54945594 2.93388616 -22.09521484 2.71289062 C-19.87365069 2.37479465 -17.65359772 2.02786572 -15.43359375 1.6796875 C-4.57212567 0 -4.57212567 0 0 0 Z " fill="#7A7F8E" transform="translate(407,239)"/>
<path d="M0 0 C0.99 0.495 0.99 0.495 2 1 C2 2.32 2 3.64 2 5 C3.93784265 4.85879286 5.87526955 4.71187127 7.8125 4.5625 C8.89144531 4.48128906 9.97039062 4.40007812 11.08203125 4.31640625 C14.05989905 4.09787539 14.05989905 4.09787539 17 3 C18.39439664 2.93334624 19.79169875 2.91461801 21.1875 2.9375 C23.0746875 2.9684375 23.0746875 2.9684375 25 3 C25 3.33 25 3.66 25 4 C60.97 4.33 96.94 4.66 134 5 C133.67 5.66 133.34 6.32 133 7 C100.33 7 67.66 7 34 7 C34 7.99 34 8.98 34 10 C41.26 10 48.52 10 56 10 C56 11.98 56 13.96 56 16 C38.18 16 20.36 16 2 16 C2 15.01 2 14.02 2 13 C-17.8 12.505 -17.8 12.505 -38 12 C-38 12.66 -38 13.32 -38 14 C-25.13 14 -12.26 14 1 14 C1 14.66 1 15.32 1 16 C-12.2 16 -25.4 16 -39 16 C-39 14.02 -39 12.04 -39 10 C-27.45 9.67 -15.9 9.34 -4 9 C-4.98226561 7.79827589 -4.98226561 7.79827589 -6.8409586 7.87695217 C-7.65121463 7.87787396 -8.46147066 7.87879576 -9.29627991 7.87974548 C-10.22321152 7.87837082 -11.15014313 7.87699615 -12.10516357 7.87557983 C-13.64264252 7.88097275 -13.64264252 7.88097275 -15.21118164 7.88647461 C-16.28422043 7.88632858 -17.35725922 7.88618256 -18.46281433 7.8860321 C-22.02861516 7.88673176 -25.59436449 7.89452662 -29.16015625 7.90234375 C-31.62495393 7.90420774 -34.08975199 7.90563173 -36.55455017 7.90663147 C-43.05653905 7.91045813 -49.55850575 7.92028968 -56.06048584 7.93133545 C-63.85394933 7.94397053 -71.64742423 7.9479511 -79.44089508 7.95378876 C-91.2939455 7.96350135 -103.14694722 7.98265689 -115 8 C-115.33 25.82 -115.66 43.64 -116 62 C-116.66 62 -117.32 62 -118 62 C-118.02312916 54.71578452 -118.04091801 47.4315769 -118.05181217 40.14733219 C-118.05703975 36.76528187 -118.06413511 33.3832566 -118.07543945 30.0012207 C-118.08834267 26.11670223 -118.09322924 22.23219403 -118.09765625 18.34765625 C-118.10281754 17.12788589 -118.10797882 15.90811554 -118.11329651 14.65138245 C-118.11337204 13.53029587 -118.11344757 12.40920929 -118.11352539 11.25415039 C-118.115746 10.26153702 -118.11796661 9.26892365 -118.12025452 8.24623108 C-118 6 -118 6 -117 5 C-115.4818148 4.90421407 -113.95917604 4.87811853 -112.43797302 4.87974548 C-110.95922699 4.87768349 -110.95922699 4.87768349 -109.4506073 4.87557983 C-108.36016617 4.87917511 -107.26972504 4.88277039 -106.14624023 4.88647461 C-105.00492645 4.88632858 -103.86361267 4.88618256 -102.68771362 4.8860321 C-98.89465469 4.88673182 -95.10164416 4.89452693 -91.30859375 4.90234375 C-88.68685432 4.90420772 -86.06511454 4.90563172 -83.44337463 4.90663147 C-77.23498045 4.90974449 -71.02660379 4.91795748 -64.81821734 4.92798096 C-57.75182559 4.93914301 -50.68543301 4.94465278 -43.61903465 4.94967639 C-29.07934737 4.96014012 -14.53967393 4.977739 0 5 C0 3.35 0 1.7 0 0 Z " fill="#6C6F7A" transform="translate(279,255)"/>
<path d="M0 0 C0.99 0.495 0.99 0.495 2 1 C2 44.23 2 87.46 2 132 C3.32 132 4.64 132 6 132 C6 153.12 6 174.24 6 196 C5.34 196 4.68 196 4 196 C4 175.87 4 155.74 4 135 C-80.15 135 -164.3 135 -251 135 C-251 155.13 -251 175.26 -251 196 C-251.66 196 -252.32 196 -253 196 C-253 175.21 -253 154.42 -253 133 C-249.48363499 132.296727 -246.96655123 131.87685752 -243.51165295 131.89256954 C-242.6378156 131.89406189 -241.76397826 131.89555424 -240.86366099 131.89709181 C-239.43807454 131.90729749 -239.43807454 131.90729749 -237.98368835 131.91770935 C-236.96669524 131.92093848 -235.94970214 131.92416761 -234.90189105 131.92749459 C-231.49013858 131.93956976 -228.07846657 131.95894272 -224.66674805 131.97827148 C-222.22269363 131.98841426 -219.77863732 131.99810793 -217.33457947 132.00738525 C-212.07062101 132.02837849 -206.80669108 132.05249986 -201.54276085 132.07946587 C-193.93202282 132.11844866 -186.32126829 132.15179102 -178.71049795 132.18376113 C-166.36223616 132.23578471 -154.01399962 132.29236365 -141.66577148 132.35180664 C-129.67131533 132.40953686 -117.67685235 132.4651104 -105.68237305 132.51782227 C-104.93537228 132.52110777 -104.18837152 132.52439327 -103.41873437 132.52777833 C-96.9208025 132.55633917 -90.42286991 132.5847367 -83.92493725 132.61311817 C-55.94992524 132.73551831 -27.97497471 132.86864312 0 133 C0 89.11 0 45.22 0 0 Z " fill="#434853" transform="translate(411,264)"/>
<path d="M0 0 C31.35 0 62.7 0 95 0 C97 4 97 4 97 9 C65.65 9 34.3 9 2 9 C2 7.02 2 5.04 2 3 C1.34 2.67 0.68 2.34 0 2 C0 1.34 0 0.68 0 0 Z " fill="#6F7382" transform="translate(238,399)"/>
<path d="M0 0 C0.99 0.495 0.99 0.495 2 1 C2 2.32 2 3.64 2 5 C3.93784265 4.85879286 5.87526955 4.71187127 7.8125 4.5625 C8.89144531 4.48128906 9.97039062 4.40007812 11.08203125 4.31640625 C14.05989905 4.09787539 14.05989905 4.09787539 17 3 C18.39439664 2.93334624 19.79169875 2.91461801 21.1875 2.9375 C23.0746875 2.9684375 23.0746875 2.9684375 25 3 C25 3.33 25 3.66 25 4 C60.97 4.33 96.94 4.66 134 5 C134 5.33 134 5.66 134 6 C51.83 6.66 -30.34 7.32 -115 8 C-115.33 25.82 -115.66 43.64 -116 62 C-116.66 62 -117.32 62 -118 62 C-118.02312916 54.71578452 -118.04091801 47.4315769 -118.05181217 40.14733219 C-118.05703975 36.76528187 -118.06413511 33.3832566 -118.07543945 30.0012207 C-118.08834267 26.11670223 -118.09322924 22.23219403 -118.09765625 18.34765625 C-118.10281754 17.12788589 -118.10797882 15.90811554 -118.11329651 14.65138245 C-118.11337204 13.53029587 -118.11344757 12.40920929 -118.11352539 11.25415039 C-118.115746 10.26153702 -118.11796661 9.26892365 -118.12025452 8.24623108 C-118 6 -118 6 -117 5 C-115.4818148 4.90421407 -113.95917604 4.87811853 -112.43797302 4.87974548 C-110.95922699 4.87768349 -110.95922699 4.87768349 -109.4506073 4.87557983 C-108.36016617 4.87917511 -107.26972504 4.88277039 -106.14624023 4.88647461 C-105.00492645 4.88632858 -103.86361267 4.88618256 -102.68771362 4.8860321 C-98.89465469 4.88673182 -95.10164416 4.89452693 -91.30859375 4.90234375 C-88.68685432 4.90420772 -86.06511454 4.90563172 -83.44337463 4.90663147 C-77.23498045 4.90974449 -71.02660379 4.91795748 -64.81821734 4.92798096 C-57.75182559 4.93914301 -50.68543301 4.94465278 -43.61903465 4.94967639 C-29.07934737 4.96014012 -14.53967393 4.977739 0 5 C0 3.35 0 1.7 0 0 Z " fill="#66686D" transform="translate(279,255)"/>
<path d="M0 0 C58.08 0.33 116.16 0.66 176 1 C176 1.33 176 1.66 176 2 C118.58 2 61.16 2 2 2 C2 22.13 2 42.26 2 63 C1.34 63 0.68 63 0 63 C0 42.21 0 21.42 0 0 Z " fill="#575C68" transform="translate(158,397)"/>
<path d="M0 0 C18.15 0 36.3 0 55 0 C55 1.98 55 3.96 55 6 C37.18 6 19.36 6 1 6 C0.67 4.02 0.34 2.04 0 0 Z " fill="#616473" transform="translate(280,265)"/>
<path d="M0 0 C-0.33 1.65 -0.66 3.3 -1 5 C-1.66 5 -2.32 5 -3 5 C-3 4.34 -3 3.68 -3 3 C-4.27117676 3.21205078 -5.54235352 3.42410156 -6.85205078 3.64257812 C-11.58123195 4.43016187 -16.31144546 5.21138667 -21.04199219 5.99072266 C-23.08687461 6.32851366 -25.13147539 6.66801438 -27.17578125 7.00927734 C-30.11906207 7.50030133 -33.06331041 7.98511046 -36.0078125 8.46875 C-36.9174173 8.62186646 -37.82702209 8.77498291 -38.76419067 8.93273926 C-43.22882243 9.65992258 -47.45748766 10.18300769 -52 10 C-52 10.66 -52 11.32 -52 12 C-57.20961257 12.84095345 -62.41999227 13.67692866 -67.63110352 14.50854492 C-69.39921982 14.79139845 -71.16712923 15.07554876 -72.93481445 15.36108398 C-91.77081595 18.40189734 -91.77081595 18.40189734 -101 19 C-101 18.67 -101 18.34 -101 18 C-99.35 18 -97.7 18 -96 18 C-96 17.34 -96 16.68 -96 16 C-95.33680756 15.89168854 -94.67361511 15.78337708 -93.99032593 15.67178345 C-87.07866986 14.54198996 -80.16817158 13.40530878 -73.25830078 12.26464844 C-70.68046565 11.84003332 -68.10234192 11.4171664 -65.52392578 10.99609375 C-61.81465359 10.39003155 -58.10646979 9.77765927 -54.3984375 9.1640625 C-53.24822113 8.97752106 -52.09800476 8.79097961 -50.91293335 8.5987854 C-45.74789829 7.73830722 -40.94947239 6.73905237 -36 5 C-33.52692991 4.52277661 -31.04365441 4.0967633 -28.5546875 3.7109375 C-27.86239044 3.60278717 -27.17009338 3.49463684 -26.45681763 3.38320923 C-25.0033334 3.15728934 -23.54945594 2.93388616 -22.09521484 2.71289062 C-19.87365069 2.37479465 -17.65359772 2.02786572 -15.43359375 1.6796875 C-4.57212567 0 -4.57212567 0 0 0 Z " fill="#525765" transform="translate(407,239)"/>
<path d="M0 0 C0.86602341 0.00359528 1.73204681 0.00719055 2.62431335 0.01089478 C3.98515549 0.01067574 3.98515549 0.01067574 5.37348938 0.01045227 C8.38737843 0.01115176 11.40120651 0.01894582 14.41508484 0.02676392 C16.49873826 0.02862797 18.58239212 0.03005193 20.66604614 0.03105164 C26.16191305 0.03487783 31.65775372 0.04470897 37.15361023 0.05575562 C42.75704086 0.06596757 48.36047572 0.07054879 53.96391296 0.07559204 C64.96717973 0.08633115 75.97042698 0.10340877 86.97367859 0.12442017 C86.97367859 0.45442017 86.97367859 0.78442017 86.97367859 1.12442017 C81.7233237 1.99793346 76.69304869 2.26278204 71.37626648 2.23794556 C70.13115295 2.2381646 70.13115295 2.2381646 68.86088562 2.23838806 C66.13934136 2.2376959 63.41786703 2.22993637 60.69633484 2.22207642 C58.80061887 2.22020976 56.90490242 2.21878702 55.00918579 2.2177887 C50.0361954 2.21398304 45.06323452 2.20416951 40.09025574 2.19308472 C35.00908304 2.18282854 29.92790554 2.17828208 24.84672546 2.17324829 C14.88903025 2.1625454 4.93135688 2.14549254 -5.02632141 2.12442017 C-5.35632141 2.78442017 -5.68632141 3.44442017 -6.02632141 4.12442017 C-6.35632141 3.13442017 -6.68632141 2.14442017 -7.02632141 1.12442017 C-5.15944565 -0.7424556 -2.48350693 0.00435518 0 0 Z " fill="#6B7180" transform="translate(247.0263214111328,401.8755798339844)"/>
<path d="M0 0 C0.99 0.495 0.99 0.495 2 1 C2 2.32 2 3.64 2 5 C3.93784265 4.85879286 5.87526955 4.71187127 7.8125 4.5625 C8.89144531 4.48128906 9.97039062 4.40007812 11.08203125 4.31640625 C14.05989905 4.09787539 14.05989905 4.09787539 17 3 C18.39439664 2.93334624 19.79169875 2.91461801 21.1875 2.9375 C23.0746875 2.9684375 23.0746875 2.9684375 25 3 C25 3.33 25 3.66 25 4 C60.97 4.33 96.94 4.66 134 5 C134 5.33 134 5.66 134 6 C90.11 6 46.22 6 1 6 C0.67 4.02 0.34 2.04 0 0 Z " fill="#434651" transform="translate(279,255)"/>
<path d="M0 0 C2.875 0.875 2.875 0.875 4.875 2.875 C5.140625 4.75 5.140625 4.75 5.125 6.875 C5.13015625 7.57625 5.1353125 8.2775 5.140625 9 C4.875 10.875 4.875 10.875 2.875 12.875 C-3.17740175 13.42521834 -3.17740175 13.42521834 -6.0625 11.75 C-7.65490283 8.93987736 -7.57819325 7.04735276 -7.125 3.875 C-4.91145252 0.55467877 -4.03541124 -0.16141645 0 0 Z " fill="#656A78" transform="translate(288.125,246.125)"/>
<path d="M0 0 C0.99 0 1.98 0 3 0 C3.99 3.96 4.98 7.92 6 12 C5.01 12.33 4.02 12.66 3 13 C3 13.66 3 14.32 3 15 C4.98 15 6.96 15 9 15 C9 15.66 9 16.32 9 17 C6.36 17 3.72 17 1 17 C-0.74733614 11.75799157 -1.28125389 7.53132651 -1 2 C-0.67 1.34 -0.34 0.68 0 0 Z " fill="#6B6B72" transform="translate(262,118)"/>
<path d="M0 0 C0.66 0 1.32 0 2 0 C2 0.66 2 1.32 2 2 C3.32 1.67 4.64 1.34 6 1 C6.28571429 9.57142857 6.28571429 9.57142857 4 13 C3.34 13 2.68 13 2 13 C-0.28571429 4.57142857 -0.28571429 4.57142857 0 0 Z " fill="#888A91" transform="translate(275,247)"/>
<path d="M0 0 C1.32 0 2.64 0 4 0 C4.66 0.99 5.32 1.98 6 3 C5.01 3.33 4.02 3.66 3 4 C3 4.66 3 5.32 3 6 C4.98 6 6.96 6 9 6 C9 6.66 9 7.32 9 8 C6.36 8 3.72 8 1 8 C0.67 5.36 0.34 2.72 0 0 Z " fill="#5E6169" transform="translate(262,127)"/>
<path d="M0 0 C2.73370045 2.36092311 3.91097645 4.56538728 5 8 C5 9.32 5 10.64 5 12 C4.34 12 3.68 12 3 12 C-0.42857143 4.71428571 -0.42857143 4.71428571 0 0 Z " fill="#6E727A" transform="translate(394,198)"/>
<path d="M0 0 C1.65 0 3.3 0 5 0 C5.33 0.99 5.66 1.98 6 3 C8.00016466 4.20882096 8.00016466 4.20882096 10 5 C10 5.66 10 6.32 10 7 C5.61308455 6.49381745 3.15608721 3.86917019 0 1 C0 0.67 0 0.34 0 0 Z " fill="#767880" transform="translate(344,149)"/>
<path d="M0 0 C1.98 0 3.96 0 6 0 C5.01 0.66 4.02 1.32 3 2 C3.99 2.66 4.98 3.32 6 4 C1.71 4 -2.58 4 -7 4 C-7 3.67 -7 3.34 -7 3 C-5.5459375 2.814375 -5.5459375 2.814375 -4.0625 2.625 C-2.5465625 2.315625 -2.5465625 2.315625 -1 2 C-0.67 1.34 -0.34 0.68 0 0 Z " fill="#6D717E" transform="translate(305,256)"/>
<path d="M0 0 C0.66 0 1.32 0 2 0 C4.42857143 6.28571429 4.42857143 6.28571429 3 10 C2.34 10 1.68 10 1 10 C0.67 6.7 0.34 3.4 0 0 Z " fill="#A7ADB2" transform="translate(268,210)"/>
<path d="M0 0 C1.32 0.99 2.64 1.98 4 3 C3.67 3.66 3.34 4.32 3 5 C2.01 5 1.02 5 0 5 C-0.33 5.99 -0.66 6.98 -1 8 C-1.625 5.125 -1.625 5.125 -2 2 C-1.34 1.34 -0.68 0.68 0 0 Z " fill="#B1B1B1" transform="translate(256,129)"/>
<path d="M0 0 C1.485 0.99 1.485 0.99 3 2 C6.5 2.16666667 6.5 2.16666667 10 2 C10.99 2 11.98 2 13 2 C12.67 2.66 12.34 3.32 12 4 C8.04 4 4.08 4 0 4 C0 2.68 0 1.36 0 0 Z " fill="#757983" transform="translate(281,256)"/>
<path d="M0 0 C6.75 -0.125 6.75 -0.125 9 1 C9 1.66 9 2.32 9 3 C6.03 2.67 3.06 2.34 0 2 C0 1.34 0 0.68 0 0 Z " fill="#5B6269" transform="translate(303,134)"/>
<path d="M0 0 C3.3 0 6.6 0 10 0 C6.09567131 1.95216435 3.27786748 2.50639991 -1 3 C-0.67 2.01 -0.34 1.02 0 0 Z " fill="#4F5563" transform="translate(366,245)"/>
<path d="M0 0 C2 2 2 2 2.125 5.125 C2.08375 6.07375 2.0425 7.0225 2 8 C1.34 8 0.68 8 0 8 C-0.38063221 5.6739143 -0.71269945 3.33944736 -1 1 C-0.67 0.67 -0.34 0.34 0 0 Z " fill="#6C6C71" transform="translate(407,233)"/>
<path d="M0 0 C5.875 3.75 5.875 3.75 7 6 C6.34 6.66 5.68 7.32 5 8 C0 2.25 0 2.25 0 0 Z " fill="#5E6167" transform="translate(375,173)"/>
<path d="M0 0 C0.93423645 3.01031744 1.04449911 3.86650268 0 7 C-1.32 6.34 -2.64 5.68 -4 5 C-3.67 4.01 -3.34 3.02 -3 2 C-2.01 2 -1.02 2 0 2 C0 1.34 0 0.68 0 0 Z " fill="#7D7E82" transform="translate(259,132)"/>
<path d="M0 0 C0.99 0 1.98 0 3 0 C3.33 1.32 3.66 2.64 4 4 C2.68 4.33 1.36 4.66 0 5 C-0.33 4.01 -0.66 3.02 -1 2 C-0.67 1.34 -0.34 0.68 0 0 Z " fill="#9B9A9F" transform="translate(262,118)"/>
</svg>
