<?xml version="1.0" encoding="UTF-8"?>
<svg version="1.1" xmlns="http://www.w3.org/2000/svg" width="551" height="551">
<path d="M0 0 C22.11 0 44.22 0 67 0 C67.33 1.98 67.66 3.96 68 6 C66.68 6.33 65.36 6.66 64 7 C64 8.98 64 10.96 64 13 C64.99265114 12.97787697 64.99265114 12.97787697 66.00535583 12.95530701 C72.86648703 12.80338551 79.72774091 12.6585163 86.58911133 12.51782227 C89.15295219 12.46431065 91.71675563 12.40897457 94.28051758 12.35180664 C97.95646083 12.27015057 101.63248687 12.19496468 105.30859375 12.12109375 C107.03981728 12.08054115 107.03981728 12.08054115 108.80601501 12.03916931 C110.3975515 12.00902489 110.3975515 12.00902489 112.02124023 11.97827148 C113.43021828 11.94829323 113.43021828 11.94829323 114.86766052 11.91770935 C117 12 117 12 118 13 C119.49239489 13.13335337 120.99054774 13.20343269 122.48828125 13.24609375 C123.41656738 13.27735352 124.34485352 13.30861328 125.30126953 13.34082031 C126.29497559 13.37272461 127.28868164 13.40462891 128.3125 13.4375 C141.37101332 13.96845284 152.03321167 15.44096003 164 21 C164 21.66 164 22.32 164 23 C165.2375 23.3403125 165.2375 23.3403125 166.5 23.6875 C170.64657501 25.24246563 174.62658475 27.08549804 178 30 C178.73046875 32.1640625 178.73046875 32.1640625 179 34 C179.85851562 34.12761719 179.85851562 34.12761719 180.734375 34.2578125 C183.65560717 35.21476786 185.09680721 36.69788284 187.25 38.875 C187.95640625 39.57367188 188.6628125 40.27234375 189.390625 40.9921875 C191 43 191 43 191 46 C191.99 46.33 192.98 46.66 194 47 C197.46914979 51.44762794 200.26495217 56.0769139 203 61 C203.495 61.804375 203.99 62.60875 204.5 63.4375 C208.13443238 69.64632199 210.72908975 75.80127874 212.875 82.6796875 C213.80450412 85.42301565 214.84994223 88.01396514 215.98046875 90.67578125 C218.18017154 96.11838695 219.32255604 101.54242824 220.3125 107.3125 C220.49361328 108.27478516 220.67472656 109.23707031 220.86132812 110.22851562 C221.68722048 114.8721516 222.14256906 118.36306099 221 123 C220.34 123 219.68 123 219 123 C219 129.27 219 135.54 219 142 C221.64 142 224.28 142 227 142 C227.96642204 145.23549072 228.1111205 148.12235981 228.08229065 151.49224854 C228.07525116 152.60841553 228.06821167 153.72458252 228.06095886 154.87457275 C228.04801285 156.09448914 228.03506683 157.31440552 228.02172852 158.57128906 C228.0073172 160.50337219 228.0073172 160.50337219 227.99261475 162.4744873 C227.9661783 166.0031133 227.93338979 169.53165507 227.89946485 173.06021595 C227.86507765 176.74907822 227.83652663 180.43798553 227.80735779 184.12689209 C227.75124709 191.11082689 227.68988412 198.09470529 227.62663645 205.07857871 C227.55488091 213.03011949 227.48897708 220.98170539 227.42356598 228.9333005 C227.28889082 245.28892607 227.1468631 261.64447923 227 278 C228.65 278 230.3 278 232 278 C232 299.45 232 320.9 232 343 C111.22 343 -9.56 343 -134 343 C-134 279 -134 279 -133 278 C-131.33382885 277.95936168 -129.66611905 277.957279 -128 278 C-128.00607553 277.30516793 -128.01215105 276.61033587 -128.01841068 275.89444828 C-128.16568529 259.01180015 -128.30742824 242.12911565 -128.4429636 225.24636936 C-128.50864096 217.08210804 -128.57621192 208.91787048 -128.64819336 200.75366211 C-128.71090491 193.64031499 -128.77011188 186.52694896 -128.82505554 179.41353744 C-128.85428954 175.64472343 -128.88531561 171.87594287 -128.92053413 168.10717964 C-128.95972005 163.90685211 -128.99108368 159.70650204 -129.02172852 155.50610352 C-129.03467453 154.24734909 -129.04762054 152.98859467 -129.06095886 151.69169617 C-129.06799835 150.55441071 -129.07503784 149.41712524 -129.08229065 148.24537659 C-129.09058679 147.25076196 -129.09888292 146.25614733 -129.10743046 145.23139286 C-129 143 -129 143 -128 142 C-125.47458998 141.90495749 -122.97662874 141.87442842 -120.45092773 141.88647461 C-119.26564987 141.88625557 -119.26564987 141.88625557 -118.056427 141.8860321 C-115.43212178 141.88673143 -112.80788664 141.89452473 -110.18359375 141.90234375 C-108.36898335 141.90420786 -106.55437244 141.9056318 -104.73976135 141.90663147 C-99.9540977 141.91045721 -95.1684642 141.92028796 -90.3828125 141.93133545 C-85.50325936 141.94154837 -80.62370136 141.94612883 -75.74414062 141.95117188 C-66.16274714 141.96191018 -56.58137607 141.97898727 -47 142 C-47.19977196 140.52240959 -47.19977196 140.52240959 -47.40357971 139.01496887 C-48.32016819 132.20780333 -49.21937948 125.40263662 -49.96484375 118.57421875 C-50.042686 117.86620621 -50.12052826 117.15819366 -50.20072937 116.4287262 C-50.3641952 114.94096423 -50.52696001 113.45312508 -50.68902588 111.96520996 C-50.94399846 109.62792999 -51.20181372 107.29097891 -51.46044922 104.95410156 C-52.12498105 98.94913774 -52.7887298 92.94409408 -53.44287109 86.93798828 C-53.83203019 83.37476473 -54.22774046 79.812328 -54.625 76.25 C-54.73577881 75.21705811 -54.84655762 74.18411621 -54.96069336 73.11987305 C-55.06905518 72.15734619 -55.17741699 71.19481934 -55.2890625 70.203125 C-55.42368896 68.97577637 -55.42368896 68.97577637 -55.56103516 67.72363281 C-55.98851208 64.80166875 -55.98851208 64.80166875 -56.97973633 61.21411133 C-58.07444042 56.95657503 -58.60167621 52.73941561 -59.03515625 48.37109375 C-59.16053017 47.1810952 -59.16053017 47.1810952 -59.28843689 45.96705627 C-59.55183007 43.45772885 -59.80749252 40.94769214 -60.0625 38.4375 C-60.32262527 35.92392185 -60.58437926 33.41052192 -60.84727478 30.89723206 C-61.00951164 29.34139354 -61.16991625 27.78536244 -61.32814026 26.22911072 C-61.7840683 21.80064389 -62.34211768 17.40314082 -63 13 C-62.01 12.34 -61.02 11.68 -60 11 C-59.505 11.495 -59.505 11.495 -59 12 C-57.06776005 12.12357078 -55.13106201 12.17794458 -53.19506836 12.20532227 C-51.95385727 12.22526749 -50.71264618 12.24521271 -49.43382263 12.26576233 C-48.0691643 12.28274793 -46.70450463 12.29962669 -45.33984375 12.31640625 C-43.95121125 12.33696936 -42.5625851 12.35796566 -41.17396545 12.37937927 C-37.51285941 12.43466647 -33.85169627 12.48404626 -30.19049072 12.53222656 C-26.45702003 12.58239321 -22.72363262 12.63810446 -18.99023438 12.69335938 C-11.6602267 12.80102218 -4.33014995 12.90244894 3 13 C2.67 11.02 2.34 9.04 2 7 C0.02 6.67 -1.96 6.34 -4 6 C-4 4.68 -4 3.36 -4 2 C-2.68 2 -1.36 2 0 2 C0 1.34 0 0.68 0 0 Z M8 7 C8 8.98 8 10.96 8 13 C24.5 13 41 13 58 13 C57.505 10.03 57.505 10.03 57 7 C40.83 7 24.66 7 8 7 Z " fill="#676A78" transform="translate(240,118)"/>
<path d="M0 0 C0.495 1.98 0.495 1.98 1 4 C0.34 4 -0.32 4 -1 4 C-1 4.66 -1 5.32 -1 6 C0.25989746 5.83250244 1.51979492 5.66500488 2.81787109 5.49243164 C11.16358597 4.66458305 19.54066704 4.99029178 27.9140625 5.12109375 C29.5321385 5.14247913 31.15022133 5.16335449 32.76831055 5.18371582 C38.72062472 5.26215062 44.67280629 5.35040198 50.625 5.4375 C63.94875 5.623125 77.2725 5.80875 91 6 C91 40.65 91 75.3 91 111 C120.37 111 149.74 111 180 111 C179.67 107.37 179.34 103.74 179 100 C181 104 181 104 182 112 C151.97 112 121.94 112 91 112 C91 114.64 91 117.28 91 120 C122.68 120 154.36 120 187 120 C186.34 114.39 185.68 108.78 185 103 C186.485 102.01 186.485 102.01 188 101 C188.82351864 107.38226945 189.12086218 113.56744599 189 120 C189.66 120 190.32 120 191 120 C191 120.66 191 121.32 191 122 C158 122 125 122 91 122 C91 127.94 91 133.88 91 140 C33.91 140 -23.18 140 -82 140 C-82.33 96.77 -82.66 53.54 -83 9 C-83.33 52.56 -83.66 96.12 -84 141 C-84.99 141.33 -85.98 141.66 -87 142 C-60.83756675 142.78381272 -34.68453398 143.09997777 -8.51171875 143.09765625 C-7.42335024 143.09755971 -7.42335024 143.09755971 -6.31299448 143.09746122 C2.61701991 143.0958237 11.54701576 143.08552075 20.47701919 143.07202661 C29.65224556 143.05841715 38.82747729 143.05329345 48.0027113 143.04751682 C62.33515375 143.03828414 76.66755959 143.01831492 91 143 C91 163.13 91 183.26 91 204 C151.72 204 212.44 204 275 204 C275 204.33 275 204.66 275 205 C154.22 205 33.44 205 -91 205 C-91 141 -91 141 -90 140 C-88.33382885 139.95936168 -86.66611905 139.957279 -85 140 C-85.00607553 139.30516793 -85.01215105 138.61033587 -85.01841068 137.89444828 C-85.16568529 121.01180015 -85.30742824 104.12911565 -85.4429636 87.24636936 C-85.50864096 79.08210804 -85.57621192 70.91787048 -85.64819336 62.75366211 C-85.71090491 55.64031499 -85.77011188 48.52694896 -85.82505554 41.41353744 C-85.85428954 37.64472343 -85.88531561 33.87594287 -85.92053413 30.10717964 C-85.95972005 25.90685211 -85.99108368 21.70650204 -86.02172852 17.50610352 C-86.03467453 16.24734909 -86.04762054 14.98859467 -86.06095886 13.69169617 C-86.06799835 12.55441071 -86.07503784 11.41712524 -86.08229065 10.24537659 C-86.09058679 9.25076196 -86.09888292 8.25614733 -86.10743046 7.23139286 C-86 5 -86 5 -85 4 C-82.47458998 3.90495749 -79.97662874 3.87442842 -77.45092773 3.88647461 C-76.26564987 3.88625557 -76.26564987 3.88625557 -75.056427 3.8860321 C-72.43212178 3.88673143 -69.80788664 3.89452473 -67.18359375 3.90234375 C-65.36898335 3.90420786 -63.55437244 3.9056318 -61.73976135 3.90663147 C-56.9540977 3.91045721 -52.1684642 3.92028796 -47.3828125 3.93133545 C-42.50325936 3.94154837 -37.62370136 3.94612883 -32.74414062 3.95117188 C-23.16274714 3.96191018 -13.58137607 3.97898727 -4 4 C-4 3.01 -4 2.02 -4 1 C-2 0 -2 0 0 0 Z " fill="#7C7F91" transform="translate(197,256)"/>
<path d="M0 0 C22.11 0 44.22 0 67 0 C67.33 1.98 67.66 3.96 68 6 C66.68 6.33 65.36 6.66 64 7 C64 8.98 64 10.96 64 13 C64.99265114 12.97787697 64.99265114 12.97787697 66.00535583 12.95530701 C72.86648703 12.80338551 79.72774091 12.6585163 86.58911133 12.51782227 C89.15295219 12.46431065 91.71675563 12.40897457 94.28051758 12.35180664 C97.95646083 12.27015057 101.63248687 12.19496468 105.30859375 12.12109375 C107.03981728 12.08054115 107.03981728 12.08054115 108.80601501 12.03916931 C110.3975515 12.00902489 110.3975515 12.00902489 112.02124023 11.97827148 C113.43021828 11.94829323 113.43021828 11.94829323 114.86766052 11.91770935 C117 12 117 12 118 13 C119.49239489 13.13335337 120.99054774 13.20343269 122.48828125 13.24609375 C123.41656738 13.27735352 124.34485352 13.30861328 125.30126953 13.34082031 C126.29497559 13.37272461 127.28868164 13.40462891 128.3125 13.4375 C141.37101332 13.96845284 152.03321167 15.44096003 164 21 C164 21.66 164 22.32 164 23 C164.825 23.226875 165.65 23.45375 166.5 23.6875 C170.64657501 25.24246563 174.62658475 27.08549804 178 30 C178.73046875 32.1640625 178.73046875 32.1640625 179 34 C179.57234375 34.08507812 180.1446875 34.17015625 180.734375 34.2578125 C183.65560717 35.21476786 185.09680721 36.69788284 187.25 38.875 C187.95640625 39.57367188 188.6628125 40.27234375 189.390625 40.9921875 C191 43 191 43 191 46 C191.99 46.33 192.98 46.66 194 47 C197.46914979 51.44762794 200.26495217 56.0769139 203 61 C203.495 61.804375 203.99 62.60875 204.5 63.4375 C208.19345912 69.74715933 210.76754285 76.01265397 212.9921875 82.984375 C213.92132841 85.76459507 214.98010061 88.42812589 216.125 91.125 C218.63913477 97.26186439 220 103.36576241 220 110 C219.34 110 218.68 110 218 110 C218.12568359 110.95712891 218.12568359 110.95712891 218.25390625 111.93359375 C218.35574219 112.75988281 218.45757812 113.58617187 218.5625 114.4375 C218.66691406 115.26121094 218.77132813 116.08492188 218.87890625 116.93359375 C218.91886719 117.61550781 218.95882813 118.29742187 219 119 C217.07629637 120.92370363 213.48670527 120.19433605 210.86254883 120.22119141 C210.10835694 120.23266897 209.35416506 120.24414654 208.57711887 120.25597191 C206.03713237 120.29301243 203.49712096 120.32251377 200.95703125 120.3515625 C199.15198502 120.37520228 197.34694152 120.39905119 195.54190063 120.4230957 C190.64980614 120.48604776 185.75765316 120.5407372 180.86542892 120.59253693 C177.82450735 120.62487232 174.7836077 120.65888003 171.7427063 120.6930542 C143.16023855 121.00733716 114.58949869 121.03697076 86.00762558 120.65892792 C83.43182444 120.62492508 80.8560056 120.59260548 78.28018188 120.56036377 C74.26005448 120.50889329 70.24007844 120.45084473 66.22013474 120.3866272 C64.75050335 120.36345668 63.28084955 120.34166232 61.8111763 120.32131958 C59.82252669 120.29291097 57.83398415 120.25727412 55.84545898 120.22119141 C54.73347641 120.20263092 53.62149384 120.18407043 52.47581482 120.16494751 C50 120 50 120 49 119 C48.64477669 117.44272636 48.34180274 115.87344611 48.0625 114.30078125 C47.88976562 113.33849609 47.71703125 112.37621094 47.5390625 111.38476562 C47.36117187 110.37091797 47.18328125 109.35707031 47 108.3125 C46.73316406 106.82073242 46.73316406 106.82073242 46.4609375 105.29882812 C45.61189588 100.53722529 44.78065271 95.77336605 44 91 C43.34 91 42.68 91 42 91 C42.27714844 92.07636719 42.55429687 93.15273437 42.83984375 94.26171875 C45.08502906 103.22701146 46.67764909 111.73241127 47 121 C38.52548093 123.5614302 30.0674582 125.7505915 21.39501953 127.51660156 C17.85803345 128.26047569 14.53992834 129.11672013 11.1796875 130.45703125 C6.09500765 132.45221405 0.83328255 133.5043881 -4.5 134.625 C-5.49386719 134.8415625 -6.48773438 135.058125 -7.51171875 135.28125 C-12.99796333 136.45532084 -18.42125534 137.40227736 -24 138 C-24 138.66 -24 139.32 -24 140 C-26.97 140.33 -29.94 140.66 -33 141 C-32.93489583 138.75390625 -32.86979167 136.5078125 -32.8046875 134.26171875 C-32.84182678 131.71611424 -32.84182678 131.71611424 -35 129 C-38.5408862 128.53409392 -41.03756971 128.98977944 -44 131 C-44.77772405 133.33317216 -45.42415568 135.61435923 -46 138 C-46.66 138 -47.32 138 -48 138 C-48.09578339 137.10321533 -48.19156677 136.20643066 -48.29025269 135.2824707 C-49.19641794 126.80785069 -50.1080008 118.33383443 -51.02558708 109.86044312 C-51.49707357 105.50476753 -51.96650402 101.14889126 -52.43115234 96.79248047 C-52.88011335 92.58388038 -53.33458394 88.37590772 -53.79278946 84.16830444 C-53.96615771 82.56746311 -54.13758054 80.96640979 -54.3069725 79.36514282 C-54.54560344 77.11261853 -54.79130672 74.8609654 -55.03857422 72.609375 C-55.24509109 70.6907666 -55.24509109 70.6907666 -55.45578003 68.73339844 C-56.04264456 64.70745447 -56.98488784 60.93801692 -58 57 C-58.23142057 55.60800615 -58.43400502 54.2100921 -58.57836914 52.80639648 C-58.65507339 52.08882675 -58.73177765 51.37125702 -58.81080627 50.63194275 C-58.88484177 49.88586258 -58.95887726 49.13978241 -59.03515625 48.37109375 C-59.11873886 47.57776138 -59.20232147 46.78442902 -59.28843689 45.96705627 C-59.55183007 43.45772885 -59.80749252 40.94769214 -60.0625 38.4375 C-60.32262527 35.92392185 -60.58437926 33.41052192 -60.84727478 30.89723206 C-61.00951164 29.34139354 -61.16991625 27.78536244 -61.32814026 26.22911072 C-61.7840683 21.80064389 -62.34211768 17.40314082 -63 13 C-62.01 12.34 -61.02 11.68 -60 11 C-59.67 11.33 -59.34 11.66 -59 12 C-57.06776005 12.12357078 -55.13106201 12.17794458 -53.19506836 12.20532227 C-51.95385727 12.22526749 -50.71264618 12.24521271 -49.43382263 12.26576233 C-48.0691643 12.28274793 -46.70450463 12.29962669 -45.33984375 12.31640625 C-43.95121125 12.33696936 -42.5625851 12.35796566 -41.17396545 12.37937927 C-37.51285941 12.43466647 -33.85169627 12.48404626 -30.19049072 12.53222656 C-26.45702003 12.58239321 -22.72363262 12.63810446 -18.99023438 12.69335938 C-11.6602267 12.80102218 -4.33014995 12.90244894 3 13 C2.505 10.03 2.505 10.03 2 7 C0.02 6.67 -1.96 6.34 -4 6 C-4 4.68 -4 3.36 -4 2 C-2.68 2 -1.36 2 0 2 C0 1.34 0 0.68 0 0 Z M8 7 C8 8.98 8 10.96 8 13 C24.5 13 41 13 58 13 C57.505 10.03 57.505 10.03 57 7 C40.83 7 24.66 7 8 7 Z " fill="#8F94A7" transform="translate(240,118)"/>
<path d="M0 0 C1.23169922 -0.020625 2.46339844 -0.04125 3.73242188 -0.0625 C4.91513672 -0.06765625 6.09785156 -0.0728125 7.31640625 -0.078125 C8.3947876 -0.0874707 9.47316895 -0.09681641 10.58422852 -0.10644531 C13.8002669 0.2953187 15.03404156 1.15302729 17.4375 3.25 C19.09138438 3.94777409 20.7591572 4.61329939 22.4375 5.25 C30.2463716 9.01649106 36.8637874 13.62630899 43.4375 19.25 C44.17226562 19.86230469 44.90703125 20.47460938 45.6640625 21.10546875 C49.70573393 24.53407766 53.17676926 28.04537352 56.4375 32.25 C56.91960937 32.86746094 57.40171875 33.48492187 57.8984375 34.12109375 C67.4375 46.54124365 67.4375 46.54124365 67.4375 50.25 C68.0975 50.25 68.7575 50.25 69.4375 50.25 C77.50491216 68.34662677 83.00895202 87.30303962 83.4375 107.25 C74.96298093 109.8114302 66.5049582 112.0005915 57.83251953 113.76660156 C54.29553345 114.51047569 50.97742834 115.36672013 47.6171875 116.70703125 C42.53250765 118.70221405 37.27078255 119.7543881 31.9375 120.875 C30.94363281 121.0915625 29.94976562 121.308125 28.92578125 121.53125 C23.43953667 122.70532084 18.01624466 123.65227736 12.4375 124.25 C12.4375 124.91 12.4375 125.57 12.4375 126.25 C7.9825 126.745 7.9825 126.745 3.4375 127.25 C3.50260417 125.00390625 3.56770833 122.7578125 3.6328125 120.51171875 C3.59567322 117.96611424 3.59567322 117.96611424 1.4375 115.25 C-2.1033862 114.78409392 -4.60006971 115.23977944 -7.5625 117.25 C-8.34022405 119.58317216 -8.98665568 121.86435923 -9.5625 124.25 C-10.2225 124.25 -10.8825 124.25 -11.5625 124.25 C-11.65828339 123.35321533 -11.75406677 122.45643066 -11.85275269 121.5324707 C-12.75891794 113.05785069 -13.6705008 104.58383443 -14.58808708 96.11044312 C-15.05957357 91.75476753 -15.52900402 87.39889126 -15.99365234 83.04248047 C-16.44261335 78.83388038 -16.89708394 74.62590772 -17.35528946 70.41830444 C-17.52865771 68.81746311 -17.70008054 67.21640979 -17.8694725 65.61514282 C-18.10810344 63.36261853 -18.35380672 61.1109654 -18.60107422 58.859375 C-18.73875214 57.58030273 -18.87643005 56.30123047 -19.01828003 54.98339844 C-19.60521113 50.95699776 -20.53835582 47.18593075 -21.5625 43.25 C-21.89239649 41.05982715 -22.17779534 38.86239753 -22.4140625 36.66015625 C-22.54296875 35.46326172 -22.671875 34.26636719 -22.8046875 33.03320312 C-22.93101562 31.80537109 -23.05734375 30.57753906 -23.1875 29.3125 C-23.3215625 28.08853516 -23.455625 26.86457031 -23.59375 25.60351562 C-24.27813132 19.11236834 -24.71738728 12.77638687 -24.5625 6.25 C-23.9025 6.25 -23.2425 6.25 -22.5625 6.25 C-22.5625 5.26 -22.5625 4.27 -22.5625 3.25 C-21.2425 3.25 -19.9225 3.25 -18.5625 3.25 C-18.5625 2.59 -18.5625 1.93 -18.5625 1.25 C-12.41424347 -0.17052553 -6.28055415 0.02637503 0 0 Z " fill="#7D8091" transform="translate(203.5625,131.75)"/>
<path d="M0 0 C22.11 0 44.22 0 67 0 C67.33 1.98 67.66 3.96 68 6 C66.68 6.33 65.36 6.66 64 7 C64 8.98 64 10.96 64 13 C64.99265114 12.97787697 64.99265114 12.97787697 66.00535583 12.95530701 C72.86648703 12.80338551 79.72774091 12.6585163 86.58911133 12.51782227 C89.15295219 12.46431065 91.71675563 12.40897457 94.28051758 12.35180664 C97.95646083 12.27015057 101.63248687 12.19496468 105.30859375 12.12109375 C107.03981728 12.08054115 107.03981728 12.08054115 108.80601501 12.03916931 C110.3975515 12.00902489 110.3975515 12.00902489 112.02124023 11.97827148 C113.43021828 11.94829323 113.43021828 11.94829323 114.86766052 11.91770935 C117 12 117 12 118 13 C119.57422314 13.14522077 121.15439392 13.227145 122.734375 13.28125 C123.70117188 13.31863281 124.66796875 13.35601562 125.6640625 13.39453125 C126.68242187 13.42933594 127.70078125 13.46414062 128.75 13.5 C130.74492293 13.56923254 132.73972588 13.64203273 134.734375 13.71875 C136.06807129 13.76418945 136.06807129 13.76418945 137.42871094 13.81054688 C140.0222365 14.00163839 142.46363175 14.43636261 145 15 C144.67 15.66 144.34 16.32 144 17 C142.741875 17.020625 141.48375 17.04125 140.1875 17.0625 C139.47980469 17.07410156 138.77210938 17.08570313 138.04296875 17.09765625 C136 17 136 17 133 16 C131.66636297 15.85596652 130.32781954 15.75409577 128.98828125 15.68359375 C128.23095703 15.64169922 127.47363281 15.59980469 126.69335938 15.55664062 C125.51483398 15.49766602 125.51483398 15.49766602 124.3125 15.4375 C123.51521484 15.39431641 122.71792969 15.35113281 121.89648438 15.30664062 C119.93118553 15.20072632 117.96561504 15.09987449 116 15 C116.17390259 16.11072876 116.17390259 16.11072876 116.35131836 17.24389648 C116.88207839 20.64145031 117.40980993 24.03946807 117.9375 27.4375 C118.21110352 29.18450195 118.21110352 29.18450195 118.49023438 30.96679688 C119.47183453 37.30257972 120.35189316 43.62126425 121 50 C120.01 50.495 120.01 50.495 119 51 C117.86649466 53.01669827 117.86649466 53.01669827 117 55 C116.67 55 116.34 55 116 55 C115.67 52.69 115.34 50.38 115 48 C115.54221709 58.52150867 116.45556056 68.94598805 117.72949219 79.40380859 C118.00401811 81.6579935 118.27204483 83.91288318 118.5390625 86.16796875 C119.25182541 92.13277652 119.96864858 98.0799972 121 104 C120.01 104.495 120.01 104.495 119 105 C117.87264993 102.74529986 117.67617915 101.0504961 117.38330078 98.5480957 C117.27293488 97.62144608 117.16256897 96.69479645 117.04885864 95.74006653 C116.8738533 94.22324532 116.8738533 94.22324532 116.6953125 92.67578125 C116.50834305 91.09714546 116.50834305 91.09714546 116.31759644 89.48661804 C115.91653491 86.09565052 115.52050035 82.70412026 115.125 79.3125 C114.60872465 74.91252875 114.08998323 70.51285264 113.5703125 66.11328125 C113.37867523 64.48218918 113.37867523 64.48218918 113.1831665 62.81814575 C112.17760983 54.3226347 111.08232012 45.84060954 109.90774536 37.36677551 C109.78849701 36.48414536 109.66924866 35.6015152 109.54638672 34.69213867 C109.44059296 33.92745773 109.33479919 33.16277679 109.22579956 32.37492371 C108.95946277 29.5736359 108.96452043 26.81219157 109 24 C108.12204269 24.00553076 108.12204269 24.00553076 107.22634888 24.01117325 C92.9616566 24.0996448 78.69698888 24.16576808 64.43208313 24.20724869 C57.53356043 24.22784344 50.63522127 24.25590444 43.73681641 24.30175781 C37.07783489 24.34599851 30.4190833 24.36914681 23.75994873 24.37950897 C21.22105918 24.38689229 18.6821799 24.40131015 16.14337158 24.42292023 C12.58363415 24.45201172 9.02468118 24.45595342 5.46484375 24.45410156 C3.89498466 24.47567322 3.89498466 24.47567322 2.29341125 24.49768066 C-4.15367923 24.46145602 -8.5153258 23.37624344 -14 20 C-14.82371094 19.59394531 -15.64742187 19.18789062 -16.49609375 18.76953125 C-21.88888889 16.11111111 -21.88888889 16.11111111 -23 15 C-25.3756852 14.9116033 -27.72208674 14.88469695 -30.09765625 14.90234375 C-30.80651474 14.9037587 -31.51537323 14.90517365 -32.24571228 14.90663147 C-34.51801712 14.91224557 -36.79022475 14.92480037 -39.0625 14.9375 C-40.59960796 14.94251319 -42.13671745 14.94707641 -43.67382812 14.95117188 C-47.44925642 14.96221958 -51.22461171 14.97949359 -55 15 C-55 15.66 -55 16.32 -55 17 C-55.99 17.33 -56.98 17.66 -58 18 C-58.33 18.99 -58.66 19.98 -59 21 C-59.99 20.67 -60.98 20.34 -62 20 C-62.33 17.69 -62.66 15.38 -63 13 C-62.01 12.34 -61.02 11.68 -60 11 C-59.67 11.33 -59.34 11.66 -59 12 C-57.06776005 12.12357078 -55.13106201 12.17794458 -53.19506836 12.20532227 C-51.95385727 12.22526749 -50.71264618 12.24521271 -49.43382263 12.26576233 C-48.0691643 12.28274793 -46.70450463 12.29962669 -45.33984375 12.31640625 C-43.95121125 12.33696936 -42.5625851 12.35796566 -41.17396545 12.37937927 C-37.51285941 12.43466647 -33.85169627 12.48404626 -30.19049072 12.53222656 C-26.45702003 12.58239321 -22.72363262 12.63810446 -18.99023438 12.69335938 C-11.6602267 12.80102218 -4.33014995 12.90244894 3 13 C2.505 10.03 2.505 10.03 2 7 C0.02 6.67 -1.96 6.34 -4 6 C-4 4.68 -4 3.36 -4 2 C-2.68 2 -1.36 2 0 2 C0 1.34 0 0.68 0 0 Z M8 7 C8 8.98 8 10.96 8 13 C24.5 13 41 13 58 13 C57.505 10.03 57.505 10.03 57 7 C40.83 7 24.66 7 8 7 Z " fill="#888B97" transform="translate(240,118)"/>
<path d="M0 0 C0.66 0 1.32 0 2 0 C2 2.31 2 4.62 2 7 C3.98 7 5.96 7 8 7 C8 7.66 8 8.32 8 9 C-22.69 9 -53.38 9 -85 9 C-85 9.66 -85 10.32 -85 11 C-84.01 10.67 -83.02 10.34 -82 10 C-79.42923471 9.90901775 -76.88618965 9.87393962 -74.31567383 9.88647461 C-73.5349501 9.88632858 -72.75422638 9.88618256 -71.94984436 9.8860321 C-69.36887841 9.88672886 -66.7879846 9.89451018 -64.20703125 9.90234375 C-62.41769958 9.90420877 -60.6283674 9.90563228 -58.83903503 9.90663147 C-54.12902416 9.91045001 -49.41904411 9.92027467 -44.70904541 9.93133545 C-39.90303972 9.94156379 -35.09702906 9.94613214 -30.29101562 9.95117188 C-20.86066354 9.96189751 -11.43033433 9.97896601 -2 10 C-2 10.33 -2 10.66 -2 11 C-28.73 11.33 -55.46 11.66 -83 12 C-82.01 21.9 -81.02 31.8 -80 42 C-80 44.31 -80 46.62 -80 49 C-79.37351562 48.97679687 -78.74703125 48.95359375 -78.1015625 48.9296875 C-77.28429687 48.91164063 -76.46703125 48.89359375 -75.625 48.875 C-74.81289063 48.85179687 -74.00078125 48.82859375 -73.1640625 48.8046875 C-71 49 -71 49 -69 51 C-68.75 54.5 -68.75 54.5 -69 58 C-71 60 -71 60 -74.2578125 60.1953125 C-76.17207031 60.16050781 -76.17207031 60.16050781 -78.125 60.125 C-80.04699219 60.09792969 -80.04699219 60.09792969 -82.0078125 60.0703125 C-82.99523437 60.04710937 -83.98265625 60.02390625 -85 60 C-84.77183594 61.25296875 -84.54367187 62.5059375 -84.30859375 63.796875 C-84.01779862 65.44784089 -83.72745776 67.09888684 -83.4375 68.75 C-83.28603516 69.575 -83.13457031 70.4 -82.97851562 71.25 C-82.83994141 72.04921875 -82.70136719 72.8484375 -82.55859375 73.671875 C-82.42767334 74.4050293 -82.29675293 75.13818359 -82.16186523 75.89355469 C-81.98752588 78.16233287 -82.33125193 79.83778579 -83 82 C-83.66 81.67 -84.32 81.34 -85 81 C-85.57836914 78.17114258 -85.57836914 78.17114258 -86.03515625 74.39453125 C-86.11873886 73.71887619 -86.20232147 73.04322113 -86.28843689 72.34709167 C-86.46492984 70.90582736 -86.63695633 69.46401035 -86.80493164 68.02172852 C-87.05633064 65.86541611 -87.32073284 63.71105071 -87.58789062 61.55664062 C-88.95968391 50.30675074 -90.10502754 39.06486088 -89.97265625 27.71875 C-89.9524757 17.19375742 -89.9524757 17.19375742 -92 7 C-92 5.68 -92 4.36 -92 3 C-89.525 3.495 -89.525 3.495 -87 4 C-87 4.66 -87 5.32 -87 6 C-85.35 5.67 -83.7 5.34 -82 5 C-82 5.66 -82 6.32 -82 7 C-54.94 7 -27.88 7 0 7 C0 4.69 0 2.38 0 0 Z " fill="#636570" transform="translate(457,253)"/>
<path d="M0 0 C0.33808686 2.06172613 0.67027361 4.1244203 1 6.1875 C1.185625 7.33605469 1.37125 8.48460937 1.5625 9.66796875 C2 13 2 13 2 18 C-23.41 18 -48.82 18 -75 18 C-75 17.67 -75 17.34 -75 17 C-74.0255896 16.78851318 -74.0255896 16.78851318 -73.03149414 16.57275391 C-70.04178023 15.92372898 -67.05213973 15.27436653 -64.0625 14.625 C-63.04091797 14.40328125 -62.01933594 14.1815625 -60.96679688 13.953125 C-58.93334027 13.51135168 -56.90029634 13.0676745 -54.86767578 12.62207031 C-53.08706618 12.23581173 -51.30447013 11.85845741 -49.51904297 11.49511719 C-45.24526777 10.6082285 -41.37779969 9.39974628 -37.30371094 7.79394531 C-32.20813221 6.0378175 -26.88170644 5.03345469 -21.625 3.875 C-19.28335779 3.35378757 -16.94218501 2.83046017 -14.6015625 2.3046875 C-13.57369629 2.07765137 -12.54583008 1.85061523 -11.48681641 1.61669922 C-7.33067807 0.58602914 -4.44664205 -0.08234522 0 0 Z " fill="#7C7E90" transform="translate(287,242)"/>
<path d="M0 0 C4.40584409 0.06260855 8.81191314 0.08903763 13.21807861 0.11901855 C21.78442581 0.18238511 30.34971812 0.28406926 38.91534424 0.4119873 C38.91534424 0.7419873 38.91534424 1.0719873 38.91534424 1.4119873 C15.15534424 1.4119873 -8.60465576 1.4119873 -33.08465576 1.4119873 C-32.58965576 4.8769873 -32.58965576 4.8769873 -32.08465576 8.4119873 C-32.08465576 12.7019873 -32.08465576 16.9919873 -32.08465576 21.4119873 C-7.99465576 21.4119873 16.09534424 21.4119873 40.91534424 21.4119873 C40.91534424 21.7419873 40.91534424 22.0719873 40.91534424 22.4119873 C-10.23465576 22.4119873 -61.38465576 22.4119873 -114.08465576 22.4119873 C-113.58965576 20.9269873 -113.58965576 20.9269873 -113.08465576 19.4119873 C-110.77465576 19.4119873 -108.46465576 19.4119873 -106.08465576 19.4119873 C-106.08465576 18.7519873 -106.08465576 18.0919873 -106.08465576 17.4119873 C-105.35988037 17.24593994 -104.63510498 17.07989258 -103.8883667 16.90881348 C-100.53685123 16.14024689 -97.18575298 15.36987542 -93.83465576 14.5994873 C-92.69512451 14.33845215 -91.55559326 14.07741699 -90.38153076 13.80847168 C-86.94717714 13.01818008 -83.51521845 12.21857209 -80.08465576 11.4119873 C-78.96381592 11.14853516 -77.84297607 10.88508301 -76.68817139 10.61364746 C-75.62791748 10.35760742 -74.56766357 10.10156738 -73.47528076 9.83776855 C-72.53200928 9.61129639 -71.58873779 9.38482422 -70.61688232 9.15148926 C-68.14242159 8.51582958 -68.14242159 8.51582958 -66.23274231 7.45918274 C-46.33474529 -2.24112084 -21.45289682 -0.33838499 0 0 Z M-49.33465576 5.0994873 C-50.01068848 5.27592773 -50.68672119 5.45236816 -51.38323975 5.63415527 C-52.84247752 6.01615122 -54.30070476 6.40202444 -55.75799561 6.79138184 C-58.20432952 7.44390868 -60.65381841 8.08338161 -63.10418701 8.72058105 C-71.81404214 10.97872725 -71.81404214 10.97872725 -80.47918701 13.40026855 C-85.19316029 14.72304112 -89.94507358 15.8500726 -94.70965576 16.9744873 C-95.63778076 17.19556152 -96.56590576 17.41663574 -97.52215576 17.64440918 C-101.6993591 18.63484923 -105.87097517 19.58769365 -110.08465576 20.4119873 C-110.08465576 20.7419873 -110.08465576 21.0719873 -110.08465576 21.4119873 C-84.67465576 21.4119873 -59.26465576 21.4119873 -33.08465576 21.4119873 C-33.57965576 17.4519873 -33.57965576 17.4519873 -34.08465576 13.4119873 C-34.2799636 11.57946931 -34.46882609 9.74623535 -34.64715576 7.9119873 C-34.73094482 7.0560498 -34.81473389 6.2001123 -34.90106201 5.3182373 C-34.96164795 4.6891748 -35.02223389 4.0601123 -35.08465576 3.4119873 C-40.1648123 3.23613573 -44.42735332 3.80079743 -49.33465576 5.0994873 Z " fill="#3F414D" transform="translate(322.08465576171875,238.5880126953125)"/>
<path d="M0 0 C0.33 0 0.66 0 1 0 C1 6.27 1 12.54 1 19 C59.08 19 117.16 19 177 19 C177 19.33 177 19.66 177 20 C118.92 20 60.84 20 1 20 C1 40.13 1 60.26 1 81 C0.67 81 0.34 81 0 81 C0 60.87 0 40.74 0 20 C-58.08 20 -116.16 20 -176 20 C-176 19.67 -176 19.34 -176 19 C-117.92 19 -59.84 19 0 19 C0 12.73 0 6.46 0 0 Z " fill="#3C3F4E" transform="translate(289,378)"/>
<path d="M0 0 C16.01993537 -0.02332916 32.03986526 -0.04097926 48.0598135 -0.05181217 C55.4976451 -0.05697509 62.93546617 -0.06401771 70.37329102 -0.07543945 C76.85381342 -0.08538641 83.33432819 -0.09185346 89.81485802 -0.09408849 C93.24830542 -0.09539558 96.681731 -0.0984813 100.11517143 -0.10573006 C103.94193821 -0.11374416 107.76868335 -0.11399113 111.59545898 -0.11352539 C112.74200455 -0.11712067 113.88855011 -0.12071594 115.06983948 -0.12442017 C116.6243129 -0.12235817 116.6243129 -0.12235817 118.21018982 -0.12025452 C119.11631232 -0.12117631 120.02243483 -0.1220981 120.95601559 -0.12304783 C123 0 123 0 124 1 C125.4490351 7.92316771 125.08788058 14.9597887 125 22 C124.67 22 124.34 22 124 22 C123.65725594 20.33524314 123.32635698 18.66804677 123 17 C122.7215625 15.6078125 122.7215625 15.6078125 122.4375 14.1875 C121.91839388 10.40544113 121.97253743 6.81729772 122 3 C121.08420685 3.00138269 121.08420685 3.00138269 120.14991283 3.00279331 C105.302751 3.02486595 90.45559074 3.04142007 75.60841656 3.05181217 C68.42847289 3.05697113 61.24854016 3.06400624 54.06860352 3.07543945 C47.81146465 3.08539848 41.55433372 3.09185634 35.29718715 3.09408849 C31.98328178 3.09539352 28.66940441 3.09898838 25.35550499 3.10573006 C21.65845756 3.11295428 17.96145761 3.11399035 14.2644043 3.11352539 C13.16245224 3.11712067 12.06050018 3.12071594 10.92515564 3.12442017 C9.41704315 3.12235817 9.41704315 3.12235817 7.87846375 3.12025452 C7.0036822 3.12117631 6.12890066 3.1220981 5.22761059 3.12304783 C3 3 3 3 0 2 C0 1.34 0 0.68 0 0 Z " fill="#999EB0" transform="translate(229,138)"/>
<path d="M0 0 C0.99 0.33 1.98 0.66 3 1 C2.67 45.55 2.34 90.1 2 136 C3.32 136.33 4.64 136.66 6 137 C4.33388095 137.042721 2.66617115 137.04063832 1 137 C0 136 0 136 -0.12304783 133.79984188 C-0.12212604 132.81997594 -0.12120424 131.84011 -0.12025452 130.83055115 C-0.12231651 129.14986542 -0.12231651 129.14986542 -0.12442017 127.43522644 C-0.11902725 125.57514702 -0.11902725 125.57514702 -0.11352539 123.67749023 C-0.11367142 122.38011932 -0.11381744 121.08274841 -0.1139679 119.74606323 C-0.11425586 116.17804071 -0.10835932 112.61005152 -0.10139394 109.04203677 C-0.09516021 105.3170938 -0.09455659 101.59215014 -0.09336853 97.86720276 C-0.09025527 90.80882637 -0.08204195 83.7504654 -0.07201904 76.69209582 C-0.06085774 68.65837029 -0.05534741 60.62464404 -0.05032361 52.5909127 C-0.03985934 36.06059943 -0.02226 19.53030168 0 3 C-0.62031034 3.07087043 -1.24062069 3.14174086 -1.87972832 3.21475887 C-7.52886705 3.82541167 -13.07501126 4.14111266 -18.75439453 4.11352539 C-19.56540115 4.11367142 -20.37640778 4.11381744 -21.21199036 4.1139679 C-23.85229308 4.11327965 -26.49252233 4.1055391 -29.1328125 4.09765625 C-30.97940024 4.09578819 -32.82598849 4.09436612 -34.6725769 4.09336853 C-39.50249633 4.08957388 -44.33238507 4.07977009 -49.16229248 4.06866455 C-54.10298243 4.05838438 -59.04367741 4.05385683 -63.984375 4.04882812 C-73.65626339 4.03814472 -83.32812913 4.0211055 -93 4 C-93 3.34 -93 2.68 -93 2 C-62.31 2 -31.62 2 0 2 C0 1.34 0 0.68 0 0 Z " fill="#7A7B81" transform="translate(465,260)"/>
<path d="M0 0 C23.1 0 46.2 0 70 0 C70 0.99 70 1.98 70 3 C70.66 3 71.32 3 72 3 C72 3.66 72 4.32 72 5 C48.24 5 24.48 5 0 5 C0 3.35 0 1.7 0 0 Z " fill="#6A6E7C" transform="translate(155,403)"/>
<path d="M0 0 C1.88529922 0.00666183 1.88529922 0.00666183 3.8086853 0.01345825 C4.50148087 0.0131662 5.19427643 0.01287415 5.9080658 0.01257324 C8.20237673 0.01396872 10.49636456 0.02953984 12.7906189 0.04519653 C14.37959618 0.0489259 15.96857575 0.05177323 17.55755615 0.05377197 C21.74319794 0.0614145 25.9287013 0.08106822 30.11428833 0.10317993 C34.38398363 0.12362508 38.65370127 0.13277083 42.9234314 0.14285278 C51.30370331 0.1643136 59.68386264 0.19845692 68.0640564 0.24050903 C68.5590564 2.71550903 68.5590564 2.71550903 69.0640564 5.24050903 C66.40227419 6.57140014 64.37666244 6.35319896 61.3999939 6.33816528 C60.27850952 6.33494263 59.15702515 6.33171997 58.0015564 6.32839966 C56.8259314 6.32002075 55.6503064 6.31164185 54.4390564 6.30300903 C53.25569702 6.29849731 52.07233765 6.2939856 50.8531189 6.28933716 C47.92338133 6.2775237 44.99374367 6.26105161 42.0640564 6.24050903 C42.0640564 5.58050903 42.0640564 4.92050903 42.0640564 4.24050903 C49.6540564 4.24050903 57.2440564 4.24050903 65.0640564 4.24050903 C65.0640564 3.58050903 65.0640564 2.92050903 65.0640564 2.24050903 C57.1440564 2.57050903 49.2240564 2.90050903 41.0640564 3.24050903 C41.0640564 4.23050903 41.0640564 5.22050903 41.0640564 6.24050903 C26.5440564 6.24050903 12.0240564 6.24050903 -2.9359436 6.24050903 C-3.5959436 4.92050903 -4.2559436 3.60050903 -4.9359436 2.24050903 C-2.9359436 0.24050903 -2.9359436 0.24050903 0 0 Z " fill="#686B7A" transform="translate(161.93594360351563,264.7594909667969)"/>
<path d="M0 0 C22.11 0 44.22 0 67 0 C67.495 2.97 67.495 2.97 68 6 C67.505 5.01 67.505 5.01 67 4 C59.4721901 4.10744117 51.94447293 4.22006227 44.41684151 4.33933926 C40.92164403 4.39455772 37.42643816 4.44797596 33.93115234 4.49731445 C29.91494504 4.55408436 25.89889555 4.61862219 21.8828125 4.68359375 C20.62445587 4.70030624 19.36609924 4.71701874 18.0696106 4.73423767 C16.90855804 4.75418289 15.74750549 4.77412811 14.55126953 4.79467773 C13.52534698 4.81022202 12.49942444 4.8257663 11.44241333 4.84178162 C8.99295812 4.8416631 8.99295812 4.8416631 7 6 C6.01 5.67 5.02 5.34 4 5 C4 5.66 4 6.32 4 7 C-1.75 7.125 -1.75 7.125 -4 6 C-4 4.68 -4 3.36 -4 2 C-2.68 2 -1.36 2 0 2 C0 1.34 0 0.68 0 0 Z " fill="#ABACB2" transform="translate(240,118)"/>
<path d="M0 0 C0 0.66 0 1.32 0 2 C-1.134375 1.979375 -2.26875 1.95875 -3.4375 1.9375 C-6.81575674 1.58422523 -6.81575674 1.58422523 -8 3 C-9.59610982 3.09333705 -11.19633428 3.11745372 -12.79516602 3.11352539 C-13.81614883 3.11344986 -14.83713165 3.11337433 -15.88905334 3.11329651 C-16.9994548 3.10813522 -18.10985626 3.10297394 -19.25390625 3.09765625 C-20.38448959 3.0962413 -21.51507294 3.09482635 -22.67991638 3.09336853 C-26.30747065 3.08775019 -29.93496424 3.07519458 -33.5625 3.0625 C-36.01497307 3.05748736 -38.4674471 3.05292405 -40.91992188 3.04882812 C-46.94663545 3.0377748 -52.97331339 3.02101884 -59 3 C-59 5.31 -59 7.62 -59 10 C-41.84 10 -24.68 10 -7 10 C-7 10.33 -7 10.66 -7 11 C-24.82 11 -42.64 11 -61 11 C-61 10.34 -61 9.68 -61 9 C-61.99 9 -62.98 9 -64 9 C-64.33 7.02 -64.66 5.04 -65 3 C-64.34 3 -63.68 3 -63 3 C-63 2.34 -63 1.68 -63 1 C-59.57797929 0.23643554 -56.36502242 -0.14677881 -52.86181641 -0.22119141 C-51.86372955 -0.24436432 -50.8656427 -0.26753723 -49.83731079 -0.29141235 C-48.76951385 -0.3112619 -47.70171692 -0.33111145 -46.6015625 -0.3515625 C-44.93907974 -0.38629166 -44.93907974 -0.38629166 -43.24301147 -0.42172241 C-40.90131028 -0.46928104 -38.55956108 -0.51452469 -36.21777344 -0.55761719 C-32.64498556 -0.62462517 -29.07254544 -0.70247281 -25.5 -0.78125 C-23.22136705 -0.82617887 -20.94272142 -0.87047069 -18.6640625 -0.9140625 C-17.60031403 -0.93796051 -16.53656555 -0.96185852 -15.44058228 -0.98648071 C-10.16162664 -1.07513994 -5.19807362 -0.94801871 0 0 Z " fill="#7E7E86" transform="translate(307,122)"/>
<path d="M0 0 C0.33 0 0.66 0 1 0 C1.82351864 6.38226945 2.12086218 12.56744599 2 19 C2.66 19 3.32 19 4 19 C4 19.66 4 20.32 4 21 C-28.67 21 -61.34 21 -95 21 C-95 20.34 -95 19.68 -95 19 C-63.65 19 -32.3 19 0 19 C-0.99 10.585 -0.99 10.585 -2 2 C-1.34 1.34 -0.68 0.68 0 0 Z " fill="#747983" transform="translate(384,357)"/>
<path d="M0 0 C0.66 0 1.32 0 2 0 C2.63137175 2.41515018 3.25508812 4.831904 3.875 7.25 C4.04902344 7.91257813 4.22304688 8.57515625 4.40234375 9.2578125 C5.99442985 15.5082246 6.92668757 21.56012542 8 28 C33.74 28.33 59.48 28.66 86 29 C86 29.66 86 30.32 86 31 C82.50058777 32.16647074 79.3547753 32.14763142 75.71459961 32.14526367 C74.60685432 32.15030159 74.60685432 32.15030159 73.47673035 32.15544128 C71.03525106 32.16494194 68.59384037 32.1668937 66.15234375 32.16796875 C64.45748364 32.17118104 62.76262381 32.17454509 61.06776428 32.17805481 C57.51611691 32.18404322 53.96449386 32.18589491 50.4128418 32.18530273 C45.85394216 32.18520092 41.29519761 32.19887414 36.7363348 32.21607494 C33.23713966 32.22717084 29.73798237 32.22922272 26.23877144 32.22869301 C24.55739366 32.22987596 22.87601498 32.2343153 21.19465446 32.24202538 C18.84832614 32.25178038 16.50233922 32.24896564 14.15600586 32.24291992 C13.45725342 32.24853943 12.75850098 32.25415894 12.03857422 32.25994873 C7.22831855 32.22831855 7.22831855 32.22831855 5 30 C4.42163086 27.77270508 4.42163086 27.77270508 3.96484375 25.01953125 C3.79533203 24.01986328 3.62582031 23.02019531 3.45117188 21.99023438 C3.28166016 20.94158203 3.11214844 19.89292969 2.9375 18.8125 C2.67743164 17.26852539 2.67743164 17.26852539 2.41210938 15.69335938 C1.53895672 10.4711705 0.71968053 5.24550652 0 0 Z " fill="#626573" transform="translate(282,209)"/>
<path d="M0 0 C0.66 0.33 1.32 0.66 2 1 C4.06223352 1.12048151 6.12828629 1.17740927 8.19384766 1.20532227 C10.14564438 1.2352401 10.14564438 1.2352401 12.13687134 1.26576233 C13.5626005 1.28274673 14.98833093 1.29962553 16.4140625 1.31640625 C17.86852613 1.33697521 19.32298377 1.35797166 20.7774353 1.37937927 C24.60786088 1.43460604 28.43834045 1.4840126 32.26885986 1.53222656 C36.1766847 1.5824372 40.084431 1.63812554 43.9921875 1.69335938 C51.66139185 1.80094833 59.33066145 1.90239162 67 2 C67 2.66 67 3.32 67 4 C66.32453125 4.03738281 65.6490625 4.07476562 64.953125 4.11328125 C64.06109375 4.17902344 63.1690625 4.24476563 62.25 4.3125 C61.36828125 4.37050781 60.4865625 4.42851562 59.578125 4.48828125 C56.66411032 5.06666901 55.32511461 6.2266075 53 8 C50.25 7.1875 50.25 7.1875 48 6 C47.67 6.99 47.34 7.98 47 9 C45.686298 8.3566152 44.37407102 7.71021785 43.0625 7.0625 C42.33160156 6.70285156 41.60070312 6.34320313 40.84765625 5.97265625 C39 5 39 5 38 4 C35.6243148 3.9116033 33.27791326 3.88469695 30.90234375 3.90234375 C30.19348526 3.9037587 29.48462677 3.90517365 28.75428772 3.90663147 C26.48198288 3.91224557 24.20977525 3.92480037 21.9375 3.9375 C20.40039204 3.94251319 18.86328255 3.94707641 17.32617188 3.95117188 C13.55074358 3.96221958 9.77538829 3.97949359 6 4 C6 4.66 6 5.32 6 6 C5.01 6.33 4.02 6.66 3 7 C2.67 7.99 2.34 8.98 2 10 C1.01 9.67 0.02 9.34 -1 9 C-1.625 5.625 -1.625 5.625 -2 2 C-1.34 1.34 -0.68 0.68 0 0 Z " fill="#88898F" transform="translate(179,129)"/>
<path d="M0 0 C4.38593787 0.07323362 8.77218894 0.10391543 13.15856934 0.13885498 C21.67631241 0.21263606 30.19260036 0.33114937 38.70935059 0.48065186 C38.70935059 0.81065186 38.70935059 1.14065186 38.70935059 1.48065186 C14.94935059 1.48065186 -8.81064941 1.48065186 -33.29064941 1.48065186 C-32.79564941 6.43065186 -32.79564941 6.43065186 -32.29064941 11.48065186 C-32.72814941 14.60565186 -32.72814941 14.60565186 -33.29064941 16.48065186 C-35.49978942 13.16694185 -35.51546494 12.13604976 -35.41564941 8.29315186 C-35.39760254 7.39209717 -35.37955566 6.49104248 -35.36096191 5.56268311 C-35.33775879 4.87561279 -35.31455566 4.18854248 -35.29064941 3.48065186 C-45.97242659 5.74752418 -56.63367959 8.10035361 -67.29064941 10.48065186 C-67.29064941 9.49065186 -67.29064941 8.50065186 -67.29064941 7.48065186 C-44.61790282 0.68633055 -23.52952453 -0.43643926 0 0 Z " fill="#2F3241" transform="translate(322.2906494140625,238.51934814453125)"/>
<path d="M0 0 C1.98 0 3.96 0 6 0 C6 0.99 6 1.98 6 3 C6.33 2.01 6.66 1.02 7 0 C8.45792884 -0.05399736 9.91642712 -0.09279177 11.375 -0.125 C12.18710937 -0.14820313 12.99921875 -0.17140625 13.8359375 -0.1953125 C16 0 16 0 18 2 C18.25 5.5 18.25 5.5 18 9 C16 11 16 11 12.5234375 11.1953125 C11.14049032 11.18201493 9.75761346 11.15816232 8.375 11.125 C7.66859375 11.11597656 6.9621875 11.10695313 6.234375 11.09765625 C4.48943902 11.07407603 2.74467705 11.03820461 1 11 C1.0103125 10.23171875 1.020625 9.4634375 1.03125 8.671875 C0.99981409 5.98410437 0.58159841 3.61719286 0 1 C0 0.67 0 0.34 0 0 Z " fill="#50525D" transform="translate(370,302)"/>
<path d="M0 0 C1.485 0.99 1.485 0.99 3 2 C2.67 2.99 2.34 3.98 2 5 C1.89803353 6.77586712 1.8536967 8.555278 1.84178162 10.33403015 C1.8319928 11.44040833 1.82220398 12.5467865 1.81211853 13.68669128 C1.80636307 14.9008522 1.8006076 16.11501312 1.79467773 17.3659668 C1.78477814 18.64412262 1.77487854 19.92227844 1.76467896 21.23916626 C1.7376358 24.74505513 1.71662306 28.25095745 1.69667697 31.75689292 C1.67481379 35.42045784 1.64742672 39.08398133 1.62062073 42.74751282 C1.57069834 49.68537823 1.52575783 56.62326665 1.48259836 63.56117707 C1.43322211 71.45955174 1.37830542 79.35788482 1.32291877 87.25621927 C1.20910569 103.50410785 1.10226518 119.75203455 1 136 C0.67 136 0.34 136 0 136 C-0.15375665 118.41550406 -0.30179372 100.83097063 -0.4429636 83.24636936 C-0.50864096 75.08210804 -0.57621192 66.91787048 -0.64819336 58.75366211 C-0.71090491 51.64031499 -0.77011188 44.52694896 -0.82505554 37.41353744 C-0.85428954 33.64472343 -0.88531561 29.87594287 -0.92053413 26.10717964 C-0.95972005 21.90685211 -0.99108368 17.70650204 -1.02172852 13.50610352 C-1.03467453 12.24734909 -1.04762054 10.98859467 -1.06095886 9.69169617 C-1.06799835 8.55441071 -1.07503784 7.41712524 -1.08229065 6.24537659 C-1.09058679 5.25076196 -1.09888292 4.25614733 -1.10743046 3.23139286 C-1 1 -1 1 0 0 Z " fill="#9A9BA1" transform="translate(112,260)"/>
<path d="M0 0 C14.52 0 29.04 0 44 0 C44 0.99 44 1.98 44 3 C29.48 3 14.96 3 0 3 C0 2.01 0 1.02 0 0 Z " fill="#585B6B" transform="translate(159,268)"/>
<path d="M0 0 C-0.33 0.66 -0.66 1.32 -1 2 C-2.258125 2.020625 -3.51625 2.04125 -4.8125 2.0625 C-5.52019531 2.07410156 -6.22789062 2.08570313 -6.95703125 2.09765625 C-9 2 -9 2 -12 1 C-13.33363703 0.85596652 -14.67218046 0.75409577 -16.01171875 0.68359375 C-17.14770508 0.62075195 -17.14770508 0.62075195 -18.30664062 0.55664062 C-19.48516602 0.49766602 -19.48516602 0.49766602 -20.6875 0.4375 C-21.48478516 0.39431641 -22.28207031 0.35113281 -23.10351562 0.30664062 C-25.06881447 0.20072632 -27.03438496 0.09987449 -29 0 C-29.33 1.65 -29.66 3.3 -30 5 C-30.99 5 -31.98 5 -33 5 C-33 3.35 -33 1.7 -33 0 C-49.17 0 -65.34 0 -82 0 C-82 -0.33 -82 -0.66 -82 -1 C-11.31680473 -2.7936882 -11.31680473 -2.7936882 0 0 Z " fill="#777A7E" transform="translate(385,133)"/>
<path d="M0 0 C0 0.66 0 1.32 0 2 C-1.093125 1.979375 -2.18625 1.95875 -3.3125 1.9375 C-6.94384191 1.81455548 -6.94384191 1.81455548 -10 3 C-11.61178466 3.0597187 -13.22616394 3.05903477 -14.83862305 3.02172852 C-15.8194133 3.00163223 -16.80020355 2.98153595 -17.81071472 2.96083069 C-18.86704605 2.93379562 -19.92337738 2.90676056 -21.01171875 2.87890625 C-22.09508011 2.85529526 -23.17844147 2.83168427 -24.29463196 2.80735779 C-27.7590542 2.73070914 -31.2232536 2.64668961 -34.6875 2.5625 C-37.03449426 2.50928054 -39.38149943 2.45654014 -41.72851562 2.40429688 C-47.48581534 2.27509233 -53.24294918 2.13983367 -59 2 C-58.67 1.34 -58.34 0.68 -58 0 C-50.86515864 -0.16880276 -43.73015553 -0.32858276 -36.5949707 -0.48217773 C-34.16914323 -0.5354517 -31.74335972 -0.59076892 -29.31762695 -0.64819336 C-25.82512894 -0.73051295 -22.3325373 -0.80541331 -18.83984375 -0.87890625 C-17.76041 -0.90594131 -16.68097626 -0.93297638 -15.5688324 -0.96083069 C-10.24381166 -1.06569107 -5.2427745 -0.9641511 0 0 Z " fill="#61626B" transform="translate(307,122)"/>
<path d="M0 0 C0.33 0 0.66 0 1 0 C1 1.65 1 3.3 1 5 C-24.41 5 -49.82 5 -76 5 C-76 4.67 -76 4.34 -76 4 C-68.575 2.515 -68.575 2.515 -61 1 C-61 1.99 -61 2.98 -61 4 C-40.87 4 -20.74 4 0 4 C0 2.68 0 1.36 0 0 Z " fill="#757886" transform="translate(288,255)"/>
<path d="M0 0 C0.1946838 2.77050026 0.38102792 5.54113002 0.5625 8.3125 C0.61857422 9.09818359 0.67464844 9.88386719 0.73242188 10.69335938 C0.78076172 11.45068359 0.82910156 12.20800781 0.87890625 12.98828125 C0.9260376 13.68477783 0.97316895 14.38127441 1.02172852 15.09887695 C1 17 1 17 0 20 C0.66 20 1.32 20 2 20 C2 21.65 2 23.3 2 25 C0.68 25.33 -0.64 25.66 -2 26 C-2.33725065 22.95872183 -2.66992332 19.91705809 -3 16.875 C-3.09539062 16.0190625 -3.19078125 15.163125 -3.2890625 14.28125 C-3.76845209 9.82977526 -4.11765458 5.48558075 -4 1 C-2 0 -2 0 0 0 Z " fill="#B4B5B8" transform="translate(183,140)"/>
<path d="M0 0 C0.66 0.33 1.32 0.66 2 1 C4.76931368 1.15691907 7.51734107 1.25843134 10.2890625 1.31640625 C11.51669815 1.3475779 11.51669815 1.3475779 12.76913452 1.37937927 C15.38766966 1.44484812 18.00630639 1.50374726 20.625 1.5625 C22.39844807 1.60568776 24.17188581 1.64930214 25.9453125 1.69335938 C30.29677046 1.80052676 34.64833077 1.90180169 39 2 C39 2.33 39 2.66 39 3 C22.665 3.495 22.665 3.495 6 4 C6 4.66 6 5.32 6 6 C5.01 6.33 4.02 6.66 3 7 C2.67 7.99 2.34 8.98 2 10 C1.01 9.67 0.02 9.34 -1 9 C-1.625 5.625 -1.625 5.625 -2 2 C-1.34 1.34 -0.68 0.68 0 0 Z " fill="#BCBCBD" transform="translate(179,129)"/>
<path d="M0 0 C0.33 0 0.66 0 1 0 C1.36181089 2.29047223 1.71423224 4.58242945 2.0625 6.875 C2.25972656 8.15117187 2.45695312 9.42734375 2.66015625 10.7421875 C3 14 3 14 2 16 C3.65 16 5.3 16 7 16 C5.68 16.33 4.36 16.66 3 17 C3.12117188 17.52464844 3.24234375 18.04929687 3.3671875 18.58984375 C5.18330912 26.98591371 6.06987195 35.47052786 7 44 C6.01 43.67 5.02 43.34 4 43 C3.42126701 38.64526516 2.85204507 34.28941547 2.29101562 29.93237305 C2.09951578 28.4551574 1.90557148 26.97825623 1.70898438 25.50170898 C0.57637662 16.9811471 -0.33299614 8.61743148 0 0 Z " fill="#727580" transform="translate(368,291)"/>
<path d="M0 0 C0.66 0 1.32 0 2 0 C2 0.99 2 1.98 2 3 C2.66 3 3.32 3 4 3 C4 3.66 4 4.32 4 5 C-19.1 5 -42.2 5 -66 5 C-66 4.67 -66 4.34 -66 4 C-65.20264435 3.98969254 -64.4052887 3.97938507 -63.58377075 3.96876526 C-56.0790848 3.87089432 -48.57448326 3.76839487 -41.06993294 3.66066074 C-37.21152754 3.60543434 -33.35311456 3.55201481 -29.49462891 3.50268555 C-25.77281878 3.45503779 -22.05110191 3.40269486 -18.32940292 3.34705925 C-16.90762522 3.32663755 -15.48582194 3.30792415 -14.06399918 3.29092598 C-12.07662369 3.26687819 -10.08933095 3.23626002 -8.10205078 3.20532227 C-6.96953888 3.18977798 -5.83702698 3.1742337 -4.67019653 3.15821838 C-2.02672207 3.17732998 -2.02672207 3.17732998 0 2 C0 1.34 0 0.68 0 0 Z " fill="#414552" transform="translate(223,403)"/>
<path d="M0 0 C-1.52064794 0.45894807 -3.04152948 0.91712214 -4.5625 1.375 C-5.40941406 1.63023437 -6.25632813 1.88546875 -7.12890625 2.1484375 C-10.41275956 3.12242392 -13.70614281 4.06041749 -17 5 C-18.2271875 5.36480469 -19.454375 5.72960937 -20.71875 6.10546875 C-22.59046875 6.64107422 -22.59046875 6.64107422 -24.5 7.1875 C-25.7478125 7.55230469 -26.995625 7.91710937 -28.28125 8.29296875 C-32.20746731 9.03944494 -35.10618425 8.7877952 -39 8 C-39 7.67 -39 7.34 -39 7 C-34.85430976 6.04104695 -30.70842193 5.0829508 -26.5625 4.125 C-24.81549805 3.72087891 -24.81549805 3.72087891 -23.03320312 3.30859375 C-20.74433849 2.77989826 -18.45479724 2.25412249 -16.16455078 1.73144531 C-14.20093398 1.27758048 -12.24023157 0.81063855 -10.28466797 0.32324219 C-6.4648239 -0.6084271 -3.76466571 -1.17132238 0 0 Z " fill="#4B4E5E" transform="translate(255,249)"/>
<path d="M0 0 C0.99 0 1.98 0 3 0 C3.33 8.25 3.66 16.5 4 25 C3.34 25 2.68 25 2 25 C1.67 25.99 1.34 26.98 1 28 C0.636565 23.70906486 0.2858188 19.41718655 -0.0625 15.125 C-0.16626953 13.90167969 -0.27003906 12.67835938 -0.37695312 11.41796875 C-0.47041016 10.25136719 -0.56386719 9.08476562 -0.66015625 7.8828125 C-0.74918213 6.80402832 -0.83820801 5.72524414 -0.92993164 4.61376953 C-1 2 -1 2 0 0 Z " fill="#BCBCBD" transform="translate(187,193)"/>
<path d="M0 0 C2.475 0.495 2.475 0.495 5 1 C5 2.32 5 3.64 5 5 C22.16 5 39.32 5 57 5 C57 5.33 57 5.66 57 6 C39.18 6 21.36 6 3 6 C3 5.34 3 4.68 3 4 C2.01 4 1.02 4 0 4 C0 2.68 0 1.36 0 0 Z " fill="#787A7E" transform="translate(243,127)"/>
<path d="M0 0 C0.33 0 0.66 0 1 0 C1.50780894 2.20655075 2.00591365 4.41533605 2.5 6.625 C2.7784375 7.85476562 3.056875 9.08453125 3.34375 10.3515625 C3.94091621 13.67152228 4.12409534 16.63908451 4 20 C3.34 20.33 2.68 20.66 2 21 C0.86649466 23.01669827 0.86649466 23.01669827 0 25 C-0.33 25 -0.66 25 -1 25 C-1.22245975 22.75135275 -1.42746557 20.50097377 -1.625 18.25 C-1.74101562 16.99703125 -1.85703125 15.7440625 -1.9765625 14.453125 C-1.99970706 11.04315917 -1.64562178 9.84243762 0 7 C0.0777346 4.66796188 0.08967728 2.33160941 0 0 Z " fill="#878A97" transform="translate(357,148)"/>
<path d="M0 0 C0.66 0 1.32 0 2 0 C4.66722343 9.96971865 6.78098161 19.73458198 8 30 C7.01 30 6.02 30 5 30 C4.35239023 26.31280972 3.707233 22.6251943 3.0625 18.9375 C2.88009766 17.89916016 2.69769531 16.86082031 2.50976562 15.79101562 C1.59221454 10.53595031 0.7124259 5.28695009 0 0 Z " fill="#616475" transform="translate(282,209)"/>
<path d="M0 0 C1.32 0 2.64 0 4 0 C4 0.66 4 1.32 4 2 C4.99 2 5.98 2 7 2 C7 2.66 7 3.32 7 4 C4.33821779 5.3308911 2.31260604 5.11268993 -0.6640625 5.09765625 C-1.78554687 5.09443359 -2.90703125 5.09121094 -4.0625 5.08789062 C-5.238125 5.07951172 -6.41375 5.07113281 -7.625 5.0625 C-8.80835938 5.05798828 -9.99171875 5.05347656 -11.2109375 5.04882812 C-14.14067507 5.03701467 -17.07031272 5.02054258 -20 5 C-20 4.34 -20 3.68 -20 3 C-12.41 3 -4.82 3 3 3 C3 2.34 3 1.68 3 1 C2.01 0.67 1.02 0.34 0 0 Z " fill="#494C5C" transform="translate(224,266)"/>
<path d="M0 0 C4.01065219 2.1167331 6.29194113 4.38925484 9 8 C9.47179687 8.46664062 9.94359375 8.93328125 10.4296875 9.4140625 C14.54048881 13.5657673 18.39121949 18.78243899 21 24 C20.67 24.66 20.34 25.32 20 26 C17.94679114 23.50681781 16.03152054 21.05019938 14.3125 18.3125 C11.65260975 14.1880548 8.17721608 10.73703647 4.828125 7.171875 C3 5 3 5 3 3 C2.01 2.67 1.02 2.34 0 2 C0 1.34 0 0.68 0 0 Z " fill="#5A5D6F" transform="translate(248,153)"/>
<path d="M0 0 C0.74701172 -0.00386719 1.49402344 -0.00773438 2.26367188 -0.01171875 C6.51509858 -0.00425356 10.50047691 0.28626405 14.6875 1.125 C14.6875 1.785 14.6875 2.445 14.6875 3.125 C6.1075 3.125 -2.4725 3.125 -11.3125 3.125 C-11.3125 2.465 -11.3125 1.805 -11.3125 1.125 C-7.51640266 -0.14036578 -3.95274984 -0.02014996 0 0 Z " fill="#616166" transform="translate(198.3125,131.875)"/>
<path d="M0 0 C0.33 0 0.66 0 1 0 C5.27899847 19.45733265 5.27899847 19.45733265 5 28 C4.34 28.66 3.68 29.32 3 30 C-0.57446809 9.46808511 -0.57446809 9.46808511 0 0 Z " fill="#747783" transform="translate(377,308)"/>
<path d="M0 0 C5.32468264 2.4079775 8.4296394 6.39844255 10.8125 11.625 C12 15 12 15 12 19 C11.34 19 10.68 19 10 19 C9.73445313 18.36191406 9.46890625 17.72382813 9.1953125 17.06640625 C8.84210938 16.24011719 8.48890625 15.41382813 8.125 14.5625 C7.60292969 13.32693359 7.60292969 13.32693359 7.0703125 12.06640625 C6.1755063 9.84253285 6.1755063 9.84253285 4 9 C2.9296875 6.93359375 2.9296875 6.93359375 1.875 4.4375 C1.52179688 3.61121094 1.16859375 2.78492188 0.8046875 1.93359375 C0.53914063 1.29550781 0.27359375 0.65742188 0 0 Z " fill="#7E8189" transform="translate(436,173)"/>
<path d="M0 0 C2.625 0.3125 2.625 0.3125 4.4375 1.9375 C5.94603306 4.95456612 5.97989252 6.97651029 5.625 10.3125 C4.635 11.7975 4.635 11.7975 3.625 13.3125 C2.635 12.9825 1.645 12.6525 0.625 12.3125 C0.955 11.6525 1.285 10.9925 1.625 10.3125 C1.66522391 7.9795134 1.66820247 5.64543334 1.625 3.3125 C-0.35036745 3.66036708 -0.35036745 3.66036708 -2.375 4.3125 C-2.705 4.9725 -3.035 5.6325 -3.375 6.3125 C-4.035 6.3125 -4.695 6.3125 -5.375 6.3125 C-3.10421109 0.40844883 -3.10421109 0.40844883 0 0 Z " fill="#444753" transform="translate(202.375,245.6875)"/>
<path d="M0 0 C0.33 0.66 0.66 1.32 1 2 C1.66 2 2.32 2 3 2 C3.96142017 4.20703372 4.91919537 6.41553533 5.875 8.625 C6.14441406 9.24246094 6.41382813 9.85992187 6.69140625 10.49609375 C11.59396701 21.85568576 11.59396701 21.85568576 10 26 C9.69707031 25.16597656 9.39414062 24.33195312 9.08203125 23.47265625 C6.78143445 17.2928993 4.41308283 11.50528047 0.91796875 5.90234375 C0 4 0 4 0 0 Z " fill="#535667" transform="translate(271,183)"/>
<path d="M0 0 C3.72915017 -0.02912348 7.4582709 -0.04684037 11.1875 -0.0625 C12.77014648 -0.07506836 12.77014648 -0.07506836 14.38476562 -0.08789062 C15.91713867 -0.09272461 15.91713867 -0.09272461 17.48046875 -0.09765625 C18.41785889 -0.10289307 19.35524902 -0.10812988 20.32104492 -0.11352539 C22.98049477 -0.00082657 25.40920573 0.40623351 28 1 C27.67 1.66 27.34 2.32 27 3 C25.741875 3.020625 24.48375 3.04125 23.1875 3.0625 C22.47980469 3.07410156 21.77210938 3.08570313 21.04296875 3.09765625 C19 3 19 3 16 2 C13.26710707 1.77202438 10.54957796 1.58331813 7.8125 1.4375 C7.06291016 1.39431641 6.31332031 1.35113281 5.54101562 1.30664062 C3.69421625 1.20077315 1.84713166 1.0999024 0 1 C0 0.67 0 0.34 0 0 Z " fill="#6F707C" transform="translate(357,132)"/>
<path d="M0 0 C2.125 0.375 2.125 0.375 4 1 C4 3.31 4 5.62 4 8 C2.35 8 0.7 8 -1 8 C-1.625 5.125 -1.625 5.125 -2 2 C-1.34 1.34 -0.68 0.68 0 0 Z " fill="#595C6B" transform="translate(379,441)"/>
<path d="M0 0 C0.99 0 1.98 0 3 0 C3 3.96 3 7.92 3 12 C2.01 11.67 1.02 11.34 0 11 C-0.19491452 9.54263913 -0.38069358 8.08405407 -0.5625 6.625 C-0.66691406 5.81289062 -0.77132812 5.00078125 -0.87890625 4.1640625 C-1 2 -1 2 0 0 Z " fill="#A0A0A4" transform="translate(187,193)"/>
<path d="M0 0 C0.33 0 0.66 0 1 0 C1.88277755 4.51815281 2.10589503 8.77512694 2.0625 13.375 C2.05347656 14.62023437 2.04445313 15.86546875 2.03515625 17.1484375 C2.02355469 18.08945313 2.01195312 19.03046875 2 20 C1.67 20 1.34 20 1 20 C-0.31973271 13.58986968 -1.36417153 7.55508753 -1 1 C-0.67 0.67 -0.34 0.34 0 0 Z " fill="#9599A7" transform="translate(352,140)"/>
<path d="M0 0 C0.33 0 0.66 0 1 0 C1.22237877 2.41611533 1.42832339 4.8317717 1.625 7.25 C1.68945312 7.93191406 1.75390625 8.61382812 1.8203125 9.31640625 C2.11594735 13.1227049 2.17561392 15.77809846 0 19 C-0.38838614 16.20959495 -0.76120046 13.41862114 -1.125 10.625 C-1.23714844 9.8309375 -1.34929687 9.036875 -1.46484375 8.21875 C-1.72721267 6.15478115 -1.87150738 4.07660649 -2 2 C-1.34 1.34 -0.68 0.68 0 0 Z " fill="#717580" transform="translate(384,357)"/>
<path d="M0 0 C0 3.3 0 6.6 0 10 C-0.99 10.33 -1.98 10.66 -3 11 C-3.66 7.7 -4.32 4.4 -5 1 C-2 0 -2 0 0 0 Z " fill="#898C98" transform="translate(357,137)"/>
<path d="M0 0 C2 3 2 3 2 5 C3.32 5.33 4.64 5.66 6 6 C5.01 6.33 4.02 6.66 3 7 C2.67 7.99 2.34 8.98 2 10 C1.01 9.67 0.02 9.34 -1 9 C-1.625 5.625 -1.625 5.625 -2 2 C-1.34 1.34 -0.68 0.68 0 0 Z " fill="#A1A1A2" transform="translate(179,129)"/>
<path d="M0 0 C0.66 0 1.32 0 2 0 C4.42857143 8.42857143 4.42857143 8.42857143 3 13 C0.41073669 10.41073669 0.62601957 8.97294721 0.375 5.375 C0.30023438 4.37210938 0.22546875 3.36921875 0.1484375 2.3359375 C0.09945313 1.56507813 0.05046875 0.79421875 0 0 Z " fill="#7A7A80" transform="translate(458,228)"/>
<path d="M0 0 C0.125 6.625 0.125 6.625 -1 10 C-1.66 10 -2.32 10 -3 10 C-3.33 7.03 -3.66 4.06 -4 1 C-2 0 -2 0 0 0 Z " fill="#A9AAAE" transform="translate(183,140)"/>
<path d="M0 0 C0.66 0 1.32 0 2 0 C2.66 3.96 3.32 7.92 4 12 C3.01 12 2.02 12 1 12 C0.67 8.04 0.34 4.08 0 0 Z " fill="#575B6A" transform="translate(286,227)"/>
<path d="M0 0 C3.89979817 0.59087851 6.17316128 2.47527059 9.1875 4.9375 C10.50814453 6.00291016 10.50814453 6.00291016 11.85546875 7.08984375 C14 9 14 9 15 11 C11.21205797 9.24585235 8.17133151 6.90609326 4.90234375 4.33984375 C2.9370042 2.81914723 2.9370042 2.81914723 0 2 C0 1.34 0 0.68 0 0 Z " fill="#575B6B" transform="translate(233,142)"/>
<path d="M0 0 C0.66 0 1.32 0 2 0 C2.33 0.99 2.66 1.98 3 3 C5.31 3 7.62 3 10 3 C10 3.66 10 4.32 10 5 C4.06 5.495 4.06 5.495 -2 6 C-2 5.34 -2 4.68 -2 4 C-1.34 4 -0.68 4 0 4 C0 2.68 0 1.36 0 0 Z " fill="#5D5E65" transform="translate(198,256)"/>
<path d="M0 0 C0.66 0.33 1.32 0.66 2 1 C2.17942163 4.94727588 2.09350689 7.5980513 0 11 C-0.66 11 -1.32 11 -2 11 C-2 8.36 -2 5.72 -2 3 C-1.34 3 -0.68 3 0 3 C0 2.01 0 1.02 0 0 Z " fill="#C3C4C5" transform="translate(194,245)"/>
<path d="M0 0 C3.9492568 0.55105909 7.34920174 1.38935371 11 3 C11 3.99 11 4.98 11 6 C9.5410574 5.52269162 8.08286504 5.04308958 6.625 4.5625 C5.81289063 4.29566406 5.00078125 4.02882812 4.1640625 3.75390625 C2 3 2 3 0 2 C0 1.34 0 0.68 0 0 Z " fill="#72757F" transform="translate(391,135)"/>
<path d="M0 0 C-0.99 1.98 -1.98 3.96 -3 6 C-3.99 6 -4.98 6 -6 6 C-6 4.02 -6 2.04 -6 0 C-3.50907189 -1.24546405 -2.58919267 -0.7767578 0 0 Z " fill="#818188" transform="translate(358,132)"/>
<path d="M0 0 C2.475 0.99 2.475 0.99 5 2 C4.67 3.32 4.34 4.64 4 6 C2.35 5.67 0.7 5.34 -1 5 C-0.67 3.35 -0.34 1.7 0 0 Z " fill="#6D707F" transform="translate(299,265)"/>
<path d="M0 0 C0.99 0 1.98 0 3 0 C5.48063781 9.41002278 5.48063781 9.41002278 4 14 C1.79086 10.68629 1.77518447 9.6553979 1.875 5.8125 C1.89304687 4.91144531 1.91109375 4.01039063 1.9296875 3.08203125 C1.95289063 2.39496094 1.97609375 1.70789063 2 1 C1.34 0.67 0.68 0.34 0 0 Z " fill="#5B5E6E" transform="translate(285,241)"/>
<path d="M0 0 C2.475 0.495 2.475 0.495 5 1 C4.67 2.65 4.34 4.3 4 6 C3.01 6.33 2.02 6.66 1 7 C0 4 0 4 0 0 Z " fill="#6D707F" transform="translate(450,265)"/>
<path d="M0 0 C0.33 0.66 0.66 1.32 1 2 C1.66 2 2.32 2 3 2 C4.5625 4.8125 4.5625 4.8125 6 8 C5.67 8.99 5.34 9.98 5 11 C0 4.40909091 0 4.40909091 0 0 Z " fill="#5D6174" transform="translate(271,183)"/>
<path d="M0 0 C3.17495515 1.36726847 3.93492918 1.89229657 5.8125 5 C6.204375 5.99 6.59625 6.98 7 8 C6.67 8.66 6.34 9.32 6 10 C3.29391583 8.64695791 3.03816953 7.19033456 1.875 4.4375 C1.52179688 3.61121094 1.16859375 2.78492188 0.8046875 1.93359375 C0.53914063 1.29550781 0.27359375 0.65742188 0 0 Z " fill="#757884" transform="translate(436,173)"/>
<path d="M0 0 C1.90845703 0.15275391 1.90845703 0.15275391 3.85546875 0.30859375 C4.83128906 0.39238281 5.80710938 0.47617188 6.8125 0.5625 C6.8125 0.8925 6.8125 1.2225 6.8125 1.5625 C-1.6025 2.0575 -1.6025 2.0575 -10.1875 2.5625 C-10.1875 1.9025 -10.1875 1.2425 -10.1875 0.5625 C-6.51762779 -0.66079074 -3.84782178 -0.31771006 0 0 Z " fill="#6E6F74" transform="translate(197.1875,132.4375)"/>
<path d="M0 0 C1.65 0.33 3.3 0.66 5 1 C5 2.98 5 4.96 5 7 C3.35 7.33 1.7 7.66 0 8 C-0.33 7.34 -0.66 6.68 -1 6 C0.32 6 1.64 6 3 6 C3 5.01 3 4.02 3 3 C2.01 2.67 1.02 2.34 0 2 C0 1.34 0 0.68 0 0 Z " fill="#4A4C5A" transform="translate(300,264)"/>
<path d="M0 0 C1.32 0.66 2.64 1.32 4 2 C4 2.99 4 3.98 4 5 C2.68 5.33 1.36 5.66 0 6 C-0.38218767 4.34385343 -0.71395102 2.67542976 -1 1 C-0.67 0.67 -0.34 0.34 0 0 Z " fill="#474955" transform="translate(383,303)"/>
<path d="M0 0 C1.62418745 -0.08090971 3.24951745 -0.13914995 4.875 -0.1875 C5.77992188 -0.22230469 6.68484375 -0.25710937 7.6171875 -0.29296875 C8.79667969 -0.14794922 8.79667969 -0.14794922 10 0 C10.66 0.99 11.32 1.98 12 3 C7.66831683 3.26252625 4.1196377 2.29243536 0 1 C0 0.67 0 0.34 0 0 Z " fill="#818287" transform="translate(207,132)"/>
<path d="M0 0 C1.32 0.33 2.64 0.66 4 1 C4 1.66 4 2.32 4 3 C4.66 3 5.32 3 6 3 C6 3.66 6 4.32 6 5 C3.03 4.505 3.03 4.505 0 4 C0 2.68 0 1.36 0 0 Z " fill="#8F9094" transform="translate(236,120)"/>
<path d="M0 0 C0.99 0.33 1.98 0.66 3 1 C4.1875 4.5625 4.1875 4.5625 5 8 C4.01 8 3.02 8 2 8 C1.34 5.36 0.68 2.72 0 0 Z " fill="#606378" transform="translate(453,207)"/>
<path d="M0 0 C2.475 0.495 2.475 0.495 5 1 C5 2.65 5 4.3 5 6 C4.34 6 3.68 6 3 6 C3 5.34 3 4.68 3 4 C2.01 4 1.02 4 0 4 C0 2.68 0 1.36 0 0 Z " fill="#696A73" transform="translate(243,127)"/>
<path d="M0 0 C1.32 0.33 2.64 0.66 4 1 C3.67 2.32 3.34 3.64 3 5 C2.01 5 1.02 5 0 5 C0 3.35 0 1.7 0 0 Z " fill="#464952" transform="translate(378,305)"/>
<path d="M0 0 C1.2065625 0.0309375 1.2065625 0.0309375 2.4375 0.0625 C1.633125 0.68125 0.82875 1.3 0 1.9375 C-2.60124519 3.80414041 -2.60124519 3.80414041 -3.5625 6.0625 C-4.2225 6.0625 -4.8825 6.0625 -5.5625 6.0625 C-3.26136364 0.07954545 -3.26136364 0.07954545 0 0 Z " fill="#5E5F6A" transform="translate(202.5625,245.9375)"/>
<path d="M0 0 C0 0.99 0 1.98 0 3 C-2.8125 3.625 -2.8125 3.625 -6 4 C-6.99 3.34 -7.98 2.68 -9 2 C-6.03 1.34 -3.06 0.68 0 0 Z " fill="#595C6D" transform="translate(273,242)"/>
<path d="M0 0 C0.66 0.33 1.32 0.66 2 1 C2 2.32 2 3.64 2 5 C1.01 5 0.02 5 -1 5 C-1.33 5.66 -1.66 6.32 -2 7 C-2.125 4.625 -2.125 4.625 -2 2 C-1.34 1.34 -0.68 0.68 0 0 Z " fill="#B7B7B8" transform="translate(192,230)"/>
<path d="M0 0 C0.66 0.33 1.32 0.66 2 1 C2 2.32 2 3.64 2 5 C0.02 5.99 0.02 5.99 -2 7 C-2 5.35 -2 3.7 -2 2 C-1.34 2 -0.68 2 0 2 C0 1.34 0 0.68 0 0 Z " fill="#C0C1C6" transform="translate(184,168)"/>
<path d="M0 0 C0.33 0 0.66 0 1 0 C1.33 2.97 1.66 5.94 2 9 C1.34 9 0.68 9 0 9 C-1.125 2.25 -1.125 2.25 0 0 Z " fill="#4C505A" transform="translate(368,303)"/>
<path d="M0 0 C0.66 0 1.32 0 2 0 C2 1.65 2 3.3 2 5 C0.68 5.33 -0.64 5.66 -2 6 C-2 4.68 -2 3.36 -2 2 C-1.34 2 -0.68 2 0 2 C0 1.34 0 0.68 0 0 Z " fill="#C8C8CB" transform="translate(183,160)"/>
</svg>
