<?xml version="1.0" encoding="UTF-8"?>
<svg version="1.1" xmlns="http://www.w3.org/2000/svg" width="551" height="551">
<path d="M0 0 C0.87537415 0.00359528 1.75074829 0.00719055 2.65264893 0.01089478 C4.02812141 0.01067574 4.02812141 0.01067574 5.43138123 0.01045227 C8.47773564 0.01115177 11.52402973 0.01894589 14.57037354 0.02676392 C16.67644721 0.02862796 18.78252132 0.03005193 20.88859558 0.03105164 C26.44364612 0.03487786 31.99867069 0.04470903 37.55371094 0.05575562 C43.21746469 0.0659675 48.88122262 0.07054878 54.54498291 0.07559204 C65.66673914 0.0863312 76.78847606 0.10340887 87.91021729 0.12442017 C88.24021729 2.43442017 88.57021729 4.74442017 88.91021729 7.12442017 C86.93021729 7.12442017 84.95021729 7.12442017 82.91021729 7.12442017 C82.91021729 9.10442017 82.91021729 11.08442017 82.91021729 13.12442017 C124.49021729 12.62942017 124.49021729 12.62942017 166.91021729 12.12442017 C167.24021729 13.44442017 167.57021729 14.76442017 167.91021729 16.12442017 C167.25021729 16.12442017 166.59021729 16.12442017 165.91021729 16.12442017 C166.01745048 31.44067257 166.13021085 46.75687737 166.24955654 62.07304001 C166.30484147 69.18455116 166.35831568 76.29606733 166.40753174 83.40762329 C166.4550118 90.26759857 166.50753181 97.12752039 166.56315804 103.98743439 C166.58357567 106.6077372 166.60228973 109.22805384 166.61929131 111.84838104 C166.64334821 115.51173413 166.67340133 119.17499173 166.70489502 122.83828735 C166.71065048 123.9272934 166.71640594 125.01629944 166.72233582 126.13830566 C166.73701904 127.63585892 166.73701904 127.63585892 166.7519989 129.16366577 C166.75845145 130.03015118 166.764904 130.89663658 166.77155209 131.78937912 C166.90454484 134.02889943 167.36265788 135.95863634 167.91021729 138.12442017 C167.57688395 139.4577535 167.24355062 140.79108683 166.91021729 142.12442017 C167.24021729 143.44442017 167.57021729 144.76442017 167.91021729 146.12442017 C171.87021729 146.45442017 175.83021729 146.78442017 179.91021729 147.12442017 C179.91021729 148.77442017 179.91021729 150.42442017 179.91021729 152.12442017 C177.91021729 154.12442017 177.91021729 154.12442017 175.08990479 154.31973267 C173.99935791 154.29652954 172.90881104 154.27332642 171.78521729 154.24942017 C170.68951416 154.23137329 169.59381104 154.21332642 168.46490479 154.19473267 C167.62185791 154.17152954 166.77881104 154.14832642 165.91021729 154.12442017 C166.01763155 167.50219218 166.13024717 180.87990923 166.24955654 194.25758076 C166.30478836 200.46895367 166.35820885 206.68033128 166.40753174 212.89175415 C166.45517136 218.88289243 166.50751414 224.87397263 166.56315804 230.86504173 C166.58358339 233.15402981 166.60229616 235.44303382 166.61929131 237.73204994 C166.6433312 240.93101398 166.67338652 244.12986792 166.70489502 247.32876587 C166.71065048 248.28110611 166.71640594 249.23344635 166.72233582 250.21464539 C166.73212463 251.08542725 166.74191345 251.95620911 166.7519989 252.8533783 C166.75845145 253.61017034 166.764904 254.36696238 166.77155209 255.14668751 C166.84258815 257.3367011 166.84258815 257.3367011 167.91021729 260.12442017 C167.58021729 260.78442017 167.25021729 261.44442017 166.91021729 262.12442017 C166.67795268 264.83704133 166.49085493 267.53215142 166.34771729 270.24942017 C166.30453369 271.00352173 166.2613501 271.75762329 166.21685791 272.53457642 C166.11073409 274.39763904 166.00996728 276.26100541 165.91021729 278.12442017 C167.56021729 278.12442017 169.21021729 278.12442017 170.91021729 278.12442017 C170.91021729 280.43442017 170.91021729 282.74442017 170.91021729 285.12442017 C175.20021729 285.12442017 179.49021729 285.12442017 183.91021729 285.12442017 C183.91021729 286.77442017 183.91021729 288.42442017 183.91021729 290.12442017 C179.62021729 290.12442017 175.33021729 290.12442017 170.91021729 290.12442017 C170.91021729 307.61442017 170.91021729 325.10442017 170.91021729 343.12442017 C85.44021729 343.12442017 -0.02978271 343.12442017 -88.08978271 343.12442017 C-88.08978271 325.63442017 -88.08978271 308.14442017 -88.08978271 290.12442017 C-92.37978271 290.12442017 -96.66978271 290.12442017 -101.08978271 290.12442017 C-101.74978271 289.79442017 -102.40978271 289.46442017 -103.08978271 289.12442017 C-103.08978271 288.13442017 -103.08978271 287.14442017 -103.08978271 286.12442017 C-99.56299173 283.77322617 -98.06098786 283.90998565 -93.90228271 283.99942017 C-92.81560303 284.01746704 -91.72892334 284.03551392 -90.60931396 284.05410767 C-89.362146 284.08891235 -89.362146 284.08891235 -88.08978271 284.12442017 C-88.08978271 282.14442017 -88.08978271 280.16442017 -88.08978271 278.12442017 C-87.09978271 278.12442017 -86.10978271 278.12442017 -85.08978271 278.12442017 C-85.08978271 237.20442017 -85.08978271 196.28442017 -85.08978271 154.12442017 C-89.04978271 154.12442017 -93.00978271 154.12442017 -97.08978271 154.12442017 C-97.41978271 153.79442017 -97.74978271 153.46442017 -98.08978271 153.12442017 C-98.08978271 151.14442017 -98.08978271 149.16442017 -98.08978271 147.12442017 C-94.12978271 146.79442017 -90.16978271 146.46442017 -86.08978271 146.12442017 C-85.75978271 101.90442017 -85.42978271 57.68442017 -85.08978271 12.12442017 C-84.09978271 11.79442017 -83.10978271 11.46442017 -82.08978271 11.12442017 C-82.08978271 11.78442017 -82.08978271 12.44442017 -82.08978271 13.12442017 C-55.35978271 13.12442017 -28.62978271 13.12442017 -1.08978271 13.12442017 C-1.08978271 11.14442017 -1.08978271 9.16442017 -1.08978271 7.12442017 C-3.06978271 7.12442017 -5.04978271 7.12442017 -7.08978271 7.12442017 C-7.13232628 5.12487271 -7.13059054 3.1240038 -7.08978271 1.12442017 C-5.21189599 -0.75346656 -2.49812362 0.00433429 0 0 Z M4.91021729 7.12442017 C4.91021729 9.10442017 4.91021729 11.08442017 4.91021729 13.12442017 C28.67021729 13.12442017 52.43021729 13.12442017 76.91021729 13.12442017 C76.91021729 11.14442017 76.91021729 9.16442017 76.91021729 7.12442017 C53.15021729 7.12442017 29.39021729 7.12442017 4.91021729 7.12442017 Z M-83.08978271 21.12442017 C-83.08978271 56.43442017 -83.08978271 91.74442017 -83.08978271 128.12442017 C-82.75978271 128.12442017 -82.42978271 128.12442017 -82.08978271 128.12442017 C-82.08978271 92.81442017 -82.08978271 57.50442017 -82.08978271 21.12442017 C-82.41978271 21.12442017 -82.74978271 21.12442017 -83.08978271 21.12442017 Z " fill="#676A78" transform="translate(253.08978271484375,117.87557983398438)"/>
<path d="M0 0 C0.87537415 0.00359528 1.75074829 0.00719055 2.65264893 0.01089478 C4.02812141 0.01067574 4.02812141 0.01067574 5.43138123 0.01045227 C8.47773564 0.01115177 11.52402973 0.01894589 14.57037354 0.02676392 C16.67644721 0.02862796 18.78252132 0.03005193 20.88859558 0.03105164 C26.44364612 0.03487786 31.99867069 0.04470903 37.55371094 0.05575562 C43.21746469 0.0659675 48.88122262 0.07054878 54.54498291 0.07559204 C65.66673914 0.0863312 76.78847606 0.10340887 87.91021729 0.12442017 C88.24021729 2.43442017 88.57021729 4.74442017 88.91021729 7.12442017 C86.93021729 7.12442017 84.95021729 7.12442017 82.91021729 7.12442017 C82.91021729 9.10442017 82.91021729 11.08442017 82.91021729 13.12442017 C124.49021729 12.62942017 124.49021729 12.62942017 166.91021729 12.12442017 C167.24021729 13.44442017 167.57021729 14.76442017 167.91021729 16.12442017 C167.25021729 16.12442017 166.59021729 16.12442017 165.91021729 16.12442017 C165.18436921 19.39523281 164.7795404 22.43956714 164.7519989 25.78782654 C164.74221008 26.69501434 164.73242126 27.60220215 164.72233582 28.53688049 C164.71658035 29.51943314 164.71082489 30.50198578 164.70489502 31.51431274 C164.69499542 32.55867493 164.68509583 33.60303711 164.67489624 34.67904663 C164.6433482 38.12565862 164.61855021 41.57228439 164.59381104 45.01895142 C164.57323574 47.4107753 164.55223911 49.80259559 164.53083801 52.19441223 C164.47567689 58.48587129 164.42624129 64.77736283 164.37799072 71.06887817 C164.32773221 77.49041634 164.27206885 83.91190739 164.21685791 90.33340454 C164.10934921 102.93036922 164.00770448 115.52737415 163.91021729 128.12442017 C163.58021729 128.12442017 163.25021729 128.12442017 162.91021729 128.12442017 C162.91021729 125.48442017 162.91021729 122.84442017 162.91021729 120.12442017 C161.69431349 120.13049569 160.47840969 120.13657122 159.22566032 120.14283085 C130.3636035 120.28681705 101.50152448 120.42550518 72.6394112 120.55766777 C69.08710159 120.57393879 65.53479219 120.59025452 61.98248291 120.6065979 C61.27528107 120.60985083 60.56807923 120.61310375 59.83944704 120.61645525 C48.38803394 120.6692351 36.9366414 120.72563752 25.48525237 120.78337837 C13.73537081 120.84254367 1.9854756 120.8978168 -9.76444137 120.94947571 C-16.36430021 120.97866126 -22.96413943 121.00965919 -29.56396866 121.0449543 C-35.77396306 121.07810794 -41.98396076 121.10646716 -48.19399452 121.1311264 C-50.47486396 121.14103275 -52.75572652 121.1527008 -55.03657722 121.16625023 C-58.14799208 121.18447165 -61.25936948 121.19638398 -64.37081909 121.20671082 C-65.27549679 121.21351461 -66.18017449 121.22031839 -67.11226666 121.22732836 C-68.36853322 121.22956688 -68.36853322 121.22956688 -69.65017891 121.23185062 C-70.36785033 121.23526811 -71.08552176 121.23868559 -71.8249408 121.24220663 C-74.60121802 121.09782221 -77.34757886 120.58145414 -80.08978271 120.12442017 C-80.41978271 87.45442017 -80.74978271 54.78442017 -81.08978271 21.12442017 C-81.74978271 21.12442017 -82.40978271 21.12442017 -83.08978271 21.12442017 C-83.08978271 57.09442017 -83.08978271 93.06442017 -83.08978271 130.12442017 C-82.42978271 130.12442017 -81.76978271 130.12442017 -81.08978271 130.12442017 C-81.59582264 132.29316268 -82.08962085 134.12409643 -83.08978271 136.12442017 C-81.43978271 135.79442017 -79.78978271 135.46442017 -78.08978271 135.12442017 C-78.08978271 135.78442017 -78.08978271 136.44442017 -78.08978271 137.12442017 C-79.40978271 137.12442017 -80.72978271 137.12442017 -82.08978271 137.12442017 C-81.75978271 138.44442017 -81.42978271 139.76442017 -81.08978271 141.12442017 C-82.07978271 141.45442017 -83.06978271 141.78442017 -84.08978271 142.12442017 C-84.08978271 143.77442017 -84.08978271 145.42442017 -84.08978271 147.12442017 C-84.74978271 146.79442017 -85.40978271 146.46442017 -86.08978271 146.12442017 C-85.75978271 101.90442017 -85.42978271 57.68442017 -85.08978271 12.12442017 C-84.09978271 11.79442017 -83.10978271 11.46442017 -82.08978271 11.12442017 C-82.08978271 11.78442017 -82.08978271 12.44442017 -82.08978271 13.12442017 C-55.35978271 13.12442017 -28.62978271 13.12442017 -1.08978271 13.12442017 C-1.08978271 11.14442017 -1.08978271 9.16442017 -1.08978271 7.12442017 C-3.06978271 7.12442017 -5.04978271 7.12442017 -7.08978271 7.12442017 C-7.13232628 5.12487271 -7.13059054 3.1240038 -7.08978271 1.12442017 C-5.21189599 -0.75346656 -2.49812362 0.00433429 0 0 Z M4.91021729 7.12442017 C4.91021729 9.10442017 4.91021729 11.08442017 4.91021729 13.12442017 C28.67021729 13.12442017 52.43021729 13.12442017 76.91021729 13.12442017 C76.91021729 11.14442017 76.91021729 9.16442017 76.91021729 7.12442017 C53.15021729 7.12442017 29.39021729 7.12442017 4.91021729 7.12442017 Z " fill="#8E92A5" transform="translate(253.08978271484375,117.87557983398438)"/>
<path d="M0 0 C0.33 0 0.66 0 1 0 C1.00634791 0.89121866 1.00634791 0.89121866 1.01282406 1.80044174 C1.11611835 16.25577768 1.22475431 30.71106617 1.33933926 45.16631699 C1.39462273 52.15675954 1.44809668 59.1472072 1.49731445 66.13769531 C1.54479669 72.8809623 1.59731669 79.62417269 1.65294075 86.36737823 C1.67335743 88.94302344 1.69207165 91.51868271 1.70907402 94.09435272 C1.73313304 97.69544062 1.76318587 101.29643146 1.79467773 104.89746094 C1.8004332 105.9677655 1.80618866 107.03807007 1.81211853 108.14080811 C1.82680176 109.6131189 1.82680176 109.6131189 1.84178162 111.11517334 C1.84823417 111.96691006 1.85468672 112.81864677 1.8613348 113.6961937 C1.99531828 115.92221714 2.45694494 117.84641618 3 120 C2.66666667 121.33333333 2.33333333 122.66666667 2 124 C2.33 125.32 2.66 126.64 3 128 C6.96 128.33 10.92 128.66 15 129 C15 130.65 15 132.3 15 134 C13 136 13 136 10.1796875 136.1953125 C9.08914063 136.17210937 7.99859375 136.14890625 6.875 136.125 C5.77929688 136.10695313 4.68359375 136.08890625 3.5546875 136.0703125 C2.71164062 136.04710937 1.86859375 136.02390625 1 136 C1.10741426 149.37777201 1.22002989 162.75548906 1.33933926 176.13316059 C1.39457108 182.3445335 1.44799157 188.55591112 1.49731445 194.76733398 C1.54495408 200.75847226 1.59729686 206.74955247 1.65294075 212.74062157 C1.6733661 215.02960965 1.69207888 217.31861366 1.70907402 219.60762978 C1.73311391 222.80659381 1.76316924 226.00544775 1.79467773 229.2043457 C1.8004332 230.15668594 1.80618866 231.10902618 1.81211853 232.09022522 C1.82190735 232.96100708 1.83169617 233.83178894 1.84178162 234.72895813 C1.84823417 235.48575017 1.85468672 236.24254221 1.8613348 237.02226734 C1.93237086 239.21228093 1.93237086 239.21228093 3 242 C2.34 242.66 1.68 243.32 1 244 C1 243.34 1 242.68 1 242 C-81.83 242.33 -164.66 242.66 -250 243 C-250 207.69 -250 172.38 -250 136 C-253.96 136 -257.92 136 -262 136 C-262.33 135.67 -262.66 135.34 -263 135 C-263 133.02 -263 131.04 -263 129 C-258.38 129 -253.76 129 -249 129 C-249 127.35 -249 125.7 -249 124 C-248.01 123.01 -248.01 123.01 -247 122 C-247 121.01 -247 120.02 -247 119 C-245.68 119 -244.36 119 -243 119 C-244.65 118.67 -246.3 118.34 -248 118 C-247.49396008 115.83125748 -247.00016187 114.00032373 -246 112 C-246.66 112 -247.32 112 -248 112 C-247.67 76.03 -247.34 40.06 -247 3 C-246.34 2.67 -245.68 2.34 -245 2 C-245 35 -245 68 -245 102 C-164.81 102 -84.62 102 -2 102 C-1.67 69.33 -1.34 36.66 -1 3 C-0.67 2.01 -0.34 1.02 0 0 Z M-9 120 C-9.66 120.99 -10.32 121.98 -11 123 C-14.01922109 123.30641122 -16.83536028 123.41542862 -19.85830688 123.39872742 C-21.25131974 123.40869766 -21.25131974 123.40869766 -22.67247427 123.41886932 C-25.80340612 123.4376129 -28.93395963 123.43488641 -32.06494141 123.43237305 C-34.30166672 123.44138327 -36.53838706 123.45170865 -38.77510071 123.46325684 C-44.86364395 123.49093978 -50.9520938 123.50012665 -57.04069185 123.50611091 C-63.39755773 123.51546528 -69.75435303 123.54166616 -76.11117554 123.56611633 C-86.78602325 123.6048898 -97.46084765 123.63320893 -108.13574219 123.65356445 C-119.132189 123.67456166 -130.12859074 123.7018257 -141.125 123.73754883 C-141.80252255 123.73974765 -142.4800451 123.74194648 -143.17809863 123.74421193 C-146.57694188 123.75528127 -149.97578471 123.76647414 -153.37462735 123.77772844 C-181.58304535 123.87097266 -209.79148857 123.94232123 -238 124 C-238 124.66 -238 125.32 -238 126 C-125.635 126.495 -125.635 126.495 -11 127 C-85.25 127.33 -159.5 127.66 -236 128 C-237.8403467 133.27141727 -237.8403467 133.27141727 -238.24723816 138.35932922 C-238.25143265 139.17389084 -238.25562714 139.98845245 -238.25994873 140.82769775 C-238.25151947 142.13949005 -238.25151947 142.13949005 -238.24291992 143.4777832 C-238.24481827 144.41339584 -238.24671661 145.34900848 -238.24867249 146.31297302 C-238.25236472 149.3923288 -238.24170137 152.4714466 -238.23046875 155.55078125 C-238.22927637 157.69215365 -238.22882391 159.83352658 -238.2290802 161.97489929 C-238.22751823 166.45440969 -238.21924764 170.93383985 -238.20581055 175.41333008 C-238.18876979 181.16831004 -238.18499781 186.9232023 -238.18575573 192.67820454 C-238.18548455 197.09523869 -238.18001259 201.5122535 -238.17275429 205.92928123 C-238.16956314 208.05247031 -238.16759918 210.17566158 -238.16686058 212.29885292 C-238.16470463 215.25567026 -238.15597816 218.2123924 -238.14526367 221.16918945 C-238.14571686 222.05383881 -238.14617004 222.93848816 -238.14663696 223.84994507 C-238.51040636 227.73741357 -238.51040636 227.73741357 -237 231 C-234.07957348 231.0979644 -231.18279018 231.12991899 -228.26194763 231.12025452 C-226.87021642 231.12153615 -226.87021642 231.12153615 -225.45036942 231.12284368 C-222.31642179 231.12450133 -219.18252675 231.11897248 -216.04858398 231.11352539 C-213.81201173 231.11324355 -211.57543939 231.11340118 -209.33886719 231.1139679 C-203.24613747 231.11425601 -197.15342725 231.10835707 -191.06070209 231.10139394 C-184.70120005 231.09516267 -178.34169761 231.09455678 -171.98219299 231.09336853 C-161.30135723 231.09060883 -150.6205292 231.0843533 -139.93969727 231.07543945 C-128.93644242 231.06626605 -117.93318953 231.05919633 -106.92993164 231.05493164 C-106.24522645 231.05466364 -105.56052126 231.05439565 -104.85506743 231.05411953 C-98.89949147 231.05180681 -92.94391545 231.04965395 -86.98833942 231.04751682 C-61.32555285 231.0381004 -35.66278532 231.01818193 -10 231 C-9.505 180.51 -9.505 180.51 -9 129 C-6.03 128.34 -3.06 127.68 0 127 C-0.33 125.68 -0.66 124.36 -1 123 C-1 122.01 -1 121.02 -1 120 C-2.27875 119.938125 -3.5575 119.87625 -4.875 119.8125 C-5.59429687 119.77769531 -6.31359375 119.74289063 -7.0546875 119.70703125 C-7.69664062 119.80371094 -8.33859375 119.90039062 -9 120 Z " fill="#696C7B" transform="translate(418,136)"/>
<path d="M0 0 C0.76991776 -0.00175232 1.53983551 -0.00350464 2.33308411 -0.00531006 C4.86408784 -0.00969119 7.39502101 -0.00680349 9.92602539 -0.00341797 C11.69430047 -0.00409215 13.46257546 -0.00506313 15.23085022 -0.00631714 C18.93190394 -0.00778911 22.63293347 -0.0056559 26.33398438 -0.00097656 C31.06601611 0.00471623 35.79799107 0.00144138 40.53002071 -0.00454903 C44.18038863 -0.00817172 47.8307432 -0.00700813 51.48111153 -0.00442123 C53.22533742 -0.00375647 54.96956454 -0.00456456 56.71378899 -0.00690079 C59.15688129 -0.00945492 61.59988314 -0.00554779 64.04296875 0 C64.75643463 -0.00202423 65.46990051 -0.00404846 66.20498657 -0.00613403 C70.60737011 0.01228199 74.75528447 0.41861333 79.08618164 1.12939453 C79.08618164 1.78939453 79.08618164 2.44939453 79.08618164 3.12939453 C72.33618164 3.25439453 72.33618164 3.25439453 70.08618164 2.12939453 C70.08618164 5.09939453 70.08618164 8.06939453 70.08618164 11.12939453 C97.80618164 11.12939453 125.52618164 11.12939453 154.08618164 11.12939453 C154.08618164 13.10939453 154.08618164 15.08939453 154.08618164 17.12939453 C152.08663418 17.17193809 150.08576528 17.17020236 148.08618164 17.12939453 C147.75618164 16.79939453 147.42618164 16.46939453 147.08618164 16.12939453 C145.74905552 16.44717216 144.41626373 16.78331576 143.08618164 17.12939453 C141.73764344 17.21413098 140.38556894 17.25145186 139.03437233 17.24964905 C137.83142995 17.25171057 137.83142995 17.25171057 136.6041857 17.25381374 C135.72890262 17.25021878 134.85361955 17.24662382 133.95181274 17.24291992 C133.01749495 17.24306878 132.08317715 17.24321764 131.1205467 17.24337101 C127.98227854 17.24267521 124.84406855 17.23482689 121.70581055 17.22705078 C119.45882704 17.2251321 117.2118431 17.22366807 114.96485901 17.22262573 C110.1221602 17.21946149 105.27947877 17.21318796 100.43678665 17.20455933 C92.78129454 17.19105786 85.12580826 17.18514711 77.4703064 17.18041992 C66.7384191 17.17308359 56.00653981 17.16296845 45.2746582 17.14990234 C44.59364329 17.14907453 43.91262837 17.14824672 43.21097665 17.14739382 C37.68639457 17.14065034 32.16181271 17.13372628 26.63723087 17.126791 C21.81096977 17.12073931 16.98470859 17.11475854 12.15844727 17.10888672 C11.13907925 17.10764453 11.13907925 17.10764453 10.09911795 17.10637724 C-1.23506015 17.09268764 -12.56923752 17.08297167 -23.903422 17.07597637 C-31.51534272 17.0709893 -39.12723691 17.06112226 -46.73914695 17.04754639 C-51.47356924 17.04009237 -56.20798787 17.0367722 -60.94241524 17.03458023 C-63.13942877 17.03270648 -65.33644161 17.02910207 -67.53344917 17.02364731 C-70.53081059 17.01643935 -73.52811357 17.01539318 -76.52548218 17.01586914 C-77.39630381 17.01227418 -78.26712544 17.00867922 -79.16433561 17.00497532 C-80.37510123 17.00703684 -80.37510123 17.00703684 -81.61032677 17.00914001 C-82.3015278 17.00821822 -82.99272883 17.00729643 -83.70487535 17.0063467 C-86.46240297 17.1599531 -89.18959307 17.67535698 -91.91381836 18.12939453 C-91.91381836 54.09939453 -91.91381836 90.06939453 -91.91381836 127.12939453 C-91.25381836 127.12939453 -90.59381836 127.12939453 -89.91381836 127.12939453 C-90.41985828 129.29813705 -90.91365649 131.1290708 -91.91381836 133.12939453 C-90.26381836 132.79939453 -88.61381836 132.46939453 -86.91381836 132.12939453 C-86.91381836 132.78939453 -86.91381836 133.44939453 -86.91381836 134.12939453 C-88.23381836 134.12939453 -89.55381836 134.12939453 -90.91381836 134.12939453 C-90.58381836 135.44939453 -90.25381836 136.76939453 -89.91381836 138.12939453 C-90.90381836 138.45939453 -91.89381836 138.78939453 -92.91381836 139.12939453 C-92.91381836 140.77939453 -92.91381836 142.42939453 -92.91381836 144.12939453 C-93.57381836 143.79939453 -94.23381836 143.46939453 -94.91381836 143.12939453 C-94.58381836 98.90939453 -94.25381836 54.68939453 -93.91381836 9.12939453 C-92.92381836 8.79939453 -91.93381836 8.46939453 -90.91381836 8.12939453 C-90.91381836 8.78939453 -90.91381836 9.44939453 -90.91381836 10.12939453 C-63.85381836 10.12939453 -36.79381836 10.12939453 -8.91381836 10.12939453 C-8.91381836 8.47939453 -8.91381836 6.82939453 -8.91381836 5.12939453 C-8.25381836 4.79939453 -7.59381836 4.46939453 -6.91381836 4.12939453 C-6.41881836 6.60439453 -6.41881836 6.60439453 -5.91381836 9.12939453 C30.71618164 9.62439453 30.71618164 9.62439453 68.08618164 10.12939453 C68.08618164 8.14939453 68.08618164 6.16939453 68.08618164 4.12939453 C43.99618164 4.12939453 19.90618164 4.12939453 -4.91381836 4.12939453 C-4.91381836 3.46939453 -4.91381836 2.80939453 -4.91381836 2.12939453 C-9.36881836 2.62439453 -9.36881836 2.62439453 -13.91381836 3.12939453 C-13.91381836 2.46939453 -13.91381836 1.80939453 -13.91381836 1.12939453 C-9.25000966 0.21369249 -4.73631005 -0.01339975 0 0 Z " fill="#888B96" transform="translate(261.913818359375,120.87060546875)"/>
<path d="M0 0 C0.66 0.33 1.32 0.66 2 1 C1.67 3.64 1.34 6.28 1 9 C76.24 9 151.48 9 229 9 C228.67 9.66 228.34 10.32 228 11 C153.75 11.33 79.5 11.66 3 12 C-3.60290017 45.01450083 2 79.33168321 2 113 C114.365 113.495 114.365 113.495 229 114 C229 80.34 229 46.68 229 12 C229.66 11.67 230.32 11.34 231 11 C231 45.65 231 80.3 231 116 C173.11140852 116.04030303 173.11140852 116.04030303 148.93554688 116.04882812 C143.41072588 116.05078613 137.88590492 116.05280665 132.36108398 116.05493164 C131.66859375 116.05519539 130.97610352 116.05545914 130.26262873 116.05573088 C119.06845096 116.06008563 107.87427829 116.06797243 96.68010355 116.0771528 C85.20030266 116.0864892 73.72050593 116.09198068 62.24070114 116.09408849 C55.78912507 116.09539604 49.3375606 116.09848463 42.88598824 116.10573006 C36.82126818 116.11248625 30.75656459 116.11461778 24.69184113 116.11310768 C22.45886839 116.11338419 20.22589514 116.11539168 17.99292564 116.11920547 C14.95856573 116.12413646 11.92426903 116.1230005 8.88990784 116.12025452 C7.99401162 116.12316736 7.09811541 116.1260802 6.17507082 116.12908131 C0.11412121 116.11412121 0.11412121 116.11412121 -1 115 C-1.09531163 113.6465941 -1.1218872 112.28826016 -1.12025452 110.9315033 C-1.12162918 110.05505661 -1.12300385 109.17860992 -1.12442017 108.27560425 C-1.12082489 107.30672272 -1.11722961 106.33784119 -1.11352539 105.33959961 C-1.11367142 104.32508224 -1.11381744 103.31056488 -1.1139679 102.26530457 C-1.11326829 98.89429627 -1.10547368 95.52334246 -1.09765625 92.15234375 C-1.09579224 89.82206757 -1.09436826 87.491791 -1.09336853 85.16151428 C-1.08954202 79.01462735 -1.0797106 72.86776387 -1.06866455 66.72088623 C-1.05845329 60.45390134 -1.05387152 54.18691268 -1.04882812 47.91992188 C-1.03808845 35.61327092 -1.02101044 23.30663741 -1 11 C-2.32 11.33 -3.64 11.66 -5 12 C-5.33 11.01 -5.66 10.02 -6 9 C-4.35 9 -2.7 9 -1 9 C-1.020625 7.700625 -1.04125 6.40125 -1.0625 5.0625 C-1.08399454 3.70834367 -1.07148199 2.35243917 -1 1 C-0.67 0.67 -0.34 0.34 0 0 Z " fill="#757782" transform="translate(179,253)"/>
<path d="M0 0 C0.76991776 -0.00175232 1.53983551 -0.00350464 2.33308411 -0.00531006 C4.86408784 -0.00969119 7.39502101 -0.00680349 9.92602539 -0.00341797 C11.69430047 -0.00409215 13.46257546 -0.00506313 15.23085022 -0.00631714 C18.93190394 -0.00778911 22.63293347 -0.0056559 26.33398438 -0.00097656 C31.06601611 0.00471623 35.79799107 0.00144138 40.53002071 -0.00454903 C44.18038863 -0.00817172 47.8307432 -0.00700813 51.48111153 -0.00442123 C53.22533742 -0.00375647 54.96956454 -0.00456456 56.71378899 -0.00690079 C59.15688129 -0.00945492 61.59988314 -0.00554779 64.04296875 0 C64.75643463 -0.00202423 65.46990051 -0.00404846 66.20498657 -0.00613403 C70.60737011 0.01228199 74.75528447 0.41861333 79.08618164 1.12939453 C79.08618164 1.78939453 79.08618164 2.44939453 79.08618164 3.12939453 C72.33618164 3.25439453 72.33618164 3.25439453 70.08618164 2.12939453 C70.08618164 5.09939453 70.08618164 8.06939453 70.08618164 11.12939453 C97.80618164 11.12939453 125.52618164 11.12939453 154.08618164 11.12939453 C154.08618164 13.10939453 154.08618164 15.08939453 154.08618164 17.12939453 C153.09618164 17.12939453 152.10618164 17.12939453 151.08618164 17.12939453 C151.08618164 15.80939453 151.08618164 14.48939453 151.08618164 13.12939453 C72.87618164 13.12939453 -5.33381836 13.12939453 -85.91381836 13.12939453 C-86.24381836 14.44939453 -86.57381836 15.76939453 -86.91381836 17.12939453 C-88.56381836 17.45939453 -90.21381836 17.78939453 -91.91381836 18.12939453 C-91.91381836 54.09939453 -91.91381836 90.06939453 -91.91381836 127.12939453 C-91.25381836 127.12939453 -90.59381836 127.12939453 -89.91381836 127.12939453 C-90.41985828 129.29813705 -90.91365649 131.1290708 -91.91381836 133.12939453 C-90.26381836 132.79939453 -88.61381836 132.46939453 -86.91381836 132.12939453 C-86.91381836 132.78939453 -86.91381836 133.44939453 -86.91381836 134.12939453 C-88.23381836 134.12939453 -89.55381836 134.12939453 -90.91381836 134.12939453 C-90.58381836 135.44939453 -90.25381836 136.76939453 -89.91381836 138.12939453 C-90.90381836 138.45939453 -91.89381836 138.78939453 -92.91381836 139.12939453 C-92.91381836 140.77939453 -92.91381836 142.42939453 -92.91381836 144.12939453 C-93.57381836 143.79939453 -94.23381836 143.46939453 -94.91381836 143.12939453 C-94.58381836 98.90939453 -94.25381836 54.68939453 -93.91381836 9.12939453 C-92.92381836 8.79939453 -91.93381836 8.46939453 -90.91381836 8.12939453 C-90.91381836 8.78939453 -90.91381836 9.44939453 -90.91381836 10.12939453 C-63.85381836 10.12939453 -36.79381836 10.12939453 -8.91381836 10.12939453 C-8.91381836 8.47939453 -8.91381836 6.82939453 -8.91381836 5.12939453 C-8.25381836 4.79939453 -7.59381836 4.46939453 -6.91381836 4.12939453 C-6.41881836 6.60439453 -6.41881836 6.60439453 -5.91381836 9.12939453 C30.71618164 9.62439453 30.71618164 9.62439453 68.08618164 10.12939453 C68.08618164 8.14939453 68.08618164 6.16939453 68.08618164 4.12939453 C43.99618164 4.12939453 19.90618164 4.12939453 -4.91381836 4.12939453 C-4.91381836 3.46939453 -4.91381836 2.80939453 -4.91381836 2.12939453 C-9.36881836 2.62439453 -9.36881836 2.62439453 -13.91381836 3.12939453 C-13.91381836 2.46939453 -13.91381836 1.80939453 -13.91381836 1.12939453 C-9.25000966 0.21369249 -4.73631005 -0.01339975 0 0 Z " fill="#838489" transform="translate(261.913818359375,120.87060546875)"/>
<path d="M0 0 C0.66 0 1.32 0 2 0 C2 34.65 2 69.3 2 105 C83.51 105 165.02 105 249 105 C249 73.98 249 42.96 249 11 C249.33 11 249.66 11 250 11 C250.61160503 26.86436583 251.01622626 42.72733674 251.25390625 58.6015625 C251.26426847 59.28443895 251.2746307 59.96731541 251.28530693 60.67088509 C251.39106664 67.64936483 251.49227658 74.62786555 251.58051205 81.60659027 C251.62322826 84.9005343 251.67163982 88.19439756 251.71875 91.48828125 C251.73229019 92.70573029 251.74583038 93.92317932 251.75978088 95.17752075 C251.77653366 96.2962558 251.79328644 97.41499084 251.81054688 98.56762695 C251.82307495 99.54810501 251.83560303 100.52858307 251.84851074 101.53877258 C251.90241502 104.13616009 251.90241502 104.13616009 253 107 C252.34 107.66 251.68 108.32 251 109 C251 108.34 251 107.68 251 107 C168.17 107.33 85.34 107.66 0 108 C0 72.36 0 36.72 0 0 Z " fill="#7E818A" transform="translate(168,271)"/>
<path d="M0 0 C0.33 0 0.66 0 1 0 C1 6.27 1 12.54 1 19 C1.99 19.33 2.98 19.66 4 20 C1.20808697 20.93063768 -0.42523583 21.12030446 -3.30472088 21.10743046 C-4.63040412 21.10519194 -4.63040412 21.10519194 -5.98286885 21.10290819 C-6.9546493 21.0961044 -7.92642974 21.08930061 -8.92765808 21.08229065 C-9.95927655 21.07906152 -10.99089502 21.07583239 -12.05377465 21.07250541 C-15.52701626 21.06039576 -19.00018013 21.04103004 -22.47338867 21.02172852 C-24.95655649 21.01158939 -27.43972616 21.00189532 -29.92289734 20.99261475 C-35.27747087 20.97159722 -40.63201669 20.94746998 -45.98656273 20.92053413 C-53.72836953 20.8815946 -61.47019243 20.84823253 -69.21203069 20.81623887 C-81.77215091 20.76418155 -94.33224655 20.70760329 -106.89233398 20.64819336 C-119.09447268 20.59048621 -131.296618 20.53490115 -143.4987793 20.48217773 C-144.25071401 20.47892802 -145.00264873 20.4756783 -145.77736934 20.4723301 C-149.54954325 20.4560406 -153.32171733 20.4397929 -157.0938915 20.42356598 C-188.39595927 20.28885851 -219.6979823 20.14598803 -251 20 C-251 40.13 -251 60.26 -251 81 C-251.66 81 -252.32 81 -253 81 C-253 63.84 -253 46.68 -253 29 C-257.29 29 -261.58 29 -266 29 C-266.66 28.67 -267.32 28.34 -268 28 C-268 27.01 -268 26.02 -268 25 C-264.47320901 22.64880601 -262.97120515 22.78556548 -258.8125 22.875 C-257.72582031 22.89304687 -256.63914062 22.91109375 -255.51953125 22.9296875 C-254.27236328 22.96449219 -254.27236328 22.96449219 -253 23 C-253 21.35 -253 19.7 -253 18 C-169.51 18 -86.02 18 0 18 C0 12.06 0 6.12 0 0 Z " fill="#4A4E5A" transform="translate(418,379)"/>
<path d="M0 0 C0.87537415 0.00359528 1.75074829 0.00719055 2.65264893 0.01089478 C4.02812141 0.01067574 4.02812141 0.01067574 5.43138123 0.01045227 C8.47773564 0.01115177 11.52402973 0.01894589 14.57037354 0.02676392 C16.67644721 0.02862796 18.78252132 0.03005193 20.88859558 0.03105164 C26.44364612 0.03487786 31.99867069 0.04470903 37.55371094 0.05575562 C43.21746469 0.0659675 48.88122262 0.07054878 54.54498291 0.07559204 C65.66673914 0.0863312 76.78847606 0.10340887 87.91021729 0.12442017 C88.40521729 3.58942017 88.40521729 3.58942017 88.91021729 7.12442017 C86.93021729 7.12442017 84.95021729 7.12442017 82.91021729 7.12442017 C82.91021729 9.10442017 82.91021729 11.08442017 82.91021729 13.12442017 C124.49021729 12.62942017 124.49021729 12.62942017 166.91021729 12.12442017 C167.24021729 13.44442017 167.57021729 14.76442017 167.91021729 16.12442017 C167.25021729 16.12442017 166.59021729 16.12442017 165.91021729 16.12442017 C165.18436921 19.39523281 164.7795404 22.43956714 164.7519989 25.78782654 C164.74221008 26.69501434 164.73242126 27.60220215 164.72233582 28.53688049 C164.71658035 29.51943314 164.71082489 30.50198578 164.70489502 31.51431274 C164.69499542 32.55867493 164.68509583 33.60303711 164.67489624 34.67904663 C164.6433482 38.12565862 164.61855021 41.57228439 164.59381104 45.01895142 C164.57323574 47.4107753 164.55223911 49.80259559 164.53083801 52.19441223 C164.47567689 58.48587129 164.42624129 64.77736283 164.37799072 71.06887817 C164.32773221 77.49041634 164.27206885 83.91190739 164.21685791 90.33340454 C164.10934921 102.93036922 164.00770448 115.52737415 163.91021729 128.12442017 C163.58021729 128.12442017 163.25021729 128.12442017 162.91021729 128.12442017 C161.79346476 107.45177919 161.75443973 86.80268366 161.77984619 66.1065979 C161.78562172 61.33353712 161.78219911 56.56053163 161.77627373 51.78747272 C161.77266228 48.07541993 161.77380804 44.36338032 161.77640152 40.65132713 C161.77706511 38.88952821 161.77626238 37.12772806 161.77392197 35.36593056 C161.77137719 32.91991597 161.77525819 30.47399243 161.78082275 28.02798462 C161.77879852 27.3127211 161.77677429 26.59745758 161.77468872 25.86051941 C161.79195029 21.75608752 162.22534999 18.23362393 162.91021729 14.12442017 C135.19021729 14.12442017 107.47021729 14.12442017 78.91021729 14.12442017 C78.91021729 11.15442017 78.91021729 8.18442017 78.91021729 5.12442017 C81.88021729 5.45442017 84.85021729 5.78442017 87.91021729 6.12442017 C87.91021729 5.46442017 87.91021729 4.80442017 87.91021729 4.12442017 C57.22021729 4.12442017 26.53021729 4.12442017 -5.08978271 4.12442017 C-5.08978271 4.78442017 -5.08978271 5.44442017 -5.08978271 6.12442017 C-0.63478271 5.62942017 -0.63478271 5.62942017 3.91021729 5.12442017 C5.26461396 7.83321352 4.97523179 10.13375284 4.91021729 13.12442017 C3.92021729 12.79442017 2.93021729 12.46442017 1.91021729 12.12442017 C1.22271729 10.06192017 1.22271729 10.06192017 0.91021729 8.12442017 C0.58021729 9.77442017 0.25021729 11.42442017 -0.08978271 13.12442017 C-0.41978271 13.12442017 -0.74978271 13.12442017 -1.08978271 13.12442017 C-1.08978271 11.14442017 -1.08978271 9.16442017 -1.08978271 7.12442017 C-3.06978271 7.12442017 -5.04978271 7.12442017 -7.08978271 7.12442017 C-7.13232628 5.12487271 -7.13059054 3.1240038 -7.08978271 1.12442017 C-5.21189599 -0.75346656 -2.49812362 0.00433429 0 0 Z " fill="#C3C3C8" transform="translate(253.08978271484375,117.87557983398438)"/>
<path d="M0 0 C1.9453125 -0.29296875 1.9453125 -0.29296875 4.125 -0.1875 C5.40375 -0.125625 6.6825 -0.06375 8 0 C8.68707555 2.49064888 9 4.37886292 9 7 C5.7 7.66 2.4 8.32 -1 9 C-1.33 8.34 -1.66 7.68 -2 7 C-76.91 6.67 -151.82 6.34 -229 6 C-229 5.34 -229 4.68 -229 4 C-227.83194635 3.99761165 -226.66389271 3.99522329 -225.4604435 3.99276257 C-197.7558251 3.93544772 -170.05128202 3.86274936 -142.3467553 3.77101372 C-138.9395039 3.75974506 -135.53225209 3.74860669 -132.125 3.73754883 C-131.1074826 3.7342433 -131.1074826 3.7342433 -130.0694093 3.730871 C-119.07444414 3.69546352 -108.07947907 3.6706189 -97.08447798 3.64965298 C-85.80916024 3.62791835 -74.53391659 3.59466633 -63.25865781 3.55129844 C-56.92273743 3.52729639 -50.58689946 3.50861348 -44.2509346 3.50238609 C-38.29364109 3.4963667 -32.33655863 3.47648168 -26.37934303 3.44572449 C-24.18712005 3.43689353 -21.99486954 3.43323204 -19.80262947 3.43499184 C-16.82094071 3.43663037 -13.83990633 3.42006768 -10.85830688 3.39872742 C-9.9808873 3.40357499 -9.10346772 3.40842257 -8.19945967 3.41341704 C-5.55551221 3.41773241 -5.55551221 3.41773241 -2 3 C-1.34 2.01 -0.68 1.02 0 0 Z " fill="#52555F" transform="translate(409,256)"/>
<path d="M0 0 C0.66 0 1.32 0 2 0 C2 0.66 2 1.32 2 2 C28.73 2 55.46 2 83 2 C83 2.33 83 2.66 83 3 C56.6 3 30.2 3 3 3 C3 5.31 3 7.62 3 10 C2.34 10 1.68 10 1 10 C1 45.97 1 81.94 1 119 C1.66 119 2.32 119 3 119 C2.49396008 121.16874252 2.00016187 122.99967627 1 125 C3.475 124.505 3.475 124.505 6 124 C6 124.66 6 125.32 6 126 C4.68 126 3.36 126 2 126 C2.33 127.32 2.66 128.64 3 130 C2.01 130.33 1.02 130.66 0 131 C0 132.65 0 134.3 0 136 C-0.66 135.67 -1.32 135.34 -2 135 C-1.89289917 117.54579775 -1.78016299 100.09164232 -1.66066074 82.63752079 C-1.60531 74.53383408 -1.55182503 66.43014297 -1.50268555 58.32641602 C-1.45986632 51.26575115 -1.41359414 44.20511895 -1.36312145 37.14450449 C-1.33650221 33.40367461 -1.31164878 29.66285129 -1.29092598 25.92198372 C-1.26776545 21.7527089 -1.23689814 17.58352621 -1.20532227 13.41430664 C-1.1995668 12.16490295 -1.19381134 10.91549927 -1.18788147 9.62823486 C-1.17809265 8.49936356 -1.16830383 7.37049225 -1.15821838 6.20741272 C-1.15176583 5.22017243 -1.14531328 4.23293215 -1.1386652 3.21577549 C-1 1 -1 1 0 0 Z " fill="#A9A9A7" transform="translate(169,129)"/>
<path d="M0 0 C0.76991776 -0.00175232 1.53983551 -0.00350464 2.33308411 -0.00531006 C4.86408784 -0.00969119 7.39502101 -0.00680349 9.92602539 -0.00341797 C11.69430047 -0.00409215 13.46257546 -0.00506313 15.23085022 -0.00631714 C18.93190394 -0.00778911 22.63293347 -0.0056559 26.33398438 -0.00097656 C31.06601611 0.00471623 35.79799107 0.00144138 40.53002071 -0.00454903 C44.18038863 -0.00817172 47.8307432 -0.00700813 51.48111153 -0.00442123 C53.22533742 -0.00375647 54.96956454 -0.00456456 56.71378899 -0.00690079 C59.15688129 -0.00945492 61.59988314 -0.00554779 64.04296875 0 C64.75643463 -0.00202423 65.46990051 -0.00404846 66.20498657 -0.00613403 C70.60737011 0.01228199 74.75528447 0.41861333 79.08618164 1.12939453 C79.08618164 1.78939453 79.08618164 2.44939453 79.08618164 3.12939453 C72.33618164 3.25439453 72.33618164 3.25439453 70.08618164 2.12939453 C70.08618164 4.76939453 70.08618164 7.40939453 70.08618164 10.12939453 C69.42618164 10.12939453 68.76618164 10.12939453 68.08618164 10.12939453 C68.08618164 8.14939453 68.08618164 6.16939453 68.08618164 4.12939453 C43.99618164 4.12939453 19.90618164 4.12939453 -4.91381836 4.12939453 C-4.91381836 3.46939453 -4.91381836 2.80939453 -4.91381836 2.12939453 C-9.36881836 2.62439453 -9.36881836 2.62439453 -13.91381836 3.12939453 C-13.91381836 2.46939453 -13.91381836 1.80939453 -13.91381836 1.12939453 C-9.25000966 0.21369249 -4.73631005 -0.01339975 0 0 Z " fill="#6A6B74" transform="translate(261.913818359375,120.87060546875)"/>
<path d="M0 0 C0 0.99 0 1.98 0 3 C-0.66 3 -1.32 3 -2 3 C-2.72584807 6.27081264 -3.13067688 9.31514697 -3.15821838 12.66340637 C-3.1680072 13.57059418 -3.17779602 14.47778198 -3.18788147 15.41246033 C-3.19363693 16.39501297 -3.1993924 17.37756561 -3.20532227 18.38989258 C-3.21522186 19.43425476 -3.22512146 20.47861694 -3.23532104 21.55462646 C-3.26686909 25.00123845 -3.29166708 28.44786422 -3.31640625 31.89453125 C-3.33698155 34.28635513 -3.35797818 36.67817543 -3.37937927 39.06999207 C-3.4345404 45.36145112 -3.48397599 51.65294267 -3.53222656 57.94445801 C-3.58248507 64.36599617 -3.63814844 70.78748722 -3.69335938 77.20898438 C-3.80086807 89.80594906 -3.90251281 102.40295398 -4 115 C-4.33 115 -4.66 115 -5 115 C-6.11675252 94.32735903 -6.15577755 73.67826349 -6.13037109 52.98217773 C-6.12459557 48.20911695 -6.12801818 43.43611146 -6.13394356 38.66305256 C-6.137555 34.95099976 -6.13640924 31.23896016 -6.13381577 27.52690697 C-6.13315218 25.76510804 -6.13395491 24.00330789 -6.13629532 22.24151039 C-6.1388401 19.7954958 -6.13495909 17.34957226 -6.12939453 14.90356445 C-6.13141876 14.18830093 -6.13344299 13.47303741 -6.13552856 12.73609924 C-6.11826699 8.63166735 -5.68486729 5.10920377 -5 1 C-31.73 1 -58.46 1 -86 1 C-86 0.67 -86 0.34 -86 0 C-75.37769102 -0.15383157 -64.75531974 -0.30201277 -54.13283157 -0.4429636 C-49.20048962 -0.50858927 -44.26819047 -0.57616733 -39.3359375 -0.64819336 C-34.57682361 -0.71761943 -29.81766568 -0.78193516 -25.05843353 -0.84269524 C-23.24192544 -0.86678687 -21.42544089 -0.89272563 -19.6089859 -0.92053413 C-17.06650979 -0.95914317 -14.52402958 -0.99120791 -11.98144531 -1.02172852 C-11.22906586 -1.03467453 -10.4766864 -1.04762054 -9.70150757 -1.06095886 C-6.31791069 -1.09520788 -3.23241686 -1.0737157 0 0 Z " fill="#A8A9AF" transform="translate(421,131)"/>
<path d="M0 0 C1.58748047 -0.02416992 1.58748047 -0.02416992 3.20703125 -0.04882812 C4.22152344 -0.04947266 5.23601562 -0.05011719 6.28125 -0.05078125 C7.21001953 -0.05376221 8.13878906 -0.05674316 9.09570312 -0.05981445 C11.5 0.3125 11.5 0.3125 13.33789062 1.60864258 C14.5 3.3125 14.5 3.3125 14.3125 6.9375 C14.044375 8.05125 13.77625 9.165 13.5 10.3125 C9.50442575 12.31028712 4.45548005 11.54126505 0.0625 11.5625 C-1.53174805 11.5934375 -1.53174805 11.5934375 -3.15820312 11.625 C-4.17720703 11.63015625 -5.19621094 11.6353125 -6.24609375 11.640625 C-7.18122803 11.6499707 -8.1163623 11.65931641 -9.07983398 11.66894531 C-11.5 11.3125 -11.5 11.3125 -13.30493164 9.98339844 C-15.15156231 7.40151073 -14.89217587 5.38454428 -14.5 2.3125 C-9.92734569 -0.73593621 -5.37785396 -0.01637593 0 0 Z " fill="#414551" transform="translate(294.5,301.6875)"/>
<path d="M0 0 C0.33 0 0.66 0 1 0 C1.00634791 0.89121866 1.00634791 0.89121866 1.01282406 1.80044174 C1.11611835 16.25577768 1.22475431 30.71106617 1.33933926 45.16631699 C1.39462273 52.15675954 1.44809668 59.1472072 1.49731445 66.13769531 C1.54479669 72.8809623 1.59731669 79.62417269 1.65294075 86.36737823 C1.67335743 88.94302344 1.69207165 91.51868271 1.70907402 94.09435272 C1.73313304 97.69544062 1.76318587 101.29643146 1.79467773 104.89746094 C1.8004332 105.9677655 1.80618866 107.03807007 1.81211853 108.14080811 C1.82680176 109.6131189 1.82680176 109.6131189 1.84178162 111.11517334 C1.84823417 111.96691006 1.85468672 112.81864677 1.8613348 113.6961937 C1.99531828 115.92221714 2.45694494 117.84641618 3 120 C2.66666667 121.33333333 2.33333333 122.66666667 2 124 C2.37907282 126.18703385 2.37907282 126.18703385 3 128 C2.01 128.33 1.02 128.66 0 129 C0 127.35 0 125.7 0 124 C-0.66 123.67 -1.32 123.34 -2 123 C-1.505 122.505 -1.505 122.505 -1 122 C-0.76807135 120.48530552 -0.58784762 118.96245438 -0.4375 117.4375 C-0.31181641 116.19806641 -0.31181641 116.19806641 -0.18359375 114.93359375 C-0.12300781 114.29550781 -0.06242187 113.65742188 0 113 C-0.66 113 -1.32 113 -2 113 C-1.89280003 98.70954323 -1.77998103 84.41914034 -1.66066074 70.12877941 C-1.60542441 63.49366625 -1.5520032 56.85854868 -1.50268555 50.22338867 C-1.45505258 43.82377016 -1.40271006 37.42420612 -1.34705925 31.02465248 C-1.32663087 28.57936263 -1.3079186 26.13405783 -1.29092598 23.68874168 C-1.26689278 20.27185015 -1.23683653 16.85506197 -1.20532227 13.43823242 C-1.1995668 12.42043701 -1.19381134 11.4026416 -1.18788147 10.35400391 C-1.17809265 9.42432297 -1.16830383 8.49464203 -1.15821838 7.53678894 C-1.15176583 6.72837649 -1.14531328 5.91996405 -1.1386652 5.08705425 C-1 3 -1 3 0 0 Z " fill="#7F8082" transform="translate(418,136)"/>
<path d="M0 0 C0.33 0 0.66 0 1 0 C1 33.33 1 66.66 1 101 C2.65 101 4.3 101 6 101 C4.02 101.495 4.02 101.495 2 102 C2 105.96 2 109.92 2 114 C1.67 112.68 1.34 111.36 1 110 C0.01 110 -0.98 110 -2 110 C-1.89289051 95.80538443 -1.78008694 81.61082401 -1.66066074 67.4163065 C-1.60538055 60.82597632 -1.55195255 54.23564176 -1.50268555 47.64526367 C-1.45511699 41.29104033 -1.40277719 34.93687292 -1.34705925 28.58271599 C-1.32660156 26.15251995 -1.30789427 23.72230855 -1.29092598 21.29208565 C-1.2669573 17.90112857 -1.2368928 14.51027834 -1.20532227 11.11938477 C-1.1995668 10.10374954 -1.19381134 9.08811432 -1.18788147 8.04170227 C-1.17809265 7.12318481 -1.16830383 6.20466736 -1.15821838 5.25831604 C-1.15176583 4.45543435 -1.14531328 3.65255266 -1.1386652 2.82534122 C-1 1 -1 1 0 0 Z " fill="#686A72" transform="translate(172,138)"/>
<path d="M0 0 C0.66 0 1.32 0 2 0 C2 20.79 2 41.58 2 63 C1.34 63 0.68 63 0 63 C0 45.84 0 28.68 0 11 C-4.29 11 -8.58 11 -13 11 C-13.66 10.67 -14.32 10.34 -15 10 C-15 9.01 -15 8.02 -15 7 C-11.47320901 4.64880601 -9.97120515 4.78556548 -5.8125 4.875 C-4.72582031 4.89304687 -3.63914063 4.91109375 -2.51953125 4.9296875 C-1.27236328 4.96449219 -1.27236328 4.96449219 0 5 C0 3.35 0 1.7 0 0 Z " fill="#44464E" transform="translate(165,397)"/>
<path d="M0 0 C1.4809251 0.01922075 1.4809251 0.01922075 2.99176788 0.0388298 C15.32804206 0.20016591 27.66409535 0.37509406 40 0.5625 C40 2.5425 40 4.5225 40 6.5625 C39.01 6.5625 38.02 6.5625 37 6.5625 C37 5.2425 37 3.9225 37 2.5625 C-6.23 2.2325 -49.46 1.9025 -94 1.5625 C-94 1.2325 -94 0.9025 -94 0.5625 C-62.65348943 -0.54713326 -31.35696766 -0.40727779 0 0 Z " fill="#787A7F" transform="translate(376,131.4375)"/>
<path d="M0 0 C3.45826342 -0.05789006 6.91640293 -0.09355821 10.375 -0.125 C11.35984375 -0.14175781 12.3446875 -0.15851563 13.359375 -0.17578125 C14.77089844 -0.18544922 14.77089844 -0.18544922 16.2109375 -0.1953125 C17.51490479 -0.21102295 17.51490479 -0.21102295 18.84521484 -0.22705078 C21 0 21 0 23 2 C23.125 4.625 23.125 4.625 23 7 C22.01 7.33 21.02 7.66 20 8 C19.67 7.01 19.34 6.02 19 5 C13.39 5 7.78 5 2 5 C1 3 1 3 0 0 Z " fill="#5B5F6B" transform="translate(284,303)"/>
<path d="M0 0 C0.66 0 1.32 0 2 0 C2 0.66 2 1.32 2 2 C28.73 2 55.46 2 83 2 C83 2.33 83 2.66 83 3 C55.61 3.33 28.22 3.66 0 4 C0 2.68 0 1.36 0 0 Z " fill="#98989B" transform="translate(169,129)"/>
<path d="M0 0 C0.33 0 0.66 0 1 0 C1.02505615 0.85754883 1.0501123 1.71509766 1.07592773 2.59863281 C1.17123412 5.7893437 1.27045751 8.97990219 1.37231445 12.17041016 C1.4155455 13.54959378 1.45722866 14.92882685 1.49731445 16.30810547 C1.55530403 18.29406938 1.61937723 20.27985269 1.68359375 22.265625 C1.72025146 23.45961914 1.75690918 24.65361328 1.79467773 25.88378906 C1.96288539 28.43670519 2.35441037 30.54963805 3 33 C2.66666667 34.33333333 2.33333333 35.66666667 2 37 C2.37907282 39.18703385 2.37907282 39.18703385 3 41 C1.515 41.495 1.515 41.495 0 42 C0 40.35 0 38.7 0 37 C-0.66 36.67 -1.32 36.34 -2 36 C-1.505 35.505 -1.505 35.505 -1 35 C-0.76807135 33.48530552 -0.58784762 31.96245438 -0.4375 30.4375 C-0.35371094 29.61121094 -0.26992188 28.78492188 -0.18359375 27.93359375 C-0.12300781 27.29550781 -0.06242187 26.65742188 0 26 C-0.66 26 -1.32 26 -2 26 C-1.86186975 21.85387186 -1.71321141 17.70818838 -1.5625 13.5625 C-1.52318359 12.37849609 -1.48386719 11.19449219 -1.44335938 9.97460938 C-1.40146484 8.84990234 -1.35957031 7.72519531 -1.31640625 6.56640625 C-1.27974854 5.52427979 -1.24309082 4.48215332 -1.20532227 3.40844727 C-1 1 -1 1 0 0 Z " fill="#818284" transform="translate(418,223)"/>
<path d="M0 0 C0.33 0 0.66 0 1 0 C1.01030746 0.75755081 1.02061493 1.51510162 1.03123474 2.29560852 C1.12918063 9.43208169 1.23169094 16.56846772 1.33933926 23.70480061 C1.39452201 27.37372668 1.44793454 31.04266079 1.49731445 34.71166992 C1.54502662 38.25193892 1.59737185 41.79211177 1.65294075 45.33226585 C1.68326295 47.34136299 1.70877685 49.35053081 1.73423767 51.35969543 C1.75418289 52.58073471 1.77412811 53.80177399 1.79467773 55.05981445 C1.81022202 56.13681107 1.8257663 57.21380768 1.84178162 58.32344055 C1.88978747 61.1021879 1.88978747 61.1021879 3 64 C2.01 64.99 2.01 64.99 1 66 C1 65.34 1 64.68 1 64 C0.34 63.67 -0.32 63.34 -1 63 C-0.67 42.21 -0.34 21.42 0 0 Z " fill="#7D7F84" transform="translate(418,314)"/>
<path d="M0 0 C1.08667969 0.01804687 2.17335937 0.03609375 3.29296875 0.0546875 C4.54013672 0.08949219 4.54013672 0.08949219 5.8125 0.125 C5.8125 1.445 5.8125 2.765 5.8125 4.125 C0.8625 4.455 -4.0875 4.785 -9.1875 5.125 C-9.1875 4.135 -9.1875 3.145 -9.1875 2.125 C-5.66070901 -0.22619399 -4.15870515 -0.08943452 0 0 Z " fill="#83838A" transform="translate(159.1875,401.875)"/>
<path d="M0 0 C4.62 0 9.24 0 14 0 C14 1.65 14 3.3 14 5 C13.01 5.66 12.02 6.32 11 7 C11 6.34 11 5.68 11 5 C7.37 5 3.74 5 0 5 C0 4.34 0 3.68 0 3 C2.64 3 5.28 3 8 3 C8 2.34 8 1.68 8 1 C5.36 1 2.72 1 0 1 C0 0.67 0 0.34 0 0 Z " fill="#595B64" transform="translate(419,265)"/>
<path d="M0 0 C3.25696479 0.41755959 4.63443291 0.63443291 7 3 C6.46428571 6.53571429 6.46428571 6.53571429 5 8 C2.5625 8.1875 2.5625 8.1875 0 8 C-0.66 7.34 -1.32 6.68 -2 6 C-1.44444444 1.44444444 -1.44444444 1.44444444 0 0 Z " fill="#424651" transform="translate(399,264)"/>
<path d="M0 0 C2.00720923 0.28674418 4.0085944 0.61866701 6 1 C7.125 5.75 7.125 5.75 6 8 C4.00045254 8.04254356 1.99958364 8.04080783 0 8 C-1 7 -1 7 -1.125 4 C-1 1 -1 1 0 0 Z " fill="#414550" transform="translate(292,264)"/>
<path d="M0 0 C4.70588235 0.70588235 4.70588235 0.70588235 6 2 C6.04063832 3.66617115 6.042721 5.33388095 6 7 C3.125 7.625 3.125 7.625 0 8 C-0.66 7.34 -1.32 6.68 -2 6 C-1.44444444 1.44444444 -1.44444444 1.44444444 0 0 Z " fill="#4D515C" transform="translate(185,264)"/>
<path d="M0 0 C2.31 0 4.62 0 7 0 C7 1.65 7 3.3 7 5 C5.02 5 3.04 5 1 5 C1 6.98 1 8.96 1 11 C-0.32 11.33 -1.64 11.66 -3 12 C-3 9.03 -3 6.06 -3 3 C-0.03 3.33 2.94 3.66 6 4 C5.67 3.34 5.34 2.68 5 2 C2.47266765 1.34444881 2.47266765 1.34444881 0 1 C0 0.67 0 0.34 0 0 Z " fill="#888A91" transform="translate(335,120)"/>
<path d="M0 0 C1.98 0 3.96 0 6 0 C6 1.65 6 3.3 6 5 C1.05 5 -3.9 5 -9 5 C-8.67 3.68 -8.34 2.36 -8 1 C-8 1.99 -8 2.98 -8 4 C-5.36 4 -2.72 4 0 4 C0 2.68 0 1.36 0 0 Z " fill="#424348" transform="translate(431,403)"/>
<path d="M0 0 C0.66 0 1.32 0 2 0 C2 0.66 2 1.32 2 2 C6.455 1.505 6.455 1.505 11 1 C12.35439668 3.70879335 12.06501451 6.00933268 12 9 C11.01 8.67 10.02 8.34 9 8 C8.3125 5.9375 8.3125 5.9375 8 4 C7.67 5.65 7.34 7.3 7 9 C6.67 9 6.34 9 6 9 C6 7.02 6 5.04 6 3 C4.02 3 2.04 3 0 3 C0 2.01 0 1.02 0 0 Z " fill="#8A8C93" transform="translate(246,122)"/>
<path d="M0 0 C2.31 0.33 4.62 0.66 7 1 C5.68 1.33 4.36 1.66 3 2 C3 5.96 3 9.92 3 14 C2.67 12.68 2.34 11.36 2 10 C1.01 10 0.02 10 -1 10 C-0.67 6.7 -0.34 3.4 0 0 Z " fill="#56575E" transform="translate(171,238)"/>
<path d="M0 0 C0.33 1.32 0.66 2.64 1 4 C2.65 3.67 4.3 3.34 6 3 C6 3.66 6 4.32 6 5 C4.68 5 3.36 5 2 5 C2.33 6.32 2.66 7.64 3 9 C2.01 9.33 1.02 9.66 0 10 C0 11.65 0 13.3 0 15 C-0.66 14.67 -1.32 14.34 -2 14 C-1.34 9.38 -0.68 4.76 0 0 Z " fill="#949598" transform="translate(169,250)"/>
<path d="M0 0 C1.5625 1.5625 1.5625 1.5625 3 4 C2.74889902 6.34360915 2.41434251 8.67968195 2 11 C2.34659295 13.32158065 2.34659295 13.32158065 3 15 C2.01 15.33 1.02 15.66 0 16 C0 14.35 0 12.7 0 11 C-0.66 10.67 -1.32 10.34 -2 10 C-1.67 9.67 -1.34 9.34 -1 9 C-0.76807135 7.48530552 -0.58784762 5.96245438 -0.4375 4.4375 C-0.35371094 3.61121094 -0.26992188 2.78492188 -0.18359375 1.93359375 C-0.12300781 1.29550781 -0.06242187 0.65742188 0 0 Z " fill="#9E9DA0" transform="translate(418,249)"/>
<path d="M0 0 C4.29 0 8.58 0 13 0 C13 0.33 13 0.66 13 1 C10.36 1 7.72 1 5 1 C5 2.32 5 3.64 5 5 C3.35 5 1.7 5 0 5 C0 3.35 0 1.7 0 0 Z " fill="#4F5058" transform="translate(155,265)"/>
<path d="M0 0 C0.33 0 0.66 0 1 0 C1.02505615 0.59014893 1.0501123 1.18029785 1.07592773 1.78833008 C1.19200052 4.46326814 1.31467572 7.1378638 1.4375 9.8125 C1.47681641 10.74126953 1.51613281 11.67003906 1.55664062 12.62695312 C1.59853516 13.51962891 1.64042969 14.41230469 1.68359375 15.33203125 C1.72025146 16.15421143 1.75690918 16.9763916 1.79467773 17.82348633 C1.93427772 20.17905178 1.93427772 20.17905178 3 23 C2.34 23.66 1.68 24.32 1 25 C1 24.34 1 23.68 1 23 C0.34 22.67 -0.32 22.34 -1 22 C-0.67 14.74 -0.34 7.48 0 0 Z " fill="#8B8B91" transform="translate(418,355)"/>
<path d="M0 0 C0.99 0 1.98 0 3 0 C3 1.98 3 3.96 3 6 C3.66 6.33 4.32 6.66 5 7 C1.25 8.125 1.25 8.125 -1 7 C-1.04254356 5.00045254 -1.04080783 2.99958364 -1 1 C-0.67 0.67 -0.34 0.34 0 0 Z " fill="#525661" transform="translate(281,303)"/>
<path d="M0 0 C1.98 0 3.96 0 6 0 C6.05447047 1.41623216 6.09300508 2.83308191 6.125 4.25 C6.14820313 5.03890625 6.17140625 5.8278125 6.1953125 6.640625 C6 9 6 9 4 13 C4 9.37 4 5.74 4 2 C2.68 2 1.36 2 0 2 C0 1.34 0 0.68 0 0 Z " fill="#565760" transform="translate(410,239)"/>
<path d="M0 0 C0.33 0 0.66 0 1 0 C1 2.64 1 5.28 1 8 C1.66 8 2.32 8 3 8 C2.67 9.32 2.34 10.64 2 12 C2 11.34 2 10.68 2 10 C1.34 10 0.68 10 0 10 C-0.33 11.32 -0.66 12.64 -1 14 C-1.02685938 11.85423363 -1.04633088 9.70837355 -1.0625 7.5625 C-1.07410156 6.36753906 -1.08570313 5.17257813 -1.09765625 3.94140625 C-1 1 -1 1 0 0 Z " fill="#A0A1A2" transform="translate(169,240)"/>
<path d="M0 0 C1.65 0 3.3 0 5 0 C5.1875 2.375 5.1875 2.375 5 5 C4.01 5.66 3.02 6.32 2 7 C2 6.34 2 5.68 2 5 C1.34 5 0.68 5 0 5 C0 3.35 0 1.7 0 0 Z " fill="#505156" transform="translate(428,265)"/>
<path d="M0 0 C1.65 0.33 3.3 0.66 5 1 C5 1.66 5 2.32 5 3 C5.66 3 6.32 3 7 3 C7 3.66 7 4.32 7 5 C4.36 5 1.72 5 -1 5 C-0.67 3.35 -0.34 1.7 0 0 Z " fill="#4C4D52" transform="translate(171,256)"/>
<path d="M0 0 C0.33 0 0.66 0 1 0 C1.33 2.31 1.66 4.62 2 7 C2.99 7.33 3.98 7.66 5 8 C5 9.65 5 11.3 5 13 C3.35 12.67 1.7 12.34 0 12 C0 8.04 0 4.08 0 0 Z " fill="#6B6C74" transform="translate(413,241)"/>
<path d="M0 0 C0 0.99 0 1.98 0 3 C-0.66 3 -1.32 3 -2 3 C-2.66 4.32 -3.32 5.64 -4 7 C-4.33 7 -4.66 7 -5 7 C-5 5.02 -5 3.04 -5 1 C-6.65 1 -8.3 1 -10 1 C-10 0.67 -10 0.34 -10 0 C-6.33694766 -0.74926071 -3.57644848 -1.2380014 0 0 Z " fill="#9D9D9E" transform="translate(421,131)"/>
<path d="M0 0 C0.33 0.66 0.66 1.32 1 2 C1.66 2.33 2.32 2.66 3 3 C2.67 4.65 2.34 6.3 2 8 C-1.69418201 9.231394 -4.2056261 8.64432764 -8 8 C-8 7.67 -8 7.34 -8 7 C-5.69 7 -3.38 7 -1 7 C-0.67 4.69 -0.34 2.38 0 0 Z " fill="#7E7F86" transform="translate(169,260)"/>
<path d="M0 0 C2.475 0.495 2.475 0.495 5 1 C4.67 2.32 4.34 3.64 4 5 C2.68 4.67 1.36 4.34 0 4 C0 2.68 0 1.36 0 0 Z " fill="#626672" transform="translate(292,266)"/>
<path d="M0 0 C0.99 0.33 1.98 0.66 3 1 C3 2.32 3 3.64 3 5 C1.35 4.67 -0.3 4.34 -2 4 C-1.34 2.68 -0.68 1.36 0 0 Z " fill="#9396A5" transform="translate(293,442)"/>
<path d="M0 0 C1.65 0 3.3 0 5 0 C5 2.31 5 4.62 5 7 C4.34 7 3.68 7 3 7 C3 5.35 3 3.7 3 2 C2.01 2 1.02 2 0 2 C0 1.34 0 0.68 0 0 Z " fill="#808187" transform="translate(419,396)"/>
<path d="M0 0 C1.65 0 3.3 0 5 0 C5 1.33333333 5 2.66666667 5 4 C2.36 4 -0.28 4 -3 4 C-2.01 3.67 -1.02 3.34 0 3 C0 2.01 0 1.02 0 0 Z " fill="#434347" transform="translate(413,257)"/>
<path d="M0 0 C1.32 0 2.64 0 4 0 C4 1.65 4 3.3 4 5 C2.68 4.67 1.36 4.34 0 4 C0 2.68 0 1.36 0 0 Z " fill="#656973" transform="translate(399,266)"/>
<path d="M0 0 C0.33 0.99 0.66 1.98 1 3 C1.99 3 2.98 3 4 3 C4 4.65 4 6.3 4 8 C3.34 8 2.68 8 2 8 C2 7.34 2 6.68 2 6 C1.34 6 0.68 6 0 6 C0 4.02 0 2.04 0 0 Z " fill="#A4A4A5" transform="translate(168,130)"/>
<path d="M0 0 C0.33 0 0.66 0 1 0 C1.12375 0.78375 1.2475 1.5675 1.375 2.375 C1.79117993 5.14057822 1.79117993 5.14057822 4 7 C2.02 7 0.04 7 -2 7 C-1.34 4.69 -0.68 2.38 0 0 Z " fill="#7E8087" transform="translate(254,125)"/>
</svg>
