<?xml version="1.0" encoding="UTF-8"?>
<svg version="1.1" xmlns="http://www.w3.org/2000/svg" width="551" height="551">
<path d="M0 0 C0.99 0.495 0.99 0.495 2 1 C3.75590877 1.11931048 5.51614607 1.17719868 7.27587891 1.20532227 C8.3768692 1.22526749 9.4778595 1.24521271 10.61221313 1.26576233 C11.80494843 1.28247482 12.99768372 1.29918732 14.2265625 1.31640625 C15.44451508 1.33718735 16.66246765 1.35796844 17.91732788 1.37937927 C21.8198262 1.44492584 25.7223935 1.50378355 29.625 1.5625 C32.26563222 1.60568035 34.90625739 1.64929448 37.546875 1.69335938 C44.03117643 1.80061244 50.51554694 1.90236929 57 2 C57 1.34 57 0.68 57 0 C60.3 0 63.6 0 67 0 C67 0.66 67 1.32 67 2 C67.66 2 68.32 2 69 2 C68.67 3.65 68.34 5.3 68 7 C66.35 7 64.7 7 63 7 C63 8.98 63 10.96 63 13 C84.45 12.67 105.9 12.34 128 12 C126.87639692 27.73044316 126.87639692 27.73044316 126.16796875 33.3203125 C126.01102539 34.58109619 125.85408203 35.84187988 125.69238281 37.14086914 C125.56893494 38.1144487 125.56893494 38.1144487 125.44299316 39.10769653 C124.99367863 42.65536003 124.55718983 46.20459712 124.12109375 49.75390625 C124.02998322 50.49452805 123.93887268 51.23514984 123.84500122 51.99821472 C122.74340567 61.01172369 121.74476472 70.03668089 120.75 79.0625 C120.6169899 80.26824677 120.6169899 80.26824677 120.48129272 81.49835205 C119.98523632 85.99865166 119.49152763 90.49920316 119 95 C118.34 95 117.68 95 117 95 C116.95101563 95.96035156 116.90203125 96.92070312 116.8515625 97.91015625 C116.38027263 106.70320329 115.75152899 115.47635224 115 124.25 C114.9170166 125.23750244 114.8340332 126.22500488 114.74853516 127.24243164 C114.62551025 128.64609985 114.62551025 128.64609985 114.5 130.078125 C114.4278125 130.90731445 114.355625 131.73650391 114.28125 132.59082031 C113.89401644 135.90785227 113.50142399 138.99715202 112 142 C113.01033295 141.99777939 114.02066589 141.99555878 115.06161499 141.99327087 C124.56761968 141.97302837 134.07362002 141.9580225 143.57964134 141.94818783 C148.46716584 141.94296183 153.35467299 141.93586929 158.2421875 141.92456055 C162.95596106 141.91372165 167.6697179 141.90772103 172.38350296 141.90512276 C174.1848947 141.90327032 175.98628549 141.89965317 177.78767014 141.89426994 C180.30426791 141.88704624 182.82079593 141.88600963 185.33740234 141.88647461 C186.46273125 141.8810817 186.46273125 141.8810817 187.61079407 141.87557983 C192.77189568 141.88594784 192.77189568 141.88594784 195 143 C194.67 187.55 194.34 232.1 194 278 C195.65 278 197.3 278 199 278 C199 299.45 199 320.9 199 343 C152.51817992 343.02258341 106.03636115 343.04049718 59.55453667 343.05106533 C54.07306025 343.05231611 48.59158383 343.05361043 43.11010742 343.05493164 C41.4731393 343.05532511 41.4731393 343.05532511 39.80310111 343.05572652 C22.10812532 343.06008367 4.41315275 343.06797146 -13.28182112 343.0771528 C-31.42417484 343.0864881 -49.56652685 343.09205535 -67.70888287 343.09408849 C-78.91323238 343.09546398 -90.11757275 343.09981594 -101.32191945 343.10791647 C-108.9941048 343.11318241 -116.66628539 343.11480464 -124.33847242 343.11350138 C-128.77191094 343.11285776 -133.20533344 343.11387819 -137.63876915 343.11920547 C-141.69063938 343.12403901 -145.74248267 343.12433896 -149.79435409 343.12089889 C-151.26677184 343.12047316 -152.7391912 343.12176928 -154.21160572 343.12488318 C-156.19993726 343.12884651 -158.18827884 343.12615665 -160.1766119 343.12304783 C-161.83921737 343.12361741 -161.83921737 343.12361741 -163.53541082 343.1241985 C-166 343 -166 343 -167 342 C-167.09920667 340.07767713 -167.12799363 338.15168721 -167.12939453 336.22680664 C-167.13254669 334.99205093 -167.13569885 333.75729523 -167.13894653 332.48512268 C-167.13715655 331.12680018 -167.13510555 329.768478 -167.1328125 328.41015625 C-167.13348566 327.02632124 -167.13445579 325.64248634 -167.13571167 324.25865173 C-167.13718856 321.35414508 -167.1350347 318.44966911 -167.13037109 315.54516602 C-167.12467911 311.81803214 -167.12794948 308.09097036 -167.13394356 304.36383915 C-167.13755394 301.50458735 -167.13640829 298.64535269 -167.13381577 295.78610039 C-167.13314754 294.41174753 -167.13397128 293.03739313 -167.13629532 291.66304207 C-167.13882901 289.74289097 -167.13428392 287.82273444 -167.12939453 285.90258789 C-167.12859894 284.80862198 -167.12780334 283.71465607 -167.12698364 282.58753967 C-167 280 -167 280 -166 278 C-164.35 278 -162.7 278 -161 278 C-161 233.12 -161 188.24 -161 142 C-158.69 142 -156.38 142 -154 142 C-154.01740234 140.19402344 -154.01740234 140.19402344 -154.03515625 138.3515625 C-154.04453434 136.77604321 -154.05363452 135.20052225 -154.0625 133.625 C-154.07087891 132.8309375 -154.07925781 132.036875 -154.08789062 131.21875 C-154.11328125 125.2265625 -154.11328125 125.2265625 -153 123 C-153.99 123 -154.98 123 -156 123 C-156.63506284 112.58026533 -154.18914444 102.94799821 -150.74609375 93.171875 C-149.93855509 90.82113418 -149.24873023 88.45132306 -148.5625 86.0625 C-147.03941369 80.9018299 -145.07862202 75.95914897 -143 71 C-142.34 71 -141.68 71 -141 71 C-140.85304687 70.46632813 -140.70609375 69.93265625 -140.5546875 69.3828125 C-137.39088758 58.87317829 -131.0498004 49.35179057 -124 41 C-123.34 41 -122.68 41 -122 41 C-121.67 40.01 -121.34 39.02 -121 38 C-116.54285714 34 -116.54285714 34 -114 34 C-113.76023438 33.40960938 -113.52046875 32.81921875 -113.2734375 32.2109375 C-108.45878774 23.85176032 -95.00331623 18.78084137 -86.3125 15.6875 C-77.52142192 13.86293662 -68.59206858 13.72282098 -59.64453125 13.48242188 C-58.70222656 13.44826172 -57.75992188 13.41410156 -56.7890625 13.37890625 C-55.51603271 13.34132202 -55.51603271 13.34132202 -54.21728516 13.30297852 C-51.71494697 13.1255362 -51.71494697 13.1255362 -49 11 C-48.505 11.495 -48.505 11.495 -48 12 C-46.43551617 12.12263388 -44.86567228 12.17779522 -43.29663086 12.20532227 C-41.79518776 12.2352401 -41.79518776 12.2352401 -40.26341248 12.26576233 C-38.63062096 12.29083107 -38.63062096 12.29083107 -36.96484375 12.31640625 C-35.85645645 12.33718735 -34.74806915 12.35796844 -33.60609436 12.37937927 C-30.04996192 12.44499623 -26.49375297 12.50381596 -22.9375 12.5625 C-20.53319507 12.60567368 -18.12889801 12.64928758 -15.72460938 12.69335938 C-9.81648815 12.80068992 -3.90829009 12.90243331 2 13 C2.33 11.02 2.66 9.04 3 7 C1.35 7 -0.3 7 -2 7 C-2 5.35 -2 3.7 -2 2 C-1.34 2 -0.68 2 0 2 C0 1.34 0 0.68 0 0 Z M8 7 C8 8.98 8 10.96 8 13 C24.17 13 40.34 13 57 13 C57.33 11.02 57.66 9.04 58 7 C41.5 7 25 7 8 7 Z " fill="#676A78" transform="translate(282,118)"/>
<path d="M0 0 C0.99 0.495 0.99 0.495 2 1 C3.75590877 1.11931048 5.51614607 1.17719868 7.27587891 1.20532227 C8.3768692 1.22526749 9.4778595 1.24521271 10.61221313 1.26576233 C11.80494843 1.28247482 12.99768372 1.29918732 14.2265625 1.31640625 C15.44451508 1.33718735 16.66246765 1.35796844 17.91732788 1.37937927 C21.8198262 1.44492584 25.7223935 1.50378355 29.625 1.5625 C32.26563222 1.60568035 34.90625739 1.64929448 37.546875 1.69335938 C44.03117643 1.80061244 50.51554694 1.90236929 57 2 C57 1.34 57 0.68 57 0 C60.3 0 63.6 0 67 0 C67 0.66 67 1.32 67 2 C67.66 2 68.32 2 69 2 C68.67 3.65 68.34 5.3 68 7 C66.35 7 64.7 7 63 7 C63 8.98 63 10.96 63 13 C84.45 12.67 105.9 12.34 128 12 C126.87639692 27.73044316 126.87639692 27.73044316 126.16796875 33.3203125 C126.01102539 34.58109619 125.85408203 35.84187988 125.69238281 37.14086914 C125.56893494 38.1144487 125.56893494 38.1144487 125.44299316 39.10769653 C124.99367863 42.65536003 124.55718983 46.20459712 124.12109375 49.75390625 C124.02998322 50.49452805 123.93887268 51.23514984 123.84500122 51.99821472 C122.74340567 61.01172369 121.74476472 70.03668089 120.75 79.0625 C120.6169899 80.26824677 120.6169899 80.26824677 120.48129272 81.49835205 C119.98523632 85.99865166 119.49152763 90.49920316 119 95 C118.34 95 117.68 95 117 95 C116.95101563 95.96035156 116.90203125 96.92070312 116.8515625 97.91015625 C116.38027263 106.70320329 115.75152899 115.47635224 115 124.25 C114.9170166 125.23750244 114.8340332 126.22500488 114.74853516 127.24243164 C114.62551025 128.64609985 114.62551025 128.64609985 114.5 130.078125 C114.4278125 130.90731445 114.355625 131.73650391 114.28125 132.59082031 C113.85905349 136.20734387 113.15173802 139.54478593 112 143 C112.90122589 142.99777939 113.80245178 142.99555878 114.73098755 142.99327087 C123.23504869 142.97321207 131.73910185 142.95799736 140.24318123 142.94818783 C144.61493059 142.94297509 148.98666035 142.93590668 153.35839844 142.92456055 C157.57941759 142.91367446 161.80041793 142.90771104 166.02145004 142.90512276 C167.62974214 142.90327882 169.23803323 142.89967809 170.84631729 142.89426994 C173.10345922 142.88698356 175.36052394 142.88601226 177.61767578 142.88647461 C178.90118927 142.884254 180.18470276 142.88203339 181.5071106 142.87974548 C185 143 185 143 191 144 C191 188.22 191 232.44 191 278 C133.91 278 76.82 278 18 278 C17.35929644 260.06030036 16.8584283 242.2306887 16.90234375 224.296875 C16.90421726 221.98276806 16.90563673 219.66866071 16.90663147 217.35455322 C16.91038338 211.3708174 16.92014752 205.38710727 16.93133545 199.40338135 C16.94354649 192.1665856 16.94798681 184.92978108 16.95378876 177.69297791 C16.96336608 166.79530093 16.98257301 155.89767993 17 145 C-8.08 145 -33.16 145 -59 145 C-59 144.67 -59 144.34 -59 144 C-4.22 143.67 50.56 143.34 107 143 C104.03 142.67 101.06 142.34 98 142 C97.67 141.67 97.34 141.34 97 141 C94.95638675 140.54194876 92.91162142 140.08877082 90.86328125 139.65234375 C87.73458429 138.93953012 84.65619559 138.10209216 81.5625 137.25 C73.2176594 134.99029164 64.7998617 133.08050617 56.36352539 131.19433594 C51.6148734 130.12079639 46.91716186 129.02069337 42.26953125 127.56640625 C29.36720715 123.62488665 17.38322374 121.39866165 3.890625 121.390625 C2.35200914 121.37543819 0.81340854 121.35863502 -0.72517395 121.34037781 C-4.87043552 121.29626055 -9.01548173 121.27637124 -13.16093826 121.26157761 C-16.65209543 121.24596607 -20.14306562 121.21576954 -23.63412189 121.18551159 C-36.08928613 121.07812389 -48.54443869 121.03104038 -61 121 C-62.56687939 120.99606861 -62.56687939 120.99606861 -64.1654129 120.9920578 C-94.11033843 120.91989827 -124.05508421 120.93250789 -154 121 C-154 121.66 -154 122.32 -154 123 C-154.66 123 -155.32 123 -156 123 C-156.63506284 112.58026533 -154.18914444 102.94799821 -150.74609375 93.171875 C-149.93855509 90.82113418 -149.24873023 88.45132306 -148.5625 86.0625 C-147.03941369 80.9018299 -145.07862202 75.95914897 -143 71 C-142.34 71 -141.68 71 -141 71 C-140.85304687 70.46632813 -140.70609375 69.93265625 -140.5546875 69.3828125 C-137.39088758 58.87317829 -131.0498004 49.35179057 -124 41 C-123.34 41 -122.68 41 -122 41 C-121.67 40.01 -121.34 39.02 -121 38 C-116.54285714 34 -116.54285714 34 -114 34 C-113.76023438 33.40960938 -113.52046875 32.81921875 -113.2734375 32.2109375 C-108.45878774 23.85176032 -95.00331623 18.78084137 -86.3125 15.6875 C-77.52142192 13.86293662 -68.59206858 13.72282098 -59.64453125 13.48242188 C-58.70222656 13.44826172 -57.75992188 13.41410156 -56.7890625 13.37890625 C-55.51603271 13.34132202 -55.51603271 13.34132202 -54.21728516 13.30297852 C-51.71494697 13.1255362 -51.71494697 13.1255362 -49 11 C-48.505 11.495 -48.505 11.495 -48 12 C-46.43551617 12.12263388 -44.86567228 12.17779522 -43.29663086 12.20532227 C-41.79518776 12.2352401 -41.79518776 12.2352401 -40.26341248 12.26576233 C-38.63062096 12.29083107 -38.63062096 12.29083107 -36.96484375 12.31640625 C-35.85645645 12.33718735 -34.74806915 12.35796844 -33.60609436 12.37937927 C-30.04996192 12.44499623 -26.49375297 12.50381596 -22.9375 12.5625 C-20.53319507 12.60567368 -18.12889801 12.64928758 -15.72460938 12.69335938 C-9.81648815 12.80068992 -3.90829009 12.90243331 2 13 C2.33 11.02 2.66 9.04 3 7 C1.35 7 -0.3 7 -2 7 C-2 5.35 -2 3.7 -2 2 C-1.34 2 -0.68 2 0 2 C0 1.34 0 0.68 0 0 Z M8 7 C8 8.98 8 10.96 8 13 C24.17 13 40.34 13 57 13 C57.33 11.02 57.66 9.04 58 7 C41.5 7 25 7 8 7 Z " fill="#7E8092" transform="translate(282,118)"/>
<path d="M0 0 C4.455 0.99 4.455 0.99 9 2 C9.33 4.31 9.66 6.62 10 9 C26.17 9 42.34 9 59 9 C59 9.33 59 9.66 59 10 C25.67 10.66 -7.66 11.32 -42 12 C-42.33 13.32 -42.66 14.64 -43 16 C-2.74 16 37.52 16 79 16 C79 16.66 79 17.32 79 18 C76.54273762 19.22863119 74.95176738 19.12312293 72.2038269 19.12025452 C71.19137909 19.12162918 70.17893127 19.12300385 69.13580322 19.12442017 C68.02090515 19.12082489 66.90600708 19.11722961 65.75732422 19.11352539 C64.5866037 19.11367142 63.41588318 19.11381744 62.20968628 19.1139679 C58.9950139 19.1133896 55.78038477 19.10836593 52.56572104 19.10139394 C49.20780722 19.09515295 45.8498926 19.09455601 42.49197388 19.09336853 C36.13132452 19.09025742 29.77069231 19.08204698 23.41005051 19.07201904 C16.16951549 19.06085109 8.92897966 19.05534573 1.68843818 19.05032361 C-13.20771744 19.0398642 -28.10385701 19.022269 -43 19 C-42.01042191 20.20958406 -42.01042191 20.20958406 -40.09657192 20.12304783 C-39.25681851 20.12212604 -38.41706511 20.12120424 -37.55186462 20.12025452 C-36.11098228 20.12231651 -36.11098228 20.12231651 -34.64099121 20.12442017 C-33.04740784 20.11902725 -33.04740784 20.11902725 -31.42163086 20.11352539 C-30.30957779 20.11367142 -29.19752472 20.11381744 -28.05177307 20.1139679 C-24.35611049 20.11326821 -20.66049759 20.1054732 -16.96484375 20.09765625 C-14.41036507 20.09579227 -11.85588603 20.09436827 -9.30140686 20.09336853 C-3.2523829 20.08993344 2.79661955 20.08204264 8.84563488 20.07201904 C15.73065154 20.06085683 22.61566904 20.05534718 29.50069249 20.05032361 C43.6671383 20.03986 57.83356817 20.02226123 72 20 C67.22504266 24.98016212 67.22504266 24.98016212 63 26 C62.71125 26.5775 62.4225 27.155 62.125 27.75 C60.81205834 30.37588332 59.07171022 31.55237439 56.8203125 33.36328125 C50.10050476 39.40534015 45.05364447 47.180152 40.125 54.6875 C39.6606958 55.3877832 39.1963916 56.08806641 38.71801758 56.80957031 C35.77266049 61.39159593 33.74910388 65.83956437 32 71 C31.34 71 30.68 71 30 71 C29.85304688 71.51304687 29.70609375 72.02609375 29.5546875 72.5546875 C28.32155455 76.76434827 27.03575281 80.93937835 25.5703125 85.07421875 C25.31266113 85.81236816 25.05500977 86.55051758 24.78955078 87.31103516 C24.28559686 88.74809858 23.77191054 90.18181087 23.24560547 91.61083984 C20.49485995 99.51720663 19.33942534 107.76336533 18 116 C7.10435783 116.18004661 -3.79147322 116.34510028 -14.6875 116.5 C-15.52243862 116.51187725 -16.35737724 116.5237545 -17.21761703 116.53599167 C-48.24963669 116.97277489 -79.27763466 117.08807731 -110.3125 117.0625 C-111.3586636 117.06164398 -112.40482719 117.06078796 -113.48269272 117.05990601 C-126.32181285 117.04861119 -139.16090727 117.02867916 -152 117 C-152 117.66 -152 118.32 -152 119 C-152.66 119 -153.32 119 -154 119 C-154.63506284 108.58026533 -152.18914444 98.94799821 -148.74609375 89.171875 C-147.93855509 86.82113418 -147.24873023 84.45132306 -146.5625 82.0625 C-145.03941369 76.9018299 -143.07862202 71.95914897 -141 67 C-140.34 67 -139.68 67 -139 67 C-138.85304687 66.46632813 -138.70609375 65.93265625 -138.5546875 65.3828125 C-135.39088758 54.87317829 -129.0498004 45.35179057 -122 37 C-121.34 37 -120.68 37 -120 37 C-119.67 36.01 -119.34 35.02 -119 34 C-114.54285714 30 -114.54285714 30 -112 30 C-111.76023438 29.40960938 -111.52046875 28.81921875 -111.2734375 28.2109375 C-106.45878774 19.85176032 -93.00331623 14.78084137 -84.3125 11.6875 C-75.52142192 9.86293662 -66.59206858 9.72282098 -57.64453125 9.48242188 C-56.70222656 9.44826172 -55.75992188 9.41410156 -54.7890625 9.37890625 C-53.51603271 9.34132202 -53.51603271 9.34132202 -52.21728516 9.30297852 C-49.71494697 9.1255362 -49.71494697 9.1255362 -47 7 C-46.505 7.495 -46.505 7.495 -46 8 C-44.43551617 8.12263388 -42.86567228 8.17779522 -41.29663086 8.20532227 C-39.79518776 8.2352401 -39.79518776 8.2352401 -38.26341248 8.26576233 C-36.63062096 8.29083107 -36.63062096 8.29083107 -34.96484375 8.31640625 C-33.85645645 8.33718735 -32.74806915 8.35796844 -31.60609436 8.37937927 C-28.04996192 8.44499623 -24.49375297 8.50381596 -20.9375 8.5625 C-18.53319507 8.60567368 -16.12889801 8.64928758 -13.72460938 8.69335938 C-7.81648815 8.80068992 -1.90829009 8.90243331 4 9 C4.33 7.02 4.66 5.04 5 3 C3.35 3 1.7 3 0 3 C0 2.01 0 1.02 0 0 Z " fill="#9498AB" transform="translate(280,122)"/>
<path d="M0 0 C1.98 0 3.96 0 6 0 C6 21.45 6 42.9 6 65 C-40.48182008 65.02258341 -86.96363885 65.04049718 -133.44546333 65.05106533 C-138.92693975 65.05231611 -144.40841617 65.05361043 -149.88989258 65.05493164 C-151.5268607 65.05532511 -151.5268607 65.05532511 -153.19689889 65.05572652 C-170.89187468 65.06008367 -188.58684725 65.06797146 -206.28182112 65.0771528 C-224.42417484 65.0864881 -242.56652685 65.09205535 -260.70888287 65.09408849 C-271.91323238 65.09546398 -283.11757275 65.09981594 -294.32191945 65.10791647 C-301.9941048 65.11318241 -309.66628539 65.11480464 -317.33847242 65.11350138 C-321.77191094 65.11285776 -326.20533344 65.11387819 -330.63876915 65.11920547 C-334.69063938 65.12403901 -338.74248267 65.12433896 -342.79435409 65.12089889 C-344.26677184 65.12047316 -345.7391912 65.12176928 -347.21160572 65.12488318 C-349.19993726 65.12884651 -351.18827884 65.12615665 -353.1766119 65.12304783 C-354.83921737 65.12361741 -354.83921737 65.12361741 -356.53541082 65.1241985 C-359 65 -359 65 -360 64 C-360.09396057 62.06693502 -360.11743517 60.13041162 -360.11352539 58.19506836 C-360.11344986 56.95385727 -360.11337433 55.71264618 -360.11329651 54.43382263 C-360.10818911 53.0691626 -360.1029731 51.70450298 -360.09765625 50.33984375 C-360.095792 48.95121817 -360.09436813 47.56259193 -360.09336853 46.17396545 C-360.08954387 42.51278885 -360.07971403 38.8516517 -360.06866455 35.19049072 C-360.05844932 31.45707737 -360.05387067 27.72365766 -360.04882812 23.99023438 C-360.03809171 16.66013823 -360.02101591 9.33007464 -360 2 C-359.67 2 -359.34 2 -359 2 C-358.85503601 8.09735506 -358.71275051 14.19476519 -358.57275391 20.29223633 C-358.52495495 22.35865897 -358.47647337 24.42506596 -358.42724609 26.49145508 C-358.35586838 29.49296078 -358.28709767 32.49451768 -358.21875 35.49609375 C-358.19687622 36.39267197 -358.17500244 37.28925018 -358.15246582 38.21299744 C-357.96104654 46.81458843 -358 55.38806337 -358 64 C-297.94 64 -237.88 64 -176 64 C-176 43.54 -176 23.08 -176 2 C-117.92 2 -59.84 2 0 2 C0 1.34 0 0.68 0 0 Z " fill="#7E8193" transform="translate(475,396)"/>
<path d="M0 0 C29.7 0 59.4 0 90 0 C90 0.66 90 1.32 90 2 C89.34 2 88.68 2 88 2 C88.495 3.485 88.495 3.485 89 5 C89.09343801 6.39332557 89.12994317 7.79105366 89.125 9.1875 C89.12886719 10.26064453 89.12886719 10.26064453 89.1328125 11.35546875 C88.95383681 14.91919057 88.44258238 18.45934097 88 22 C56.98 22 25.96 22 -6 22 C-6 21.67 -6 21.34 -6 21 C-4.02 21 -2.04 21 0 21 C0 14.07 0 7.14 0 0 Z " fill="#696C7B" transform="translate(128,239)"/>
<path d="M0 0 C10.52654238 -0.0231363 21.05307875 -0.04092168 31.57964134 -0.05181217 C36.46716584 -0.05703817 41.35467299 -0.06413071 46.2421875 -0.07543945 C50.95596106 -0.08627835 55.6697179 -0.09227897 60.38350296 -0.09487724 C62.1848947 -0.09672968 63.98628549 -0.10034683 65.78767014 -0.10573006 C68.30426791 -0.11295376 70.82079593 -0.11399037 73.33740234 -0.11352539 C74.08762161 -0.11712067 74.83784088 -0.12071594 75.61079407 -0.12442017 C80.77189568 -0.11405216 80.77189568 -0.11405216 83 1 C82.8928625 18.56731478 82.78011954 36.13458336 82.66066074 53.70181847 C82.60532827 61.85816376 82.55184623 70.01451342 82.50268555 78.17089844 C82.459844 85.2780843 82.4135661 92.38523795 82.36312145 99.49237406 C82.33652026 103.2572692 82.31166719 107.02215794 82.29092598 110.7870903 C82.26773576 114.98489897 82.23687528 119.18261696 82.20532227 123.38037109 C82.1995668 124.63553024 82.19381134 125.89068939 82.18788147 127.18388367 C82.17809265 128.32254379 82.16830383 129.46120392 82.15821838 130.6343689 C82.14853956 132.12490815 82.14853956 132.12490815 82.1386652 133.64555931 C82 136 82 136 81 138 C22.92 138 -35.16 138 -95 138 C-95 158.46 -95 178.92 -95 200 C-95.66 200 -96.32 200 -97 200 C-97 179.87 -97 159.74 -97 139 C-156.07 139 -215.14 139 -276 139 C-276 159.13 -276 179.26 -276 200 C-276.33 200 -276.66 200 -277 200 C-278.05128007 186.13898485 -278.11869617 172.3327976 -278.0625 158.4375 C-278.05747053 156.25065208 -278.0529102 154.06380302 -278.04882812 151.87695312 C-278.03794743 146.58461021 -278.02132612 141.29231061 -278 136 C-276.02 136 -274.04 136 -272 136 C-272 92.77 -272 49.54 -272 5 C-271.67 5 -271.34 5 -271 5 C-271 48.23 -271 91.46 -271 136 C-213.58 136 -156.16 136 -97 136 C-97 130.06 -97 124.12 -97 118 C-96.01 118 -95.02 118 -94 118 C-94 123.94 -94 129.88 -94 136 C-36.91 136 20.18 136 79 136 C79 91.78 79 47.56 79 2 C52.93 1.67 26.86 1.34 0 1 C0 0.67 0 0.34 0 0 Z " fill="#434650" transform="translate(394,260)"/>
<path d="M0 0 C0.495 1.98 0.495 1.98 1 4 C56.77 4 112.54 4 170 4 C170 4.33 170 4.66 170 5 C138.98 5.33 107.96 5.66 76 6 C76 6.33 76 6.66 76 7 C53.56 7 31.12 7 8 7 C7.67 11.62 7.34 16.24 7 21 C6.58287608 24.93001091 6.13908262 28.83422173 5.625 32.75 C5.45484375 34.2040625 5.45484375 34.2040625 5.28125 35.6875 C5.09949219 37.07195312 5.09949219 37.07195312 4.9140625 38.484375 C4.7586499 39.71752441 4.7586499 39.71752441 4.60009766 40.97558594 C4 43 4 43 1 45 C1.45052036 40.5408416 1.91184546 36.08286242 2.375 31.625 C2.50132812 30.37332031 2.62765625 29.12164062 2.7578125 27.83203125 C3.49483494 20.79346695 4.43068624 13.90377184 6 7 C4.35 7 2.7 7 1 7 C0.91959473 7.83660156 0.83918945 8.67320312 0.75634766 9.53515625 C0.4517462 12.67415895 0.14171055 15.81256665 -0.171875 18.95068359 C-0.30585115 20.30236119 -0.43773394 21.65424814 -0.56738281 23.00634766 C-1.25539255 30.16694131 -1.97141467 37.08516999 -4 44 C-4.33 44 -4.66 44 -5 44 C-5.25974829 37.63616682 -4.44511528 31.65078832 -3.4375 25.3671875 C-2.93461059 21.48226943 -2.95674544 17.64139464 -2.97265625 13.72705078 C-2.976604 12.46708282 -2.98055176 11.20711487 -2.98461914 9.90896606 C-2.98969482 8.94900726 -2.99477051 7.98904846 -3 7 C-4.62159027 7.00333092 -4.62159027 7.00333092 -6.27593994 7.00672913 C-16.45826465 7.02699084 -26.64058528 7.04198679 -36.82292557 7.05181217 C-42.05790293 7.05703328 -47.29286403 7.06411696 -52.52783203 7.07543945 C-57.57877513 7.0862957 -62.62970257 7.09228267 -67.68065643 7.09487724 C-69.60878496 7.09672654 -71.53691261 7.10033769 -73.46503448 7.10573006 C-76.16323201 7.11297675 -78.86136464 7.1139894 -81.55957031 7.11352539 C-82.75827003 7.1189183 -82.75827003 7.1189183 -83.98118591 7.12442017 C-87.56422694 7.11774182 -90.49651662 6.87587085 -94 6 C-94 49.89 -94 93.78 -94 139 C-94.33 139 -94.66 139 -95 139 C-95 94.12 -95 49.24 -95 3 C-47.975 3.495 -47.975 3.495 0 4 C0 2.68 0 1.36 0 0 Z " fill="#76787F" transform="translate(216,257)"/>
<path d="M0 0 C10.00412804 2.04629892 19.96443542 4.1639194 29.875 6.625 C30.71192383 6.83084717 31.54884766 7.03669434 32.41113281 7.2487793 C33.20100586 7.44769775 33.99087891 7.64661621 34.8046875 7.8515625 C35.49546387 8.02510254 36.18624023 8.19864258 36.89794922 8.37744141 C39 9 39 9 41.29418945 9.96386719 C44.6258154 11.23964274 48.00836911 11.98947603 51.48828125 12.7265625 C52.19147995 12.87910492 52.89467865 13.03164734 53.6191864 13.18881226 C55.84943051 13.67163471 58.08091818 14.14840287 60.3125 14.625 C61.83146656 14.95272501 63.35034778 15.28084586 64.86914062 15.609375 C68.57845505 16.41083438 72.28889622 17.20686925 76 18 C76 18.33 76 18.66 76 19 C50.92 19 25.84 19 0 19 C0 12.73 0 6.46 0 0 Z " fill="#7C7F91" transform="translate(300,241)"/>
<path d="M0 0 C0.66 0.33 1.32 0.66 2 1 C3.75590877 1.11931048 5.51614607 1.17719868 7.27587891 1.20532227 C8.3768692 1.22526749 9.4778595 1.24521271 10.61221313 1.26576233 C11.80494843 1.28247482 12.99768372 1.29918732 14.2265625 1.31640625 C15.44451508 1.33718735 16.66246765 1.35796844 17.91732788 1.37937927 C21.8198262 1.44492584 25.7223935 1.50378355 29.625 1.5625 C32.26563222 1.60568035 34.90625739 1.64929448 37.546875 1.69335938 C44.03117643 1.80061244 50.51554694 1.90236929 57 2 C57 1.34 57 0.68 57 0 C60.3 0 63.6 0 67 0 C67 0.66 67 1.32 67 2 C67.66 2 68.32 2 69 2 C68.67 3.65 68.34 5.3 68 7 C66.35 7 64.7 7 63 7 C62.67 9.31 62.34 11.62 62 14 C69.26 14 76.52 14 84 14 C84 14.33 84 14.66 84 15 C75.45208263 16.16382974 66.96854984 16.04410832 58.3671875 15.87890625 C56.87933151 15.85455136 55.39146702 15.83071068 53.90359497 15.80735779 C50.02053008 15.74505008 46.137619 15.6758377 42.25469971 15.60510254 C38.279245 15.53393202 34.30368274 15.46940843 30.328125 15.40429688 C22.55196424 15.27597366 14.77595411 15.1403434 7 15 C7 14.67 7 14.34 7 14 C23.5 14 40 14 57 14 C57.33 11.69 57.66 9.38 58 7 C41.5 7 25 7 8 7 C7.67 7.66 7.34 8.32 7 9 C7 8.01 7 7.02 7 6 C4.69 6 2.38 6 0 6 C-0.66 4.68 -1.32 3.36 -2 2 C-1.34 2 -0.68 2 0 2 C0 1.34 0 0.68 0 0 Z " fill="#6D6F79" transform="translate(282,118)"/>
<path d="M0 0 C0.89874816 0.00092179 1.79749632 0.00184359 2.72347927 0.00279331 C3.75138073 0.00141865 4.77928219 0.00004398 5.83833218 -0.00137234 C6.975527 0.00222294 8.11272182 0.00581821 9.2843771 0.00952244 C10.47445873 0.00937641 11.66454037 0.00923038 12.89068508 0.00907993 C16.16326569 0.00965889 19.43580402 0.01468801 22.70837617 0.02165389 C26.1250196 0.02788815 29.54166379 0.02849128 32.95831203 0.0296793 C39.43232563 0.0327924 45.90632242 0.0410055 52.3803286 0.05102879 C59.74901216 0.06219058 67.11769651 0.06770054 74.48638642 0.07272422 C89.64814464 0.08318813 104.80988712 0.10078717 119.97163296 0.12304783 C119.97163296 0.78304783 119.97163296 1.44304783 119.97163296 2.12304783 C117.51437058 3.35167902 115.92340034 3.24617076 113.17545986 3.24330235 C112.16301205 3.24467701 111.15056423 3.24605167 110.10743618 3.24746799 C108.99253811 3.24387272 107.87764004 3.24027744 106.72895718 3.23657322 C105.55823666 3.23671925 104.38751614 3.23686527 103.18131924 3.23701572 C99.96664686 3.23643743 96.75201772 3.23141376 93.53735399 3.22444177 C90.17944018 3.21820078 86.82152556 3.21760384 83.46360683 3.21641636 C77.10295748 3.21330525 70.74232527 3.20509481 64.38168347 3.19506687 C57.14114845 3.18389892 49.90061262 3.17839356 42.66007113 3.17337143 C27.76391552 3.16291203 12.86777595 3.14531683 -2.02836704 3.12304783 C-2.02554029 3.74054213 -2.02271355 4.35803642 -2.01980114 4.99424267 C-2.01760256 5.80451601 -2.01540398 6.61478935 -2.01313877 7.44961643 C-2.01031202 8.25273573 -2.00748528 9.05585503 -2.00457287 9.88331127 C-2.03095006 12.36618671 -2.25058424 14.75322474 -2.61430454 17.20898533 C-2.7395853 18.0724155 -2.86486607 18.93584568 -2.99394321 19.82544041 C-3.12905308 20.70740086 -3.26416294 21.58936131 -3.40336704 22.49804783 C-3.53912144 23.4154575 -3.67487583 24.33286716 -3.814744 25.27807713 C-4.75947432 31.58279721 -5.78357176 37.8697821 -7.02836704 44.12304783 C-7.35836704 44.12304783 -7.68836704 44.12304783 -8.02836704 44.12304783 C-8.35836704 39.83304783 -8.68836704 35.54304783 -9.02836704 31.12304783 C-9.35836704 31.12304783 -9.68836704 31.12304783 -10.02836704 31.12304783 C-10.21586704 28.31054783 -10.21586704 28.31054783 -10.02836704 25.12304783 C-9.31293736 24.4211533 -9.31293736 24.4211533 -8.58305454 23.70507908 C-6.62100961 21.70852582 -6.42401504 20.36303972 -5.96586704 17.62304783 C-5.81117954 16.74777439 -5.65649204 15.87250095 -5.49711704 14.97070408 C-5.34242954 14.03097752 -5.18774204 13.09125095 -5.02836704 12.12304783 C-4.67814189 10.10152767 -4.32406355 8.08067076 -3.96586704 6.06054783 C-3.80989048 5.14144627 -3.65391392 4.2223447 -3.49321079 3.27539158 C-2.82280444 0.17124118 -2.82280444 0.17124118 0 0 Z M-11.02836704 31.12304783 C-10.69836704 31.12304783 -10.36836704 31.12304783 -10.02836704 31.12304783 C-10.02836704 33.10304783 -10.02836704 35.08304783 -10.02836704 37.12304783 C-10.35836704 37.12304783 -10.68836704 37.12304783 -11.02836704 37.12304783 C-11.02836704 35.14304783 -11.02836704 33.16304783 -11.02836704 31.12304783 Z " fill="#9A9FB1" transform="translate(239.0283670425415,137.87695217132568)"/>
<path d="M0 0 C10.52654238 -0.0231363 21.05307875 -0.04092168 31.57964134 -0.05181217 C36.46716584 -0.05703817 41.35467299 -0.06413071 46.2421875 -0.07543945 C50.95596106 -0.08627835 55.6697179 -0.09227897 60.38350296 -0.09487724 C62.1848947 -0.09672968 63.98628549 -0.10034683 65.78767014 -0.10573006 C68.30426791 -0.11295376 70.82079593 -0.11399037 73.33740234 -0.11352539 C74.08762161 -0.11712067 74.83784088 -0.12071594 75.61079407 -0.12442017 C80.77189568 -0.11405216 80.77189568 -0.11405216 83 1 C83 2.32 83 3.64 83 5 C82.34 5 81.68 5 81 5 C80.505 70.34 80.505 70.34 80 137 C22.25 137 -35.5 137 -95 137 C-95 130.73 -95 124.46 -95 118 C-94.67 118 -94.34 118 -94 118 C-94 123.94 -94 129.88 -94 136 C-36.91 136 20.18 136 79 136 C79 91.78 79 47.56 79 2 C39.895 1.505 39.895 1.505 0 1 C0 0.67 0 0.34 0 0 Z " fill="#666874" transform="translate(394,260)"/>
<path d="M0 0 C9.3468644 -0.14086176 18.6933473 -0.24654186 28.04105282 -0.31087303 C32.38461003 -0.34179507 36.72742598 -0.38352023 41.07055664 -0.45263672 C61.63908106 -0.77134986 80.19229485 -0.26536835 100 6 C101.29840472 6.38252603 102.59783635 6.76159982 103.89868164 7.13574219 C105.92965449 7.72549232 107.95814165 8.32385391 109.984375 8.9296875 C117.14910098 10.93471213 124.48577563 12.35483515 131.76123047 13.89453125 C132.89447754 14.13816406 134.02772461 14.38179687 135.1953125 14.6328125 C136.21641113 14.84824707 137.23750977 15.06368164 138.28955078 15.28564453 C140.78013998 15.94205455 142.72014934 16.84070339 145 18 C147.33006911 18.35543427 149.66327016 18.6913753 152 19 C152.33 19.33 152.66 19.66 153 20 C155.01594582 20.23427778 157.038474 20.41336124 159.0625 20.5625 C160.71958984 20.68818359 160.71958984 20.68818359 162.41015625 20.81640625 C163.26480469 20.87699219 164.11945313 20.93757813 165 21 C161.3016766 23.46554893 159.52227842 23.2346852 155.10945129 23.20254517 C154.40451701 23.20017046 153.69958273 23.19779576 152.97328681 23.1953491 C150.60548478 23.18491219 148.23805351 23.16003336 145.87036133 23.13525391 C144.1753642 23.12483036 142.48036141 23.11529465 140.78535461 23.10658264 C136.1781453 23.08037654 131.57111389 23.04171089 126.96401429 23.00085878 C122.15140568 22.96028654 117.33872857 22.93110261 112.52604675 22.90072632 C103.41000632 22.84144992 94.29407437 22.77188671 85.17813653 22.69865549 C74.80105016 22.61579186 64.42389506 22.5443536 54.04671824 22.47388959 C32.6977109 22.32866695 11.3488311 22.16904891 -10 22 C-10 21.67 -10 21.34 -10 21 C40.82 20.67 91.64 20.34 144 20 C133.77 17.69 123.54 15.38 113 13 C110.03 12.01 107.06 11.02 104 10 C101.63601076 9.37114775 99.26357001 8.77298195 96.8828125 8.2109375 C95.61695313 7.90929687 94.35109375 7.60765625 93.046875 7.296875 C91.73963445 6.98936596 90.43234224 6.68207642 89.125 6.375 C86.52298376 5.75970118 83.9216094 5.14177857 81.3203125 4.5234375 C80.17836426 4.25450684 79.03641602 3.98557617 77.85986328 3.70849609 C75 3 75 3 72 2 C69.68536296 1.88164222 67.36753705 1.82298911 65.05004883 1.79467773 C64.34735367 1.78477814 63.64465851 1.77487854 62.92066956 1.76467896 C60.59949099 1.73310766 58.27829195 1.70832387 55.95703125 1.68359375 C54.34705577 1.66302044 52.73708564 1.64202387 51.12712097 1.62062073 C46.89063862 1.56543894 42.65410784 1.51601251 38.4175415 1.46777344 C34.09407239 1.41752999 29.77067356 1.36185877 25.44726562 1.30664062 C16.96490319 1.19910666 8.48248193 1.09765113 0 1 C0 0.67 0 0.34 0 0 Z " fill="#3F414D" transform="translate(227,239)"/>
<path d="M0 0 C23.76 0 47.52 0 72 0 C72 1.65 72 3.3 72 5 C48.24 5 24.48 5 0 5 C0 3.35 0 1.7 0 0 Z " fill="#6A6D7D" transform="translate(360,403)"/>
<path d="M0 0 C55.77 0 111.54 0 169 0 C169 0.33 169 0.66 169 1 C137.98 1.33 106.96 1.66 75 2 C75 2.33 75 2.66 75 3 C52.56 3 30.12 3 7 3 C6.67 7.62 6.34 12.24 6 17 C5.58287608 20.93001091 5.13908262 24.83422173 4.625 28.75 C4.5115625 29.719375 4.398125 30.68875 4.28125 31.6875 C4.16007813 32.61046875 4.03890625 33.5334375 3.9140625 34.484375 C3.8104541 35.30647461 3.7068457 36.12857422 3.60009766 36.97558594 C3 39 3 39 0 41 C0.45052036 36.5408416 0.91184546 32.08286242 1.375 27.625 C1.50132812 26.37332031 1.62765625 25.12164062 1.7578125 23.83203125 C2.49483494 16.79346695 3.43068624 9.90377184 5 3 C3.35 3 1.7 3 0 3 C0 2.01 0 1.02 0 0 Z " fill="#6D6F79" transform="translate(217,261)"/>
<path d="M0 0 C1.32 0 2.64 0 4 0 C4 0.99 4 1.98 4 3 C1.22051704 3.78518559 -1.24530309 4.12544238 -4.13026428 4.12698364 C-4.94753117 4.12980598 -5.76479805 4.13262833 -6.6068306 4.13553619 C-7.94239061 4.13249607 -7.94239061 4.13249607 -9.30493164 4.12939453 C-10.25249203 4.13112419 -11.20005241 4.13285385 -12.17632675 4.13463593 C-15.33762076 4.1390043 -18.49886151 4.13604026 -21.66015625 4.1328125 C-23.89572669 4.13382738 -26.131297 4.13516639 -28.36686707 4.1368103 C-34.36041732 4.13951327 -40.35394177 4.13504454 -46.3474884 4.12857056 C-50.04957151 4.12501243 -53.75165075 4.12338468 -57.45373535 4.12231445 C-96.6484238 4.10821378 -135.81112317 3.73250237 -175 3 C-175 23.13 -175 43.26 -175 64 C-175.33 64 -175.66 64 -176 64 C-176 43.54 -176 23.08 -176 2 C-117.92 2 -59.84 2 0 2 C0 1.34 0 0.68 0 0 Z " fill="#6F7182" transform="translate(475,396)"/>
<path d="M0 0 C4.455 0.99 4.455 0.99 9 2 C9.495 5.465 9.495 5.465 10 9 C26.17 9 42.34 9 59 9 C59 9.33 59 9.66 59 10 C25.67 10.66 -7.66 11.32 -42 12 C-42.33 13.32 -42.66 14.64 -43 16 C-43.99 16 -44.98 16 -46 16 C-46 14.35 -46 12.7 -46 11 C-46.66 11 -47.32 11 -48 11 C-47.67 9.68 -47.34 8.36 -47 7 C-46.67 7.33 -46.34 7.66 -46 8 C-44.43551617 8.12263388 -42.86567228 8.17779522 -41.29663086 8.20532227 C-39.79518776 8.2352401 -39.79518776 8.2352401 -38.26341248 8.26576233 C-36.63062096 8.29083107 -36.63062096 8.29083107 -34.96484375 8.31640625 C-33.85645645 8.33718735 -32.74806915 8.35796844 -31.60609436 8.37937927 C-28.04996192 8.44499623 -24.49375297 8.50381596 -20.9375 8.5625 C-18.53319507 8.60567368 -16.12889801 8.64928758 -13.72460938 8.69335938 C-7.81648815 8.80068992 -1.90829009 8.90243331 4 9 C4.33 7.02 4.66 5.04 5 3 C3.35 3 1.7 3 0 3 C0 2.01 0 1.02 0 0 Z " fill="#A0A0A4" transform="translate(280,122)"/>
<path d="M0 0 C0.33 0.99 0.66 1.98 1 3 C32.68 3 64.36 3 97 3 C97 3.66 97 4.32 97 5 C64.66 5 32.32 5 -1 5 C-0.67 3.35 -0.34 1.7 0 0 Z " fill="#747883" transform="translate(202,373)"/>
<path d="M0 0 C29.7 0 59.4 0 90 0 C90 0.66 90 1.32 90 2 C61.62 2 33.24 2 4 2 C4 3.98 4 5.96 4 8 C3.34 8 2.68 8 2 8 C1.34 5.36 0.68 2.72 0 0 Z " fill="#575A68" transform="translate(128,239)"/>
<path d="M0 0 C12.21 0 24.42 0 37 0 C37.495 2.475 37.495 2.475 38 5 C37 6 37 6 34.56394958 6.12025452 C33.48251175 6.11803391 32.40107391 6.11581329 31.28686523 6.11352539 C30.0656749 6.11344986 28.84448456 6.11337433 27.58628845 6.11329651 C26.24372314 6.10818911 24.90115825 6.10297311 23.55859375 6.09765625 C22.19238842 6.09579199 20.82618243 6.09436813 19.4599762 6.09336853 C15.85798305 6.08954394 12.25603 6.07971417 8.65405273 6.06866455 C4.98096255 6.05844916 1.30786591 6.05387064 -2.36523438 6.04882812 C-9.57684123 6.03809184 -16.788415 6.02101614 -24 6 C-24 5.67 -24 5.34 -24 5 C-3.99300623 3.90157681 15.97049808 3.89128944 36 4 C36 3.34 36 2.68 36 2 C24.12 2 12.24 2 0 2 C0 1.34 0 0.68 0 0 Z " fill="#5A5D6D" transform="translate(392,265)"/>
<path d="M0 0 C0.33 0 0.66 0 1 0 C1.31920475 8.55789085 0.45664891 16.87203586 -0.65405273 25.33691406 C-0.94053586 27.52316775 -1.21614543 29.71059861 -1.49023438 31.8984375 C-2.84852036 42.54556108 -2.84852036 42.54556108 -4 46 C24.38 46 52.76 46 82 46 C82 46.33 82 46.66 82 47 C52.96 47.33 23.92 47.66 -6 48 C-5 31 -5 31 -4 28 C-3.84552858 26.46100692 -3.72534926 24.91846725 -3.625 23.375 C-2.97804507 15.49487686 -1.44728624 7.76437207 0 0 Z " fill="#767985" transform="translate(215,321)"/>
<path d="M0 0 C0.33 0.99 0.66 1.98 1 3 C1.66 3 2.32 3 3 3 C3 4.65 3 6.3 3 8 C3.99 8.33 4.98 8.66 6 9 C5.55506033 12.12706098 5.09178497 15.25113136 4.625 18.375 C4.43550781 19.70917969 4.43550781 19.70917969 4.2421875 21.0703125 C4.11328125 21.92109375 3.984375 22.771875 3.8515625 23.6484375 C3.73635254 24.43395996 3.62114258 25.21948242 3.50244141 26.02880859 C3 28 3 28 1 30 C0.67 29.01 0.34 28.02 0 27 C0.33 26.34 0.66 25.68 1 25 C0.34 25 -0.32 25 -1 25 C-1.33 26.32 -1.66 27.64 -2 29 C-2.30353841 20.50092442 -1.13146833 12.4152957 0 4 C-8.58 4.33 -17.16 4.66 -26 5 C-26 4.34 -26 3.68 -26 3 C-23.0781393 2.02604643 -20.98188255 1.82152855 -17.9296875 1.71875 C-16.46208984 1.66267578 -16.46208984 1.66267578 -14.96484375 1.60546875 C-12.89714449 1.53488989 -10.82943606 1.46457939 -8.76171875 1.39453125 C-7.78589844 1.35714844 -6.81007812 1.31976563 -5.8046875 1.28125 C-4.45866455 1.23581055 -4.45866455 1.23581055 -3.08544922 1.18945312 C-1.012049 1.22546001 -1.012049 1.22546001 0 0 Z " fill="#9094A0" transform="translate(231,130)"/>
<path d="M0 0 C0.66 0 1.32 0 2 0 C1.51579722 3.20219437 0.64162778 6.10467929 -0.48828125 9.125 C-0.78283203 9.91648438 -1.07738281 10.70796875 -1.38085938 11.5234375 C-1.97991624 13.11589893 -2.5885323 14.7048145 -3.20898438 16.2890625 C-6.83107565 26.14615754 -7.95375375 35.25720718 -10 46 C-34.09 46 -58.18 46 -83 46 C-83 45.67 -83 45.34 -83 45 C-59.57 45 -36.14 45 -12 45 C-11.67 41.04 -11.34 37.08 -11 33 C-10.3555815 30.15531594 -9.69255306 27.50759116 -8.8125 24.75 C-8.59762939 24.04689697 -8.38275879 23.34379395 -8.16137695 22.61938477 C-5.7704307 14.96068528 -2.92488881 7.46801507 0 0 Z " fill="#666978" transform="translate(310,193)"/>
<path d="M0 0 C9.3468644 -0.14086176 18.6933473 -0.24654186 28.04105282 -0.31087303 C32.38461003 -0.34179507 36.72742598 -0.38352023 41.07055664 -0.45263672 C61.67239731 -0.7717518 80.15202277 -0.191811 100 6 C101.81293799 6.52402889 103.62729106 7.0431902 105.44311523 7.55712891 C109.31233258 8.65402251 113.1596289 9.80615699 117 11 C117 11.33 117 11.66 117 12 C108.15070826 11.35787452 99.70553318 9.13031372 91.125 7 C89.60168225 6.62711464 88.07824553 6.25471491 86.5546875 5.8828125 C85.10145731 5.52647038 83.6483285 5.16971451 82.1953125 4.8125 C81.51719513 4.64580811 80.83907776 4.47911621 80.14041138 4.30737305 C77.38637677 3.62318013 74.69369853 2.89789951 72 2 C69.68536296 1.88164222 67.36753705 1.82298911 65.05004883 1.79467773 C64.34735367 1.78477814 63.64465851 1.77487854 62.92066956 1.76467896 C60.59949099 1.73310766 58.27829195 1.70832387 55.95703125 1.68359375 C54.34705577 1.66302044 52.73708564 1.64202387 51.12712097 1.62062073 C46.89063862 1.56543894 42.65410784 1.51601251 38.4175415 1.46777344 C34.09407239 1.41752999 29.77067356 1.36185877 25.44726562 1.30664062 C16.96490319 1.19910666 8.48248193 1.09765113 0 1 C0 0.67 0 0.34 0 0 Z " fill="#2E3140" transform="translate(227,239)"/>
<path d="M0 0 C-0.66 0.66 -1.32 1.32 -2 2 C-0.68 2.33 0.64 2.66 2 3 C2 2.01 2 1.02 2 0 C3.65 0 5.3 0 7 0 C7.08226668 3.04386724 6.97608217 5.07175348 6 8 C3.69 8.33 1.38 8.66 -1 9 C-1 9.66 -1 10.32 -1 11 C-6.625 11.25 -6.625 11.25 -10 9 C-10.375 5.5 -10.375 5.5 -10 2 C-6.3558226 -0.4294516 -4.28758728 -0.16179575 0 0 Z " fill="#535660" transform="translate(210,302)"/>
<path d="M0 0 C0 0.66 0 1.32 0 2 C2.64 2 5.28 2 8 2 C8.33 2.66 8.66 3.32 9 4 C8.01 5.485 8.01 5.485 7 7 C6.01 6.34 5.02 5.68 4 5 C3.00564594 8.09354597 3.12159004 9.90279155 4 13 C2.54257537 13.08096803 1.08387193 13.13917774 -0.375 13.1875 C-1.18710937 13.22230469 -1.99921875 13.25710938 -2.8359375 13.29296875 C-3.55007813 13.19628906 -4.26421875 13.09960938 -5 13 C-7.46324069 9.30513897 -7.38991688 7.36706908 -7 3 C-4.8671951 -0.30584759 -4.13306865 0 0 0 Z " fill="#777981" transform="translate(387,246)"/>
<path d="M0 0 C0.33 0.33 0.66 0.66 1 1 C3.23340914 1.11884318 5.47057059 1.1674577 7.70703125 1.18945312 C8.40782806 1.19774643 9.10862488 1.20603973 9.83065796 1.21458435 C11.35683907 1.23201993 12.88304748 1.24717707 14.40927124 1.26036072 C16.82085301 1.28132261 19.2322974 1.30834977 21.64379883 1.33703613 C26.76248029 1.39683094 31.88122484 1.44894855 37 1.5 C42.92904943 1.55913262 48.85803101 1.62135088 54.78695679 1.69187927 C57.1695541 1.71854912 59.55215787 1.7393061 61.93481445 1.7598877 C63.38753589 1.77648405 64.84025423 1.7933553 66.29296875 1.81054688 C67.5668042 1.82307495 68.84063965 1.83560303 70.15307617 1.84851074 C73 2 73 2 74 3 C74.08651611 4.41570123 74.10704904 5.835595 74.09765625 7.25390625 C74.09282227 8.53491211 74.09282227 8.53491211 74.08789062 9.84179688 C74.07532227 11.18854492 74.07532227 11.18854492 74.0625 12.5625 C74.05798828 13.46419922 74.05347656 14.36589844 74.04882812 15.29492188 C74.03700225 17.53001314 74.0205222 19.76497437 74 22 C72.68 21.67 71.36 21.34 70 21 C70.495 20.505 70.495 20.505 71 20 C71.33 14.39 71.66 8.78 72 3 C45.93 3 19.86 3 -7 3 C-7 2.34 -7 1.68 -7 1 C-4.51588385 -0.24205807 -2.74800896 -0.14092354 0 0 Z " fill="#585B69" transform="translate(226,238)"/>
<path d="M0 0 C1.9375 0.5625 1.9375 0.5625 4 2 C4.75 5.625 4.75 5.625 5 9 C5.185625 7.2984375 5.185625 7.2984375 5.375 5.5625 C5.58125 4.386875 5.7875 3.21125 6 2 C6.66 1.67 7.32 1.34 8 1 C7.67 7.6 7.34 14.2 7 21 C5.02 19.68 3.04 18.36 1 17 C0.01 17 -0.98 17 -2 17 C-1.85848172 14.9163691 -1.71162064 12.83310062 -1.5625 10.75 C-1.48128906 9.58984375 -1.40007812 8.4296875 -1.31640625 7.234375 C-1.06752213 4.69022624 -0.71885058 2.44046752 0 0 Z " fill="#9093A0" transform="translate(226,177)"/>
<path d="M0 0 C0.66 0 1.32 0 2 0 C3.125 5.75 3.125 5.75 2 8 C9.26 8 16.52 8 24 8 C24 8.33 24 8.66 24 9 C15.45208263 10.16382974 6.96854984 10.04410832 -1.6328125 9.87890625 C-3.12066849 9.85455136 -4.60853298 9.83071068 -6.09640503 9.80735779 C-9.97946992 9.74505008 -13.862381 9.6758377 -17.74530029 9.60510254 C-21.720755 9.53393202 -25.69631726 9.46940843 -29.671875 9.40429688 C-37.44803576 9.27597366 -45.22404589 9.1403434 -53 9 C-53 8.67 -53 8.34 -53 8 C-36.5 8 -20 8 -3 8 C-3 6.35 -3 4.7 -3 3 C-2.34 3 -1.68 3 -1 3 C-0.67 2.01 -0.34 1.02 0 0 Z " fill="#7B7C81" transform="translate(342,124)"/>
<path d="M0 0 C17.82 0 35.64 0 54 0 C53.34 0.33 52.68 0.66 52 1 C51.34786708 3.02463255 51.34786708 3.02463255 51 5 C50.505 3.515 50.505 3.515 50 2 C33.5 2 17 2 0 2 C0 1.34 0 0.68 0 0 Z " fill="#717279" transform="translate(290,123)"/>
<path d="M0 0 C0.66 0 1.32 0 2 0 C2 0.66 2 1.32 2 2 C31.7 2 61.4 2 92 2 C92 2.33 92 2.66 92 3 C62.3 3 32.6 3 2 3 C2 3.66 2 4.32 2 5 C1.34 5 0.68 5 0 5 C0 3.35 0 1.7 0 0 Z " fill="#686A78" transform="translate(126,236)"/>
<path d="M0 0 C29.7 0 59.4 0 90 0 C90 0.33 90 0.66 90 1 C61.29 1 32.58 1 3 1 C3 1.66 3 2.32 3 3 C2.01 2.67 1.02 2.34 0 2 C0 1.34 0 0.68 0 0 Z " fill="#181B29" transform="translate(128,239)"/>
<path d="M0 0 C0.66 0.33 1.32 0.66 2 1 C3.75590877 1.11931048 5.51614607 1.17719868 7.27587891 1.20532227 C8.3768692 1.22526749 9.4778595 1.24521271 10.61221313 1.26576233 C11.80494843 1.28247482 12.99768372 1.29918732 14.2265625 1.31640625 C15.44451508 1.33718735 16.66246765 1.35796844 17.91732788 1.37937927 C21.8198262 1.44492584 25.7223935 1.50378355 29.625 1.5625 C32.26563222 1.60568035 34.90625739 1.64929448 37.546875 1.69335938 C44.03117643 1.80061244 50.51554694 1.90236929 57 2 C57 1.34 57 0.68 57 0 C60.3 0 63.6 0 67 0 C67 0.66 67 1.32 67 2 C64.23348945 3.38325527 61.93356415 3.17868631 58.83789062 3.23706055 C56.89577698 3.27666145 56.89577698 3.27666145 54.91442871 3.31706238 C53.4950425 3.3406868 52.07564932 3.36389558 50.65625 3.38671875 C49.20658131 3.41236868 47.75691499 3.43815271 46.30725098 3.46406555 C43.26754365 3.51705456 40.22780039 3.56597992 37.18798828 3.61254883 C33.2869171 3.67298323 29.38624106 3.74719594 25.48548126 3.82492352 C22.4916559 3.88243211 19.49773408 3.93077186 16.50370789 3.976511 C15.06510211 3.99996057 13.62654653 4.02672723 12.18806458 4.05682945 C10.17958593 4.09785678 8.170835 4.12483512 6.16210938 4.15112305 C4.4457428 4.17990791 4.4457428 4.17990791 2.69470215 4.20927429 C0 4 0 4 -2 2 C-1.34 2 -0.68 2 0 2 C0 1.34 0 0.68 0 0 Z " fill="#999EA6" transform="translate(282,118)"/>
<path d="M0 0 C21.78 0 43.56 0 66 0 C66 1.65 66 3.3 66 5 C65.21079666 4.86042877 64.42159332 4.72085754 63.60847473 4.57705688 C55.7381331 3.26432177 48.10785486 2.67023993 40.13671875 2.5859375 C38.97872269 2.56657135 37.82072662 2.5472052 36.62763977 2.5272522 C32.98099806 2.46815721 29.33432357 2.42135486 25.6875 2.375 C23.1933467 2.33675556 20.69920569 2.29770023 18.20507812 2.2578125 C12.13682906 2.16251465 6.06850402 2.07726901 0 2 C0 1.34 0 0.68 0 0 Z " fill="#ACACAE" transform="translate(344,130)"/>
<path d="M0 0 C0.33 0 0.66 0 1 0 C1.05540086 1.79129459 1.09340527 3.58312742 1.125 5.375 C1.14820313 6.37273437 1.17140625 7.37046875 1.1953125 8.3984375 C0.99486489 12.09469136 0.34256187 15.44580382 -0.42529297 19.05615234 C-1.59259523 25.03547718 -2.31656255 31.08866708 -3.125 37.125 C-3.30830649 38.47660149 -3.49189832 39.82816431 -3.67578125 41.1796875 C-4.11998359 44.45275737 -4.56132044 47.72618616 -5 51 C-5.33 51 -5.66 51 -6 51 C-6.30172251 41.74717644 -5.37944973 32.9002943 -4.0625 23.75 C-3.87749494 22.42718944 -3.69324696 21.10427277 -3.50976562 19.78125 C-3.16149509 17.27876787 -2.80966238 14.77677789 -2.45361328 12.27539062 C-2.07838525 9.56599378 -1.74272556 6.85808115 -1.43359375 4.140625 C-1 1 -1 1 0 0 Z " fill="#747783" transform="translate(209,317)"/>
<path d="M0 0 C0.33 0 0.66 0 1 0 C0.54755181 8.26888072 -0.34041886 16.47363371 -1.375 24.6875 C-1.48884033 25.66799316 -1.60268066 26.64848633 -1.7199707 27.65869141 C-1.84073975 28.57956543 -1.96150879 29.50043945 -2.0859375 30.44921875 C-2.1895459 31.27768311 -2.2931543 32.10614746 -2.39990234 32.9597168 C-3 35 -3 35 -6 37 C-5.55115935 32.49900079 -5.08922754 27.99943616 -4.625 23.5 C-4.43550781 21.59734375 -4.43550781 21.59734375 -4.2421875 19.65625 C-2.44985465 2.44985465 -2.44985465 2.44985465 0 0 Z " fill="#727581" transform="translate(223,265)"/>
<path d="M0 0 C8.91 0 17.82 0 27 0 C27 0.66 27 1.32 27 2 C20.4 2 13.8 2 7 2 C7 2.99 7 3.98 7 5 C7.99 5.33 8.98 5.66 10 6 C8.52093108 6.02689216 7.04172517 6.04634621 5.5625 6.0625 C4.32693359 6.07990234 4.32693359 6.07990234 3.06640625 6.09765625 C1 6 1 6 0 5 C0 3.35 0 1.7 0 0 Z " fill="#6A6D7C" transform="translate(357,265)"/>
<path d="M0 0 C2.31 0 4.62 0 7 0 C6.67 1.32 6.34 2.64 6 4 C2.23007936 4.36437066 -1.54101349 4.71474247 -5.3125 5.0625 C-6.9202832 5.2181543 -6.9202832 5.2181543 -8.56054688 5.37695312 C-9.58857422 5.47041016 -10.61660156 5.56386719 -11.67578125 5.66015625 C-12.62364502 5.74918213 -13.57150879 5.83820801 -14.5480957 5.92993164 C-17 6 -17 6 -20 5 C-20 4.01 -20 3.02 -20 2 C-13.4 2 -6.8 2 0 2 C0 1.34 0 0.68 0 0 Z " fill="#737685" transform="translate(384,265)"/>
<path d="M0 0 C0.66 0 1.32 0 2 0 C2 0.66 2 1.32 2 2 C35.165 2.495 35.165 2.495 69 3 C69 3.33 69 3.66 69 4 C45.9 4 22.8 4 -1 4 C-0.67 2.68 -0.34 1.36 0 0 Z " fill="#474A59" transform="translate(362,404)"/>
<path d="M0 0 C0.33 0.99 0.66 1.98 1 3 C1.66 3 2.32 3 3 3 C3.1875 5.375 3.1875 5.375 3 8 C2.01 8.66 1.02 9.32 0 10 C0 8.02 0 6.04 0 4 C-8.58 4.33 -17.16 4.66 -26 5 C-26 4.34 -26 3.68 -26 3 C-23.0781393 2.02604643 -20.98188255 1.82152855 -17.9296875 1.71875 C-16.46208984 1.66267578 -16.46208984 1.66267578 -14.96484375 1.60546875 C-12.89714449 1.53488989 -10.82943606 1.46457939 -8.76171875 1.39453125 C-7.78589844 1.35714844 -6.81007812 1.31976563 -5.8046875 1.28125 C-4.45866455 1.23581055 -4.45866455 1.23581055 -3.08544922 1.18945312 C-1.012049 1.22546001 -1.012049 1.22546001 0 0 Z " fill="#8E8F9B" transform="translate(231,130)"/>
<path d="M0 0 C29.7 0.495 29.7 0.495 60 1 C60 1.33 60 1.66 60 2 C43.5 2 27 2 10 2 C9.67 3.32 9.34 4.64 9 6 C9 5.01 9 4.02 9 3 C7.88625 3.061875 6.7725 3.12375 5.625 3.1875 C4.42875 3.125625 3.2325 3.06375 2 3 C1.34 2.01 0.68 1.02 0 0 Z " fill="#5C5E69" transform="translate(280,121)"/>
<path d="M0 0 C1.29357422 0.26683594 1.29357422 0.26683594 2.61328125 0.5390625 C3.95326172 0.83683594 3.95326172 0.83683594 5.3203125 1.140625 C6.64869141 1.41519531 6.64869141 1.41519531 8.00390625 1.6953125 C12.59509509 2.66692027 17.02541918 3.78604327 21.4453125 5.390625 C18.8959609 7.0740576 17.68713372 7.41818215 14.60449219 7.06689453 C13.53618164 6.80505371 12.46787109 6.54321289 11.3671875 6.2734375 C9.62695312 5.85771484 9.62695312 5.85771484 7.8515625 5.43359375 C6.645 5.13066406 5.4384375 4.82773438 4.1953125 4.515625 C2.97328125 4.22042969 1.75125 3.92523438 0.4921875 3.62109375 C-2.52668639 2.88996023 -5.54181928 2.14605833 -8.5546875 1.390625 C-5.3697372 -0.53684563 -3.62157484 -0.76882594 0 0 Z " fill="#4C4F5E" transform="translate(348.5546875,250.609375)"/>
<path d="M0 0 C0.99 0.33 1.98 0.66 3 1 C2.34 9.25 1.68 17.5 1 26 C0.67 25.34 0.34 24.68 0 24 C-0.66 24 -1.32 24 -2 24 C-1.34 16.08 -0.68 8.16 0 0 Z " fill="#BABABE" transform="translate(396,215)"/>
<path d="M0 0 C0.66 0 1.32 0 2 0 C1.39582799 3.3220301 0.58982166 6.40834477 -0.55859375 9.58203125 C-1.01395508 10.85723633 -1.01395508 10.85723633 -1.47851562 12.15820312 C-2.11364246 13.91612037 -2.74905529 15.67393431 -3.38476562 17.43164062 C-5.22295995 22.58091647 -6.76851663 27.6718232 -8 33 C-10.95239438 22.6272452 -3.83182578 9.6601692 0 0 Z " fill="#545869" transform="translate(310,193)"/>
<path d="M0 0 C0.33 0 0.66 0 1 0 C1.28307925 7.24997422 0.50974035 13.90961228 -1 21 C-1.33 21 -1.66 21 -2 21 C-2.33 16.71 -2.66 12.42 -3 8 C-3.33 8 -3.66 8 -4 8 C-4 6.02 -4 4.04 -4 2 C-3.34 1.67 -2.68 1.34 -2 1 C-2 1.99 -2 2.98 -2 4 C-1.34 4 -0.68 4 0 4 C0 2.68 0 1.36 0 0 Z M-5 8 C-4.67 8 -4.34 8 -4 8 C-4 9.98 -4 11.96 -4 14 C-4.33 14 -4.66 14 -5 14 C-5 12.02 -5 10.04 -5 8 Z " fill="#AAADBB" transform="translate(233,161)"/>
<path d="M0 0 C1.32 0.66 2.64 1.32 4 2 C3.67 6.62 3.34 11.24 3 16 C1.68 16.33 0.36 16.66 -1 17 C-0.67 11.39 -0.34 5.78 0 0 Z " fill="#A6A6AA" transform="translate(402,161)"/>
<path d="M0 0 C1.03617213 3.29409945 0.97957336 5.95384624 0.625 9.375 C0.53476562 10.29023438 0.44453125 11.20546875 0.3515625 12.1484375 C-0.01365132 15.11072734 -0.50931536 18.05589219 -1 21 C-6.94 21 -12.88 21 -19 21 C-19 20.67 -19 20.34 -19 20 C-13.72 20 -8.44 20 -3 20 C-2.87625 18.185 -2.7525 16.37 -2.625 14.5 C-2.2120855 9.44927777 -1.40235437 4.86149515 0 0 Z " fill="#5D606E" transform="translate(301,218)"/>
<path d="M0 0 C0.66 0 1.32 0 2 0 C2.11138159 5.45769811 1.91657981 10.61509359 1 16 C-0.32 15.34 -1.64 14.68 -3 14 C-1.51923077 1.51923077 -1.51923077 1.51923077 0 0 Z " fill="#AEAFB2" transform="translate(402,180)"/>
<path d="M0 0 C1.65 0 3.3 0 5 0 C5.08226668 3.04386724 4.97608217 5.07175348 4 8 C1.69 8 -0.62 8 -3 8 C-2.67 6.35 -2.34 4.7 -2 3 C-1.34 3 -0.68 3 0 3 C0 2.01 0 1.02 0 0 Z " fill="#585B65" transform="translate(212,302)"/>
<path d="M0 0 C1.65 0.33 3.3 0.66 5 1 C5.625 2.8125 5.625 2.8125 6 5 C5.01 6.485 5.01 6.485 4 8 C2.68 8 1.36 8 0 8 C-1.125 2.25 -1.125 2.25 0 0 Z " fill="#585B69" transform="translate(284,264)"/>
<path d="M0 0 C1.32 0 2.64 0 4 0 C4.33 2.31 4.66 4.62 5 7 C3.34385343 7.38218767 1.67542976 7.71395102 0 8 C-1 7 -1 7 -1.125 4 C-1 1 -1 1 0 0 Z " fill="#595D6A" transform="translate(209,264)"/>
<path d="M0 0 C-0.639375 0.20625 -1.27875 0.4125 -1.9375 0.625 C-4.34925077 1.89538209 -4.34925077 1.89538209 -4.75 5.125 C-4.8325 6.07375 -4.915 7.0225 -5 8 C-5.33 7.34 -5.66 6.68 -6 6 C-6.66 6 -7.32 6 -8 6 C-7.67 7.32 -7.34 8.64 -7 10 C-7.99 9.67 -8.98 9.34 -10 9 C-10.1875 5.625 -10.1875 5.625 -10 2 C-6.3558226 -0.4294516 -4.28758728 -0.16179575 0 0 Z " fill="#4C4F5C" transform="translate(210,302)"/>
<path d="M0 0 C0 0.66 0 1.32 0 2 C-0.99 2.33 -1.98 2.66 -3 3 C-3.020625 4.27875 -3.04125 5.5575 -3.0625 6.875 C-3.07410156 7.59429687 -3.08570313 8.31359375 -3.09765625 9.0546875 C-3.12649242 11.08185404 -3.12649242 11.08185404 -2 13 C-3.9375 12.625 -3.9375 12.625 -6 12 C-7.52491998 8.95016004 -7.23562548 6.3576631 -7 3 C-4.8671951 -0.30584759 -4.13306865 0 0 0 Z " fill="#555765" transform="translate(387,246)"/>
<path d="M0 0 C0.99 0.33 1.98 0.66 3 1 C2.34 1 1.68 1 1 1 C1 1.66 1 2.32 1 3 C-0.90625 4.48046875 -0.90625 4.48046875 -3.5 6.1875 C-8.33657508 9.46700105 -12.70142646 13.04963493 -17 17 C-17 14 -17 14 -15.50390625 12.46484375 C-14.86324219 11.96082031 -14.22257812 11.45679688 -13.5625 10.9375 C-10.84124807 8.8328667 -10.84124807 8.8328667 -9 6 C-7.34928604 4.97388051 -5.68029994 3.97691857 -4 3 C-3.29875 2.4225 -2.5975 1.845 -1.875 1.25 C-1.25625 0.8375 -0.6375 0.425 0 0 Z " fill="#5B5F71" transform="translate(352,142)"/>
<path d="M0 0 C0.66 0 1.32 0 2 0 C1.7834375 0.67546875 1.566875 1.3509375 1.34375 2.046875 C1.0653125 2.93890625 0.786875 3.8309375 0.5 4.75 C0.2215625 5.63171875 -0.056875 6.5134375 -0.34375 7.421875 C-1.16445285 10.20267529 -1.16445285 10.20267529 -1 14 C-2.32 14.33 -3.64 14.66 -5 15 C-5.33 14.34 -5.66 13.68 -6 13 C-5.10333658 10.75689987 -4.10853317 8.55245679 -3.0625 6.375 C-2.49660156 5.18648437 -1.93070313 3.99796875 -1.34765625 2.7734375 C-0.90292969 1.85820312 -0.45820313 0.94296875 0 0 Z " fill="#65666F" transform="translate(139,191)"/>
<path d="M0 0 C0.33 0 0.66 0 1 0 C1 3.3 1 6.6 1 10 C1.66 10.33 2.32 10.66 3 11 C3 12.65 3 14.3 3 16 C1.35 16.33 -0.3 16.66 -2 17 C-1.85848172 14.9163691 -1.71162064 12.83310062 -1.5625 10.75 C-1.48128906 9.58984375 -1.40007812 8.4296875 -1.31640625 7.234375 C-1.06752213 4.69022624 -0.71885058 2.44046752 0 0 Z " fill="#898B98" transform="translate(226,177)"/>
<path d="M0 0 C4.455 0.99 4.455 0.99 9 2 C9.33 3.98 9.66 5.96 10 8 C8.02 8.66 6.04 9.32 4 10 C4.33 7.69 4.66 5.38 5 3 C3.35 3 1.7 3 0 3 C0 2.01 0 1.02 0 0 Z " fill="#8B8C94" transform="translate(280,122)"/>
<path d="M0 0 C2.475 0.99 2.475 0.99 5 2 C4.125 6.75 4.125 6.75 3 9 C2.01 9 1.02 9 0 9 C-1.125 6.1875 -1.125 6.1875 -2 3 C-1.34 2.01 -0.68 1.02 0 0 Z " fill="#9D9D9E" transform="translate(391,251)"/>
<path d="M0 0 C1.13598633 0.00483398 1.13598633 0.00483398 2.29492188 0.00976562 C3.47344727 0.02233398 3.47344727 0.02233398 4.67578125 0.03515625 C5.47306641 0.03966797 6.27035156 0.04417969 7.09179688 0.04882812 C9.05732382 0.06059775 11.0228121 0.07853277 12.98828125 0.09765625 C12.98828125 0.42765625 12.98828125 0.75765625 12.98828125 1.09765625 C-0.64497615 3.39378381 -0.64497615 3.39378381 -7.01171875 3.09765625 C-7.01171875 2.43765625 -7.01171875 1.77765625 -7.01171875 1.09765625 C-4.30455633 0.19526878 -2.77395107 -0.02085677 0 0 Z " fill="#727380" transform="translate(212.01171875,131.90234375)"/>
<path d="M0 0 C0.33 0 0.66 0 1 0 C1.33 5.94 1.66 11.88 2 18 C1.34 18.33 0.68 18.66 0 19 C-2.66514806 6.51480638 -2.66514806 6.51480638 0 0 Z " fill="#9DA0AD" transform="translate(230,168)"/>
<path d="M0 0 C0.66 0.33 1.32 0.66 2 1 C3.81171098 1.15306901 5.6283794 1.24946661 7.4453125 1.31640625 C8.52167969 1.35830078 9.59804688 1.40019531 10.70703125 1.44335938 C12.39892578 1.50233398 12.39892578 1.50233398 14.125 1.5625 C15.26066406 1.60568359 16.39632813 1.64886719 17.56640625 1.69335938 C20.37747768 1.7996604 23.18863945 1.90169405 26 2 C26 2.33 26 2.66 26 3 C21.70903831 3.22509088 17.41730127 3.42723952 13.125 3.625 C11.90167969 3.68945312 10.67835938 3.75390625 9.41796875 3.8203125 C7.66806641 3.89765625 7.66806641 3.89765625 5.8828125 3.9765625 C4.26463623 4.05511475 4.26463623 4.05511475 2.61376953 4.13525391 C0 4 0 4 -2 2 C-1.34 2 -0.68 2 0 2 C0 1.34 0 0.68 0 0 Z " fill="#8B8B94" transform="translate(282,118)"/>
<path d="M0 0 C0.99 0 1.98 0 3 0 C2.67 3.96 2.34 7.92 2 12 C1.01 11.67 0.02 11.34 -1 11 C-0.67 7.37 -0.34 3.74 0 0 Z " fill="#AFAFB0" transform="translate(406,139)"/>
<path d="M0 0 C1.32 0 2.64 0 4 0 C4 1.32 4 2.64 4 4 C4.99 4.33 5.98 4.66 7 5 C4.03 5 1.06 5 -2 5 C-2.33 3.68 -2.66 2.36 -3 1 C-2.01 1.33 -1.02 1.66 0 2 C0 1.34 0 0.68 0 0 Z " fill="#494C5A" transform="translate(360,266)"/>
<path d="M0 0 C0.66 0 1.32 0 2 0 C2.33 1.98 2.66 3.96 3 6 C2.34 6 1.68 6 1 6 C1 6.66 1 7.32 1 8 C-0.32 8 -1.64 8 -3 8 C-3 6.35 -3 4.7 -3 3 C-2.34 3 -1.68 3 -1 3 C-0.67 2.01 -0.34 1.02 0 0 Z " fill="#8C8F97" transform="translate(342,124)"/>
<path d="M0 0 C0.66 0.66 1.32 1.32 2 2 C1.67 2.66 1.34 3.32 1 4 C1.66 4.33 2.32 4.66 3 5 C2.34 5 1.68 5 1 5 C1.33 5.99 1.66 6.98 2 8 C2 8.99 2 9.98 2 11 C1.34 11 0.68 11 0 11 C-0.33 12.32 -0.66 13.64 -1 15 C-1 11.7 -1 8.4 -1 5 C-1.99 4.67 -2.98 4.34 -4 4 C-2.68 4 -1.36 4 0 4 C0 2.68 0 1.36 0 0 Z " fill="#6F727A" transform="translate(217,303)"/>
<path d="M0 0 C1.67542976 0.28604898 3.34385343 0.61781233 5 1 C5 2.65 5 4.3 5 6 C3.68 4.68 2.36 3.36 1 2 C1 3.65 1 5.3 1 7 C1.99 7.33 2.98 7.66 4 8 C2.35 7.67 0.7 7.34 -1 7 C-1.04254356 5.00045254 -1.04080783 2.99958364 -1 1 C-0.67 0.67 -0.34 0.34 0 0 Z " fill="#4C4F5D" transform="translate(133,264)"/>
<path d="M0 0 C0.66 0.33 1.32 0.66 2 1 C2.19622241 5.21878192 1.80230168 8.17010894 0 12 C-0.99 11.01 -1.98 10.02 -3 9 C-2.01 6.03 -1.02 3.06 0 0 Z " fill="#6B6C7B" transform="translate(132,211)"/>
<path d="M0 0 C1.32 0.66 2.64 1.32 4 2 C4.36923077 6.55384615 4.36923077 6.55384615 2.5 8.8125 C2.005 9.204375 1.51 9.59625 1 10 C0.34 9.67 -0.32 9.34 -1 9 C-0.835 8.2575 -0.67 7.515 -0.5 6.75 C0.11925696 3.80993422 0.11925696 3.80993422 0 0 Z " fill="#4A4D57" transform="translate(218,303)"/>
<path d="M0 0 C0.33 0.66 0.66 1.32 1 2 C0.34 2.66 -0.32 3.32 -1 4 C-1.99 4 -2.98 4 -4 4 C-5.70532323 5.94009522 -5.70532323 5.94009522 -7 8 C-7.66 7.67 -8.32 7.34 -9 7 C-8.4375 4.625 -8.4375 4.625 -7 2 C-3.375 0.6875 -3.375 0.6875 0 0 Z " fill="#AEB1BC" transform="translate(162,161)"/>
<path d="M0 0 C0.99 0.33 1.98 0.66 3 1 C2.67 3.64 2.34 6.28 2 9 C1.34 9 0.68 9 0 9 C0 6.03 0 3.06 0 0 Z " fill="#AAABAE" transform="translate(396,215)"/>
<path d="M0 0 C0 3.94405202 -1.49401172 5.0517785 -4 8 C-4.99 9.485 -4.99 9.485 -6 11 C-6.66 11 -7.32 11 -8 11 C-6.52670958 5.99081256 -3.72484762 3.48192278 0 0 Z " fill="#606375" transform="translate(333,159)"/>
<path d="M0 0 C0.66 0 1.32 0 2 0 C1.67 2.97 1.34 5.94 1 9 C0.34 8.67 -0.32 8.34 -1 8 C-1.04241723 5.66705225 -1.04092937 3.33297433 -1 1 C-0.67 0.67 -0.34 0.34 0 0 Z " fill="#5C5D67" transform="translate(128,224)"/>
<path d="M0 0 C1.60031344 3.20062687 0.03173691 5.72271806 -1 9 C-2.32 9 -3.64 9 -5 9 C-5 8.34 -5 7.68 -5 7 C-4.34 7 -3.68 7 -3 7 C-2.690625 6.030625 -2.38125 5.06125 -2.0625 4.0625 C-1 1 -1 1 0 0 Z " fill="#83848E" transform="translate(144,182)"/>
<path d="M0 0 C0.33 0.66 0.66 1.32 1 2 C-0.21484375 4.3828125 -0.21484375 4.3828125 -1.9375 7.125 C-2.50339844 8.03507813 -3.06929688 8.94515625 -3.65234375 9.8828125 C-4.09707031 10.58148438 -4.54179687 11.28015625 -5 12 C-5.33 11.01 -5.66 10.02 -6 9 C-4.78515625 6.73828125 -4.78515625 6.73828125 -3.0625 4.3125 C-2.49660156 3.50425781 -1.93070312 2.69601563 -1.34765625 1.86328125 C-0.90292969 1.24839844 -0.45820313 0.63351563 0 0 Z " fill="#5C5F72" transform="translate(320,176)"/>
<path d="M0 0 C0 1.65 0 3.3 0 5 C-1.32 5.33 -2.64 5.66 -4 6 C-4 4.35 -4 2.7 -4 1 C-2 0 -2 0 0 0 Z " fill="#B8B9BC" transform="translate(405,172)"/>
<path d="M0 0 C1.65 0 3.3 0 5 0 C5 1.32 5 2.64 5 4 C3.35 4 1.7 4 0 4 C0 2.68 0 1.36 0 0 Z " fill="#484B55" transform="translate(212,302)"/>
<path d="M0 0 C0.66 0 1.32 0 2 0 C2.309375 1.11375 2.61875 2.2275 2.9375 3.375 C3.82326483 6.7945155 3.82326483 6.7945155 5 9 C3.0625 8.625 3.0625 8.625 1 8 C-0.35439668 5.29120665 -0.06501451 2.99066732 0 0 Z " fill="#3F414F" transform="translate(380,250)"/>
<path d="M0 0 C1.32 0.33 2.64 0.66 4 1 C4 2.65 4 4.3 4 6 C2.68 5.67 1.36 5.34 0 5 C0 3.35 0 1.7 0 0 Z " fill="#BABBBE" transform="translate(398,198)"/>
<path d="M0 0 C0.99 0 1.98 0 3 0 C2.25 2.9375 2.25 2.9375 1 6 C-1.125 6.875 -1.125 6.875 -3 7 C-1.125 2.25 -1.125 2.25 0 0 Z " fill="#9D9FA9" transform="translate(146,176)"/>
<path d="M0 0 C0.66 0 1.32 0 2 0 C2 0.66 2 1.32 2 2 C2.66 2 3.32 2 4 2 C4 3.65 4 5.3 4 7 C3.34 7 2.68 7 2 7 C0 5 0 5 -0.125 2.375 C-0.08375 1.59125 -0.0425 0.8075 0 0 Z " fill="#C4C5C7" transform="translate(397,206)"/>
<path d="M0 0 C0.99 0.66 1.98 1.32 3 2 C3 3.32 3 4.64 3 6 C1.68 6.33 0.36 6.66 -1 7 C-1.33 6.34 -1.66 5.68 -2 5 C-1.0625 2.375 -1.0625 2.375 0 0 Z " fill="#6A6C7A" transform="translate(135,199)"/>
<path d="M0 0 C0.66 0.33 1.32 0.66 2 1 C-0.64 2.98 -3.28 4.96 -6 7 C-6 5.68 -6 4.36 -6 3 C-4.03533587 1.93224776 -2.03144641 0.93446535 0 0 Z " fill="#7C7F88" transform="translate(167,153)"/>
<path d="M0 0 C0 2 0 2 -1.25 3.5625 C-3.2147398 5.17639341 -4.47442523 5.75558954 -7 6 C-7.66 5.34 -8.32 4.68 -9 4 C-2.25 0 -2.25 0 0 0 Z " fill="#B0B2BD" transform="translate(189,137)"/>
<path d="M0 0 C1.55219315 5.23865187 1.27607352 9.02108916 -1 14 C-1.33 14 -1.66 14 -2 14 C-1.85866501 12.22880197 -1.71176792 10.45804713 -1.5625 8.6875 C-1.48128906 7.70136719 -1.40007812 6.71523437 -1.31640625 5.69921875 C-1 3 -1 3 0 0 Z " fill="#66697A" transform="translate(301,218)"/>
<path d="M0 0 C0.66 0 1.32 0 2 0 C2 2.97 2 5.94 2 9 C0.05276405 6.07914607 -0.55175352 4.40667322 -1 1 C-0.67 0.67 -0.34 0.34 0 0 Z " fill="#C6C7C7" transform="translate(402,180)"/>
<path d="M0 0 C0.99 0 1.98 0 3 0 C3.1875 2.375 3.1875 2.375 3 5 C2.01 5.66 1.02 6.32 0 7 C0 4.69 0 2.38 0 0 Z " fill="#868993" transform="translate(231,133)"/>
<path d="M0 0 C1.134375 0.020625 2.26875 0.04125 3.4375 0.0625 C2.798125 0.26875 2.15875 0.475 1.5 0.6875 C-0.91175077 1.95788209 -0.91175077 1.95788209 -1.3125 5.1875 C-1.395 6.13625 -1.4775 7.085 -1.5625 8.0625 C-1.8925 8.0625 -2.2225 8.0625 -2.5625 8.0625 C-2.5625 6.0825 -2.5625 4.1025 -2.5625 2.0625 C-3.2225 1.7325 -3.8825 1.4025 -4.5625 1.0625 C-3.5625 0.0625 -3.5625 0.0625 0 0 Z " fill="#2F313E" transform="translate(206.5625,301.9375)"/>
</svg>
