<?xml version="1.0" encoding="UTF-8"?>
<svg version="1.1" xmlns="http://www.w3.org/2000/svg" width="551" height="551">
<path d="M0 0 C1.98 0.99 1.98 0.99 4 2 C3.85915204 3.79206547 3.71216299 5.58364917 3.5625 7.375 C3.44068359 8.87160156 3.44068359 8.87160156 3.31640625 10.3984375 C3 13 3 13 2 15 C2.99 15 3.98 15 5 15 C5.33 14.01 5.66 13.02 6 12 C7.98 12.495 7.98 12.495 10 13 C9.0353211 19.73005395 7.94935509 26.40559558 6.5625 33.0625 C5.15206404 39.90205126 4.09394301 46.76097964 3.17797852 53.68383789 C2.5920674 57.88108426 1.79810848 61.85286685 0.59375 65.91796875 C-1.74000202 74.14228373 -2.7626681 82.61948202 -4 91.0625 C-4.49758465 94.40791451 -4.9984224 97.75283825 -5.5 101.09765625 C-5.6222998 101.91400543 -5.74459961 102.73035461 -5.87060547 103.57144165 C-6.75528725 109.44764394 -7.66978124 115.31843145 -8.625 121.18359375 C-8.74810547 121.95671402 -8.87121094 122.72983429 -8.99804688 123.52638245 C-9.88321781 128.88321781 -9.88321781 128.88321781 -11 130 C-11.20768229 131.47396739 -11.36716017 132.9549126 -11.5 134.4375 C-11.89041096 138.78082192 -11.89041096 138.78082192 -13 141 C24.95 141.33 62.9 141.66 102 142 C102.87449786 145.49799146 103.11262458 147.94654892 103.08229065 151.49224854 C103.07525116 152.60841553 103.06821167 153.72458252 103.06095886 154.87457275 C103.04801285 156.09448914 103.03506683 157.31440552 103.02172852 158.57128906 C103.0073172 160.50337219 103.0073172 160.50337219 102.99261475 162.4744873 C102.9661783 166.0031133 102.93338979 169.53165507 102.89946485 173.06021595 C102.86507765 176.74907822 102.83652663 180.43798553 102.80735779 184.12689209 C102.75124709 191.11082689 102.68988412 198.09470529 102.62663645 205.07857871 C102.55488091 213.03011949 102.48897708 220.98170539 102.42356598 228.9333005 C102.28889082 245.28892607 102.1468631 261.64447923 102 278 C103.32 278 104.64 278 106 278 C106 299.45 106 320.9 106 343 C20.2 343 -65.6 343 -154 343 C-154 321.88 -154 300.76 -154 279 C-152.35 278.67 -150.7 278.34 -149 278 C-149.00607553 277.30516793 -149.01215105 276.61033587 -149.01841068 275.89444828 C-149.16568529 259.01180015 -149.30742824 242.12911565 -149.4429636 225.24636936 C-149.50864096 217.08210804 -149.57621192 208.91787048 -149.64819336 200.75366211 C-149.71090491 193.64031499 -149.77011188 186.52694896 -149.82505554 179.41353744 C-149.85428954 175.64472343 -149.88531561 171.87594287 -149.92053413 168.10717964 C-149.95972005 163.90685211 -149.99108368 159.70650204 -150.02172852 155.50610352 C-150.03467453 154.24734909 -150.04762054 152.98859467 -150.06095886 151.69169617 C-150.06799835 150.55441071 -150.07503784 149.41712524 -150.08229065 148.24537659 C-150.09058679 147.25076196 -150.09888292 146.25614733 -150.10743046 145.23139286 C-150 143 -150 143 -149 142 C-147.33382885 141.95936168 -145.66611905 141.957279 -144 142 C-144.01160156 140.96359375 -144.02320313 139.9271875 -144.03515625 138.859375 C-144.04453837 137.48958514 -144.05363812 136.11979332 -144.0625 134.75 C-144.07506836 133.72712891 -144.07506836 133.72712891 -144.08789062 132.68359375 C-144.10428392 129.30657446 -144.05628768 126.22708361 -143 123 C-143.99 123 -144.98 123 -146 123 C-145.18963458 113.275615 -143.2515191 104.06950574 -139.0390625 95.2265625 C-137.89313845 92.77101097 -136.91414309 90.27734356 -135.9375 87.75 C-132.33571775 78.66785887 -132.33571775 78.66785887 -129 77 C-128.0512027 75.35355652 -128.0512027 75.35355652 -127.1875 73.375 C-125.17473498 69.19870105 -122.88017088 65.63811058 -120 62 C-119.34 62 -118.68 62 -118 62 C-117.73703125 61.42121094 -117.4740625 60.84242188 -117.203125 60.24609375 C-113.87658372 54.03583001 -108.41575451 49.35615037 -103 45 C-101.700625 43.63875 -101.700625 43.63875 -100.375 42.25 C-98.09795733 40.09280168 -97.05256297 39.33917366 -94 39 C-94 38.34 -94 37.68 -94 37 C-88.93092568 33.40940569 -83.4524985 30.58755568 -77.9375 27.75 C-77.26525391 27.39663574 -76.59300781 27.04327148 -75.90039062 26.67919922 C-71.54340379 24.48260493 -67.86567059 23.43025436 -63 23 C-63 22.34 -63 21.68 -63 21 C-43.59639019 14.15781189 -25.48820023 13.67890705 -5 14 C-4.89042969 13.15695313 -4.78085937 12.31390625 -4.66796875 11.4453125 C-4.50941406 10.34960938 -4.35085938 9.25390625 -4.1875 8.125 C-3.96126953 6.48917969 -3.96126953 6.48917969 -3.73046875 4.8203125 C-3 2 -3 2 0 0 Z " fill="#8B8EA0" transform="translate(324,118)"/>
<path d="M0 0 C12.0374962 1.44895788 24.01663965 3.15829503 36 5 C36 5.66 36 6.32 36 7 C36.72830017 7.0507518 37.45660034 7.1015036 38.20697021 7.15379333 C45.51099155 7.70635646 52.66961257 8.63331668 59.890625 9.84765625 C60.96125183 10.02380966 62.03187866 10.19996307 63.13494873 10.38145447 C66.50738403 10.93736514 69.87868988 11.49981033 73.25 12.0625 C75.55591764 12.44379474 77.86190666 12.82465799 80.16796875 13.20507812 C85.7794797 14.13173903 91.39008192 15.06374691 97 16 C97 16.66 97 17.32 97 18 C98.55460937 18.09087891 98.55460937 18.09087891 100.140625 18.18359375 C101.51042873 18.26803371 102.88021975 18.35267997 104.25 18.4375 C104.93191406 18.47681641 105.61382812 18.51613281 106.31640625 18.55664062 C109.64448041 18.76666472 112.80255402 19.01934002 116 20 C115.01 18.515 115.01 18.515 114 17 C113.46481665 11.86223984 113.46481665 11.86223984 115.125 9.1875 C117.78882568 7.5004104 119.85858144 7.12822117 123 7 C125.375 8.1875 125.375 8.1875 127 10 C127 11.32 127 12.64 127 14 C127.66 14 128.32 14 129 14 C129.33 16.31 129.66 18.62 130 21 C167.62 21 205.24 21 244 21 C244 21.33 244 21.66 244 22 C207.04 22 170.08 22 132 22 C132 22.66 132 23.32 132 24 C131.34 24.33 130.68 24.66 130 25 C148.81 25.495 148.81 25.495 168 26 C168 27.98 168 29.96 168 32 C136.65 32 105.3 32 73 32 C73 30.02 73 28.04 73 26 C84.55 25.67 96.1 25.34 108 25 C94.4839967 24.15201438 94.4839967 24.15201438 80.99536133 23.91821289 C80.13444885 23.92127945 79.27353638 23.92434601 78.38653564 23.92750549 C76.55886147 23.93453851 74.73119474 23.94385885 72.90354347 23.95540047 C70.0063031 23.97311939 67.10912012 23.9831889 64.21183777 23.99131775 C55.98907075 24.01550799 47.76638331 24.05159467 39.54370117 24.09594727 C34.47964156 24.12274027 29.41562441 24.13976845 24.35150719 24.15081596 C22.43339125 24.1570056 20.51528352 24.16698553 18.59720802 24.18089485 C15.92518278 24.20013649 13.25338408 24.20700911 10.58129883 24.21118164 C9.79736252 24.21994324 9.01342621 24.22870483 8.20573425 24.23773193 C3.7500032 24.22979923 0.13962031 23.65808896 -4 22 C-2.68 21.67 -1.36 21.34 0 21 C0 14.07 0 7.14 0 0 Z " fill="#686A72" transform="translate(180,239)"/>
<path d="M0 0 C11.54376731 0.5857529 22.86701534 2.66222017 34.25 4.5625 C36.26685538 4.89561669 38.28378198 5.22830254 40.30078125 5.56054688 C45.20135613 6.36873197 50.10092981 7.18274544 55 8 C55 8.66 55 9.32 55 10 C56.17006592 10.05498657 56.17006592 10.05498657 57.36376953 10.11108398 C67.99628776 10.72982282 78.37509781 12.34096056 88.875 14.0625 C90.64183722 14.34756272 92.40876391 14.63207152 94.17578125 14.91601562 C98.45157649 15.6043115 102.7261 16.30003626 107 17 C107 17.33 107 17.66 107 18 C70.7 18 34.4 18 -3 18 C-3 13.05 -3 8.1 -3 3 C-2.01 3.495 -2.01 3.495 -1 4 C-0.67 2.68 -0.34 1.36 0 0 Z " fill="#898C9E" transform="translate(183,242)"/>
<path d="M0 0 C0.33 0 0.66 0 1 0 C1 43.56 1 87.12 1 132 C83.17 132 165.34 132 250 132 C250 129.03 250 126.06 250 123 C250.33 123 250.66 123 251 123 C251 125.97 251 128.94 251 132 C251.99 132 252.98 132 254 132 C253.67 133.32 253.34 134.64 253 136 C227.70830716 135.85862722 202.41664298 135.71252708 177.125 135.5625 C176.19447547 135.55698576 175.26395095 135.55147153 174.30522871 135.5457902 C116.20021964 135.20113783 58.10191537 134.73018565 0 134 C0 89.78 0 45.56 0 0 Z " fill="#6D6F7E" transform="translate(175,264)"/>
<path d="M0 0 C31.35 0 62.7 0 95 0 C95 1.98 95 3.96 95 6 C63.65 6 32.3 6 0 6 C0 4.02 0 2.04 0 0 Z " fill="#676A7A" transform="translate(253,265)"/>
<path d="M0 0 C-0.33 40.92 -0.66 81.84 -1 124 C-1.33 124 -1.66 124 -2 124 C-2.00423194 123.41285154 -2.00846388 122.82570309 -2.01282406 122.22076225 C-2.11620282 107.92328381 -2.22485128 93.62585256 -2.33933926 79.32845879 C-2.39457853 72.41430185 -2.44804502 65.50013976 -2.49731445 58.5859375 C-2.54486267 51.91398402 -2.59738247 45.24208662 -2.65294075 38.57019424 C-2.67332865 36.02411286 -2.69204757 33.47801755 -2.70907402 30.93191147 C-2.73319686 27.3671541 -2.76324082 23.8024923 -2.79467773 20.23779297 C-2.8004332 19.18402969 -2.80618866 18.13026642 -2.81211853 17.04457092 C-2.82190735 16.06869522 -2.83169617 15.09281952 -2.84178162 14.08737183 C-2.84823417 13.24485304 -2.85468672 12.40233425 -2.8613348 11.53428459 C-3.01813275 8.66860062 -3.52817977 5.83092138 -4 3 C-40.63 2.67 -77.26 2.34 -115 2 C-115 1.34 -115 0.68 -115 0 C-100.44888545 -0.15389548 -85.89772101 -0.30186069 -71.34647655 -0.4429636 C-64.59024637 -0.50858387 -57.83404564 -0.57612996 -51.07788086 -0.64819336 C-44.56163485 -0.71769232 -38.0453491 -0.78184619 -31.52901649 -0.84269524 C-29.03903728 -0.86682894 -26.54907496 -0.89277421 -24.05913353 -0.92053413 C-20.58005797 -0.9590167 -17.10097883 -0.99114199 -13.62182617 -1.02172852 C-12.06708084 -1.04114754 -12.06708084 -1.04114754 -10.48092651 -1.06095886 C-9.53441727 -1.06799835 -8.58790802 -1.07503784 -7.61271667 -1.08229065 C-6.78955554 -1.09058679 -5.96639441 -1.09888292 -5.11828899 -1.10743046 C-3 -1 -3 -1 0 0 Z " fill="#808188" transform="translate(427,261)"/>
<path d="M0 0 C12.0388637 1.42919471 24.01788633 3.15848663 36 5 C36 5.66 36 6.32 36 7 C36.72830017 7.0507518 37.45660034 7.1015036 38.20697021 7.15379333 C45.51099155 7.70635646 52.66961257 8.63331668 59.890625 9.84765625 C60.96125183 10.02380966 62.03187866 10.19996307 63.13494873 10.38145447 C66.50738403 10.93736514 69.87868988 11.49981033 73.25 12.0625 C75.55591764 12.44379474 77.86190666 12.82465799 80.16796875 13.20507812 C85.7794797 14.13173903 91.39008192 15.06374691 97 16 C97 16.66 97 17.32 97 18 C98.45019531 18.07347656 98.45019531 18.07347656 99.9296875 18.1484375 C107.44991228 18.58029199 114.65340279 19.21953056 122 21 C122 21.33 122 21.66 122 22 C80.42 22 38.84 22 -4 22 C-4 21.67 -4 21.34 -4 21 C30.98 20.67 65.96 20.34 102 20 C80.02640208 16.3293783 80.02640208 16.3293783 58 13 C58 12.34 58 11.68 58 11 C57.33006516 10.94671036 56.66013031 10.89342072 55.96989441 10.83851624 C49.35822455 10.27980944 42.84761981 9.44061831 36.30078125 8.37109375 C35.3397197 8.21713638 34.37865814 8.06317902 33.38847351 7.90455627 C30.36257745 7.41901415 27.3375385 6.92835348 24.3125 6.4375 C22.2428934 6.10447662 20.17323236 5.77179134 18.10351562 5.43945312 C13.06837368 4.63020309 8.03399287 3.81636614 3 3 C3 4.98 3 6.96 3 9 C0.23776722 6.23776722 0.42143709 3.79293383 0 0 Z " fill="#545765" transform="translate(180,239)"/>
<path d="M0 0 C27.06 0 54.12 0 82 0 C82 0.66 82 1.32 82 2 C54.68233283 3.37705361 27.34330117 3.10126723 0 3 C0 2.01 0 1.02 0 0 Z " fill="#7D8090" transform="translate(255,267)"/>
<path d="M0 0 C1.71033165 0.48846657 1.71033165 0.48846657 3.45521545 0.98680115 C7.93503388 2.10076436 12.11925514 2.26367047 16.71655273 2.21118164 C17.54872818 2.2098674 18.38090363 2.20855316 19.23829651 2.2071991 C21.97018123 2.20074729 24.70177894 2.18031695 27.43359375 2.16015625 C29.3544128 2.15387326 31.27523554 2.14863737 33.19606018 2.14439392 C38.24805692 2.13112388 43.29993158 2.10673086 48.35186768 2.07904053 C56.40340201 2.03588029 64.45496337 2.00590401 72.50657845 1.9829998 C75.29182501 1.97294248 78.0769615 1.95586811 80.86216736 1.93800354 C91.61528873 1.88767794 102.27464617 2.21969296 113 3 C113 3.33 113 3.66 113 4 C76.37 4 39.74 4 2 4 C1.34 2.68 0.68 1.36 0 0 Z " fill="#83858F" transform="translate(175,260)"/>
<path d="M0 0 C47.025 0.495 47.025 0.495 95 1 C95 1.66 95 2.32 95 3 C63.98 3 32.96 3 1 3 C0.67 3.66 0.34 4.32 0 5 C0 3.35 0 1.7 0 0 Z " fill="#818494" transform="translate(252,403)"/>
<path d="M0 0 C0.99 0.66 1.98 1.32 3 2 C3 3.32 3 4.64 3 6 C3.66 6 4.32 6 5 6 C5.125 11.75 5.125 11.75 4 14 C2.35 14 0.7 14 -1 14 C-0.01 13.67 0.98 13.34 2 13 C2 12.34 2 11.68 2 11 C1.01 11.495 1.01 11.495 0 12 C-6.22082585 12.4524237 -6.22082585 12.4524237 -8.9375 10.875 C-10.50422245 8.11019567 -10.38976435 6.11811483 -10 3 C-7.30486142 -0.72185803 -4.26459798 -1.46595555 0 0 Z " fill="#555765" transform="translate(304,247)"/>
<path d="M0 0 C3.66773869 0.32221256 7.33412701 0.65721707 11 1 C11.78632813 1.0721875 12.57265625 1.144375 13.3828125 1.21875 C19.00387833 1.7828713 24.47888225 2.81278679 30 4 C30 4.33 30 4.66 30 5 C-11.58 5 -53.16 5 -96 5 C-96 4.67 -96 4.34 -96 4 C-61.02 3.67 -26.04 3.34 10 3 C6.7 2.34 3.4 1.68 0 1 C0 0.67 0 0.34 0 0 Z " fill="#4C4E5B" transform="translate(272,256)"/>
<path d="M0 0 C0.33 0 0.66 0 1 0 C1.32563191 7.19910552 0.07690833 13.8267399 -1.3125 20.875 C-1.7760729 23.29271348 -2.23831057 25.71068336 -2.69921875 28.12890625 C-2.92399902 29.30340332 -3.1487793 30.47790039 -3.38037109 31.68798828 C-4.19691709 36.05255213 -4.92260747 40.42838376 -5.625 44.8125 C-8.31453032 61.29058176 -8.31453032 61.29058176 -10 67 C-10.99 67.495 -10.99 67.495 -12 68 C-12.15588553 62.77164205 -11.59903181 57.95396555 -10.57421875 52.8203125 C-10.42596146 52.04928192 -10.27770416 51.27825134 -10.12495422 50.4838562 C-9.65187678 48.02968093 -9.17007132 45.57732431 -8.6875 43.125 C-8.21938763 40.71812023 -7.75315159 38.31088518 -7.28762817 35.90350342 C-6.97886864 34.30730709 -6.66903495 32.71131817 -6.35812378 31.11553955 C-5.17022719 24.98723887 -4.07268011 18.84568721 -3.05485535 12.6867981 C-2.31517303 8.33928722 -1.27501008 4.21275063 0 0 Z " fill="#828592" transform="translate(305,279)"/>
<path d="M0 0 C1.32 0.66 2.64 1.32 4 2 C3.67 6.95 3.34 11.9 3 17 C-0.3 17 -3.6 17 -7 17 C-7 16.34 -7 15.68 -7 15 C-7.99 15.165 -8.98 15.33 -10 15.5 C-14.02732942 16.08474517 -17.93474623 16.07132024 -22 16 C-22 15.34 -22 14.68 -22 14 C-16.39 14 -10.78 14 -5 14 C-4.731875 12.06125 -4.46375 10.1225 -4.1875 8.125 C-3.73046875 4.8203125 -3.73046875 4.8203125 -3 2 C-2.01 1.34 -1.02 0.68 0 0 Z " fill="#6A6D77" transform="translate(324,118)"/>
<path d="M0 0 C1.32 0.66 2.64 1.32 4 2 C3.88406494 2.55872803 3.76812988 3.11745605 3.64868164 3.69311523 C3.11572693 6.27372403 2.58908684 8.85558459 2.0625 11.4375 C1.88009766 12.31599609 1.69769531 13.19449219 1.50976562 14.09960938 C0.36785167 19.72613087 -0.44767115 25.2848499 -1 31 C-1.66 30.67 -2.32 30.34 -3 30 C-4.45060912 24.03815592 -3.62302451 18.73814707 -2.625 12.75 C-2.48578125 11.8528125 -2.3465625 10.955625 -2.203125 10.03125 C-1.6530618 6.56481399 -1.11216121 3.33648364 0 0 Z " fill="#9A9BA1" transform="translate(329,137)"/>
<path d="M0 0 C0.94875 0.04125 1.8975 0.0825 2.875 0.125 C4.25625018 2.88750036 4.06579306 5.07231099 3.875 8.125 C1.875 10.125 1.875 10.125 -0.625 10.375 C-3.125 10.125 -3.125 10.125 -5.125 8.125 C-5.375 5.125 -5.375 5.125 -5.125 2.125 C-3.125 0.125 -3.125 0.125 0 0 Z " fill="#898C9D" transform="translate(301.125,247.875)"/>
<path d="M0 0 C1.17175781 0.17917969 2.34351563 0.35835937 3.55078125 0.54296875 C5.36642578 0.83494141 5.36642578 0.83494141 7.21875 1.1328125 C9.03439453 1.41318359 9.03439453 1.41318359 10.88671875 1.69921875 C16.16979217 2.51870539 21.44605277 3.37409265 26.71875 4.2578125 C26.71875 4.5878125 26.71875 4.9178125 26.71875 5.2578125 C21.57280875 6.21594191 17.20840098 6.15425288 12.03515625 5.26171875 C11.33478745 5.14932358 10.63441864 5.03692841 9.91282654 4.92112732 C7.70059677 4.56385046 5.49104043 4.19234814 3.28125 3.8203125 C1.77163886 3.57392141 0.2618741 3.32846958 -1.24804688 3.08398438 C-4.92761931 2.48610446 -8.60493668 1.87545346 -12.28125 1.2578125 C-12.28125 0.9278125 -12.28125 0.5978125 -12.28125 0.2578125 C-7.91016585 -0.65815064 -4.40385192 -0.69052505 0 0 Z " fill="#616374" transform="translate(250.28125,250.7421875)"/>
<path d="M0 0 C0.33 0 0.66 0 1 0 C1.05390357 2.93774463 1.0936255 5.87450232 1.125 8.8125 C1.14175781 9.64587891 1.15851563 10.47925781 1.17578125 11.33789062 C1.18222656 12.14033203 1.18867188 12.94277344 1.1953125 13.76953125 C1.20578613 14.50792236 1.21625977 15.24631348 1.22705078 16.00708008 C1 18 1 18 -1 21 C-1.39387788 23.32387947 -1.73486085 25.65793749 -2 28 C-2.99 28 -3.98 28 -5 28 C-3.49241324 18.63522577 -1.77356753 9.31714145 0 0 Z " fill="#808390" transform="translate(292,350)"/>
<path d="M0 0 C-1.44329897 4.69072165 -1.44329897 4.69072165 -3.6875 5.9375 C-7.02508384 6.02770497 -9.84959551 5.02993993 -13 4 C-12.67 3.01 -12.34 2.02 -12 1 C-8.32433144 -0.61729417 -3.92760325 -0.06546005 0 0 Z " fill="#777A85" transform="translate(285,134)"/>
<path d="M0 0 C1.32 0.66 2.64 1.32 4 2 C4 3.65 4 5.3 4 7 C2.35 7.33 0.7 7.66 -1 8 C-1.33 9.32 -1.66 10.64 -2 12 C-2.66 12 -3.32 12 -4 12 C-3.9129995 10.37399059 -3.8048219 8.74910322 -3.6875 7.125 C-3.62949219 6.22007813 -3.57148438 5.31515625 -3.51171875 4.3828125 C-3 2 -3 2 0 0 Z " fill="#5F5F6A" transform="translate(324,118)"/>
<path d="M0 0 C0.515625 0.2475 1.03125 0.495 1.5625 0.75 C-3.58035714 5.17857143 -3.58035714 5.17857143 -7.4375 5.75 C-7.4375 6.41 -7.4375 7.07 -7.4375 7.75 C-14.1875 11.625 -14.1875 11.625 -16.4375 12.75 C-15.75 10.375 -15.75 10.375 -14.4375 7.75 C-11.8125 6.4375 -11.8125 6.4375 -9.4375 5.75 C-9.4375 5.09 -9.4375 4.43 -9.4375 3.75 C-3.0375 -0.31153846 -3.0375 -0.31153846 0 0 Z " fill="#777881" transform="translate(239.4375,151.25)"/>
<path d="M0 0 C0.99 0.33 1.98 0.66 3 1 C2.67 4.63 2.34 8.26 2 12 C0.68 12.33 -0.64 12.66 -2 13 C-1.34 8.71 -0.68 4.42 0 0 Z " fill="#94969B" transform="translate(315,217)"/>
<path d="M0 0 C0.66 0 1.32 0 2 0 C1.57910004 5.60461531 1.08386889 10.72086547 -1 16 C-1.33 16 -1.66 16 -2 16 C-3.43680971 9.86090397 -2.32637691 5.79622721 0 0 Z " fill="#A6A6AA" transform="translate(325,169)"/>
<path d="M0 0 C0.66 0.33 1.32 0.66 2 1 C1.21718695 2.33855056 0.42348123 3.67073644 -0.375 5 C-0.81585938 5.7425 -1.25671875 6.485 -1.7109375 7.25 C-2.34902344 8.11625 -2.34902344 8.11625 -3 9 C-3.66 9 -4.32 9 -5 9 C-5.33 10.65 -5.66 12.3 -6 14 C-7 11 -7 11 -6.328125 9.0625 C-5.97234375 8.381875 -5.6165625 7.70125 -5.25 7 C-4.90453125 6.319375 -4.5590625 5.63875 -4.203125 4.9375 C-2.9910575 2.98559909 -1.68593353 1.5502837 0 0 Z " fill="#72747D" transform="translate(202,184)"/>
<path d="M0 0 C0.66 0.33 1.32 0.66 2 1 C0.52861945 4.87909417 -1.45361125 6.01056241 -5 8 C-6.75149165 9.58245275 -6.75149165 9.58245275 -8 11 C-8.66 10.67 -9.32 10.34 -10 10 C-6.92118304 6.12948725 -3.99926986 2.97088618 0 0 Z " fill="#5A5B67" transform="translate(220,164)"/>
<path d="M0 0 C0.66 0.33 1.32 0.66 2 1 C1.88617347 2.95901454 1.75858875 4.9172338 1.625 6.875 C1.55539062 7.96554688 1.48578125 9.05609375 1.4140625 10.1796875 C1 13 1 13 -1 15 C-2 14 -2 14 -2.0625 11.4375 C-2.041875 10.633125 -2.02125 9.82875 -2 9 C-1.34 9 -0.68 9 0 9 C-0.185625 8.071875 -0.37125 7.14375 -0.5625 6.1875 C-1 3 -1 3 0 0 Z " fill="#95969A" transform="translate(311,244)"/>
<path d="M0 0 C5.61 0.66 11.22 1.32 17 2 C17 2.33 17 2.66 17 3 C10.90367577 4.32528788 6.02232181 3.46619907 0 2 C0 1.34 0 0.68 0 0 Z " fill="#676B7B" transform="translate(199,242)"/>
<path d="M0 0 C0 0.66 0 1.32 0 2 C0.99 2.33 1.98 2.66 3 3 C-2.94 2.34 -8.88 1.68 -15 1 C-15 0.67 -15 0.34 -15 0 C-9.77254141 -1.2063366 -5.23471686 -0.75612577 0 0 Z " fill="#6B6E7F" transform="translate(253,251)"/>
<path d="M0 0 C0.66 0 1.32 0 2 0 C2.27429625 5.39449293 2.36055646 8.51925805 -1 13 C-2.40742022 10.18515955 -1.66652164 8.43063887 -1.0625 5.375 C-0.86785156 4.37210938 -0.67320312 3.36921875 -0.47265625 2.3359375 C-0.31667969 1.56507813 -0.16070312 0.79421875 0 0 Z " fill="#878791" transform="translate(318,199)"/>
<path d="M0 0 C0.99 0 1.98 0 3 0 C2.67 2.31 2.34 4.62 2 7 C0.0625 6.6875 0.0625 6.6875 -2 6 C-2.33 5.01 -2.66 4.02 -3 3 C-2.01 3 -1.02 3 0 3 C0 2.01 0 1.02 0 0 Z " fill="#8E8E90" transform="translate(331,131)"/>
<path d="M0 0 C1.32 0.66 2.64 1.32 4 2 C4 3.65 4 5.3 4 7 C3.34 7 2.68 7 2 7 C2 6.34 2 5.68 2 5 C0.35 4.67 -1.3 4.34 -3 4 C-3 3.34 -3 2.68 -3 2 C-2.01 1.34 -1.02 0.68 0 0 Z " fill="#98979E" transform="translate(324,118)"/>
<path d="M0 0 C0.556875 0.226875 1.11375 0.45375 1.6875 0.6875 C-3.45535714 5.11607143 -3.45535714 5.11607143 -7.3125 5.6875 C-7.3125 4.6975 -7.3125 3.7075 -7.3125 2.6875 C-3.28618421 -0.44407895 -3.28618421 -0.44407895 0 0 Z " fill="#71727B" transform="translate(239.3125,151.3125)"/>
<path d="M0 0 C0.33 0 0.66 0 1 0 C0.67 2.64 0.34 5.28 0 8 C-1.65 8 -3.3 8 -5 8 C-4.67 7.01 -4.34 6.02 -4 5 C-3.01 5 -2.02 5 -1 5 C-0.67 3.35 -0.34 1.7 0 0 Z " fill="#90919D" transform="translate(323,125)"/>
<path d="M0 0 C6.625 -0.125 6.625 -0.125 10 1 C10 1.66 10 2.32 10 3 C3.375 2.25 3.375 2.25 0 0 Z " fill="#585B6B" transform="translate(253,252)"/>
<path d="M0 0 C0.66 0.33 1.32 0.66 2 1 C1.67 3.64 1.34 6.28 1 9 C0.34 8.67 -0.32 8.34 -1 8 C-0.67 5.36 -0.34 2.72 0 0 Z " fill="#6B6D73" transform="translate(181,225)"/>
<path d="M0 0 C0.66 0 1.32 0 2 0 C1.125 4.75 1.125 4.75 0 7 C-0.66 7 -1.32 7 -2 7 C-1.125 1.125 -1.125 1.125 0 0 Z " fill="#777880" transform="translate(188,208)"/>
<path d="M0 0 C0 0.66 0 1.32 0 2 C-2.31 2.66 -4.62 3.32 -7 4 C-6.67 3.01 -6.34 2.02 -6 1 C-4 0 -4 0 0 0 Z " fill="#6E6E78" transform="translate(249,146)"/>
</svg>
