<?xml version="1.0" encoding="UTF-8"?>
<svg version="1.1" xmlns="http://www.w3.org/2000/svg" width="551" height="551">
<path d="M0 0 C1.12591553 0.00523682 2.25183105 0.01047363 3.41186523 0.01586914 C4.62680664 0.0190918 5.84174805 0.02231445 7.09350586 0.02563477 C8.37290039 0.03401367 9.65229492 0.04239258 10.97045898 0.05102539 C12.2537207 0.05553711 13.53698242 0.06004883 14.85913086 0.06469727 C18.04211921 0.07652994 21.22501661 0.09301471 24.40795898 0.11352539 C24.40795898 0.77352539 24.40795898 1.43352539 24.40795898 2.11352539 C25.06795898 2.11352539 25.72795898 2.11352539 26.40795898 2.11352539 C26.07795898 3.76352539 25.74795898 5.41352539 25.40795898 7.11352539 C23.75795898 7.11352539 22.10795898 7.11352539 20.40795898 7.11352539 C20.40795898 9.09352539 20.40795898 11.07352539 20.40795898 13.11352539 C41.85795898 12.78352539 63.30795898 12.45352539 85.40795898 12.11352539 C84.28458387 26.7174019 84.28458387 26.7174019 83.57592773 32.33618164 C83.41898437 33.60018799 83.26204102 34.86419434 83.1003418 36.16650391 C83.01804321 36.81966583 82.93574463 37.47282776 82.85095215 38.14578247 C82.40279294 41.70702086 81.96538587 45.2695712 81.52905273 48.83227539 C81.39238693 49.94784569 81.39238693 49.94784569 81.25296021 51.08595276 C80.15491611 60.10846525 79.1540638 69.14178388 78.15795898 78.17602539 C78.02494888 79.3816362 78.02494888 79.3816362 77.88925171 80.61160278 C77.39319163 85.11199351 76.89949649 89.61263812 76.40795898 94.11352539 C75.74795898 94.11352539 75.08795898 94.11352539 74.40795898 94.11352539 C74.45243164 95.83635742 74.45243164 95.83635742 74.49780273 97.59399414 C74.49651424 104.17431292 73.8148062 110.70180158 73.18115234 117.24462891 C72.96929566 119.43806976 72.7653339 121.63214677 72.56225586 123.82641602 C71.39487647 136.15277292 71.39487647 136.15277292 69.40795898 142.11352539 C96.46795898 142.11352539 123.52795898 142.11352539 151.40795898 142.11352539 C152.18027125 145.97508673 152.52344821 148.84071819 152.49024963 152.68806458 C152.48321014 153.79719208 152.47617065 154.90631958 152.46891785 156.04905701 C152.45597183 157.25602737 152.44302582 158.46299774 152.4296875 159.70654297 C152.41527618 161.62421478 152.41527618 161.62421478 152.40057373 163.58062744 C152.3741721 167.0782044 152.34137668 170.57569547 152.30742383 174.07320619 C152.27300197 177.73136557 152.24447339 181.38957082 152.21531677 185.04777527 C152.15923952 191.97147033 152.09787059 198.89510794 152.03459543 205.81874055 C151.96280288 213.70259059 151.89691716 221.58648655 151.83152497 229.47039187 C151.69690388 245.68482982 151.55487349 261.89919407 151.40795898 278.11352539 C153.05795898 278.11352539 154.70795898 278.11352539 156.40795898 278.11352539 C156.40795898 299.56352539 156.40795898 321.01352539 156.40795898 343.11352539 C109.9261389 343.1361088 63.44432013 343.15402257 16.96249566 343.16459072 C11.48101923 343.1658415 5.99954282 343.16713582 0.51806641 343.16845703 C-1.11890172 343.1688505 -1.11890172 343.1688505 -2.7889399 343.16925191 C-20.4839157 343.17360906 -38.17888826 343.18149685 -55.87386214 343.19067819 C-74.01621585 343.20001349 -92.15856787 343.20558074 -110.30092388 343.20761389 C-121.50527339 343.20898937 -132.70961377 343.21334133 -143.91396046 343.22144186 C-151.58614581 343.2267078 -159.25832641 343.22833004 -166.93051343 343.22702677 C-171.36395195 343.22638315 -175.79737446 343.22740358 -180.23081017 343.23273087 C-184.28268039 343.2375644 -188.33452369 343.23786435 -192.3863951 343.23442429 C-193.85881285 343.23399855 -195.33123222 343.23529467 -196.80364674 343.23840857 C-198.79197827 343.2423719 -200.78031986 343.23968204 -202.76865292 343.23657322 C-204.43125838 343.2371428 -204.43125838 343.2371428 -206.12745184 343.23772389 C-208.59204102 343.11352539 -208.59204102 343.11352539 -209.59204102 342.11352539 C-209.69124768 340.19120252 -209.72003465 338.2652126 -209.72143555 336.34033203 C-209.72458771 335.10557632 -209.72773987 333.87082062 -209.73098755 332.59864807 C-209.72919757 331.24032557 -209.72714657 329.88200339 -209.72485352 328.52368164 C-209.72552668 327.13984663 -209.7264968 325.75601173 -209.72775269 324.37217712 C-209.72922958 321.46767047 -209.72707571 318.5631945 -209.72241211 315.65869141 C-209.71672012 311.93155754 -209.71999049 308.20449575 -209.72598457 304.47736454 C-209.72959495 301.61811274 -209.72844931 298.75887809 -209.72585678 295.89962578 C-209.72518856 294.52527292 -209.7260123 293.15091852 -209.72833633 291.77656746 C-209.73087002 289.85641636 -209.72632493 287.93625983 -209.72143555 286.01611328 C-209.72063995 284.92214737 -209.71984436 283.82818146 -209.71902466 282.70106506 C-209.59204102 280.11352539 -209.59204102 280.11352539 -208.59204102 278.11352539 C-206.94204102 278.11352539 -205.29204102 278.11352539 -203.59204102 278.11352539 C-203.59204102 233.23352539 -203.59204102 188.35352539 -203.59204102 142.11352539 C-201.28204102 142.11352539 -198.97204102 142.11352539 -196.59204102 142.11352539 C-196.60944336 140.30754883 -196.60944336 140.30754883 -196.62719727 138.46508789 C-196.63657536 136.8895686 -196.64567554 135.31404765 -196.65454102 133.73852539 C-196.66291992 132.94446289 -196.67129883 132.15040039 -196.67993164 131.33227539 C-196.70532227 125.34008789 -196.70532227 125.34008789 -195.59204102 123.11352539 C-196.58204102 123.11352539 -197.57204102 123.11352539 -198.59204102 123.11352539 C-199.16185923 112.58244069 -197.290099 102.83003398 -193.33813477 93.06274414 C-192.47872266 90.81747378 -191.81731963 88.54929407 -191.15454102 86.23852539 C-189.64027632 81.05136334 -187.67945756 76.09365624 -185.59204102 71.11352539 C-184.93204102 71.11352539 -184.27204102 71.11352539 -183.59204102 71.11352539 C-183.44508789 70.57985352 -183.29813477 70.04618164 -183.14672852 69.49633789 C-181.24795117 63.18890511 -178.55985971 57.40763446 -174.59204102 52.11352539 C-173.93204102 52.11352539 -173.27204102 52.11352539 -172.59204102 52.11352539 C-172.32907227 51.38262695 -172.06610352 50.65172852 -171.79516602 49.89868164 C-168.79582953 42.95541245 -163.94225872 38.06477196 -157.59204102 34.11352539 C-156.95266602 33.28852539 -156.31329102 32.46352539 -155.65454102 31.61352539 C-153.57429837 29.09201915 -151.64172219 27.78921466 -148.76782227 26.28149414 C-147.08896288 25.38027519 -145.44664326 24.41077783 -143.82250977 23.41430664 C-130.31271132 15.14193968 -117.87988799 14.0589489 -102.37329102 13.50805664 C-100.95790039 13.45198242 -100.95790039 13.45198242 -99.51391602 13.39477539 C-98.66410156 13.36448242 -97.81428711 13.33418945 -96.9387207 13.30297852 C-94.65417331 13.19338229 -94.65417331 13.19338229 -92.76062012 12.6030426 C-90.27548844 12.04206942 -88.09501105 12.03391244 -85.5480957 12.09179688 C-84.54736023 12.11189316 -83.54662476 12.13198944 -82.51556396 12.1526947 C-81.44252014 12.17972977 -80.36947632 12.20676483 -79.26391602 12.23461914 C-78.15977356 12.25823013 -77.0556311 12.28184113 -75.91802979 12.3061676 C-72.3925667 12.38272068 -68.86732789 12.4667814 -65.34204102 12.55102539 C-62.95142698 12.60425441 -60.56080201 12.65699476 -58.17016602 12.70922852 C-52.31065235 12.83832457 -46.45130517 12.97358455 -40.59204102 13.11352539 C-40.26204102 11.13352539 -39.93204102 9.15352539 -39.59204102 7.11352539 C-41.24204102 7.11352539 -42.89204102 7.11352539 -44.59204102 7.11352539 C-44.92204102 5.46352539 -45.25204102 3.81352539 -45.59204102 2.11352539 C-44.32497314 2.08846924 -43.05790527 2.06341309 -41.75244141 2.03759766 C-37.06906323 1.94370543 -32.38583971 1.84344104 -27.70263672 1.74121094 C-25.67239998 1.69779298 -23.64212509 1.65612313 -21.61181641 1.61621094 C-18.70015951 1.55867393 -15.78869588 1.49493261 -12.87719727 1.42993164 C-11.5068911 1.4048629 -11.5068911 1.4048629 -10.10890198 1.37928772 C-6.35585617 1.29025861 -3.41087044 0.14938822 0 0 Z M-34.59204102 7.11352539 C-34.59204102 9.09352539 -34.59204102 11.07352539 -34.59204102 13.11352539 C-18.42204102 13.11352539 -2.25204102 13.11352539 14.40795898 13.11352539 C14.73795898 11.13352539 15.06795898 9.15352539 15.40795898 7.11352539 C-1.09204102 7.11352539 -17.59204102 7.11352539 -34.59204102 7.11352539 Z " fill="#50535E" transform="translate(324.592041015625,117.886474609375)"/>
<path d="M0 0 C10.67419698 -0.02312328 21.34838806 -0.04091501 32.02260494 -0.05181217 C36.97853922 -0.05704103 41.93445642 -0.06413874 46.89038086 -0.07543945 C51.66898836 -0.08626822 56.44757938 -0.09227681 61.2261982 -0.09487724 C63.05353619 -0.09673151 64.88087324 -0.10035216 66.70820427 -0.10573006 C69.25853329 -0.11294036 71.80879337 -0.11399095 74.35913086 -0.11352539 C75.12229614 -0.11712067 75.88546143 -0.12071594 76.67175293 -0.12442017 C81.88594784 -0.11405216 81.88594784 -0.11405216 83 1 C83.09619441 2.69558703 83.12187659 4.3952084 83.12025452 6.09352112 C83.12231651 7.74896439 83.12231651 7.74896439 83.12442017 9.43785095 C83.12082489 10.65920242 83.11722961 11.88055389 83.11352539 13.13891602 C83.11367142 14.41677979 83.11381744 15.69464355 83.1139679 17.01123047 C83.11425585 20.52553591 83.1083594 24.0398075 83.10139394 27.55410504 C83.09516012 31.22299356 83.09455658 34.89188277 83.09336853 38.56077576 C83.0902553 45.51290435 83.08204202 52.4650173 83.07201904 59.41713899 C83.06085766 67.3299478 83.05534739 75.24275734 83.05032361 83.15557206 C83.0398594 99.43705721 83.02226011 115.71852661 83 132 C84.32 132.33 85.64 132.66 87 133 C87 153.79 87 174.58 87 196 C26.94 196 -33.12 196 -95 196 C-95 168.94 -95 141.88 -95 114 C-68.27 114 -41.54 114 -14 114 C-14 111.36 -14 108.72 -14 106 C-13.82738856 104.37429154 -13.61092216 102.75217895 -13.3359375 101.140625 C-13.11139893 99.75254639 -13.11139893 99.75254639 -12.88232422 98.33642578 C-12.71490723 97.31790527 -12.54749023 96.29938477 -12.375 95.25 C-9.76942673 78.65305366 -7.97504185 61.95942966 -6.10693359 45.26660156 C-3.88387373 25.47328329 -3.88387373 25.47328329 -2.50753784 17.16067505 C-1.9450742 13.65795138 -1.43885876 10.14966636 -0.94091797 6.63720703 C-0.76382294 5.39021027 -0.58672791 4.1432135 -0.40426636 2.85842896 C-0.27085846 1.9151474 -0.13745056 0.97186584 0 0 Z " fill="#50525D" transform="translate(393,264)"/>
<path d="M0 0 C58.67054507 0.5468626 117.33350303 1.14622562 176 2 C176 36.65 176 71.3 176 107 C201.08 107 226.16 107 252 107 C252 107.33 252 107.66 252 108 C226.92 108 201.84 108 176 108 C176 117.24 176 126.48 176 136 C117.92 136 59.84 136 0 136 C0 91.12 0 46.24 0 0 Z " fill="#7E8193" transform="translate(121,260)"/>
<path d="M0 0 C0.66 0 1.32 0 2 0 C2 21.45 2 42.9 2 65 C-44.48182008 65.02258341 -90.96363885 65.04049718 -137.44546333 65.05106533 C-142.92693975 65.05231611 -148.40841617 65.05361043 -153.88989258 65.05493164 C-155.5268607 65.05532511 -155.5268607 65.05532511 -157.19689889 65.05572652 C-174.89187468 65.06008367 -192.58684725 65.06797146 -210.28182112 65.0771528 C-228.42417484 65.0864881 -246.56652685 65.09205535 -264.70888287 65.09408849 C-275.91323238 65.09546398 -287.11757275 65.09981594 -298.32191945 65.10791647 C-305.9941048 65.11318241 -313.66628539 65.11480464 -321.33847242 65.11350138 C-325.77191094 65.11285776 -330.20533344 65.11387819 -334.63876915 65.11920547 C-338.69063938 65.12403901 -342.74248267 65.12433896 -346.79435409 65.12089889 C-348.26677184 65.12047316 -349.7391912 65.12176928 -351.21160572 65.12488318 C-353.19993726 65.12884651 -355.18827884 65.12615665 -357.1766119 65.12304783 C-358.83921737 65.12361741 -358.83921737 65.12361741 -360.53541082 65.1241985 C-363 65 -363 65 -364 64 C-364.09396057 62.06693502 -364.11743517 60.13041162 -364.11352539 58.19506836 C-364.11344986 56.95385727 -364.11337433 55.71264618 -364.11329651 54.43382263 C-364.10818911 53.0691626 -364.1029731 51.70450298 -364.09765625 50.33984375 C-364.095792 48.95121817 -364.09436813 47.56259193 -364.09336853 46.17396545 C-364.08954387 42.51278885 -364.07971403 38.8516517 -364.06866455 35.19049072 C-364.05844932 31.45707737 -364.05387067 27.72365766 -364.04882812 23.99023438 C-364.03809171 16.66013823 -364.02101591 9.33007464 -364 2 C-363.67 2 -363.34 2 -363 2 C-362.67 5.3 -362.34 8.6 -362 12 C-361.67 9.03 -361.34 6.06 -361 3 C-325.08659777 1.88176965 -289.18483723 1.87504074 -253.25886106 1.92797339 C-243.86021176 1.941567 -234.46155728 1.94670358 -225.06290054 1.95248318 C-210.37525449 1.96172423 -195.68764405 1.9816913 -181 2 C-181 22.46 -181 42.92 -181 64 C-120.94 64 -60.88 64 1 64 C0.67 42.88 0.34 21.76 0 0 Z " fill="#7F8193" transform="translate(479,396)"/>
<path d="M0 0 C1.12591553 0.00523682 2.25183105 0.01047363 3.41186523 0.01586914 C4.62680664 0.0190918 5.84174805 0.02231445 7.09350586 0.02563477 C8.37290039 0.03401367 9.65229492 0.04239258 10.97045898 0.05102539 C12.2537207 0.05553711 13.53698242 0.06004883 14.85913086 0.06469727 C18.04211921 0.07652994 21.22501661 0.09301471 24.40795898 0.11352539 C24.40795898 0.77352539 24.40795898 1.43352539 24.40795898 2.11352539 C25.06795898 2.11352539 25.72795898 2.11352539 26.40795898 2.11352539 C26.07795898 3.76352539 25.74795898 5.41352539 25.40795898 7.11352539 C23.75795898 7.11352539 22.10795898 7.11352539 20.40795898 7.11352539 C20.40795898 9.09352539 20.40795898 11.07352539 20.40795898 13.11352539 C41.85795898 12.78352539 63.30795898 12.45352539 85.40795898 12.11352539 C84.28458387 26.7174019 84.28458387 26.7174019 83.57592773 32.33618164 C83.41898437 33.60018799 83.26204102 34.86419434 83.1003418 36.16650391 C83.01804321 36.81966583 82.93574463 37.47282776 82.85095215 38.14578247 C82.40279294 41.70702086 81.96538587 45.2695712 81.52905273 48.83227539 C81.4379422 49.57598892 81.34683167 50.31970245 81.25296021 51.08595276 C80.15491611 60.10846525 79.1540638 69.14178388 78.15795898 78.17602539 C78.06928558 78.97976593 77.98061218 79.78350647 77.88925171 80.61160278 C77.39319163 85.11199351 76.89949649 89.61263812 76.40795898 94.11352539 C75.74795898 94.11352539 75.08795898 94.11352539 74.40795898 94.11352539 C74.43760742 95.26208008 74.46725586 96.41063477 74.49780273 97.59399414 C74.49651424 104.17431292 73.8148062 110.70180158 73.18115234 117.24462891 C72.96929566 119.43806976 72.7653339 121.63214677 72.56225586 123.82641602 C71.39487647 136.15277292 71.39487647 136.15277292 69.40795898 142.11352539 C67.75795898 142.11352539 66.10795898 142.11352539 64.40795898 142.11352539 C65.06795898 141.45352539 65.72795898 140.79352539 66.40795898 140.11352539 C66.40795898 138.79352539 66.40795898 137.47352539 66.40795898 136.11352539 C66.40795898 134.79352539 66.40795898 133.47352539 66.40795898 132.11352539 C67.06795898 132.11352539 67.72795898 132.11352539 68.40795898 132.11352539 C68.20299805 131.49864258 67.99803711 130.88375977 67.78686523 130.25024414 C64.28295898 119.73852539 64.28295898 119.73852539 64.28770447 116.10823059 C64.28564247 114.89040642 64.28564247 114.89040642 64.28353882 113.64797974 C64.28893173 112.31765213 64.28893173 112.31765213 64.29443359 110.96044922 C64.29428757 110.02366837 64.29414154 109.08688751 64.29399109 108.12171936 C64.29468848 105.02130834 64.30247281 101.92095719 64.31030273 98.82055664 C64.31216753 96.67250094 64.31359114 94.52444482 64.31459045 92.37638855 C64.31841078 86.71943998 64.32823697 81.06251705 64.33929443 75.40557861 C64.34951894 69.63440294 64.35409031 63.86322313 64.35913086 58.09204102 C64.36985964 46.76585787 64.38693029 35.43969376 64.40795898 24.11352539 C63.74795898 24.11352539 63.08795898 24.11352539 62.40795898 24.11352539 C62.40795898 60.08352539 62.40795898 96.05352539 62.40795898 133.11352539 C61.41795898 132.12352539 60.42795898 131.13352539 59.40795898 130.11352539 C58.74795898 130.11352539 58.08795898 130.11352539 57.40795898 130.11352539 C57.73795898 130.77352539 58.06795898 131.43352539 58.40795898 132.11352539 C58.63872822 137.65198693 58.63872822 137.65198693 57.40795898 140.11352539 C53.70256458 141.55659085 49.70954001 141.24674167 45.79370117 141.22705078 C45.03233856 141.22719681 44.27097595 141.22734283 43.48654175 141.22749329 C40.97594327 141.22679794 38.46541946 141.21902326 35.95483398 141.21118164 C34.21177206 141.20931612 32.46870961 141.20789285 30.72564697 141.20689392 C26.14223783 141.20307933 21.55886047 141.19325806 16.97546387 141.18218994 C12.29671661 141.17195309 7.61796421 141.16739143 2.93920898 141.16235352 C-6.2378883 141.15163485 -15.41496201 141.13457111 -24.59204102 141.11352539 C-24.62957272 138.14074879 -24.65663759 135.16845905 -24.67797852 132.19555664 C-24.68949951 131.36737427 -24.70102051 130.53919189 -24.71289062 129.68591309 C-24.76906456 119.19925999 -23.01970201 109.02595043 -19.59204102 99.11352539 C-18.97870402 96.94943678 -18.37502168 94.78259537 -17.77954102 92.61352539 C-12.11033338 72.69753573 -12.11033338 72.69753573 -6.59204102 64.11352539 C-5.93204102 64.11352539 -5.27204102 64.11352539 -4.59204102 64.11352539 C-4.51083008 63.40711914 -4.42961914 62.70071289 -4.34594727 61.97290039 C-2.83090341 56.22672369 1.7434046 51.69421837 5.40795898 47.11352539 C6.00608398 46.33493164 6.60420898 45.55633789 7.22045898 44.75415039 C11.37737447 39.66935198 16.22763524 35.66555903 21.40795898 31.67602539 C22.07255127 31.15524414 22.73714355 30.63446289 23.421875 30.09790039 C28.0230733 26.66807046 31.82278394 25.33222038 37.40795898 24.11352539 C37.73795898 23.45352539 38.06795898 22.79352539 38.40795898 22.11352539 C40.38795898 21.45352539 42.36795898 20.79352539 44.40795898 20.11352539 C21.63795898 20.11352539 -1.13204102 20.11352539 -24.59204102 20.11352539 C-24.59204102 19.12352539 -24.59204102 18.13352539 -24.59204102 17.11352539 C-28.22204102 17.11352539 -31.85204102 17.11352539 -35.59204102 17.11352539 C-35.59204102 15.46352539 -35.59204102 13.81352539 -35.59204102 12.11352539 C-10.84204102 12.60852539 -10.84204102 12.60852539 14.40795898 13.11352539 C14.40795898 11.46352539 14.40795898 9.81352539 14.40795898 8.11352539 C-9.84704102 7.61852539 -9.84704102 7.61852539 -34.59204102 7.11352539 C-34.59204102 7.77352539 -34.59204102 8.43352539 -34.59204102 9.11352539 C-35.25204102 9.11352539 -35.91204102 9.11352539 -36.59204102 9.11352539 C-36.59204102 8.12352539 -36.59204102 7.13352539 -36.59204102 6.11352539 C-38.24204102 5.78352539 -39.89204102 5.45352539 -41.59204102 5.11352539 C-41.59204102 4.12352539 -41.59204102 3.13352539 -41.59204102 2.11352539 C-39.87319702 2.07594116 -39.87319702 2.07594116 -38.11962891 2.03759766 C-33.88350504 1.94369433 -29.64755173 1.84343264 -25.41162109 1.74121094 C-23.57539855 1.69779719 -21.73913394 1.656127 -19.90283203 1.61621094 C-17.26915791 1.5586637 -14.63569681 1.49492541 -12.00219727 1.42993164 C-11.17615494 1.41321915 -10.35011261 1.39650665 -9.4990387 1.37928772 C-5.92906414 1.28568615 -3.25654446 0.1426291 0 0 Z " fill="#7D8092" transform="translate(324.592041015625,117.886474609375)"/>
<path d="M0 0 C0.33 0 0.66 0 1 0 C1.08226668 3.04386724 0.97608217 5.07175348 0 8 C-15.51 8 -31.02 8 -47 8 C-47 8.99 -47 9.98 -47 11 C-48.32 10.67 -49.64 10.34 -51 10 C-50.95875 11.155 -50.9175 12.31 -50.875 13.5 C-50.88483426 19.87259832 -51.82593526 26.1225031 -52.66601562 32.42578125 C-53.33890554 37.61214913 -53.94482421 42.80682157 -54.5625 48 C-54.81355436 50.10419624 -55.06484645 52.20836413 -55.31640625 54.3125 C-55.43395264 55.29669922 -55.55149902 56.28089844 -55.67260742 57.29492188 C-55.94705343 59.56252943 -56.23224923 61.82825383 -56.5234375 64.09375 C-57.10851791 68.88949107 -57.59078392 73.69199018 -58.0625 78.5 C-58.15337891 79.4178125 -58.24425781 80.335625 -58.33789062 81.28125 C-58.5595073 83.52074478 -58.7801921 85.7603271 -59 88 C-59.66 88 -60.32 88 -61 88 C-60.97035156 89.10601562 -60.94070312 90.21203125 -60.91015625 91.3515625 C-60.91127594 96.44169348 -61.65535544 101.35472329 -62.4375 106.375 C-63.48622889 113.23940731 -64.37532747 120.08298528 -65 127 C-63.515 127.495 -63.515 127.495 -62 128 C-63.65 128.33 -65.3 128.66 -67 129 C-67.12375 127.88625 -67.2475 126.7725 -67.375 125.625 C-67.6465813 121.96896323 -67.6465813 121.96896323 -70 120 C-73.08347826 119.83318891 -73.08347826 119.83318891 -76 120 C-76.165 121.258125 -76.33 122.51625 -76.5 123.8125 C-76.5928125 124.52019531 -76.685625 125.22789062 -76.78125 125.95703125 C-77.053233 128.15471706 -77.053233 128.15471706 -77 131 C-83.67791397 130.53945421 -89.60016566 129.03590337 -96.00390625 127.12109375 C-103.23426178 125.02445661 -110.64115368 123.56855228 -118 122 C-118 122.66 -118 123.32 -118 124 C-117.22180908 124.10812012 -116.44361816 124.21624023 -115.6418457 124.32763672 C-107.37913989 125.52990994 -99.30731199 127.19105048 -91.1875 129.125 C-90.00607422 129.40214844 -88.82464844 129.67929687 -87.60742188 129.96484375 C-84.73721044 130.63882052 -81.86813434 131.31724851 -79 132 C-79 132.33 -79 132.66 -79 133 C-104.41 133 -129.82 133 -156 133 C-156 116 -156 116 -155 114 C-155.99 114 -156.98 114 -158 114 C-158.56981821 103.4689153 -156.69805798 93.71650859 -152.74609375 83.94921875 C-151.88668165 81.70394839 -151.22527861 79.43576868 -150.5625 77.125 C-149.0482353 71.93783795 -147.08741655 66.98013085 -145 62 C-144.34 62 -143.68 62 -143 62 C-142.85304687 61.46632812 -142.70609375 60.93265625 -142.5546875 60.3828125 C-140.65591016 54.07537972 -137.96781869 48.29410907 -134 43 C-133.34 43 -132.68 43 -132 43 C-131.73703125 42.26910156 -131.4740625 41.53820312 -131.203125 40.78515625 C-128.20378852 33.84188706 -123.3502177 28.95124657 -117 25 C-116.0409375 23.7625 -116.0409375 23.7625 -115.0625 22.5 C-112.98225735 19.97849376 -111.04968118 18.67568927 -108.17578125 17.16796875 C-106.49692187 16.2667498 -104.85460224 15.29725244 -103.23046875 14.30078125 C-89.7206703 6.02841429 -77.28784697 4.94542351 -61.78125 4.39453125 C-60.36585938 4.33845703 -60.36585938 4.33845703 -58.921875 4.28125 C-58.07206055 4.25095703 -57.22224609 4.22066406 -56.34667969 4.18945312 C-54.06213229 4.0798569 -54.06213229 4.0798569 -52.1685791 3.48951721 C-49.68344742 2.92854403 -47.50297003 2.92038704 -44.95605469 2.97827148 C-43.95531921 2.99836777 -42.95458374 3.01846405 -41.92352295 3.03916931 C-40.85047913 3.06620438 -39.7774353 3.09323944 -38.671875 3.12109375 C-37.56773254 3.14470474 -36.46359009 3.16831573 -35.32598877 3.19264221 C-31.80052569 3.26919528 -28.27528688 3.35325601 -24.75 3.4375 C-22.35938596 3.49072902 -19.96876099 3.54346937 -17.578125 3.59570312 C-11.71861133 3.72479918 -5.85926415 3.86005916 0 4 C0 2.68 0 1.36 0 0 Z " fill="#7E8193" transform="translate(284,127)"/>
<path d="M0 0 C0.66 0.33 1.32 0.66 2 1 C1.67 3.31 1.34 5.62 1 8 C1.5835236 7.83748025 2.1670472 7.6749605 2.76825333 7.50751591 C6.23509306 6.71913059 9.71990207 6.87018074 13.25683594 6.88647461 C14.50129234 6.88625557 14.50129234 6.88625557 15.77088928 6.8860321 C18.5087446 6.88672788 21.24653159 6.89450461 23.984375 6.90234375 C25.88437869 6.90420912 27.78438286 6.90563246 29.68438721 6.90663147 C34.68208141 6.91044727 39.67974649 6.92026959 44.6774292 6.93133545 C49.77843838 6.94156969 54.87945226 6.94613341 59.98046875 6.95117188 C69.98699195 6.96189268 79.99349355 6.97895788 90 7 C90.33 8.65 90.66 10.3 91 12 C63.28 11.67 35.56 11.34 7 11 C7 13.97 7 16.94 7 20 C6.53732746 22.22418768 6.07255954 24.4489159 5.5302124 26.6550293 C4.5614672 30.93949928 4.1334039 35.2966518 3.6328125 39.65625 C3.51322174 40.66476517 3.39363098 41.67328033 3.27041626 42.71235657 C2.88447704 45.9744321 2.50479291 49.23720375 2.125 52.5 C1.85890808 54.75486163 1.59230317 57.00966278 1.32519531 59.2644043 C0.7938582 63.75334315 0.26455463 68.24251286 -0.26269531 72.73193359 C-1.16557322 80.41543337 -2.07926596 88.09759341 -3.00543213 95.77832031 C-3.24112636 97.73869399 -3.47389205 99.69941908 -3.70654297 101.66015625 C-3.92141357 103.44679688 -3.92141357 103.44679688 -4.140625 105.26953125 C-4.25954102 106.26573486 -4.37845703 107.26193848 -4.50097656 108.28833008 C-5.25149666 113.87059869 -6.14353862 119.43300106 -7 125 C-33.73 125 -60.46 125 -88 125 C-88 131.6 -88 138.2 -88 145 C-104.97227128 145.13238802 -121.9445556 145.26290643 -138.91685867 145.39115143 C-146.80297812 145.45078367 -154.6890921 145.51100869 -162.57519531 145.57275391 C-197.7177913 145.84758531 -232.85587932 146.06247844 -268 146 C-268 166.13 -268 186.26 -268 207 C-268.33 207 -268.66 207 -269 207 C-269.33 185.88 -269.66 164.76 -270 143 C-268.02 143 -266.04 143 -264 143 C-264 99.44 -264 55.88 -264 11 C-263.67 11 -263.34 11 -263 11 C-263 54.56 -263 98.12 -263 143 C-205.58 143 -148.16 143 -89 143 C-89 133.76 -89 124.52 -89 115 C-64.58 114.67 -40.16 114.34 -15 114 C-13.76795028 102.22923256 -13.76795028 102.22923256 -12.54736328 90.45727539 C-12.38875523 88.96235891 -12.22976293 87.46748312 -12.0703125 85.97265625 C-11.99417725 85.21980347 -11.91804199 84.46695068 -11.83959961 83.69128418 C-11.4385841 79.97620471 -10.89881041 76.3947964 -10.02734375 72.75976562 C-8.65482522 66.86158412 -8.10947035 60.88709533 -7.4921875 54.87109375 C-7.36184113 53.64084976 -7.23149475 52.41060577 -7.09719849 51.14308167 C-6.68495836 47.24171271 -6.27987317 43.33963965 -5.875 39.4375 C-5.59610715 36.78048681 -5.31558267 34.12364902 -5.03515625 31.46679688 C-4.35134821 24.97842451 -3.67340153 18.48946021 -3 12 C-3.99 12 -4.98 12 -6 12 C-6 11.34 -6 10.68 -6 10 C-33.06 10.33 -60.12 10.66 -88 11 C-88 44.99 -88 78.98 -88 114 C-88.33 114 -88.66 114 -89 114 C-89 79.35 -89 44.7 -89 9 C-113.09 9 -137.18 9 -162 9 C-162 8.67 -162 8.34 -162 8 C-160.7995574 8.00138269 -160.7995574 8.00138269 -159.57486343 8.00279331 C-140.11245337 8.02486639 -120.65004579 8.04142028 -101.18762589 8.05181217 C-91.7757955 8.05697103 -82.36397346 8.06400595 -72.95214844 8.07543945 C-64.74993056 8.08539879 -56.54771874 8.09185642 -48.34549499 8.09408849 C-44.00148378 8.09539347 -39.65748986 8.09846592 -35.31348419 8.10573006 C-31.22600164 8.11250995 -27.13854355 8.11461293 -23.05105591 8.11310768 C-21.54983131 8.11338312 -20.04860591 8.11537658 -18.54738617 8.11920547 C-16.49939056 8.12417336 -14.45138187 8.12239039 -12.40338135 8.12025452 C-10.68331564 8.12163721 -10.68331564 8.12163721 -8.92850113 8.12304783 C-6.43126445 8.01812059 -4.3761542 7.73148296 -2 7 C-1.34 4.69 -0.68 2.38 0 0 Z " fill="#696C78" transform="translate(386,253)"/>
<path d="M0 0 C21.78 0 43.56 0 66 0 C64.87662488 14.60387651 64.87662488 14.60387651 64.16796875 20.22265625 C64.01102539 21.4866626 63.85408203 22.75066895 63.69238281 24.05297852 C63.61008423 24.70614044 63.52778564 25.35930237 63.44299316 26.03225708 C62.99483395 29.59349547 62.55742688 33.15604581 62.12109375 36.71875 C62.02998322 37.46246353 61.93887268 38.20617706 61.84500122 38.97242737 C60.74695712 47.99493986 59.74610481 57.02825849 58.75 66.0625 C58.6613266 66.86624054 58.5726532 67.66998108 58.48129272 68.49807739 C57.98523265 72.99846812 57.49153751 77.49911273 57 82 C56.34 82 55.68 82 55 82 C55.02964844 83.14855469 55.05929687 84.29710937 55.08984375 85.48046875 C55.08855526 92.06078753 54.40684722 98.58827619 53.77319336 105.13110352 C53.56133668 107.32454437 53.35737492 109.51862138 53.15429688 111.71289062 C51.98691749 124.03924753 51.98691749 124.03924753 50 130 C48.35 130 46.7 130 45 130 C45.66 129.34 46.32 128.68 47 128 C47 126.68 47 125.36 47 124 C47 122.68 47 121.36 47 120 C47.66 120 48.32 120 49 120 C48.79503906 119.38511719 48.59007812 118.77023438 48.37890625 118.13671875 C44.875 107.625 44.875 107.625 44.87974548 103.9947052 C44.87837082 103.18282242 44.87699615 102.37093964 44.87557983 101.53445435 C44.88097275 100.20412674 44.88097275 100.20412674 44.88647461 98.84692383 C44.88632858 97.91014297 44.88618256 96.97336212 44.8860321 96.00819397 C44.8867295 92.90778295 44.89451383 89.80743179 44.90234375 86.70703125 C44.90420854 84.55897555 44.90563216 82.41091943 44.90663147 80.26286316 C44.9104518 74.60591459 44.92027799 68.94899165 44.93133545 63.29205322 C44.94155995 57.52087755 44.94613132 51.74969774 44.95117188 45.97851562 C44.96190066 34.65233248 44.97897131 23.32616837 45 12 C44.34 11.67 43.68 11.34 43 11 C43.99 11 44.98 11 46 11 C45.505 7.535 45.505 7.535 45 4 C50.445 4.495 50.445 4.495 56 5 C56 4.34 56 3.68 56 3 C37.52 2.67 19.04 2.34 0 2 C0 1.34 0 0.68 0 0 Z " fill="#7E808E" transform="translate(344,130)"/>
<path d="M0 0 C1.32 0 2.64 0 4 0 C4 0.99 4 1.98 4 3 C5.65 3.33 7.3 3.66 9 4 C9 4.99 9 5.98 9 7 C9.66 7 10.32 7 11 7 C10.67 8.65 10.34 10.3 10 12 C26.5 12 43 12 60 12 C60 12.33 60 12.66 60 13 C43.5 13 27 13 10 13 C10 13.66 10 14.32 10 15 C13.63 15 17.26 15 21 15 C21 15.99 21 16.98 21 18 C55.65 17.505 55.65 17.505 91 17 C90.01 17.99 89.02 18.98 88 20 C86.68 20 85.36 20 84 20 C83.67 20.99 83.34 21.98 83 23 C80.03 23.495 80.03 23.495 77 24 C77 23.67 77 23.34 77 23 C38.39 23 -0.22 23 -40 23 C-40.66 29.6 -41.32 36.2 -42 43 C-42.47048858 47.39974566 -42.94552863 51.79803747 -43.4375 56.1953125 C-43.56310303 57.31968719 -43.68870605 58.44406189 -43.81811523 59.60250854 C-44.07953051 61.93625725 -44.34165365 64.26992678 -44.60449219 66.60351562 C-45.00331515 70.15451708 -45.39616665 73.70615099 -45.7890625 77.2578125 C-46.04650789 79.54952044 -46.30430752 81.84118861 -46.5625 84.1328125 C-46.677146 85.17776886 -46.79179199 86.22272522 -46.90991211 87.29934692 C-47.5458647 92.87798036 -48.39633946 98.33655529 -49.55169678 103.83117676 C-50.49819014 108.41016862 -51.02853412 113.05271666 -51.625 117.6875 C-51.7590625 118.68072266 -51.893125 119.67394531 -52.03125 120.69726562 C-52.57100971 124.84184913 -53.08186801 128.89775767 -53.0234375 133.08203125 C-53 136 -53 136 -54 138 C-54.66 138 -55.32 138 -56 138 C-56 137.34 -56 136.68 -56 136 C-57.65 136 -59.3 136 -61 136 C-60.505 135.01 -60.505 135.01 -60 134 C-59.9794194 132.60676708 -60.00877968 131.21266147 -60.0625 129.8203125 C-60.13377804 122.74596752 -59.02553182 115.85970322 -58 108.875 C-57.80665458 107.52352849 -57.61394181 106.17196631 -57.421875 104.8203125 C-56.95410643 101.5459325 -56.48000749 98.27260429 -56 95 C-55.34 95 -54.68 95 -54 95 C-54.01160156 94.28457031 -54.02320313 93.56914062 -54.03515625 92.83203125 C-54.12176859 83.26755464 -53.69558331 73.89686912 -52.0546875 64.46484375 C-50.8988946 57.69070061 -50.18170632 50.89829135 -49.5 44.0625 C-48.59230126 34.99049992 -47.473754 25.99868954 -46 17 C-44.68 17.33 -43.36 17.66 -42 18 C-42 17.01 -42 16.02 -42 15 C-26.49 15 -10.98 15 5 15 C5 14.34 5 13.68 5 13 C-11.5 13 -28 13 -45 13 C-45 12.67 -45 12.34 -45 12 C-28.17 12 -11.34 12 6 12 C6 9.69 6 7.38 6 5 C4.35 5 2.7 5 1 5 C0.505 2.525 0.505 2.525 0 0 Z " fill="#565860" transform="translate(279,120)"/>
<path d="M0 0 C1.65 0 3.3 0 5 0 C3.68 14.19 2.36 28.38 1 43 C0.34 43 -0.32 43 -1 43 C-1.04970947 43.87688477 -1.09941895 44.75376953 -1.15063477 45.65722656 C-1.76656862 55.73087408 -2.78205914 65.72545085 -3.9375 75.75 C-5.35211016 88.16102527 -6.69227687 100.57663031 -8 113 C-34.4 113 -60.8 113 -88 113 C-88 110.69 -88 108.38 -88 106 C-62.92 106 -37.84 106 -12 106 C-11.67 100.72 -11.34 95.44 -11 90 C-10.73514901 86.99661361 -10.46005701 84.00714101 -10.1328125 81.01171875 C-10.05360062 80.26455597 -9.97438873 79.51739319 -9.89277649 78.74758911 C-9.64128238 76.39372195 -9.38375095 74.04057963 -9.125 71.6875 C-9.03662872 70.87340668 -8.94825745 70.05931335 -8.85720825 69.22055054 C-7.81878164 59.68271724 -6.70535268 50.18642791 -5.07910156 40.72802734 C-3.39778421 30.80825494 -2.42166697 20.78819064 -1.31542969 10.79150391 C-0.90847037 7.18997691 -0.46078638 3.5950032 0 0 Z " fill="#52545E" transform="translate(386,263)"/>
<path d="M0 0 C1.12591553 0.00523682 2.25183105 0.01047363 3.41186523 0.01586914 C4.62680664 0.0190918 5.84174805 0.02231445 7.09350586 0.02563477 C8.37290039 0.03401367 9.65229492 0.04239258 10.97045898 0.05102539 C12.2537207 0.05553711 13.53698242 0.06004883 14.85913086 0.06469727 C18.04211921 0.07652994 21.22501661 0.09301471 24.40795898 0.11352539 C24.40795898 0.77352539 24.40795898 1.43352539 24.40795898 2.11352539 C25.06795898 2.11352539 25.72795898 2.11352539 26.40795898 2.11352539 C26.07795898 3.76352539 25.74795898 5.41352539 25.40795898 7.11352539 C23.75795898 7.11352539 22.10795898 7.11352539 20.40795898 7.11352539 C20.07795898 9.42352539 19.74795898 11.73352539 19.40795898 14.11352539 C20.0505365 14.11130478 20.69311401 14.10908417 21.35516357 14.10679626 C28.0384465 14.08468599 34.72171904 14.06959472 41.4050293 14.05859375 C43.89982526 14.05356261 46.39461826 14.04673705 48.8894043 14.03808594 C52.4737216 14.02596712 56.05799994 14.02028489 59.64233398 14.01586914 C60.75912537 14.01070786 61.87591675 14.00554657 63.02655029 14.00022888 C64.58771576 14.00011559 64.58771576 14.00011559 66.18041992 14 C67.09531189 13.99777939 68.01020386 13.99555878 68.95281982 13.99327087 C71.24937467 14.10575781 73.20883229 14.46571954 75.40795898 15.11352539 C75.40795898 15.77352539 75.40795898 16.43352539 75.40795898 17.11352539 C72.10795898 17.11352539 68.80795898 17.11352539 65.40795898 17.11352539 C65.40795898 19.09352539 65.40795898 21.07352539 65.40795898 23.11352539 C64.08795898 23.11352539 62.76795898 23.11352539 61.40795898 23.11352539 C61.40795898 21.46352539 61.40795898 19.81352539 61.40795898 18.11352539 C60.44873535 18.25563446 59.48951172 18.39774353 58.5012207 18.54415894 C48.45830092 19.95884758 38.66365432 20.38253866 28.53295898 20.30883789 C26.9864114 20.30509374 25.43986139 20.30225343 23.89331055 20.30026245 C19.88213193 20.29273608 15.87110519 20.27318655 11.85998535 20.25085449 C7.74318494 20.23015469 3.62635927 20.2212099 -0.49047852 20.21118164 C-8.52440129 20.18992663 -16.55820211 20.1559292 -24.59204102 20.11352539 C-24.59204102 19.12352539 -24.59204102 18.13352539 -24.59204102 17.11352539 C-28.22204102 17.11352539 -31.85204102 17.11352539 -35.59204102 17.11352539 C-35.59204102 15.46352539 -35.59204102 13.81352539 -35.59204102 12.11352539 C-10.84204102 12.60852539 -10.84204102 12.60852539 14.40795898 13.11352539 C14.40795898 11.46352539 14.40795898 9.81352539 14.40795898 8.11352539 C-9.84704102 7.61852539 -9.84704102 7.61852539 -34.59204102 7.11352539 C-34.59204102 7.77352539 -34.59204102 8.43352539 -34.59204102 9.11352539 C-35.25204102 9.11352539 -35.91204102 9.11352539 -36.59204102 9.11352539 C-36.59204102 8.12352539 -36.59204102 7.13352539 -36.59204102 6.11352539 C-38.24204102 5.78352539 -39.89204102 5.45352539 -41.59204102 5.11352539 C-41.59204102 4.12352539 -41.59204102 3.13352539 -41.59204102 2.11352539 C-39.87319702 2.07594116 -39.87319702 2.07594116 -38.11962891 2.03759766 C-33.88350504 1.94369433 -29.64755173 1.84343264 -25.41162109 1.74121094 C-23.57539855 1.69779719 -21.73913394 1.656127 -19.90283203 1.61621094 C-17.26915791 1.5586637 -14.63569681 1.49492541 -12.00219727 1.42993164 C-11.17615494 1.41321915 -10.35011261 1.39650665 -9.4990387 1.37928772 C-5.92906414 1.28568615 -3.25654446 0.1426291 0 0 Z " fill="#72737A" transform="translate(324.592041015625,117.886474609375)"/>
<path d="M0 0 C3.91877036 0.74007738 7.83473409 1.4917775 11.75 2.25 C12.84183594 2.45496094 13.93367187 2.65992188 15.05859375 2.87109375 C22.60769216 4.34517806 29.76498993 6.3919932 37 9 C36.01 9.33 35.02 9.66 34 10 C34 10.66 34 11.32 34 12 C35.46771851 11.94585937 35.46771851 11.94585937 36.96508789 11.890625 C41.32002639 11.89499462 45.3326584 12.76574499 49.55859375 13.75 C50.34774673 13.92756836 51.13689972 14.10513672 51.94996643 14.28808594 C54.44745803 14.85172759 56.94244435 15.42568189 59.4375 16 C61.13981847 16.38610287 62.84229115 16.77152645 64.54492188 17.15625 C68.69843936 18.09632031 72.84974342 19.04564087 77 20 C77 20.33 77 20.66 77 21 C51.59 21 26.18 21 0 21 C0 14.07 0 7.14 0 0 Z " fill="#7D7F90" transform="translate(128,239)"/>
<path d="M0 0 C0.66 0 1.32 0 2 0 C2.00586624 1.18270981 2.01173248 2.36541962 2.01777649 3.58396912 C2.07508501 14.75085204 2.14788921 25.91754175 2.23571491 37.08422756 C2.28036891 42.82461063 2.31963613 48.56492353 2.34643555 54.30541992 C2.37251789 59.84930359 2.41295551 65.39291655 2.46318626 70.93663216 C2.47982159 73.04759405 2.49135657 75.15860273 2.49761391 77.2696209 C2.50729119 80.2352905 2.53539414 83.2002727 2.56762695 86.16577148 C2.56619186 87.0310849 2.56475677 87.89639832 2.5632782 88.78793335 C2.64272083 93.98434263 3.48590622 98.22791175 5.35895061 103.08401585 C6 105 6 105 6 108 C5.34 108 4.68 108 4 108 C4 109.32 4 110.64 4 112 C4.66 112.33 5.32 112.66 6 113 C5.01 113 4.02 113 3 113 C3.33 114.98 3.66 116.96 4 119 C2.68 119 1.36 119 0 119 C0 116.69 0 114.38 0 112 C-1.37553494 115.42669581 -1.37553494 115.42669581 -2 119 C-5.96451597 119.93762795 -9.6518029 120.1266598 -13.72119141 120.12939453 C-14.38320808 120.13112419 -15.04522476 120.13285385 -15.72730255 120.13463593 C-17.93541442 120.13899726 -20.14344958 120.13603736 -22.3515625 120.1328125 C-23.93456037 120.13382999 -25.51755807 120.13517052 -27.10055542 120.1368103 C-31.38421978 120.13952485 -35.66784823 120.13501511 -39.95150757 120.12857056 C-42.62123727 120.12500503 -45.29096158 120.12338168 -47.96069336 120.12231445 C-85.97846197 120.10349524 -123.9879125 119.62499388 -162 119 C-162 118.34 -162 117.68 -162 117 C-137.58 117 -113.16 117 -88 117 C-88 115.35 -88 113.7 -88 112 C-87.67 112 -87.34 112 -87 112 C-87 113.65 -87 115.3 -87 117 C-59.94 116.67 -32.88 116.34 -5 116 C-5 112.7 -5 109.4 -5 106 C-6.32 105.67 -7.64 105.34 -9 105 C-6.125 104.875 -6.125 104.875 -3 105 C-2.34 105.66 -1.68 106.32 -1 107 C-0.67 71.69 -0.34 36.38 0 0 Z " fill="#3F424D" transform="translate(387,142)"/>
<path d="M0 0 C2.0625 1.875 2.0625 1.875 3 4 C3 4.66 3 5.32 3 6 C3.66 6 4.32 6 5 6 C6.97899507 12.51904259 7.95636471 17.86827454 4.953125 24.2109375 C2.740129 27.99488745 1.17324729 30.34202385 -3 32 C-5.9375 32.4375 -5.9375 32.4375 -9 32 C-13.25107226 28.5398249 -16.63828765 24.63482623 -17.3984375 19.09765625 C-17.34232784 11.8314554 -16.86382137 7.20074153 -11.875 1.625 C-7.91994374 -0.61046658 -4.44942927 -0.87445431 0 0 Z " fill="#7D8092" transform="translate(366,159)"/>
<path d="M0 0 C0.66 0.33 1.32 0.66 2 1 C1.67 3.31 1.34 5.62 1 8 C1.5835236 7.83748025 2.1670472 7.6749605 2.76825333 7.50751591 C6.23509306 6.71913059 9.71990207 6.87018074 13.25683594 6.88647461 C14.50129234 6.88625557 14.50129234 6.88625557 15.77088928 6.8860321 C18.5087446 6.88672788 21.24653159 6.89450461 23.984375 6.90234375 C25.88437869 6.90420912 27.78438286 6.90563246 29.68438721 6.90663147 C34.68208141 6.91044727 39.67974649 6.92026959 44.6774292 6.93133545 C49.77843838 6.94156969 54.87945226 6.94613341 59.98046875 6.95117188 C69.98699195 6.96189268 79.99349355 6.97895788 90 7 C90.495 9.475 90.495 9.475 91 12 C63.28 11.67 35.56 11.34 7 11 C7 13.97 7 16.94 7 20 C6.53790726 22.2189602 6.07355756 24.43841095 5.53244019 26.63943481 C4.54674417 31.0095026 4.11104211 35.45644124 3.59765625 39.90234375 C3.47524063 40.93058762 3.35282501 41.95883148 3.22669983 43.01823425 C2.83423556 46.32415338 2.44824972 49.63079131 2.0625 52.9375 C1.79512879 55.20105281 1.52738724 57.46456191 1.25927734 59.72802734 C0.49991444 66.1512909 -0.25128024 72.57548827 -1 79 C-1.18993428 80.6267912 -1.379875 82.25358164 -1.56982422 83.88037109 C-2.39071083 90.91902451 -3.2020799 97.95870506 -4 105 C-4.33 105 -4.66 105 -5 105 C-6.10325166 96.84508909 -5.76095842 89.38803237 -4.6875 81.25 C-4.54723389 80.1170752 -4.40696777 78.98415039 -4.26245117 77.81689453 C-3.85395812 74.54287069 -3.42975198 71.27129278 -3 68 C-2.78383909 66.32552278 -2.56769143 64.65104385 -2.3515625 62.9765625 C-1.91721852 59.64873787 -1.4661727 56.32353712 -1 53 C-0.34 53 0.32 53 1 53 C0.98332275 52.45649902 0.96664551 51.91299805 0.94946289 51.35302734 C0.82960206 44.05863975 1.46994646 36.89861675 2.22680664 29.64794922 C2.439237 27.60832236 2.64300756 25.5679588 2.84570312 23.52734375 C3.95309063 12.66954433 3.95309063 12.66954433 5 9 C3.35 9 1.7 9 0 9 C0 6.03 0 3.06 0 0 Z " fill="#59595F" transform="translate(386,253)"/>
<path d="M0 0 C41.58 0 83.16 0 126 0 C125.67 0.66 125.34 1.32 125 2 C121.9375 2.625 121.9375 2.625 119 3 C119 2.67 119 2.34 119 2 C80.39 2 41.78 2 2 2 C1.34 8.6 0.68 15.2 0 22 C-0.47048858 26.39974566 -0.94552863 30.79803747 -1.4375 35.1953125 C-1.56310303 36.31968719 -1.68870605 37.44406189 -1.81811523 38.60250854 C-2.07953051 40.93625725 -2.34165365 43.26992678 -2.60449219 45.60351562 C-3.00331515 49.15451708 -3.39616665 52.70615099 -3.7890625 56.2578125 C-4.04650789 58.54952044 -4.30430752 60.84118861 -4.5625 63.1328125 C-4.677146 64.17776886 -4.79179199 65.22272522 -4.90991211 66.29934692 C-5.5458647 71.87798036 -6.39633946 77.33655529 -7.55169678 82.83117676 C-8.49819014 87.41016862 -9.02853412 92.05271666 -9.625 96.6875 C-9.7590625 97.68072266 -9.893125 98.67394531 -10.03125 99.69726562 C-10.57100971 103.84184913 -11.08186801 107.89775767 -11.0234375 112.08203125 C-11 115 -11 115 -12 117 C-12.66 117 -13.32 117 -14 117 C-14 116.34 -14 115.68 -14 115 C-15.65 115 -17.3 115 -19 115 C-18.505 114.01 -18.505 114.01 -18 113 C-17.9794194 111.60676708 -18.00877968 110.21266147 -18.0625 108.8203125 C-18.13377804 101.74596752 -17.02553182 94.85970322 -16 87.875 C-15.80665458 86.52352849 -15.61394181 85.17196631 -15.421875 83.8203125 C-14.95410643 80.5459325 -14.48000749 77.27260429 -14 74 C-13.67 74 -13.34 74 -13 74 C-12.9727585 75.41655793 -12.95349533 76.83327045 -12.9375 78.25 C-12.92589844 79.03890625 -12.91429687 79.8278125 -12.90234375 80.640625 C-13 83 -13 83 -13.5 84.90625 C-14.17161943 87.71865638 -14.0938788 90.36315068 -14.0625 93.25 C-14.05347656 94.32765625 -14.04445312 95.4053125 -14.03515625 96.515625 C-14.02355469 97.33546875 -14.01195312 98.1553125 -14 99 C-12.13660372 95.771199 -11.59108169 93.01921046 -11.19384766 89.32714844 C-11.06676422 88.18364929 -10.93968079 87.04015015 -10.80874634 85.86199951 C-10.67850067 84.62363342 -10.548255 83.38526733 -10.4140625 82.109375 C-10.19523232 80.13397243 -9.97639393 78.15857074 -9.75713158 76.18321609 C-9.37335353 72.70616958 -8.99966079 69.22803861 -8.625 65.75 C-8.04229586 60.34801056 -7.45347058 54.9467611 -6.8515625 49.546875 C-6.77797768 48.8848558 -6.70439285 48.22283661 -6.62857819 47.54075623 C-5.51033874 37.5658486 -4.0978257 27.67624622 -2.32583618 17.79656982 C-2.16723114 16.9101178 -2.0086261 16.02366577 -1.84521484 15.11035156 C-1.70594574 14.35933167 -1.56667664 13.60831177 -1.42318726 12.83453369 C-0.78759794 8.57731821 -0.42830379 4.28303786 0 0 Z " fill="#6D6F77" transform="translate(237,141)"/>
<path d="M0 0 C0.33 0 0.66 0 1 0 C1.33 43.56 1.66 87.12 2 132 C88.13 132.495 88.13 132.495 176 133 C176 133.33 176 133.66 176 134 C159.02772931 134.13246114 142.05544437 134.26290643 125.08314133 134.39115143 C117.19702188 134.45078367 109.3109079 134.51100869 101.42480469 134.57275391 C66.2822087 134.84758531 31.14412068 135.06247844 -4 135 C-4 155.13 -4 175.26 -4 196 C-4.33 196 -4.66 196 -5 196 C-5.33 174.88 -5.66 153.76 -6 132 C-4.02 132 -2.04 132 0 132 C0 88.44 0 44.88 0 0 Z " fill="#595B68" transform="translate(122,264)"/>
<path d="M0 0 C1.85412758 0.00213753 1.85412758 0.00213753 3.74571228 0.00431824 C4.42714798 0.00241989 5.10858368 0.00052155 5.81066895 -0.00143433 C8.06769744 -0.00514529 10.32440564 0.00556547 12.58140564 0.01676941 C14.14556846 0.01796103 15.70973201 0.01841441 17.27389526 0.01815796 C20.55328342 0.01972332 23.8325625 0.02801765 27.11192322 0.04142761 C31.32452611 0.05843157 35.53700918 0.06224159 39.74964237 0.06148243 C42.97944288 0.06175377 46.20921697 0.06722887 49.43900871 0.07448387 C50.99281553 0.07767534 52.54662534 0.07963906 54.10043526 0.08037758 C56.2674029 0.08253531 58.43424101 0.09126669 60.60118103 0.10197449 C62.45411522 0.10769218 62.45411522 0.10769218 64.34448242 0.11352539 C67.10874939 0.24723816 67.10874939 0.24723816 68.10874939 1.24723816 C68.10874939 2.89723816 68.10874939 4.54723816 68.10874939 6.24723816 C44.34874939 6.24723816 20.58874939 6.24723816 -3.89125061 6.24723816 C-4.22125061 4.92723816 -4.55125061 3.60723816 -4.89125061 2.24723816 C-2.89125061 0.24723816 -2.89125061 0.24723816 0 0 Z " fill="#717484" transform="translate(168.89125061035156,401.7527618408203)"/>
<path d="M0 0 C-6.37738165 3.44309753 -12.02737443 3.40856369 -19.17749023 3.34057617 C-20.38795517 3.34101425 -21.5984201 3.34145233 -22.8455658 3.34190369 C-26.14692264 3.34017802 -29.44770906 3.3251858 -32.74896502 3.30418181 C-36.20559666 3.28536316 -39.66223678 3.2836605 -43.11891174 3.28010559 C-49.65653883 3.27080029 -56.1940145 3.24620722 -62.73157507 3.21605712 C-70.17776536 3.18246575 -77.62396308 3.16601523 -85.07021034 3.15097082 C-100.38022776 3.11965616 -115.69009431 3.06692539 -131 3 C-131 2.01 -131 1.02 -131 0 C-114.51039106 -0.15392957 -98.02074138 -0.30196204 -81.5310173 -0.4429636 C-73.87465405 -0.50856988 -66.21831695 -0.57610984 -58.56201172 -0.64819336 C-51.88921793 -0.7110123 -45.21640356 -0.77021193 -38.54353929 -0.82505554 C-35.00992944 -0.8542246 -31.47635657 -0.88521266 -27.94280243 -0.92053413 C-23.99934309 -0.95988524 -20.05584235 -0.99115634 -16.11230469 -1.02172852 C-14.35256065 -1.04114754 -14.35256065 -1.04114754 -12.55726624 -1.06095886 C-10.9461219 -1.0715181 -10.9461219 -1.0715181 -9.3024292 -1.08229065 C-8.3695747 -1.09058679 -7.4367202 -1.09888292 -6.47559738 -1.10743046 C-4.16495265 -1.00715825 -2.21042514 -0.65554667 0 0 Z " fill="#52535D" transform="translate(370,138)"/>
<path d="M0 0 C1.32 0 2.64 0 4 0 C4 0.99 4 1.98 4 3 C6.475 3.495 6.475 3.495 9 4 C9 4.99 9 5.98 9 7 C9.66 7 10.32 7 11 7 C10.67 8.65 10.34 10.3 10 12 C26.5 12 43 12 60 12 C60 12.33 60 12.66 60 13 C43.5 13 27 13 10 13 C10 13.66 10 14.32 10 15 C13.63 15 17.26 15 21 15 C21 15.99 21 16.98 21 18 C0.21 18 -20.58 18 -42 18 C-42 17.01 -42 16.02 -42 15 C-26.49 15 -10.98 15 5 15 C5 14.34 5 13.68 5 13 C-11.5 13 -28 13 -45 13 C-45 12.67 -45 12.34 -45 12 C-28.17 12 -11.34 12 6 12 C6 9.69 6 7.38 6 5 C4.35 5 2.7 5 1 5 C0.505 2.525 0.505 2.525 0 0 Z " fill="#63646A" transform="translate(279,120)"/>
<path d="M0 0 C18.15 0 36.3 0 55 0 C55.495 2.475 55.495 2.475 56 5 C55 6 55 6 52.79173279 6.12025452 C51.81688431 6.11803391 50.84203583 6.11581329 49.83764648 6.11352539 C48.73658066 6.11344986 47.63551483 6.11337433 46.50108337 6.11329651 C45.3031868 6.10813522 44.10529022 6.10297394 42.87109375 6.09765625 C41.65172623 6.0962413 40.4323587 6.09482635 39.17604065 6.09336853 C35.2631693 6.08774967 31.35035419 6.07519396 27.4375 6.0625 C24.79231853 6.05748743 22.14713617 6.0529241 19.50195312 6.04882812 C13.00128274 6.03777411 6.50064539 6.02101764 0 6 C0 4.02 0 2.04 0 0 Z " fill="#4B4D5D" transform="translate(315,232)"/>
<path d="M0 0 C1.25908676 0.00222061 2.51817352 0.00444122 3.81541443 0.00672913 C4.50806396 0.0065831 5.2007135 0.00643707 5.91435242 0.00628662 C8.21400537 0.00698577 10.51357828 0.01477823 12.81321716 0.02259827 C14.40362504 0.02446244 15.99403349 0.02588635 17.58444214 0.02688599 C21.77827021 0.03071123 25.97206386 0.04054156 30.1658783 0.05158997 C34.44220006 0.06180395 38.71852736 0.06638358 42.99485779 0.07142639 C51.39135799 0.08216383 59.78783017 0.09924032 68.18431091 0.12025452 C68.22703191 1.78637357 68.22494923 3.45408337 68.18431091 5.12025452 C67.18431091 6.12025452 67.18431091 6.12025452 65.05125427 6.23377991 C64.1348114 6.22854309 63.21836853 6.22330627 62.27415466 6.21791077 C61.28479919 6.21468811 60.29544373 6.21146545 59.27610779 6.20814514 C58.23518982 6.19976624 57.19427185 6.19138733 56.12181091 6.18275452 C55.07702576 6.1782428 54.0322406 6.17373108 52.95579529 6.16908264 C50.36524431 6.15725364 47.77480533 6.14077141 45.18431091 6.12025452 C45.18431091 5.46025452 45.18431091 4.80025452 45.18431091 4.12025452 C45.84431091 3.79025452 46.50431091 3.46025452 47.18431091 3.12025452 C32.33431091 3.12025452 17.48431091 3.12025452 2.18431091 3.12025452 C16.04431091 3.45025452 29.90431091 3.78025452 44.18431091 4.12025452 C44.18431091 4.78025452 44.18431091 5.44025452 44.18431091 6.12025452 C28.67431091 6.12025452 13.16431091 6.12025452 -2.81568909 6.12025452 C-3.14568909 4.47025452 -3.47568909 2.82025452 -3.81568909 1.12025452 C-2.81568909 0.12025452 -2.81568909 0.12025452 0 0 Z " fill="#646776" transform="translate(170.81568908691406,264.87974548339844)"/>
<path d="M0 0 C2.84303439 2.84303439 2.90504775 6.12886982 3 10 C2.67 11.32 2.34 12.64 2 14 C-29.35 14 -60.7 14 -93 14 C-93 13.67 -93 13.34 -93 13 C-67.59 12.67 -42.18 12.34 -16 12 C-26.89 9.36 -37.78 6.72 -49 4 C-49 3.34 -49 2.68 -49 2 C-41.57050898 2.9819849 -34.29370304 4.29351885 -27 6 C-25.92407593 6.2489502 -25.92407593 6.2489502 -24.82641602 6.50292969 C-21.06834913 7.40256804 -17.56545851 8.52333223 -14 10 C-12.0075675 10.37593066 -10.0081326 10.71979545 -8 11 C-8.309375 9.39125 -8.309375 9.39125 -8.625 7.75 C-9.12389381 2.76106195 -9.12389381 2.76106195 -7 0 C-3.85179059 -1.04940314 -3.00659136 -1.066855 0 0 Z " fill="#4E505B" transform="translate(215,247)"/>
<path d="M0 0 C0.33 0 0.66 0 1 0 C1 1.65 1 3.3 1 5 C2.65 5 4.3 5 6 5 C6 5.33 6 5.66 6 6 C-3.99426385 7.23825922 -13.96177195 7.12843901 -24.01171875 7.09765625 C-25.62878383 7.09618273 -27.24584939 7.09516455 -28.86291504 7.09460449 C-34.80445072 7.08939916 -40.74597613 7.07543801 -46.6875 7.0625 C-59.990625 7.041875 -73.29375 7.02125 -87 7 C-87 40.99 -87 74.98 -87 110 C-87.33 110 -87.66 110 -88 110 C-88 75.35 -88 40.7 -88 5 C-112.09 5 -136.18 5 -161 5 C-161 4.67 -161 4.34 -161 4 C-159.7995574 4.00138269 -159.7995574 4.00138269 -158.57486343 4.00279331 C-139.11245337 4.02486639 -119.65004579 4.04142028 -100.18762589 4.05181217 C-90.7757955 4.05697103 -81.36397346 4.06400595 -71.95214844 4.07543945 C-63.74993056 4.08539879 -55.54771874 4.09185642 -47.34549499 4.09408849 C-43.00148378 4.09539347 -38.65748986 4.09846592 -34.31348419 4.10573006 C-30.22600164 4.11250995 -26.13854355 4.11461293 -22.05105591 4.11310768 C-20.54983131 4.11338312 -19.04860591 4.11537658 -17.54738617 4.11920547 C-15.49939056 4.12417336 -13.45138187 4.12239039 -11.40338135 4.12025452 C-9.68331564 4.12163721 -9.68331564 4.12163721 -7.92850113 4.12304783 C-4.36988933 3.98713374 -4.36988933 3.98713374 -1 3 C-0.67 2.01 -0.34 1.02 0 0 Z " fill="#70727B" transform="translate(385,257)"/>
<path d="M0 0 C18.48 0 36.96 0 56 0 C56.495 1.485 56.495 1.485 57 3 C56.34 3 55.68 3 55 3 C55 3.66 55 4.32 55 5 C37.18 5 19.36 5 1 5 C0.67 3.35 0.34 1.7 0 0 Z " fill="#7C7F8E" transform="translate(315,225)"/>
<path d="M0 0 C0.33 0 0.66 0 1 0 C1.33 27.72 1.66 55.44 2 84 C2.99 81.03 3.98 78.06 5 75 C7 77 7 77 7.01171875 80.3359375 C6.91454043 81.68312185 6.80599372 83.02952293 6.6875 84.375 C6.63916016 85.04789062 6.59082031 85.72078125 6.54101562 86.4140625 C6.2857359 89.69715371 5.94799787 92.84000709 5 96 C5.66 96 6.32 96 7 96 C7.05401695 98.91691525 7.09368066 101.83282724 7.125 104.75 C7.15013672 105.9875 7.15013672 105.9875 7.17578125 107.25 C7.18222656 108.04921875 7.18867188 108.8484375 7.1953125 109.671875 C7.20578613 110.4050293 7.21625977 111.13818359 7.22705078 111.89355469 C6.96777544 114.29896076 6.19225925 115.91251494 5 118 C3.35 118 1.7 118 0 118 C0.99 117.01 0.99 117.01 2 116 C2 114.68 2 113.36 2 112 C2 110.68 2 109.36 2 108 C2.66 108 3.32 108 4 108 C3.79503906 107.38511719 3.59007812 106.77023438 3.37890625 106.13671875 C-0.125 95.625 -0.125 95.625 -0.12025452 91.9947052 C-0.12162918 91.18282242 -0.12300385 90.37093964 -0.12442017 89.53445435 C-0.12082489 88.64756927 -0.11722961 87.7606842 -0.11352539 86.84692383 C-0.11367142 85.91014297 -0.11381744 84.97336212 -0.1139679 84.00819397 C-0.1132705 80.90778295 -0.10548617 77.80743179 -0.09765625 74.70703125 C-0.09579146 72.55897555 -0.09436784 70.41091943 -0.09336853 68.26286316 C-0.0895482 62.60591459 -0.07972201 56.94899165 -0.06866455 51.29205322 C-0.05844005 45.52087755 -0.05386868 39.74969774 -0.04882812 33.97851562 C-0.03809934 22.65233248 -0.02102869 11.32616837 0 0 Z " fill="#71737D" transform="translate(389,142)"/>
<path d="M0 0 C18.15 0 36.3 0 55 0 C55 0.33 55 0.66 55 1 C37.84 1 20.68 1 3 1 C3 1.99 3 2.98 3 4 C10.22668699 3.8826006 17.45321771 3.75776587 24.6796875 3.62768555 C27.13961859 3.58429221 29.59958065 3.54262044 32.05957031 3.50268555 C35.58928784 3.44508943 39.11884876 3.38136443 42.6484375 3.31640625 C43.75367767 3.29969376 44.85891785 3.28298126 45.99765015 3.26576233 C47.01855743 3.24581711 48.03946472 3.22587189 49.09130859 3.20532227 C50.44366104 3.18200584 50.44366104 3.18200584 51.82333374 3.15821838 C54.04636301 3.13564908 54.04636301 3.13564908 56 2 C55.34 3.32 54.68 4.64 54 6 C46.47030348 6.02526648 38.9406178 6.04283141 31.41088867 6.05493164 C28.84708243 6.0599737 26.28327909 6.06680714 23.71948242 6.07543945 C20.04344979 6.08751064 16.36745502 6.09322942 12.69140625 6.09765625 C11.53725723 6.10281754 10.38310822 6.10797882 9.19398499 6.11329651 C8.13296066 6.11337204 7.07193634 6.11344757 5.97875977 6.11352539 C4.56978172 6.11685631 4.56978172 6.11685631 3.13233948 6.12025452 C1 6 1 6 0 5 C0 3.35 0 1.7 0 0 Z " fill="#4E515E" transform="translate(315,217)"/>
<path d="M0 0 C-0.33 0.99 -0.66 1.98 -1 3 C-18.66666667 3 -36.33333333 3 -54 3 C-54 2.01 -54 1.02 -54 0 C-46.63116948 -0.1679713 -39.26219645 -0.32790864 -31.89306641 -0.48217773 C-29.3845624 -0.53565045 -26.87609735 -0.59098374 -24.36767578 -0.64819336 C-20.76864017 -0.72995731 -17.16951892 -0.80509744 -13.5703125 -0.87890625 C-12.44319855 -0.90594131 -11.31608459 -0.93297638 -10.15481567 -0.96083069 C-9.11388763 -0.98092697 -8.07295959 -1.00102325 -7.00048828 -1.02172852 C-5.62148849 -1.05170677 -5.62148849 -1.05170677 -4.21463013 -1.08229065 C-2 -1 -2 -1 0 0 Z " fill="#737787" transform="translate(372,218)"/>
<path d="M0 0 C16.83 0 33.66 0 51 0 C51 0.99 51 1.98 51 3 C34.17 3 17.34 3 0 3 C0 2.01 0 1.02 0 0 Z " fill="#7D7F8F" transform="translate(318,234)"/>
<path d="M0 0 C0.33 0 0.66 0 1 0 C1.12117188 0.65226563 1.24234375 1.30453125 1.3671875 1.9765625 C2.29207502 6.80020662 3.41069455 11.34560547 5 16 C5 16.99 5 17.98 5 19 C4.34 19 3.68 19 3 19 C3 20.32 3 21.64 3 23 C3.66 23.33 4.32 23.66 5 24 C4.01 24 3.02 24 2 24 C2.33 25.98 2.66 27.96 3 30 C1.68 30 0.36 30 -1 30 C-1 27.69 -1 25.38 -1 23 C-1.185625 23.639375 -1.37125 24.27875 -1.5625 24.9375 C-3 27 -3 27 -6.625 27.75 C-7.73875 27.8325 -8.8525 27.915 -10 28 C-8.68 27.67 -7.36 27.34 -6 27 C-6 23.7 -6 20.4 -6 17 C-7.32 16.67 -8.64 16.34 -10 16 C-7.125 15.875 -7.125 15.875 -4 16 C-3.34 16.66 -2.68 17.32 -2 18 C-1.34 12.06 -0.68 6.12 0 0 Z " fill="#65656B" transform="translate(388,231)"/>
<path d="M0 0 C1.12591553 0.00523682 2.25183105 0.01047363 3.41186523 0.01586914 C4.62680664 0.0190918 5.84174805 0.02231445 7.09350586 0.02563477 C8.37290039 0.03401367 9.65229492 0.04239258 10.97045898 0.05102539 C12.2537207 0.05553711 13.53698242 0.06004883 14.85913086 0.06469727 C18.04211921 0.07652994 21.22501661 0.09301471 24.40795898 0.11352539 C24.40795898 0.77352539 24.40795898 1.43352539 24.40795898 2.11352539 C25.06795898 2.11352539 25.72795898 2.11352539 26.40795898 2.11352539 C26.07795898 3.76352539 25.74795898 5.41352539 25.40795898 7.11352539 C23.75795898 7.11352539 22.10795898 7.11352539 20.40795898 7.11352539 C20.40795898 6.45352539 20.40795898 5.79352539 20.40795898 5.11352539 C21.72795898 5.11352539 23.04795898 5.11352539 24.40795898 5.11352539 C24.40795898 4.45352539 24.40795898 3.79352539 24.40795898 3.11352539 C2.95795898 3.11352539 -18.49204102 3.11352539 -40.59204102 3.11352539 C-40.59204102 2.78352539 -40.59204102 2.45352539 -40.59204102 2.11352539 C-39.47643799 2.08846924 -38.36083496 2.06341309 -37.21142578 2.03759766 C-33.08711511 1.94369118 -28.96297951 1.84343025 -24.83886719 1.74121094 C-23.05114831 1.69779839 -21.26338627 1.65612811 -19.47558594 1.61621094 C-16.91140711 1.55866079 -14.34744689 1.49492336 -11.78344727 1.42993164 C-10.97927872 1.41321915 -10.17511017 1.39650665 -9.34657288 1.37928772 C-5.82217505 1.28438341 -3.21912384 0.14099017 0 0 Z " fill="#A5A5AF" transform="translate(324.592041015625,117.886474609375)"/>
<path d="M0 0 C0.33 0.99 0.66 1.98 1 3 C-0.5778125 2.6596875 -0.5778125 2.6596875 -2.1875 2.3125 C-5.91122358 1.72197716 -5.91122358 1.72197716 -8.8125 3.125 C-11.95924412 5.82220924 -12.83712872 8.56588664 -13.30078125 12.6484375 C-13.32575312 18.45855839 -13.3055478 23.09499359 -10 28 C-6.43945705 29.10053146 -4.22531811 29.43051717 -0.6875 28.1875 C1.14233811 26.97188934 1.14233811 26.97188934 3 25 C2.8125 26.8125 2.8125 26.8125 2 29 C-0.67470051 31.13976041 -2.6195174 31.93658623 -6 32.5 C-10.08867211 31.81855465 -11.40002016 30.16213765 -14 27 C-17.87543319 21.49034799 -17.64718609 16.53391986 -17 10 C-13.97263772 1.07724802 -8.7104196 -0.68317016 0 0 Z " fill="#444754" transform="translate(366,159)"/>
<path d="M0 0 C0.33 0.66 0.66 1.32 1 2 C1.66 2 2.32 2 3 2 C2.5140207 9.3620694 2.02325928 16.69100518 1 24 C0.01 23.67 -0.98 23.34 -2 23 C-2.66 23.66 -3.32 24.32 -4 25 C-4.33 24.67 -4.66 24.34 -5 24 C-4.96122705 21.44098521 -4.85349386 18.92630286 -4.6875 16.375 C-4.65205078 15.67503906 -4.61660156 14.97507813 -4.58007812 14.25390625 C-4.28935605 9.5763183 -3.57573996 5.42572452 -2 1 C-1.34 0.67 -0.68 0.34 0 0 Z " fill="#747478" transform="translate(400,188)"/>
<path d="M0 0 C21.12 0 42.24 0 64 0 C64 0.33 64 0.66 64 1 C55.585 1.495 55.585 1.495 47 2 C47 2.66 47 3.32 47 4 C50.63 4 54.26 4 58 4 C58 4.33 58 4.66 58 5 C54.04 5 50.08 5 46 5 C46 4.01 46 3.02 46 2 C44.74864258 2.01047363 43.49728516 2.02094727 42.20800781 2.03173828 C37.5638312 2.06794765 32.91966707 2.09090396 28.27539062 2.10986328 C26.26560365 2.1199187 24.2558313 2.13356485 22.24609375 2.15087891 C19.35673412 2.17514724 16.46756798 2.18648771 13.578125 2.1953125 C12.68007141 2.20563507 11.78201782 2.21595764 10.85675049 2.22659302 C10.01618103 2.22674408 9.17561157 2.22689514 8.30957031 2.22705078 C7.20370575 2.23371262 7.20370575 2.23371262 6.07550049 2.24050903 C4 2 4 2 0 0 Z " fill="#858898" transform="translate(169,267)"/>
<path d="M0 0 C18.15 0 36.3 0 55 0 C55 0.33 55 0.66 55 1 C37.84 1 20.68 1 3 1 C3 1.99 3 2.98 3 4 C19.83 4 36.66 4 54 4 C54 3.34 54 2.68 54 2 C54.66 2.33 55.32 2.66 56 3 C55.67 3.66 55.34 4.32 55 5 C37.18 5 19.36 5 1 5 C0.67 3.35 0.34 1.7 0 0 Z " fill="#3E414F" transform="translate(315,225)"/>
<path d="M0 0 C1.57205704 -0.00472824 1.57205704 -0.00472824 3.1758728 -0.009552 C4.88053207 -0.00651566 4.88053207 -0.00651566 6.61962891 -0.00341797 C7.7837027 -0.00437469 8.94777649 -0.00533142 10.14712524 -0.00631714 C12.61354628 -0.0069987 15.07996911 -0.00514606 17.54638672 -0.00097656 C21.32344602 0.00436238 25.10038587 -0.00091742 28.87744141 -0.00732422 C31.27067084 -0.00666324 33.66390019 -0.00538168 36.05712891 -0.00341797 C37.75571548 -0.00645432 37.75571548 -0.00645432 39.48861694 -0.009552 C40.54295929 -0.00639984 41.59730164 -0.00324768 42.68359375 0 C43.6102182 0.00079559 44.53684265 0.00159119 45.49154663 0.00241089 C47.79562911 0.12040391 49.76470133 0.47926907 51.97119141 1.12939453 C51.97119141 1.78939453 51.97119141 2.44939453 51.97119141 3.12939453 C48.67119141 3.12939453 45.37119141 3.12939453 41.97119141 3.12939453 C41.97119141 5.10939453 41.97119141 7.08939453 41.97119141 9.12939453 C40.65119141 9.12939453 39.33119141 9.12939453 37.97119141 9.12939453 C37.97119141 7.47939453 37.97119141 5.82939453 37.97119141 4.12939453 C35.66119141 3.79939453 33.35119141 3.46939453 30.97119141 3.12939453 C30.97119141 2.46939453 30.97119141 1.80939453 30.97119141 1.12939453 C26.04142122 1.24764818 21.11185244 1.37189695 16.18237305 1.50170898 C14.50533153 1.5450262 12.82824683 1.5867036 11.15112305 1.62670898 C8.740753 1.68448939 6.3305997 1.74816133 3.92041016 1.81298828 C3.17031174 1.82970078 2.42021332 1.84641327 1.64738464 1.8636322 C-1.48558851 1.95283686 -4.03590219 2.13175906 -7.02880859 3.12939453 C-7.02880859 2.46939453 -7.02880859 1.80939453 -7.02880859 1.12939453 C-4.51956947 -0.12522503 -2.80779456 0.0024149 0 0 Z " fill="#5F6065" transform="translate(348.02880859375,131.87060546875)"/>
<path d="M0 0 C0.66 0 1.32 0 2 0 C2.85223126 4.87650539 2.98748091 9.11267177 2.44140625 14.02734375 C2.30283203 15.31318359 2.16425781 16.59902344 2.02148438 17.92382812 C1.86867839 19.26174033 1.71568126 20.59963071 1.5625 21.9375 C1.41261735 23.30264742 1.26352161 24.66788148 1.11523438 26.03320312 C0.75120908 29.35640175 0.37922676 32.67850757 0 36 C-0.495 34.515 -0.495 34.515 -1 33 C-1.99 33 -2.98 33 -4 33 C-3.84660156 31.865625 -3.69320313 30.73125 -3.53515625 29.5625 C-2.97091838 25.04859705 -2.67754073 20.54109846 -2.4375 16 C-2.39431641 15.22527344 -2.35113281 14.45054687 -2.30664062 13.65234375 C-2.20197507 11.76836379 -2.10063339 9.88419964 -2 8 C-1.34 8 -0.68 8 0 8 C0 5.36 0 2.72 0 0 Z " fill="#A8A8A9" transform="translate(404,152)"/>
<path d="M0 0 C0.33 0 0.66 0 1 0 C2.97666252 10.78683916 0.98617733 21.45225324 -0.4375 32.1875 C-0.68401964 34.1124926 -0.92947154 36.03762225 -1.17382812 37.96289062 C-1.770245 42.64359909 -2.3811103 47.32221213 -3 52 C-3.33 52 -3.66 52 -4 52 C-5.10325166 43.84508909 -4.76095842 36.38803237 -3.6875 28.25 C-3.54723389 27.1170752 -3.40696777 25.98415039 -3.26245117 24.81689453 C-2.85395812 21.54287069 -2.42975198 18.27129278 -2 15 C-1.78383909 13.32552278 -1.56769143 11.65104385 -1.3515625 9.9765625 C-0.91721852 6.64873787 -0.4661727 3.32353712 0 0 Z " fill="#676A73" transform="translate(385,306)"/>
<path d="M0 0 C0.66 0.66 1.32 1.32 2 2 C1.9765625 4.1640625 1.9765625 4.1640625 1.625 6.625 C1.51414062 7.44226563 1.40328125 8.25953125 1.2890625 9.1015625 C1.19367188 9.72804687 1.09828125 10.35453125 1 11 C1.66 11 2.32 11 3 11 C3 12.65 3 14.3 3 16 C2.67 15.34 2.34 14.68 2 14 C1.34 14 0.68 14 0 14 C0 16.64 0 19.28 0 22 C-0.66 22 -1.32 22 -2 22 C-1.98428955 22.57443848 -1.9685791 23.14887695 -1.95239258 23.74072266 C-1.88964487 26.36871309 -1.85088494 28.99654537 -1.8125 31.625 C-1.78736328 32.52863281 -1.76222656 33.43226563 -1.73632812 34.36328125 C-1.67778476 39.71024149 -2.05082286 43.34014531 -5 48 C-6.32724281 45.34551439 -5.86753213 43.8334915 -5.4765625 40.8984375 C-5.34306396 39.8578418 -5.20956543 38.81724609 -5.07202148 37.74511719 C-4.92450439 36.63297852 -4.7769873 35.52083984 -4.625 34.375 C-3.50342898 25.61033895 -2.62124036 16.93927313 -2.30859375 8.109375 C-2.00386372 5.03893065 -1.30146519 2.78064049 0 0 Z " fill="#77787C" transform="translate(404,138)"/>
<path d="M0 0 C16.5 0 33 0 50 0 C50 0.66 50 1.32 50 2 C34.49 2 18.98 2 3 2 C2.67 2.99 2.34 3.98 2 5 C1.34 3.35 0.68 1.7 0 0 Z " fill="#7A7B7F" transform="translate(234,133)"/>
<path d="M0 0 C1.98 0 3.96 0 6 0 C6 1.65 6 3.3 6 5 C-17.43 5 -40.86 5 -65 5 C-65 4.67 -65 4.34 -65 4 C-43.88 3.67 -22.76 3.34 -1 3 C-0.67 2.01 -0.34 1.02 0 0 Z " fill="#484B5A" transform="translate(231,403)"/>
<path d="M0 0 C21.78 0 43.56 0 66 0 C66 1.65 66 3.3 66 5 C65.01 4.505 65.01 4.505 64 4 C55.86273371 2.95588693 47.64586712 2.81090292 39.453125 2.68359375 C38.31591003 2.66281265 37.17869507 2.64203156 36.00701904 2.62062073 C32.42139957 2.55592726 28.83571528 2.49661846 25.25 2.4375 C22.79947282 2.39423825 20.34895188 2.3506217 17.8984375 2.30664062 C11.93235753 2.2003298 5.96621502 2.09842399 0 2 C0 1.34 0 0.68 0 0 Z " fill="#A2A3A3" transform="translate(344,130)"/>
<path d="M0 0 C0 1.32 0 2.64 0 4 C-0.66 4 -1.32 4 -2 4 C-2 3.34 -2 2.68 -2 2 C-24.77 2 -47.54 2 -71 2 C-71 1.67 -71 1.34 -71 1 C-62.18571696 0.86935657 -53.37143045 0.7389505 -44.5571394 0.60884857 C-40.4644421 0.54843149 -36.37174605 0.48793223 -32.27905273 0.42724609 C-28.33037405 0.36869841 -24.38169226 0.31036537 -20.43300819 0.25218201 C-18.92550862 0.2299313 -17.41801019 0.20760286 -15.91051292 0.18519592 C-13.80126614 0.15385797 -11.69201548 0.12279481 -9.58276367 0.09179688 C-7.78073738 0.06514954 -7.78073738 0.06514954 -5.94230652 0.03796387 C-3.96166212 0.01240809 -1.98080926 0 0 0 Z " fill="#777880" transform="translate(477,261)"/>
<path d="M0 0 C13.25391818 1.75182223 26.41432773 4.4233919 39 9 C39 9.33 39 9.66 39 10 C30.38189798 9.51330978 22.22279896 7.52959508 13.875 5.4375 C12.52359228 5.10418953 11.17203057 4.77150277 9.8203125 4.43945312 C6.54531352 3.6323998 3.2719987 2.81911651 0 2 C0 1.34 0 0.68 0 0 Z " fill="#595C6D" transform="translate(166,249)"/>
<path d="M0 0 C3.91931097 0.73657584 7.8348208 1.49179429 11.75 2.25 C12.84183594 2.45496094 13.93367187 2.65992188 15.05859375 2.87109375 C22.60769216 4.34517806 29.76498993 6.3919932 37 9 C37 9.33 37 9.66 37 10 C29.43509803 9.36624893 22.2963516 7.76765871 14.9375 5.9375 C13.78572266 5.65583984 12.63394531 5.37417969 11.44726562 5.08398438 C8.6302363 4.39433819 5.81457733 3.69957333 3 3 C2.67 4.32 2.34 5.64 2 7 C1.34 4.69 0.68 2.38 0 0 Z " fill="#4F5361" transform="translate(128,239)"/>
<path d="M0 0 C0.33 0 0.66 0 1 0 C1 4.62 1 9.24 1 14 C1.66 14.33 2.32 14.66 3 15 C1.68 15 0.36 15 -1 15 C-1 12.69 -1 10.38 -1 8 C-1.2784375 8.9590625 -1.2784375 8.9590625 -1.5625 9.9375 C-3 12 -3 12 -6.625 12.75 C-7.73875 12.8325 -8.8525 12.915 -10 13 C-8.68 12.67 -7.36 12.34 -6 12 C-6 8.7 -6 5.4 -6 2 C-7.32 1.67 -8.64 1.34 -10 1 C-4.46153846 0.63076923 -4.46153846 0.63076923 -2.125 2.5 C-1.75375 2.995 -1.3825 3.49 -1 4 C-0.67 2.68 -0.34 1.36 0 0 Z " fill="#474954" transform="translate(388,246)"/>
<path d="M0 0 C1.2065625 0.0309375 1.2065625 0.0309375 2.4375 0.0625 C3.80702673 2.80155345 3.56371361 5.03337332 3.4375 8.0625 C3.1075 8.7225 2.7775 9.3825 2.4375 10.0625 C0.77138095 10.105221 -0.89632885 10.10313832 -2.5625 10.0625 C-3.5625 9.0625 -3.5625 9.0625 -3.6953125 7.25 C-3.69273437 6.528125 -3.69015625 5.80625 -3.6875 5.0625 C-3.69007813 4.340625 -3.69265625 3.61875 -3.6953125 2.875 C-3.48140927 -0.04414996 -2.93781989 0.07165414 0 0 Z " fill="#727485" transform="translate(379.5625,247.9375)"/>
<path d="M0 0 C0.66 0 1.32 0 2 0 C3.34832104 2.69664208 3.16910682 4.86587521 3.1875 7.875 C3.20167969 8.92429688 3.21585937 9.97359375 3.23046875 11.0546875 C3.00504937 13.93547071 2.48964317 15.56240208 1 18 C-0.65 18 -2.3 18 -4 18 C-3.34 17.34 -2.68 16.68 -2 16 C-2 14.68 -2 13.36 -2 12 C-2 10.68 -2 9.36 -2 8 C-1.34 8 -0.68 8 0 8 C0 5.36 0 2.72 0 0 Z " fill="#A2A2A4" transform="translate(393,242)"/>
<path d="M0 0 C0.66 0 1.32 0 2 0 C3.17806959 6.00568344 2.76422836 11.38345845 2.0625 17.4375 C1.91264648 18.82098633 1.91264648 18.82098633 1.75976562 20.23242188 C1.51420423 22.48924805 1.26078192 24.7448907 1 27 C0.67 26.01 0.34 25.02 0 24 C-0.66 24 -1.32 24 -2 24 C-1.34 16.08 -0.68 8.16 0 0 Z " fill="#B5B5B7" transform="translate(396,214)"/>
<path d="M0 0 C2 2 2 2 2.01171875 5.23046875 C1.90472656 6.53628906 1.79773438 7.84210938 1.6875 9.1875 C1.58824219 10.48042969 1.48898437 11.77335938 1.38671875 13.10546875 C1.02349047 16.76343437 0.55129945 20.36707799 0 24 C-0.66 24 -1.32 24 -2 24 C-2.26305952 15.7574683 -1.60614551 8.08808989 0 0 Z " fill="#6F6F75" transform="translate(394,217)"/>
<path d="M0 0 C1.22589844 0.01353516 1.22589844 0.01353516 2.4765625 0.02734375 C3.41628906 0.04474609 3.41628906 0.04474609 4.375 0.0625 C4.705 1.0525 5.035 2.0425 5.375 3.0625 C3.7971875 2.7221875 3.7971875 2.7221875 2.1875 2.375 C-1.52000758 1.79258805 -1.52000758 1.79258805 -4.375 3.125 C-9.23995281 7.31426492 -9.99864894 12.20821096 -10.51171875 18.3046875 C-10.54910156 18.88476562 -10.58648437 19.46484375 -10.625 20.0625 C-10.955 20.0625 -11.285 20.0625 -11.625 20.0625 C-12.48608043 7.16542861 -12.48608043 7.16542861 -9.25 3.3125 C-5.83455247 0.38497354 -4.38244031 -0.06260629 0 0 Z " fill="#3D404E" transform="translate(361.625,158.9375)"/>
<path d="M0 0 C1.125 5.75 1.125 5.75 0 8 C-1.66611905 8.042721 -3.33382885 8.04063832 -5 8 C-6 7 -6 7 -6.0625 3.4375 C-6.041875 2.303125 -6.02125 1.16875 -6 0 C-3.50907189 -1.24546405 -2.58919267 -0.7767578 0 0 Z " fill="#7A7C8C" transform="translate(214,249)"/>
<path d="M0 0 C0.99 0 1.98 0 3 0 C3 0.66 3 1.32 3 2 C3.66 2 4.32 2 5 2 C4.67 2.99 4.34 3.98 4 5 C-3.26 5 -10.52 5 -18 5 C-18 4.67 -18 4.34 -18 4 C-11.97403427 2.9287172 -6.11090483 2.90054585 0 3 C0 2.01 0 1.02 0 0 Z " fill="#484B59" transform="translate(234,266)"/>
<path d="M0 0 C1.32 0.66 2.64 1.32 4 2 C3.01 2.495 3.01 2.495 2 3 C2.02320313 3.67546875 2.04640625 4.3509375 2.0703125 5.046875 C2.08835938 5.93890625 2.10640625 6.8309375 2.125 7.75 C2.14820313 8.63171875 2.17140625 9.5134375 2.1953125 10.421875 C1.98774047 13.16182581 1.27418098 14.60608422 0 17 C-0.44500285 19.12593058 -0.44500285 19.12593058 -0.625 21.25 C-0.74875 22.4875 -0.8725 23.725 -1 25 C-1.33 25 -1.66 25 -2 25 C-2.27733386 16.4488728 -1.52016163 8.41518047 0 0 Z " fill="#64646D" transform="translate(233,137)"/>
<path d="M0 0 C0.99 0.495 0.99 0.495 2 1 C2 1.66 2 2.32 2 3 C2.66 3 3.32 3 4 3 C5.77982818 8.86296343 6.32632584 12.98052117 5 19 C3.44921875 20.73046875 3.44921875 20.73046875 2 22 C2.03480469 20.49759766 2.03480469 20.49759766 2.0703125 18.96484375 C2.08908789 17.62240336 2.10728618 16.27995482 2.125 14.9375 C2.15980469 12.97103516 2.15980469 12.97103516 2.1953125 10.96484375 C1.99417522 6.88175701 1.27165462 3.85000947 0 0 Z " fill="#575A6B" transform="translate(367,162)"/>
<path d="M0 0 C0.33 0 0.66 0 1 0 C0.03644647 16.70842825 0.03644647 16.70842825 -1 25 C-1.33 25 -1.66 25 -2 25 C-3.63093488 8.99174691 -3.63093488 8.99174691 -2 2 C-1.34 1.34 -0.68 0.68 0 0 Z " fill="#61646C" transform="translate(232,191)"/>
<path d="M0 0 C0.99 0 1.98 0 3 0 C2.814375 0.61875 2.62875 1.2375 2.4375 1.875 C1.76313824 4.04160178 1.76313824 4.04160178 3 6 C2.34 6 1.68 6 1 6 C1 6.66 1 7.32 1 8 C-3.38461538 11 -3.38461538 11 -6 11 C-5.39005934 7.93674247 -4.42271989 5.79949366 -2.625 3.25 C-2.20476562 2.63640625 -1.78453125 2.0228125 -1.3515625 1.390625 C-0.90554687 0.93171875 -0.45953125 0.4728125 0 0 Z " fill="#74757F" transform="translate(161,156)"/>
<path d="M0 0 C0.33 0.99 0.66 1.98 1 3 C0.34 3 -0.32 3 -1 3 C-0.98428955 3.57443848 -0.9685791 4.14887695 -0.95239258 4.74072266 C-0.88964487 7.36871309 -0.85088494 9.99654537 -0.8125 12.625 C-0.78736328 13.52863281 -0.76222656 14.43226563 -0.73632812 15.36328125 C-0.67778476 20.71024149 -1.05082286 24.34014531 -4 29 C-6.09184639 24.81630721 -4.238974 19.01659702 -3.6875 14.5 C-3.55666016 13.33339844 -3.42582031 12.16679687 -3.29101562 10.96484375 C-3.15759766 9.85238281 -3.02417969 8.73992187 -2.88671875 7.59375 C-2.76514404 6.56958984 -2.64356934 5.54542969 -2.51831055 4.49023438 C-2 2 -2 2 0 0 Z " fill="#626268" transform="translate(403,157)"/>
<path d="M0 0 C2 1 2 1 4 4 C3.54420906 8.10211847 2.1624537 12.04765741 1 16 C0.01 15.67 -0.98 15.34 -2 15 C-1.34 10.05 -0.68 5.1 0 0 Z " fill="#616268" transform="translate(228,178)"/>
<path d="M0 0 C0.33 0 0.66 0 1 0 C1.10477512 5.78591511 0.99250545 11.29309366 0 17 C-0.99 16.67 -1.98 16.34 -3 16 C-2.67 11.71 -2.34 7.42 -2 3 C-1.34 3 -0.68 3 0 3 C0 2.01 0 1.02 0 0 Z " fill="#696C73" transform="translate(374,352)"/>
<path d="M0 0 C0.99 0.33 1.98 0.66 3 1 C2.34 7.27 1.68 13.54 1 20 C0.67 20 0.34 20 0 20 C-0.83854735 13.09811029 -1.01593448 6.88577812 0 0 Z " fill="#61646D" transform="translate(381,338)"/>
<path d="M0 0 C4.09438873 6.94265915 2.00351243 16.34821775 1 24 C0.67 24 0.34 24 0 24 C-0.94120241 15.83325905 -0.94120241 8.16674095 0 0 Z " fill="#61646D" transform="translate(381,282)"/>
<path d="M0 0 C2 2 2 2 2.01171875 4.12890625 C1.90472656 4.93199219 1.79773438 5.73507813 1.6875 6.5625 C1.58824219 7.36816406 1.48898438 8.17382812 1.38671875 9.00390625 C1 11 1 11 0 12 C-1.66617115 12.04063832 -3.33388095 12.042721 -5 12 C-4.319375 11.46375 -3.63875 10.9275 -2.9375 10.375 C-0.61740673 8.08837848 -0.61740673 8.08837848 -1.25 4.75 C-1.4975 3.8425 -1.745 2.935 -2 2 C-3.65 2 -5.3 2 -7 2 C-7 1.34 -7 0.68 -7 0 C-3.85179059 -1.04940314 -3.00659136 -1.066855 0 0 Z " fill="#444653" transform="translate(215,247)"/>
<path d="M0 0 C0.66 0.33 1.32 0.66 2 1 C-3.28 6.28 -8.56 11.56 -14 17 C-14 12.95607032 -12.51908749 11.99868382 -9.8125 9.0625 C-9.03519531 8.20785156 -8.25789063 7.35320312 -7.45703125 6.47265625 C-5.09786332 4.09848566 -2.65532732 2.0327639 0 0 Z " fill="#747887" transform="translate(343,152)"/>
<path d="M0 0 C6.91663627 1.09890483 13.42736799 2.56569185 20 5 C20 5.33 20 5.66 20 6 C12.96871122 5.56615452 6.670985 4.25678003 0 2 C0 1.34 0 0.68 0 0 Z " fill="#545666" transform="translate(185,253)"/>
<path d="M0 0 C0.33 1.32 0.66 2.64 1 4 C1.66 4 2.32 4 3 4 C3 7.96 3 11.92 3 16 C2.67 15.01 2.34 14.02 2 13 C1.01 13 0.02 13 -1 13 C-0.835 11.783125 -0.67 10.56625 -0.5 9.3125 C-0.10545459 6.18392164 0.09869725 3.15831196 0 0 Z " fill="#9E9DA0" transform="translate(401,172)"/>
<path d="M0 0 C1.56454159 4.02014661 0.46223974 7.69925681 -0.4375 11.75 C-0.58509766 12.44738281 -0.73269531 13.14476562 -0.88476562 13.86328125 C-1.24868033 15.5772021 -1.62329068 17.28884581 -2 19 C-2.66 19 -3.32 19 -4 19 C-3.67 15.37 -3.34 11.74 -3 8 C-2.34 8 -1.68 8 -1 8 C-0.67 5.36 -0.34 2.72 0 0 Z " fill="#3A3D48" transform="translate(303,217)"/>
<path d="M0 0 C0.66 0.33 1.32 0.66 2 1 C2.73075648 3.3140622 3.40138258 5.64828869 4 8 C3.01 8 2.02 8 1 8 C1.04125 9.258125 1.0825 10.51625 1.125 11.8125 C1.2390374 15.29064073 1.05925681 15.91111478 -1 19 C-0.67 12.73 -0.34 6.46 0 0 Z " fill="#5C5F67" transform="translate(225,203)"/>
<path d="M0 0 C-0.33 3.96 -0.66 7.92 -1 12 C-1.99 11.67 -2.98 11.34 -4 11 C-3.8864371 9.35333797 -3.75882619 7.70763918 -3.625 6.0625 C-3.55539062 5.14597656 -3.48578125 4.22945312 -3.4140625 3.28515625 C-3.27742188 2.53105469 -3.14078125 1.77695313 -3 1 C-1 0 -1 0 0 0 Z " fill="#ADAEAE" transform="translate(409,138)"/>
<path d="M0 0 C0.33 0 0.66 0 1 0 C1 1.65 1 3.3 1 5 C2.32 5 3.64 5 5 5 C5.33 4.01 5.66 3.02 6 2 C7.125 7.75 7.125 7.75 6 10 C5.34 10 4.68 10 4 10 C4 9.34 4 8.68 4 8 C2.35 8 0.7 8 -1 8 C-0.67 7.34 -0.34 6.68 0 6 C0.039992 4.00039988 0.04346799 1.99952758 0 0 Z " fill="#6F7075" transform="translate(219,248)"/>
<path d="M0 0 C4.95 0 9.9 0 15 0 C14.67 1.65 14.34 3.3 14 5 C12.35 5 10.7 5 9 5 C9 4.34 9 3.68 9 3 C10.32 3 11.64 3 13 3 C13 2.34 13 1.68 13 1 C8.71 1 4.42 1 0 1 C0 0.67 0 0.34 0 0 Z " fill="#88888E" transform="translate(336,120)"/>
<path d="M0 0 C0.33 0 0.66 0 1 0 C1 4.62 1 9.24 1 14 C1.66 14.33 2.32 14.66 3 15 C1.68 15 0.36 15 -1 15 C-1 3.5 -1 3.5 0 0 Z " fill="#3B3C40" transform="translate(388,246)"/>
<path d="M0 0 C0.33 0.99 0.66 1.98 1 3 C-1.34117681 5.7928508 -2.95863199 6.4622064 -6.5625 6.8125 C-7.74005859 6.94591797 -7.74005859 6.94591797 -8.94140625 7.08203125 C-11 7 -11 7 -13 5 C-10.43424034 4.14474678 -8.58277958 3.83266681 -5.9375 3.625 C-4.638125 3.41875 -3.33875 3.2125 -2 3 C-1.34 2.01 -0.68 1.02 0 0 Z " fill="#535667" transform="translate(368,184)"/>
<path d="M0 0 C0.66 0 1.32 0 2 0 C0.55049545 3.7910119 -1.15172566 7.3874638 -3 11 C-3.66 11 -4.32 11 -5 11 C-5.33 11.99 -5.66 12.98 -6 14 C-6.33 13.34 -6.66 12.68 -7 12 C-6.29296875 10.125 -6.29296875 10.125 -5.1875 8 C-4.83042969 7.29875 -4.47335937 6.5975 -4.10546875 5.875 C-3 4 -3 4 -1 2 C-0.67 1.34 -0.34 0.68 0 0 Z " fill="#40434F" transform="translate(323,171)"/>
<path d="M0 0 C0.66 0.33 1.32 0.66 2 1 C2.05437607 2.58294782 2.09296271 4.16644256 2.125 5.75 C2.14820313 6.63171875 2.17140625 7.5134375 2.1953125 8.421875 C1.99139502 11.1135858 1.36551721 12.69904974 0 15 C-0.33 15 -0.66 15 -1 15 C-0.67 10.05 -0.34 5.1 0 0 Z " fill="#62656C" transform="translate(230,162)"/>
<path d="M0 0 C3.3 0 6.6 0 10 0 C10 0.99 10 1.98 10 3 C6.6875 3.1875 6.6875 3.1875 3 3 C2.01 2.01 1.02 1.02 0 0 Z " fill="#5E606A" transform="translate(222,132)"/>
<path d="M0 0 C1.32 0 2.64 0 4 0 C4 1.65 4 3.3 4 5 C2.35 4.67 0.7 4.34 -1 4 C-1.33 5.32 -1.66 6.64 -2 8 C-1.125 1.125 -1.125 1.125 0 0 Z " fill="#78797C" transform="translate(399,185)"/>
<path d="M0 0 C1.32 0 2.64 0 4 0 C4 1.65 4 3.3 4 5 C2.35 5 0.7 5 -1 5 C-0.67 3.35 -0.34 1.7 0 0 Z " fill="#38393E" transform="translate(218,256)"/>
<path d="M0 0 C0.33 0 0.66 0 1 0 C1.18451025 9.41002278 1.18451025 9.41002278 0 14 C-0.33 14 -0.66 14 -1 14 C-1.22142255 12.04310341 -1.4267568 10.08438048 -1.625 8.125 C-1.74101562 7.03445313 -1.85703125 5.94390625 -1.9765625 4.8203125 C-1.98429687 3.88960938 -1.99203125 2.95890625 -2 2 C-1.34 1.34 -0.68 0.68 0 0 Z " fill="#60636B" transform="translate(392,264)"/>
<path d="M0 0 C0.33 0 0.66 0 1 0 C1.33820166 1.5823006 1.67035939 3.16589375 2 4.75 C2.185625 5.63171875 2.37125 6.5134375 2.5625 7.421875 C3 10 3 10 3 14 C2.34 14 1.68 14 1 14 C-0.38226016 11.23547967 -0.09525387 8.9538637 -0.0625 5.875 C-0.05347656 4.77929688 -0.04445313 3.68359375 -0.03515625 2.5546875 C-0.02355469 1.71164063 -0.01195312 0.86859375 0 0 Z " fill="#6C6E77" transform="translate(388,231)"/>
<path d="M0 0 C0.66 0.66 1.32 1.32 2 2 C1.6875 4.75 1.6875 4.75 1 8 C0.814375 9.11375 0.62875 10.2275 0.4375 11.375 C0.293125 12.24125 0.14875 13.1075 0 14 C-0.33 14 -0.66 14 -1 14 C-1.027193 12.41676312 -1.04648306 10.83338938 -1.0625 9.25 C-1.07410156 8.36828125 -1.08570313 7.4865625 -1.09765625 6.578125 C-1.00826198 4.2181162 -0.66912821 2.25501476 0 0 Z " fill="#666870" transform="translate(394,217)"/>
<path d="M0 0 C0.33 1.98 0.66 3.96 1 6 C0.01 6.33 -0.98 6.66 -2 7 C-2 5.68 -2 4.36 -2 3 C-2.66 3 -3.32 3 -4 3 C-4 2.34 -4 1.68 -4 1 C-2 0 -2 0 0 0 Z " fill="#606167" transform="translate(344,124)"/>
<path d="M0 0 C1.32 0 2.64 0 4 0 C4 0.99 4 1.98 4 3 C4.66 3 5.32 3 6 3 C6 3.66 6 4.32 6 5 C4.35 5 2.7 5 1 5 C0.67 3.35 0.34 1.7 0 0 Z " fill="#7E7E81" transform="translate(279,120)"/>
<path d="M0 0 C0 1.65 0 3.3 0 5 C-1.65 5 -3.3 5 -5 5 C-5 3.68 -5 2.36 -5 1 C-1.125 0 -1.125 0 0 0 Z " fill="#424653" transform="translate(237,403)"/>
<path d="M0 0 C0 1.98 0 3.96 0 6 C-0.33 5.34 -0.66 4.68 -1 4 C-1.66 4 -2.32 4 -3 4 C-3 5.65 -3 7.3 -3 9 C-3.66 8.34 -4.32 7.68 -5 7 C-4.8125 4.5 -4.8125 4.5 -4 2 C-1 0 -1 0 0 0 Z " fill="#7B7C80" transform="translate(399,210)"/>
<path d="M0 0 C0.33 0 0.66 0 1 0 C1.98248524 4.0527516 2.08159574 7.83861737 2 12 C1.01 12 0.02 12 -1 12 C-0.67 8.04 -0.34 4.08 0 0 Z " fill="#63666E" transform="translate(233,169)"/>
<path d="M0 0 C2.31 0.66 4.62 1.32 7 2 C7 3.65 7 5.3 7 7 C6.34 7 5.68 7 5 7 C5 6.01 5 5.02 5 4 C3.35 3.67 1.7 3.34 0 3 C0 2.01 0 1.02 0 0 Z " fill="#46474F" transform="translate(283,120)"/>
<path d="M0 0 C0.66 0 1.32 0 2 0 C4 3 4 3 4 7 C2.68 6.67 1.36 6.34 0 6 C0 4.02 0 2.04 0 0 Z " fill="#BABBBC" transform="translate(397,205)"/>
<path d="M0 0 C0.33 0.66 0.66 1.32 1 2 C1.66 2 2.32 2 3 2 C3 3.32 3 4.64 3 6 C1.68 6 0.36 6 -1 6 C-1.042721 4.33388095 -1.04063832 2.66617115 -1 1 C-0.67 0.67 -0.34 0.34 0 0 Z " fill="#B1B2B3" transform="translate(400,188)"/>
<path d="M0 0 C0 3 0 3 -1.53125 4.60546875 C-2.1809375 5.12753906 -2.830625 5.64960938 -3.5 6.1875 C-4.1496875 6.71730469 -4.799375 7.24710938 -5.46875 7.79296875 C-5.9740625 8.19128906 -6.479375 8.58960938 -7 9 C-5.27845212 5.23511958 -3.00765886 2.84936103 0 0 Z " fill="#3E414D" transform="translate(334,159)"/>
<path d="M0 0 C0.66 0 1.32 0 2 0 C2 0.99 2 1.98 2 3 C2.66 3 3.32 3 4 3 C4 4.32 4 5.64 4 7 C3.34 7 2.68 7 2 7 C2 6.34 2 5.68 2 5 C1.34 5 0.68 5 0 5 C0 3.35 0 1.7 0 0 Z " fill="#BDBDBE" transform="translate(398,197)"/>
<path d="M0 0 C2 2 2 2 2 5 C1.34 5 0.68 5 0 5 C0 6.98 0 8.96 0 11 C-0.33 11 -0.66 11 -1 11 C-1.02688151 9.35425434 -1.04634123 7.70838587 -1.0625 6.0625 C-1.07410156 5.14597656 -1.08570313 4.22945312 -1.09765625 3.28515625 C-1 1 -1 1 0 0 Z " fill="#66686D" transform="translate(404,138)"/>
<path d="M0 0 C0.99 0 1.98 0 3 0 C3 1.98 3 3.96 3 6 C2.01 6 1.02 6 0 6 C0 4.02 0 2.04 0 0 Z " fill="#4D505A" transform="translate(387,135)"/>
<path d="M0 0 C0.53625 0.226875 1.0725 0.45375 1.625 0.6875 C-5 3.8125 -5 3.8125 -8.375 2.6875 C-2.95961538 -0.38942308 -2.95961538 -0.38942308 0 0 Z " fill="#464651" transform="translate(368.375,137.3125)"/>
<path d="M0 0 C1.32 0.33 2.64 0.66 4 1 C4 2.98 4 4.96 4 7 C3.67 6.01 3.34 5.02 3 4 C2.01 4 1.02 4 0 4 C0 2.68 0 1.36 0 0 Z " fill="#C7C8C9" transform="translate(400,181)"/>
<path d="M0 0 C2.64 0 5.28 0 8 0 C8.33 0.66 8.66 1.32 9 2 C8.01 2.33 7.02 2.66 6 3 C5.34 2.67 4.68 2.34 4 2 C2.68 2 1.36 2 0 2 C0 1.34 0 0.68 0 0 Z " fill="#70737D" transform="translate(214,132)"/>
</svg>
