<?xml version="1.0" encoding="UTF-8"?>
<svg version="1.1" xmlns="http://www.w3.org/2000/svg" width="551" height="551">
<path d="M0 0 C1.72974441 0.00015918 3.45949355 0.0058569 5.18920898 0.01586914 C6.09783188 0.01728409 7.00645477 0.01869904 7.94261169 0.02015686 C10.85687494 0.02577346 13.77106254 0.03832874 16.68530273 0.05102539 C18.65600475 0.05603825 20.62670797 0.06060153 22.59741211 0.06469727 C27.43923832 0.07574828 32.28100768 0.09302401 37.12280273 0.11352539 C37.45280273 2.42352539 37.78280273 4.73352539 38.12280273 7.11352539 C36.14280273 7.11352539 34.16280273 7.11352539 32.12280273 7.11352539 C32.12280273 9.09352539 32.12280273 11.07352539 32.12280273 13.11352539 C42.50176159 13.00607015 52.88065016 12.89344609 63.25948048 12.77418613 C68.07856261 12.71897477 72.89765083 12.66555756 77.71679688 12.61621094 C82.36578894 12.56854112 87.01470685 12.51619726 91.66361046 12.46058464 C93.43903448 12.44017297 95.21447883 12.42145792 96.98993874 12.40445137 C99.47285955 12.38038112 101.95564023 12.35033009 104.43847656 12.31884766 C105.17574982 12.31309219 105.91302307 12.30733673 106.67263794 12.30140686 C109.75391107 12.25687125 112.17669185 12.09556235 115.12280273 11.11352539 C115.91027003 14.58986552 116.24828979 17.79587104 116.24978638 21.35743713 C116.2526062 22.39347076 116.25542603 23.42950439 116.2583313 24.49693298 C116.25529495 26.1857534 116.25529495 26.1857534 116.25219727 27.90869141 C116.25482574 29.69968262 116.25482574 29.69968262 116.25750732 31.52685547 C116.26114993 34.79326646 116.26030244 38.05963681 116.25712824 41.32604718 C116.2545924 44.74747123 116.25694554 48.16889261 116.2585144 51.59031677 C116.26033227 57.33430466 116.25793956 63.07827969 116.25317383 68.82226562 C116.24772935 75.46095197 116.24949675 82.09960762 116.25500023 88.73829323 C116.25953916 94.44202136 116.26017816 100.14574025 116.25756156 105.8494696 C116.25600342 109.25442918 116.25579242 112.65937432 116.25909805 116.06433296 C116.26163145 119.85882788 116.25777429 123.65326342 116.25219727 127.44775391 C116.2542215 128.57565842 116.25624573 129.70356293 116.2583313 130.86564636 C116.25410156 132.41546707 116.25410156 132.41546707 116.24978638 133.99659729 C116.24940935 134.89346032 116.24903233 135.79032335 116.24864388 136.71436405 C116.12955502 138.98479301 115.76010217 140.93741324 115.12280273 143.11352539 C116.11280273 143.44352539 117.10280273 143.77352539 118.12280273 144.11352539 C117.79280273 144.77352539 117.46280273 145.43352539 117.12280273 146.11352539 C121.08280273 146.44352539 125.04280273 146.77352539 129.12280273 147.11352539 C129.12280273 148.76352539 129.12280273 150.41352539 129.12280273 152.11352539 C127.12280273 154.11352539 127.12280273 154.11352539 124.30249023 154.30883789 C123.21194336 154.28563477 122.12139648 154.26243164 120.99780273 154.23852539 C119.90209961 154.22047852 118.80639648 154.20243164 117.67749023 154.18383789 C116.83444336 154.16063477 115.99139648 154.13743164 115.12280273 154.11352539 C115.13755142 155.43102783 115.15230011 156.74853027 115.16749573 158.10595703 C115.30636958 170.58020551 115.43903346 183.05450699 115.56576633 195.52888489 C115.63110143 201.94059975 115.69855168 208.35227722 115.77099609 214.76391602 C115.84095284 220.96250926 115.90514414 227.16113885 115.96549797 233.35983276 C115.98939675 235.7134718 116.0153012 238.06709142 116.04333687 240.42068481 C116.19225825 253.03680082 116.19575616 265.53438535 115.12280273 278.11352539 C116.77280273 278.11352539 118.42280273 278.11352539 120.12280273 278.11352539 C120.12280273 280.42352539 120.12280273 282.73352539 120.12280273 285.11352539 C121.2790918 284.9878418 121.2790918 284.9878418 122.45874023 284.85961914 C123.46163086 284.7577832 124.46452148 284.65594727 125.49780273 284.55102539 C126.49553711 284.44661133 127.49327148 284.34219727 128.52124023 284.23461914 C131.12280273 284.11352539 131.12280273 284.11352539 133.12280273 285.11352539 C133.12280273 286.76352539 133.12280273 288.41352539 133.12280273 290.11352539 C128.83280273 290.11352539 124.54280273 290.11352539 120.12280273 290.11352539 C120.12280273 307.60352539 120.12280273 325.09352539 120.12280273 343.11352539 C34.65280273 343.11352539 -50.81719727 343.11352539 -138.87719727 343.11352539 C-138.87719727 325.62352539 -138.87719727 308.13352539 -138.87719727 290.11352539 C-143.16719727 290.11352539 -147.45719727 290.11352539 -151.87719727 290.11352539 C-152.53719727 289.78352539 -153.19719727 289.45352539 -153.87719727 289.11352539 C-153.87719727 288.12352539 -153.87719727 287.13352539 -153.87719727 286.11352539 C-150.99303844 284.67144598 -148.45998198 285.01957652 -145.25219727 285.05102539 C-144.06368164 285.06004883 -142.87516602 285.06907227 -141.65063477 285.07836914 C-140.2777832 285.09577148 -140.2777832 285.09577148 -138.87719727 285.11352539 C-138.87719727 282.80352539 -138.87719727 280.49352539 -138.87719727 278.11352539 C-137.88719727 278.11352539 -136.89719727 278.11352539 -135.87719727 278.11352539 C-135.98758583 276.2674041 -135.98758583 276.2674041 -136.10020447 274.38398743 C-136.88114037 260.41452421 -136.93325819 246.51784992 -136.75610352 232.53149414 C-136.73172208 230.25222833 -136.70788299 227.97295665 -136.68455505 225.69367981 C-136.62251041 219.77061144 -136.55322994 213.84765035 -136.4822998 207.92468262 C-136.41088473 201.850309 -136.3465098 195.7758609 -136.28149414 189.70141602 C-136.15351241 177.83870391 -136.01786544 165.97609338 -135.87719727 154.11352539 C-136.7318457 154.12512695 -137.58649414 154.13672852 -138.46704102 154.14868164 C-139.57176758 154.15770508 -140.67649414 154.16672852 -141.81469727 154.17602539 C-142.9168457 154.18762695 -144.01899414 154.19922852 -145.15454102 154.21118164 C-147.87719727 154.11352539 -147.87719727 154.11352539 -148.87719727 153.11352539 C-148.87719727 151.13352539 -148.87719727 149.15352539 -148.87719727 147.11352539 C-144.91719727 146.78352539 -140.95719727 146.45352539 -136.87719727 146.11352539 C-136.8838591 144.45173248 -136.89052094 142.78993958 -136.89738464 141.07778931 C-136.95808609 125.44988051 -137.00329705 109.82200816 -137.03263378 94.19400978 C-137.04811782 86.15867002 -137.06923654 78.12341813 -137.10351562 70.08813477 C-137.13337112 63.08645107 -137.15276108 56.08483099 -137.15946275 49.08308542 C-137.16338159 45.37399128 -137.17262291 41.66507917 -137.19438744 37.95604324 C-137.21845916 33.82046607 -137.21916975 29.68520749 -137.21777344 25.54956055 C-137.22855927 24.31310287 -137.23934509 23.0766452 -137.25045776 21.80271912 C-137.24427177 20.11997139 -137.24427177 20.11997139 -137.23796082 18.40322876 C-137.24072619 17.42428461 -137.24349157 16.44534046 -137.24634075 15.43673134 C-137.1245234 14.67007338 -137.00270605 13.90341541 -136.87719727 13.11352539 C-135.88719727 12.45352539 -134.89719727 11.79352539 -133.87719727 11.11352539 C-133.54719727 11.44352539 -133.21719727 11.77352539 -132.87719727 12.11352539 C-130.35270656 12.23852691 -127.85420109 12.29956077 -125.328125 12.31884766 C-124.53793976 12.32874725 -123.74775452 12.33864685 -122.93362427 12.34884644 C-120.30937749 12.38055387 -117.68511257 12.40525518 -115.06079102 12.42993164 C-113.2461753 12.4504932 -111.43156446 12.47148945 -109.61695862 12.49290466 C-104.83134907 12.5482078 -100.04569571 12.59758059 -95.26000977 12.64575195 C-90.38041262 12.69590696 -85.50087941 12.75162427 -80.62133789 12.80688477 C-71.04001225 12.91456708 -61.45863119 13.01598952 -51.87719727 13.11352539 C-51.87719727 11.13352539 -51.87719727 9.15352539 -51.87719727 7.11352539 C-53.85719727 7.11352539 -55.83719727 7.11352539 -57.87719727 7.11352539 C-57.87719727 5.46352539 -57.87719727 3.81352539 -57.87719727 2.11352539 C-57.21542984 2.10321793 -56.55366241 2.09291046 -55.87184143 2.08229065 C-49.01048414 1.9744659 -42.14926461 1.8598493 -35.28808594 1.74121094 C-32.72431305 1.69778473 -30.1605098 1.65611554 -27.59667969 1.61621094 C-23.92056099 1.55869392 -20.24459627 1.49494676 -16.56860352 1.42993164 C-15.4144545 1.41321915 -14.26030548 1.39650665 -13.07118225 1.37928772 C-12.01015793 1.3593425 -10.94913361 1.33939728 -9.85595703 1.31884766 C-8.44697899 1.29553123 -8.44697899 1.29553123 -7.00953674 1.27174377 C-3.70122514 1.02626892 -3.99652821 0.11701943 0 0 Z M-45.87719727 7.11352539 C-45.87719727 9.09352539 -45.87719727 11.07352539 -45.87719727 13.11352539 C-22.11719727 13.11352539 1.64280273 13.11352539 26.12280273 13.11352539 C26.12280273 11.13352539 26.12280273 9.15352539 26.12280273 7.11352539 C2.36280273 7.11352539 -21.39719727 7.11352539 -45.87719727 7.11352539 Z M-133.87719727 21.11352539 C-133.87719727 56.42352539 -133.87719727 91.73352539 -133.87719727 128.11352539 C-133.54719727 128.11352539 -133.21719727 128.11352539 -132.87719727 128.11352539 C-132.87719727 92.80352539 -132.87719727 57.49352539 -132.87719727 21.11352539 C-133.20719727 21.11352539 -133.53719727 21.11352539 -133.87719727 21.11352539 Z " fill="#51535E" transform="translate(303.877197265625,117.886474609375)"/>
<path d="M0 0 C0.8713476 -0.00199105 1.74269519 -0.0039821 2.64044726 -0.00603348 C3.6034677 -0.00312064 4.56648814 -0.0002078 5.55869102 0.00279331 C6.57720441 0.00193889 7.5957178 0.00108446 8.64509523 0.00020415 C12.07996492 -0.00145142 15.51478647 0.00407199 18.94965172 0.00952244 C21.40311749 0.00980432 23.85658334 0.00964656 26.31004906 0.00907993 C31.60351373 0.00885174 36.89696324 0.01169996 42.19042397 0.01731777 C49.84393605 0.02543496 57.49744218 0.02804822 65.15095811 0.02930576 C77.56742055 0.03149594 89.98387643 0.03815509 102.40033531 0.04760838 C114.46381154 0.05678339 126.52728599 0.06386379 138.590765 0.06811619 C139.70561968 0.06851027 139.70561968 0.06851027 140.84299667 0.06891232 C144.57148913 0.07021733 148.29998161 0.07148104 152.02847409 0.07272422 C182.97404719 0.08309576 213.91961213 0.10078732 244.86517906 0.12304783 C244.86517906 6.06304783 244.86517906 12.00304783 244.86517906 18.12304783 C246.51517906 18.12304783 248.16517906 18.12304783 249.86517906 18.12304783 C249.86517906 20.43304783 249.86517906 22.74304783 249.86517906 25.12304783 C250.63603844 25.03925877 251.40689781 24.9554697 252.20111656 24.86914158 C253.20400719 24.76730564 254.20689781 24.6654697 255.24017906 24.56054783 C256.23791344 24.45613377 257.23564781 24.3517197 258.26361656 24.24414158 C260.86517906 24.12304783 260.86517906 24.12304783 262.86517906 25.12304783 C262.86517906 26.77304783 262.86517906 28.42304783 262.86517906 30.12304783 C258.57517906 30.12304783 254.28517906 30.12304783 249.86517906 30.12304783 C249.86517906 47.61304783 249.86517906 65.10304783 249.86517906 83.12304783 C164.39517906 83.12304783 78.92517906 83.12304783 -9.13482094 83.12304783 C-9.13482094 65.63304783 -9.13482094 48.14304783 -9.13482094 30.12304783 C-13.42482094 30.12304783 -17.71482094 30.12304783 -22.13482094 30.12304783 C-22.79482094 29.79304783 -23.45482094 29.46304783 -24.13482094 29.12304783 C-24.13482094 28.13304783 -24.13482094 27.14304783 -24.13482094 26.12304783 C-21.25066211 24.68096842 -18.71760565 25.02909896 -15.50982094 25.06054783 C-14.32130531 25.06957127 -13.13278969 25.0785947 -11.90825844 25.08789158 C-10.99302406 25.09949314 -10.07778969 25.1110947 -9.13482094 25.12304783 C-9.13482094 22.81304783 -9.13482094 20.50304783 -9.13482094 18.12304783 C-8.14482094 18.12304783 -7.15482094 18.12304783 -6.13482094 18.12304783 C-6.13482094 12.51304783 -6.13482094 6.90304783 -6.13482094 1.12304783 C-3.83559335 -0.02656596 -2.55645228 -0.00128465 0 0 Z " fill="#51535F" transform="translate(174.13482093811035,377.8769521713257)"/>
<path d="M0 0 C1.72974441 0.00015918 3.45949355 0.0058569 5.18920898 0.01586914 C6.09783188 0.01728409 7.00645477 0.01869904 7.94261169 0.02015686 C10.85687494 0.02577346 13.77106254 0.03832874 16.68530273 0.05102539 C18.65600475 0.05603825 20.62670797 0.06060153 22.59741211 0.06469727 C27.43923832 0.07574828 32.28100768 0.09302401 37.12280273 0.11352539 C37.45280273 2.42352539 37.78280273 4.73352539 38.12280273 7.11352539 C36.14280273 7.11352539 34.16280273 7.11352539 32.12280273 7.11352539 C32.12280273 9.09352539 32.12280273 11.07352539 32.12280273 13.11352539 C42.50176159 13.00607015 52.88065016 12.89344609 63.25948048 12.77418613 C68.07856261 12.71897477 72.89765083 12.66555756 77.71679688 12.61621094 C82.36578894 12.56854112 87.01470685 12.51619726 91.66361046 12.46058464 C93.43903448 12.44017297 95.21447883 12.42145792 96.98993874 12.40445137 C99.47285955 12.38038112 101.95564023 12.35033009 104.43847656 12.31884766 C105.17574982 12.31309219 105.91302307 12.30733673 106.67263794 12.30140686 C109.75391107 12.25687125 112.17669185 12.09556235 115.12280273 11.11352539 C115.91027003 14.58986552 116.24828979 17.79587104 116.24978638 21.35743713 C116.2526062 22.39347076 116.25542603 23.42950439 116.2583313 24.49693298 C116.25529495 26.1857534 116.25529495 26.1857534 116.25219727 27.90869141 C116.25482574 29.69968262 116.25482574 29.69968262 116.25750732 31.52685547 C116.26114993 34.79326646 116.26030244 38.05963681 116.25712824 41.32604718 C116.2545924 44.74747123 116.25694554 48.16889261 116.2585144 51.59031677 C116.26033227 57.33430466 116.25793956 63.07827969 116.25317383 68.82226562 C116.24772935 75.46095197 116.24949675 82.09960762 116.25500023 88.73829323 C116.25953916 94.44202136 116.26017816 100.14574025 116.25756156 105.8494696 C116.25600342 109.25442918 116.25579242 112.65937432 116.25909805 116.06433296 C116.26163145 119.85882788 116.25777429 123.65326342 116.25219727 127.44775391 C116.2542215 128.57565842 116.25624573 129.70356293 116.2583313 130.86564636 C116.25410156 132.41546707 116.25410156 132.41546707 116.24978638 133.99659729 C116.24940935 134.89346032 116.24903233 135.79032335 116.24864388 136.71436405 C116.12955502 138.98479301 115.76010217 140.93741324 115.12280273 143.11352539 C116.11280273 143.44352539 117.10280273 143.77352539 118.12280273 144.11352539 C117.79280273 144.77352539 117.46280273 145.43352539 117.12280273 146.11352539 C121.08280273 146.44352539 125.04280273 146.77352539 129.12280273 147.11352539 C129.12280273 148.76352539 129.12280273 150.41352539 129.12280273 152.11352539 C128.46280273 152.77352539 127.80280273 153.43352539 127.12280273 154.11352539 C123.16280273 154.11352539 119.20280273 154.11352539 115.12280273 154.11352539 C115.45280273 189.75352539 115.78280273 225.39352539 116.12280273 262.11352539 C115.79280273 261.45352539 115.46280273 260.79352539 115.12280273 260.11352539 C32.29280273 260.44352539 -50.53719727 260.77352539 -135.87719727 261.11352539 C-136.67356537 257.92805297 -136.9943055 255.89449819 -136.95948792 252.722229 C-136.95244843 251.85007248 -136.94540894 250.97791595 -136.93815613 250.07933044 C-136.92521011 249.13058548 -136.9122641 248.18184052 -136.89892578 247.2043457 C-136.88451447 245.69654289 -136.88451447 245.69654289 -136.86981201 244.15827942 C-136.83683318 240.83599824 -136.79649639 237.51384902 -136.75610352 234.19165039 C-136.73180132 231.8880866 -136.70795781 229.58451793 -136.68455505 227.28094482 C-136.62172408 221.21789998 -136.55265451 215.15494156 -136.4822998 209.09197998 C-136.41160754 202.9051914 -136.3467959 196.71834155 -136.28149414 190.53149414 C-136.15249447 178.39210389 -136.01690621 166.25279679 -135.87719727 154.11352539 C-136.7318457 154.12512695 -137.58649414 154.13672852 -138.46704102 154.14868164 C-139.57176758 154.15770508 -140.67649414 154.16672852 -141.81469727 154.17602539 C-142.9168457 154.18762695 -144.01899414 154.19922852 -145.15454102 154.21118164 C-147.87719727 154.11352539 -147.87719727 154.11352539 -148.87719727 153.11352539 C-148.87719727 151.13352539 -148.87719727 149.15352539 -148.87719727 147.11352539 C-144.91719727 146.78352539 -140.95719727 146.45352539 -136.87719727 146.11352539 C-136.88719002 143.62083603 -136.88719002 143.62083603 -136.89738464 141.07778931 C-136.95808609 125.44988051 -137.00329705 109.82200816 -137.03263378 94.19400978 C-137.04811782 86.15867002 -137.06923654 78.12341813 -137.10351562 70.08813477 C-137.13337112 63.08645107 -137.15276108 56.08483099 -137.15946275 49.08308542 C-137.16338159 45.37399128 -137.17262291 41.66507917 -137.19438744 37.95604324 C-137.21845916 33.82046607 -137.21916975 29.68520749 -137.21777344 25.54956055 C-137.22855927 24.31310287 -137.23934509 23.0766452 -137.25045776 21.80271912 C-137.24427177 20.11997139 -137.24427177 20.11997139 -137.23796082 18.40322876 C-137.24072619 17.42428461 -137.24349157 16.44534046 -137.24634075 15.43673134 C-137.1245234 14.67007338 -137.00270605 13.90341541 -136.87719727 13.11352539 C-135.88719727 12.45352539 -134.89719727 11.79352539 -133.87719727 11.11352539 C-133.54719727 11.44352539 -133.21719727 11.77352539 -132.87719727 12.11352539 C-130.35270656 12.23852691 -127.85420109 12.29956077 -125.328125 12.31884766 C-124.53793976 12.32874725 -123.74775452 12.33864685 -122.93362427 12.34884644 C-120.30937749 12.38055387 -117.68511257 12.40525518 -115.06079102 12.42993164 C-113.2461753 12.4504932 -111.43156446 12.47148945 -109.61695862 12.49290466 C-104.83134907 12.5482078 -100.04569571 12.59758059 -95.26000977 12.64575195 C-90.38041262 12.69590696 -85.50087941 12.75162427 -80.62133789 12.80688477 C-71.04001225 12.91456708 -61.45863119 13.01598952 -51.87719727 13.11352539 C-51.87719727 11.13352539 -51.87719727 9.15352539 -51.87719727 7.11352539 C-53.85719727 7.11352539 -55.83719727 7.11352539 -57.87719727 7.11352539 C-57.87719727 5.46352539 -57.87719727 3.81352539 -57.87719727 2.11352539 C-57.21542984 2.10321793 -56.55366241 2.09291046 -55.87184143 2.08229065 C-49.01048414 1.9744659 -42.14926461 1.8598493 -35.28808594 1.74121094 C-32.72431305 1.69778473 -30.1605098 1.65611554 -27.59667969 1.61621094 C-23.92056099 1.55869392 -20.24459627 1.49494676 -16.56860352 1.42993164 C-15.4144545 1.41321915 -14.26030548 1.39650665 -13.07118225 1.37928772 C-12.01015793 1.3593425 -10.94913361 1.33939728 -9.85595703 1.31884766 C-8.44697899 1.29553123 -8.44697899 1.29553123 -7.00953674 1.27174377 C-3.70122514 1.02626892 -3.99652821 0.11701943 0 0 Z M-45.87719727 7.11352539 C-45.87719727 9.09352539 -45.87719727 11.07352539 -45.87719727 13.11352539 C-22.11719727 13.11352539 1.64280273 13.11352539 26.12280273 13.11352539 C26.12280273 11.13352539 26.12280273 9.15352539 26.12280273 7.11352539 C2.36280273 7.11352539 -21.39719727 7.11352539 -45.87719727 7.11352539 Z M-133.87719727 21.11352539 C-133.87719727 56.42352539 -133.87719727 91.73352539 -133.87719727 128.11352539 C-133.54719727 128.11352539 -133.21719727 128.11352539 -132.87719727 128.11352539 C-132.87719727 92.80352539 -132.87719727 57.49352539 -132.87719727 21.11352539 C-133.20719727 21.11352539 -133.53719727 21.11352539 -133.87719727 21.11352539 Z M-123.87719727 24.11352539 C-123.87719727 63.71352539 -123.87719727 103.31352539 -123.87719727 144.11352539 C-48.63719727 144.11352539 26.60280273 144.11352539 104.12280273 144.11352539 C104.12280273 104.51352539 104.12280273 64.91352539 104.12280273 24.11352539 C28.88280273 24.11352539 -46.35719727 24.11352539 -123.87719727 24.11352539 Z M-123.87719727 145.11352539 C-123.87719727 179.43352539 -123.87719727 213.75352539 -123.87719727 249.11352539 C-48.63719727 249.11352539 26.60280273 249.11352539 104.12280273 249.11352539 C104.12280273 214.79352539 104.12280273 180.47352539 104.12280273 145.11352539 C28.88280273 145.11352539 -46.35719727 145.11352539 -123.87719727 145.11352539 Z " fill="#595B65" transform="translate(303.877197265625,117.886474609375)"/>
<path d="M0 0 C1.72974441 0.00015918 3.45949355 0.0058569 5.18920898 0.01586914 C6.09783188 0.01728409 7.00645477 0.01869904 7.94261169 0.02015686 C10.85687494 0.02577346 13.77106254 0.03832874 16.68530273 0.05102539 C18.65600475 0.05603825 20.62670797 0.06060153 22.59741211 0.06469727 C27.43923832 0.07574828 32.28100768 0.09302401 37.12280273 0.11352539 C37.45280273 2.42352539 37.78280273 4.73352539 38.12280273 7.11352539 C36.14280273 7.11352539 34.16280273 7.11352539 32.12280273 7.11352539 C32.12280273 9.09352539 32.12280273 11.07352539 32.12280273 13.11352539 C42.50176159 13.00607015 52.88065016 12.89344609 63.25948048 12.77418613 C68.07856261 12.71897477 72.89765083 12.66555756 77.71679688 12.61621094 C82.36578894 12.56854112 87.01470685 12.51619726 91.66361046 12.46058464 C93.43903448 12.44017297 95.21447883 12.42145792 96.98993874 12.40445137 C99.47285955 12.38038112 101.95564023 12.35033009 104.43847656 12.31884766 C105.17574982 12.31309219 105.91302307 12.30733673 106.67263794 12.30140686 C109.75391107 12.25687125 112.17669185 12.09556235 115.12280273 11.11352539 C115.91027003 14.58986552 116.24828979 17.79587104 116.24978638 21.35743713 C116.2526062 22.39347076 116.25542603 23.42950439 116.2583313 24.49693298 C116.25529495 26.1857534 116.25529495 26.1857534 116.25219727 27.90869141 C116.25482574 29.69968262 116.25482574 29.69968262 116.25750732 31.52685547 C116.26114993 34.79326646 116.26030244 38.05963681 116.25712824 41.32604718 C116.2545924 44.74747123 116.25694554 48.16889261 116.2585144 51.59031677 C116.26033227 57.33430466 116.25793956 63.07827969 116.25317383 68.82226562 C116.24772935 75.46095197 116.24949675 82.09960762 116.25500023 88.73829323 C116.25953916 94.44202136 116.26017816 100.14574025 116.25756156 105.8494696 C116.25600342 109.25442918 116.25579242 112.65937432 116.25909805 116.06433296 C116.26163145 119.85882788 116.25777429 123.65326342 116.25219727 127.44775391 C116.2542215 128.57565842 116.25624573 129.70356293 116.2583313 130.86564636 C116.25551147 131.89886017 116.25269165 132.93207397 116.24978638 133.99659729 C116.24922084 135.34189184 116.24922084 135.34189184 116.24864388 136.71436405 C116.12955502 138.98479301 115.76010217 140.93741324 115.12280273 143.11352539 C116.11280273 143.44352539 117.10280273 143.77352539 118.12280273 144.11352539 C117.79280273 144.77352539 117.46280273 145.43352539 117.12280273 146.11352539 C121.08280273 146.44352539 125.04280273 146.77352539 129.12280273 147.11352539 C129.12280273 148.76352539 129.12280273 150.41352539 129.12280273 152.11352539 C128.46280273 152.77352539 127.80280273 153.43352539 127.12280273 154.11352539 C123.16280273 154.11352539 119.20280273 154.11352539 115.12280273 154.11352539 C115.45280273 189.75352539 115.78280273 225.39352539 116.12280273 262.11352539 C115.79280273 261.45352539 115.46280273 260.79352539 115.12280273 260.11352539 C32.29280273 260.44352539 -50.53719727 260.77352539 -135.87719727 261.11352539 C-136.67627449 257.91721647 -136.99411337 255.86980719 -136.95948792 252.68426514 C-136.95244843 251.80369446 -136.94540894 250.92312378 -136.93815613 250.01586914 C-136.92521011 249.05777344 -136.9122641 248.09967773 -136.89892578 247.11254883 C-136.88931824 246.09759338 -136.87971069 245.08263794 -136.86981201 244.03692627 C-136.83683138 240.6821802 -136.79649527 237.32756474 -136.75610352 233.97290039 C-136.7318015 231.64691631 -136.70795798 229.32092739 -136.68455505 226.99493408 C-136.62172233 220.87270606 -136.55265326 214.75056357 -136.4822998 208.62841797 C-136.41160912 202.38130591 -136.34679653 196.13413319 -136.28149414 189.88696289 C-136.15249222 177.62908373 -136.01690411 165.37128689 -135.87719727 153.11352539 C-135.21719727 153.11352539 -134.55719727 153.11352539 -133.87719727 153.11352539 C-133.87719727 188.09352539 -133.87719727 223.07352539 -133.87719727 259.11352539 C-52.36719727 259.11352539 29.14280273 259.11352539 113.12280273 259.11352539 C113.12280273 221.82352539 113.12280273 184.53352539 113.12280273 146.11352539 C110.81280273 146.44352539 108.50280273 146.77352539 106.12280273 147.11352539 C106.12280273 181.43352539 106.12280273 215.75352539 106.12280273 251.11352539 C29.23280273 251.11352539 -47.65719727 251.11352539 -126.87719727 251.11352539 C-126.54719727 216.46352539 -126.21719727 181.81352539 -125.87719727 146.11352539 C-128.51719727 145.78352539 -131.15719727 145.45352539 -133.87719727 145.11352539 C-133.87719727 144.78352539 -133.87719727 144.45352539 -133.87719727 144.11352539 C-127.25070277 143.34128226 -120.74158174 142.97187935 -114.07272339 143 C-113.13877373 142.99985114 -112.20482407 142.99970228 -111.2425729 142.99954891 C-108.1414279 143.00023836 -105.04034358 143.00805745 -101.93920898 143.01586914 C-99.70443759 143.01779007 -97.46966577 143.01925304 -95.2348938 143.02029419 C-90.43650381 143.02344683 -85.63813157 143.02970273 -80.83974838 143.0383606 C-73.25043624 143.05191469 -65.66112993 143.05778368 -58.07180786 143.0625 C-47.43124962 143.06982353 -36.79069887 143.0799298 -26.15014648 143.09301758 C-25.13898648 143.0942593 -25.13898648 143.0942593 -24.107399 143.0955261 C-19.32233163 143.10142672 -14.53726443 143.10746136 -9.75219727 143.11352539 C-4.28263358 143.12045553 1.18693018 143.12732254 6.65649414 143.1340332 C7.33037867 143.13486133 8.0042632 143.13568946 8.69856848 143.13654268 C19.94480489 143.15024033 31.19104154 143.15995121 42.43728435 143.16694355 C49.98007697 143.17192263 57.52284268 143.18177715 65.06562448 143.19537354 C69.75753116 143.20283705 74.44943415 143.20614954 79.14134598 143.20833969 C81.31494874 143.21021031 83.48855082 143.21380849 85.66214752 143.21927261 C88.63221422 143.2265033 91.60222211 143.22752576 94.57229614 143.22705078 C95.85781457 143.23244322 95.85781457 143.23244322 97.16930306 143.2379446 C102.23909738 143.22927808 107.12366404 143.00247542 112.12280273 142.11352539 C113.71274603 140.19287746 113.71274603 140.19287746 114.12280273 138.11352539 C112.14280273 138.11352539 110.16280273 138.11352539 108.12280273 138.11352539 C108.45280273 99.17352539 108.78280273 60.23352539 109.12280273 20.11352539 C28.93280273 20.44352539 -51.25719727 20.77352539 -133.87719727 21.11352539 C-133.87719727 56.75352539 -133.87719727 92.39352539 -133.87719727 129.11352539 C-134.20719727 132.74352539 -134.53719727 136.37352539 -134.87719727 140.11352539 C-134.21719727 140.44352539 -133.55719727 140.77352539 -132.87719727 141.11352539 C-133.53719727 143.09352539 -134.19719727 145.07352539 -134.87719727 147.11352539 C-135.53719727 146.78352539 -136.19719727 146.45352539 -136.87719727 146.11352539 C-136.9472072 128.80704187 -137.000146 111.5006024 -137.03263378 94.19400978 C-137.04811782 86.15867002 -137.06923654 78.12341813 -137.10351562 70.08813477 C-137.13337112 63.08645107 -137.15276108 56.08483099 -137.15946275 49.08308542 C-137.16338159 45.37399128 -137.17262291 41.66507917 -137.19438744 37.95604324 C-137.21845916 33.82046607 -137.21916975 29.68520749 -137.21777344 25.54956055 C-137.22855927 24.31310287 -137.23934509 23.0766452 -137.25045776 21.80271912 C-137.24633377 20.6808873 -137.24220978 19.55905548 -137.23796082 18.40322876 C-137.24072619 17.42428461 -137.24349157 16.44534046 -137.24634075 15.43673134 C-137.1245234 14.67007338 -137.00270605 13.90341541 -136.87719727 13.11352539 C-135.88719727 12.45352539 -134.89719727 11.79352539 -133.87719727 11.11352539 C-133.54719727 11.44352539 -133.21719727 11.77352539 -132.87719727 12.11352539 C-130.35270656 12.23852691 -127.85420109 12.29956077 -125.328125 12.31884766 C-124.53793976 12.32874725 -123.74775452 12.33864685 -122.93362427 12.34884644 C-120.30937749 12.38055387 -117.68511257 12.40525518 -115.06079102 12.42993164 C-113.2461753 12.4504932 -111.43156446 12.47148945 -109.61695862 12.49290466 C-104.83134907 12.5482078 -100.04569571 12.59758059 -95.26000977 12.64575195 C-90.38041262 12.69590696 -85.50087941 12.75162427 -80.62133789 12.80688477 C-71.04001225 12.91456708 -61.45863119 13.01598952 -51.87719727 13.11352539 C-51.87719727 11.13352539 -51.87719727 9.15352539 -51.87719727 7.11352539 C-53.85719727 7.11352539 -55.83719727 7.11352539 -57.87719727 7.11352539 C-57.87719727 5.46352539 -57.87719727 3.81352539 -57.87719727 2.11352539 C-57.21542984 2.10321793 -56.55366241 2.09291046 -55.87184143 2.08229065 C-49.01048414 1.9744659 -42.14926461 1.8598493 -35.28808594 1.74121094 C-32.72431305 1.69778473 -30.1605098 1.65611554 -27.59667969 1.61621094 C-23.92056099 1.55869392 -20.24459627 1.49494676 -16.56860352 1.42993164 C-15.4144545 1.41321915 -14.26030548 1.39650665 -13.07118225 1.37928772 C-12.01015793 1.3593425 -10.94913361 1.33939728 -9.85595703 1.31884766 C-8.44697899 1.29553123 -8.44697899 1.29553123 -7.00953674 1.27174377 C-3.70122514 1.02626892 -3.99652821 0.11701943 0 0 Z M-45.87719727 7.11352539 C-45.87719727 9.09352539 -45.87719727 11.07352539 -45.87719727 13.11352539 C-22.11719727 13.11352539 1.64280273 13.11352539 26.12280273 13.11352539 C26.12280273 11.13352539 26.12280273 9.15352539 26.12280273 7.11352539 C2.36280273 7.11352539 -21.39719727 7.11352539 -45.87719727 7.11352539 Z M-123.87719727 145.11352539 C-123.87719727 179.43352539 -123.87719727 213.75352539 -123.87719727 249.11352539 C-48.63719727 249.11352539 26.60280273 249.11352539 104.12280273 249.11352539 C104.12280273 214.79352539 104.12280273 180.47352539 104.12280273 145.11352539 C28.88280273 145.11352539 -46.35719727 145.11352539 -123.87719727 145.11352539 Z " fill="#6E7076" transform="translate(303.877197265625,117.886474609375)"/>
<path d="M0 0 C78.54 0 157.08 0 238 0 C238 37.95 238 75.9 238 115 C237.34 115 236.68 115 236 115 C229.86219317 78.17315902 235 40.3348214 235 3 C158.44 3 81.88 3 3 3 C3 37.98 3 72.96 3 109 C2.34 109 1.68 109 1 109 C1 110.32 1 111.64 1 113 C1.66 113 2.32 113 3 113 C3 113.66 3 114.32 3 115 C2.01 115 1.02 115 0 115 C0 77.05 0 39.1 0 0 Z " fill="#4A4B54" transform="translate(175,138)"/>
<path d="M0 0 C2.64 0 5.28 0 8 0 C8 2.31 8 4.62 8 7 C8.66 7 9.32 7 10 7 C10 4.69 10 2.38 10 0 C34.42 0 58.84 0 84 0 C84 0.33 84 0.66 84 1 C60.24 1 36.48 1 12 1 C12 2.98 12 4.96 12 7 C35.76 7 59.52 7 84 7 C84 7.33 84 7.66 84 8 C48.36 8.495 48.36 8.495 12 9 C35.76 9.33 59.52 9.66 84 10 C84 10.33 84 10.66 84 11 C61.23 11 38.46 11 15 11 C15.495 12.485 15.495 12.485 16 14 C-29.54 14.495 -29.54 14.495 -76 15 C-75.98839844 22.66863281 -75.97679687 30.33726562 -75.96484375 38.23828125 C-75.95973142 43.11002689 -75.95491723 47.98176921 -75.95117188 52.85351562 C-75.94520496 60.57821341 -75.93816229 68.30289929 -75.92456055 76.02758789 C-75.91365809 82.25862445 -75.90770761 88.48964823 -75.90512276 94.72069359 C-75.90328174 97.09240101 -75.89968678 99.46410776 -75.89426994 101.83580971 C-75.88696177 105.16960766 -75.88601316 108.50335347 -75.88647461 111.8371582 C-75.88287933 112.80748993 -75.87928406 113.77782166 -75.87557983 114.77755737 C-75.88518636 121.23367368 -76.31544806 127.58091699 -77 134 C-76.34 134.33 -75.68 134.66 -75 135 C-75.66 136.98 -76.32 138.96 -77 141 C-77.66 140.67 -78.32 140.34 -79 140 C-79.07000993 122.69351648 -79.12294874 105.38707701 -79.15543652 88.08048439 C-79.17092056 80.04514463 -79.19203928 72.00989274 -79.22631836 63.97460938 C-79.25617385 56.97292568 -79.27556382 49.9713056 -79.28226548 42.96956003 C-79.28618432 39.26046589 -79.29542564 35.55155378 -79.31719017 31.84251785 C-79.34126189 27.70694067 -79.34197249 23.5716821 -79.34057617 19.43603516 C-79.351362 18.19957748 -79.36214783 16.96311981 -79.3732605 15.68919373 C-79.36913651 14.56736191 -79.36501251 13.44553009 -79.36076355 12.28970337 C-79.36352893 11.31075922 -79.36629431 10.33181507 -79.36914349 9.32320595 C-79.24732614 8.55654799 -79.12550879 7.78989002 -79 7 C-78.01 6.34 -77.02 5.68 -76 5 C-75.67 5.33 -75.34 5.66 -75 6 C-72.4755093 6.12500152 -69.97700383 6.18603538 -67.45092773 6.20532227 C-66.66074249 6.21522186 -65.87055725 6.22512146 -65.056427 6.23532104 C-62.43218022 6.26702848 -59.80791531 6.29172979 -57.18359375 6.31640625 C-55.36897803 6.33696781 -53.5543672 6.35796406 -51.73976135 6.37937927 C-46.9541518 6.43468241 -42.16849844 6.4840552 -37.3828125 6.53222656 C-32.50321536 6.58238157 -27.62368215 6.63809888 -22.74414062 6.69335938 C-13.16281498 6.80104168 -3.58143392 6.90246413 6 7 C6 5.02 6 3.04 6 1 C4.02 1 2.04 1 0 1 C0 0.67 0 0.34 0 0 Z " fill="#7C7D81" transform="translate(246,124)"/>
<path d="M0 0 C1.66611905 -0.042721 3.33382885 -0.04063832 5 0 C29.51416824 24.51416824 6 69.33173081 6 104 C81.24 104 156.48 104 234 104 C234 70.01 234 36.02 234 1 C236.31 1 238.62 1 241 1 C241 1.33 241 1.66 241 2 C239.35 2 237.7 2 236 2 C236 36.32 236 70.64 236 106 C159.11 106 82.22 106 3 106 C3.33 71.35 3.66 36.7 4 1 C2.68 0.67 1.36 0.34 0 0 Z " fill="#6A6C75" transform="translate(174,263)"/>
<path d="M0 0 C0.66 0 1.32 0 2 0 C2.02888514 3.14581423 2.04675923 6.29159469 2.0625 9.4375 C2.07087891 10.33533203 2.07925781 11.23316406 2.08789062 12.15820312 C2.09272461 13.43920898 2.09272461 13.43920898 2.09765625 14.74609375 C2.10551147 15.93223267 2.10551147 15.93223267 2.11352539 17.14233398 C2 19 2 19 1 20 C-2.10504019 20.10826336 -5.18824758 20.15050852 -8.29405212 20.15148926 C-9.28171509 20.15572167 -10.26937805 20.15995408 -11.2869702 20.16431475 C-14.62352517 20.17741579 -17.96005621 20.18338266 -21.29663086 20.18945312 C-23.67774097 20.19738959 -26.05884962 20.20577706 -28.43995667 20.21458435 C-34.25248047 20.23504962 -40.06500474 20.25103299 -45.87754672 20.26531208 C-52.6405453 20.28227745 -59.40351684 20.30568007 -66.16649336 20.32973462 C-78.23069562 20.37256201 -90.29490663 20.4116685 -102.35913086 20.44775391 C-103.08176951 20.44991671 -103.80440816 20.45207951 -104.54894496 20.45430785 C-109.67846302 20.46963602 -114.80798146 20.4848323 -119.9375 20.5 C-125.79516629 20.51732235 -131.6528324 20.53470718 -137.51049805 20.55224609 C-138.59268715 20.5554844 -138.59268715 20.5554844 -139.69673865 20.55878812 C-151.71334441 20.59486673 -163.72993429 20.63481861 -175.74651819 20.67754889 C-182.49823712 20.70138505 -189.24995089 20.7230447 -196.00169182 20.73963928 C-202.3487887 20.75529755 -208.69585598 20.77532899 -215.0429287 20.79878426 C-217.37867982 20.80656511 -219.71443739 20.81262375 -222.0501976 20.81687737 C-225.22648785 20.82288972 -228.40269874 20.83492102 -231.57896423 20.84851074 C-232.98161676 20.84895472 -232.98161676 20.84895472 -234.4126057 20.84940767 C-235.25895283 20.85426542 -236.10529996 20.85912316 -236.97729397 20.86412811 C-238.07804954 20.86730207 -238.07804954 20.86730207 -239.20104259 20.87054014 C-241.10285047 20.89231703 -241.10285047 20.89231703 -243 22 C-243 21.34 -243 20.68 -243 20 C-245.31 20 -247.62 20 -250 20 C-250 40.13 -250 60.26 -250 81 C-250.66 81 -251.32 81 -252 81 C-252 63.84 -252 46.68 -252 29 C-256.29 29 -260.58 29 -265 29 C-265.66 28.67 -266.32 28.34 -267 28 C-267 27.01 -267 26.02 -267 25 C-264.11584117 23.55792059 -261.58278472 23.90605113 -258.375 23.9375 C-257.18648437 23.94652344 -255.99796875 23.95554687 -254.7734375 23.96484375 C-253.85820312 23.97644531 -252.94296875 23.98804688 -252 24 C-252 22.35 -252 20.7 -252 19 C-249.22851136 18.07617045 -247.59890053 17.87551589 -244.74213123 17.87695217 C-243.43212327 17.8739656 -243.43212327 17.8739656 -242.09565049 17.87091869 C-241.13554289 17.87383153 -240.17543529 17.87674437 -239.18623352 17.87974548 C-238.16686571 17.87889106 -237.1474979 17.87803663 -236.09724015 17.87715632 C-232.66547647 17.87550304 -229.23376117 17.88102044 -225.80200195 17.88647461 C-223.34838868 17.88675654 -220.89477533 17.88659863 -218.44116211 17.8860321 C-213.15044337 17.88580404 -207.85973982 17.88864908 -202.56902504 17.89426994 C-194.91950895 17.90239151 -187.26999883 17.90500084 -179.62047889 17.90625793 C-167.21011732 17.90844742 -154.79976231 17.9151047 -142.3894043 17.92456055 C-130.33276401 17.93373734 -118.2761255 17.94081687 -106.21948242 17.94506836 C-105.47650869 17.94533108 -104.73353497 17.94559381 -103.96804688 17.94586449 C-100.24082505 17.94716951 -96.51360321 17.94843323 -92.78638136 17.94967639 C-61.8575828 17.96004578 -30.9287924 17.97773555 0 18 C0 12.06 0 6.12 0 0 Z " fill="#393C45" transform="translate(417,379)"/>
<path d="M0 0 C0.66 0 1.32 0 2 0 C2 1.98 2 3.96 2 6 C12.37895885 5.89254475 22.75784742 5.7799207 33.13667774 5.66066074 C37.95575988 5.60544937 42.7748481 5.55203217 47.59399414 5.50268555 C52.24298621 5.45501573 56.89190412 5.40267187 61.54080772 5.34705925 C63.31623175 5.32664758 65.0916761 5.30793253 66.867136 5.29092598 C69.35005682 5.26685573 71.83283749 5.2368047 74.31567383 5.20532227 C75.05294708 5.1995668 75.79022034 5.19381134 76.54983521 5.18788147 C79.63110834 5.14334586 82.05388911 4.98203696 85 4 C85.79113227 7.48683452 86.12390369 10.69828459 86.12025452 14.27082825 C86.12231651 15.83354965 86.12231651 15.83354965 86.12442017 17.42784119 C86.11902725 19.12608788 86.11902725 19.12608788 86.11352539 20.85864258 C86.11367142 22.05906189 86.11381744 23.2594812 86.1139679 24.49627686 C86.11339148 27.77895106 86.1083834 31.06158238 86.10139394 34.34424806 C86.09513377 37.77821811 86.09455449 41.21218906 86.09336853 44.64616394 C86.09026306 51.14483552 86.08206026 57.64349023 86.07201904 64.1421544 C86.06083354 71.54236904 86.05534131 78.94258451 86.05032361 86.3428055 C86.03987699 101.5618801 86.02229274 116.78093787 86 132 C85.34 132.33 84.68 132.66 84 133 C84 132.34 84 131.68 84 131 C82.02 131 80.04 131 78 131 C78 130.01 78 129.02 78 128 C79.98 128 81.96 128 84 128 C84 126.35 84 124.7 84 123 C83.34 123 82.68 123 82 123 C82 84.72 82 46.44 82 7 C54.94 7 27.88 7 0 7 C0 4.69 0 2.38 0 0 Z " fill="#929395" transform="translate(334,125)"/>
<path d="M0 0 C0.66 0.33 1.32 0.66 2 1 C4.5622268 1.12226853 7.09908818 1.18565577 9.66259766 1.20532227 C10.84809456 1.22017166 10.84809456 1.22017166 12.05754089 1.23532104 C14.6763507 1.26697122 17.29517866 1.29170733 19.9140625 1.31640625 C21.72724892 1.33697274 23.54043052 1.35796913 25.35360718 1.37937927 C30.13098242 1.43463142 34.90840115 1.48402682 39.68585205 1.53222656 C44.55883668 1.58241866 49.43175798 1.63811667 54.3046875 1.69335938 C63.8697376 1.80097938 73.43484262 1.90241581 83 2 C83 2.33 83 2.66 83 3 C56.6 3 30.2 3 3 3 C3 5.31 3 7.62 3 10 C2.34 10 1.68 10 1 10 C1.00092179 10.54646337 1.00184359 11.09292673 1.00279331 11.65594959 C1.02494475 24.9954361 1.0413943 38.33491935 1.05181217 51.67442036 C1.05702034 58.1254832 1.06408034 64.57653272 1.07543945 71.02758789 C1.08634191 77.25862445 1.09229239 83.48964823 1.09487724 89.72069359 C1.09671826 92.09240101 1.10031322 94.46410776 1.10573006 96.83580971 C1.11303823 100.16960766 1.11398684 103.50335347 1.11352539 106.8371582 C1.11712067 107.80748993 1.12071594 108.77782166 1.12442017 109.77755737 C1.11481364 116.23367368 0.68455194 122.58091699 0 129 C0.66 129.33 1.32 129.66 2 130 C1.34 131.98 0.68 133.96 0 136 C-0.66 135.67 -1.32 135.34 -2 135 C-2.04667332 117.69350443 -2.08196589 100.38702844 -2.10362434 83.08048439 C-2.113947 75.04517135 -2.12802617 67.00989736 -2.15087891 58.97460938 C-2.17078257 51.972926 -2.18370923 44.9712709 -2.18817699 37.96956003 C-2.19078952 34.26051038 -2.19695048 30.55154163 -2.21146011 26.84251785 C-2.22750775 22.70698675 -2.22798164 18.57159726 -2.22705078 14.43603516 C-2.23424133 13.19957748 -2.24143188 11.96311981 -2.24884033 10.68919373 C-2.246091 9.56736191 -2.24334167 8.44553009 -2.24050903 7.28970337 C-2.24235262 6.31075922 -2.24419621 5.33181507 -2.24609566 4.32320595 C-2 2 -2 2 0 0 Z " fill="#A8A8A9" transform="translate(169,129)"/>
<path d="M0 0 C0.99 0.33 1.98 0.66 3 1 C3 36.97 3 72.94 3 110 C3.66 110 4.32 110 5 110 C5 111.65 5 113.3 5 115 C3.35 115 1.7 115 0 115 C0 77.05 0 39.1 0 0 Z " fill="#5F6064" transform="translate(413,138)"/>
<path d="M0 0 C46.53 0.495 46.53 0.495 94 1 C94 1.66 94 2.32 94 3 C91.36 3.33 88.72 3.66 86 4 C86 6.31 86 8.62 86 11 C85.34 11 84.68 11 84 11 C84 8.69 84 6.38 84 4 C59.58 4 35.16 4 10 4 C10 6.31 10 8.62 10 11 C9.34 11 8.68 11 8 11 C8 8.69 8 6.38 8 4 C5.36 4 2.72 4 0 4 C0 2.68 0 1.36 0 0 Z " fill="#575962" transform="translate(246,120)"/>
<path d="M0 0 C0.66 0.66 1.32 1.32 2 2 C1.67 2.33 1.34 2.66 1 3 C4.96 3.33 8.92 3.66 13 4 C13 5.65 13 7.3 13 9 C12.34 9.66 11.68 10.32 11 11 C7.04 11 3.08 11 -1 11 C-1.33 45.32 -1.66 79.64 -2 115 C-2.33 115 -2.66 115 -3 115 C-3 78.04 -3 41.08 -3 3 C-3.66 2.67 -4.32 2.34 -5 2 C-3.35 1.34 -1.7 0.68 0 0 Z " fill="#6D6D73" transform="translate(420,261)"/>
<path d="M0 0 C0.66 0 1.32 0 2 0 C2 34.98 2 69.96 2 106 C0.515 106.495 0.515 106.495 -1 107 C-0.67 71.69 -0.34 36.38 0 0 Z " fill="#96959C" transform="translate(168,271)"/>
<path d="M0 0 C24.09 0 48.18 0 73 0 C72.34 0.99 71.68 1.98 71 3 C68.0640564 3.36076355 68.0640564 3.36076355 64.25537109 3.34057617 C63.56257553 3.34101425 62.86977997 3.34145233 62.1559906 3.34190369 C59.86152149 3.33981032 57.56777926 3.31645468 55.2734375 3.29296875 C53.68446248 3.28737471 52.09548229 3.28310371 50.50650024 3.28010559 C46.32077797 3.26864158 42.13536714 3.23916131 37.94976807 3.20599365 C33.68009657 3.17532611 29.41037484 3.16160737 25.140625 3.14648438 C16.76027361 3.11429284 8.38017553 3.06307803 0 3 C0 2.01 0 1.02 0 0 Z " fill="#6C6C74" transform="translate(175,135)"/>
<path d="M0 0 C0.66 0 1.32 0 2 0 C2 20.46 2 40.92 2 62 C1.34 62 0.68 62 0 62 C0 44.84 0 27.68 0 10 C-4.29 10 -8.58 10 -13 10 C-13.66 9.67 -14.32 9.34 -15 9 C-15 8.01 -15 7.02 -15 6 C-12.11584117 4.55792059 -9.58278472 4.90605113 -6.375 4.9375 C-5.18648437 4.94652344 -3.99796875 4.95554687 -2.7734375 4.96484375 C-1.85820312 4.97644531 -0.94296875 4.98804688 0 5 C0 3.35 0 1.7 0 0 Z " fill="#37373F" transform="translate(165,398)"/>
<path d="M0 0 C1.72974441 0.00015918 3.45949355 0.0058569 5.18920898 0.01586914 C6.09783188 0.01728409 7.00645477 0.01869904 7.94261169 0.02015686 C10.85687494 0.02577346 13.77106254 0.03832874 16.68530273 0.05102539 C18.65600475 0.05603825 20.62670797 0.06060153 22.59741211 0.06469727 C27.43923832 0.07574828 32.28100768 0.09302401 37.12280273 0.11352539 C37.61780273 3.57852539 37.61780273 3.57852539 38.12280273 7.11352539 C36.14280273 7.11352539 34.16280273 7.11352539 32.12280273 7.11352539 C32.12280273 6.78352539 32.12280273 6.45352539 32.12280273 6.11352539 C33.77280273 6.11352539 35.42280273 6.11352539 37.12280273 6.11352539 C37.12280273 5.12352539 37.12280273 4.13352539 37.12280273 3.11352539 C6.43280273 3.11352539 -24.25719727 3.11352539 -55.87719727 3.11352539 C-55.87719727 2.78352539 -55.87719727 2.45352539 -55.87719727 2.11352539 C-54.92213036 2.09806419 -54.92213036 2.09806419 -53.94776917 2.08229065 C-47.34592929 1.97446208 -40.74423248 1.85984578 -34.14257812 1.74121094 C-31.67581158 1.69778596 -29.20901349 1.65611667 -26.7421875 1.61621094 C-23.2050626 1.55869094 -19.66809761 1.49494464 -16.13110352 1.42993164 C-15.02070206 1.41321915 -13.9103006 1.39650665 -12.76625061 1.37928772 C-11.74526779 1.3593425 -10.72428497 1.33939728 -9.67236328 1.31884766 C-8.31667992 1.29553123 -8.31667992 1.29553123 -6.93360901 1.27174377 C-3.66306637 1.0201113 -3.9970526 0.11703479 0 0 Z " fill="#A2A0A9" transform="translate(303.877197265625,117.886474609375)"/>
<path d="M0 0 C0 2.31 0 4.62 0 7 C-0.99 6.67 -1.98 6.34 -3 6 C-3 5.01 -3 4.02 -3 3 C-28.74 3 -54.48 3 -81 3 C-81 2.34 -81 1.68 -81 1 C-70.73422239 0.8694677 -60.46844306 0.73907087 -50.20266151 0.60884857 C-45.43621359 0.54838149 -40.66976628 0.48786716 -35.90332031 0.42724609 C-31.30625928 0.36878103 -26.70919671 0.31043846 -22.11213303 0.25218201 C-20.35540079 0.229898 -18.59866912 0.20756932 -16.84193802 0.18519592 C-14.38762812 0.15394581 -11.93331628 0.12285235 -9.47900391 0.09179688 C-8.74748611 0.08244614 -8.01596832 0.0730954 -7.26228333 0.0634613 C-2.22810432 0 -2.22810432 0 0 0 Z " fill="#7A7B7F" transform="translate(416,132)"/>
<path d="M0 0 C0.66 0.33 1.32 0.66 2 1 C4.5622268 1.12226853 7.09908818 1.18565577 9.66259766 1.20532227 C10.84809456 1.22017166 10.84809456 1.22017166 12.05754089 1.23532104 C14.6763507 1.26697122 17.29517866 1.29170733 19.9140625 1.31640625 C21.72724892 1.33697274 23.54043052 1.35796913 25.35360718 1.37937927 C30.13098242 1.43463142 34.90840115 1.48402682 39.68585205 1.53222656 C44.55883668 1.58241866 49.43175798 1.63811667 54.3046875 1.69335938 C63.8697376 1.80097938 73.43484262 1.90241581 83 2 C83 2.33 83 2.66 83 3 C56.6 3 30.2 3 3 3 C3 5.31 3 7.62 3 10 C2.34 10 1.68 10 1 10 C1 17.26 1 24.52 1 32 C0.01 32.495 0.01 32.495 -1 33 C-1.19218929 28.62218616 -1.37092139 24.24409441 -1.53710938 19.86523438 C-1.59556854 18.37517512 -1.65772629 16.88525624 -1.72363281 15.39550781 C-1.81764056 13.25611936 -1.89840682 11.11658132 -1.9765625 8.9765625 C-2.02893066 7.68830566 -2.08129883 6.40004883 -2.13525391 5.07275391 C-2 2 -2 2 0 0 Z " fill="#B4B4B6" transform="translate(169,129)"/>
<path d="M0 0 C0.33 0 0.66 0 1 0 C1 37.62 1 75.24 1 114 C-0.98 114.495 -0.98 114.495 -3 115 C-3 113.02 -3 111.04 -3 109 C-2.34 109.33 -1.68 109.66 -1 110 C-0.67 73.7 -0.34 37.4 0 0 Z " fill="#525357" transform="translate(173,139)"/>
<path d="M0 0 C0.66 0 1.32 0 2 0 C2 0.66 2 1.32 2 2 C27.74 2 53.48 2 80 2 C80 2.33 80 2.66 80 3 C54.59 3 29.18 3 3 3 C3 3.99 3 4.98 3 6 C2.01 6 1.02 6 0 6 C0 4.02 0 2.04 0 0 Z " fill="#7F8084" transform="translate(172,132)"/>
<path d="M0 0 C1.18851563 0.00902344 2.37703125 0.01804687 3.6015625 0.02734375 C4.51679688 0.03894531 5.43203125 0.05054688 6.375 0.0625 C6.375 1.3825 6.375 2.7025 6.375 4.0625 C3.76580172 5.36709914 1.78557385 5.1951594 -1.125 5.1875 C-2.1046875 5.19007813 -3.084375 5.19265625 -4.09375 5.1953125 C-6.625 5.0625 -6.625 5.0625 -8.625 4.0625 C-8.625 3.0725 -8.625 2.0825 -8.625 1.0625 C-5.74084117 -0.37957941 -3.20778472 -0.03144887 0 0 Z " fill="#525159" transform="translate(158.625,402.9375)"/>
<path d="M0 0 C2.5654594 2.5654594 2.54046087 4.47686668 3 8 C4.98 8 6.96 8 9 8 C9 9.66666667 9 11.33333333 9 13 C6.36 13 3.72 13 1 13 C0.67 11.35 0.34 9.7 0 8 C0.66 8 1.32 8 2 8 C2 7.34 2 6.68 2 6 C1.34 6 0.68 6 0 6 C0 4.02 0 2.04 0 0 Z " fill="#47484D" transform="translate(409,248)"/>
<path d="M0 0 C0.33 0 0.66 0 1 0 C1.22304441 1.74818591 1.4278645 3.49870323 1.625 5.25 C1.74101562 6.22453125 1.85703125 7.1990625 1.9765625 8.203125 C2.00112537 11.13429393 1.5312717 12.54528964 0 15 C0.66 15 1.32 15 2 15 C2 15.66 2 16.32 2 17 C1.34 17 0.68 17 0 17 C0.33 18.65 0.66 20.3 1 22 C0.34 22 -0.32 22 -1 22 C-2.17799662 17.53416206 -1.95279624 13.30636776 -1.625 8.75 C-1.58117187 8.0178125 -1.53734375 7.285625 -1.4921875 6.53125 C-1.13225446 1.13225446 -1.13225446 1.13225446 0 0 Z " fill="#686871" transform="translate(409,239)"/>
<path d="M0 0 C1.65 0 3.3 0 5 0 C5 0.66 5 1.32 5 2 C7.64 2.33 10.28 2.66 13 3 C13 3.66 13 4.32 13 5 C8.71 5 4.42 5 0 5 C0 3.35 0 1.7 0 0 Z " fill="#474749" transform="translate(155,265)"/>
<path d="M0 0 C1.32 0 2.64 0 4 0 C4 1.65 4 3.3 4 5 C1.16443413 6.41778293 -0.9908706 5.86257622 -4.125 5.5625 C-5.22070312 5.46066406 -6.31640625 5.35882813 -7.4453125 5.25390625 C-8.28835938 5.17011719 -9.13140625 5.08632813 -10 5 C-10 4.34 -10 3.68 -10 3 C-8.72125 2.87625 -7.4425 2.7525 -6.125 2.625 C-2.65209064 2.30957601 -2.65209064 2.30957601 0 0 Z " fill="#4C4C50" transform="translate(429,265)"/>
<path d="M0 0 C1.32 0.33 2.64 0.66 4 1 C4 2.65 4 4.3 4 6 C-0.95 6 -5.9 6 -11 6 C-10.67 4.68 -10.34 3.36 -10 2 C-10 2.99 -10 3.98 -10 5 C-7.36 5 -4.72 5 -2 5 C-1.34 3.35 -0.68 1.7 0 0 Z " fill="#2A2A2F" transform="translate(433,402)"/>
<path d="M0 0 C0.33 0.99 0.66 1.98 1 3 C-1.31 3.33 -3.62 3.66 -6 4 C-5.67 6.97 -5.34 9.94 -5 13 C-6.32 13 -7.64 13 -9 13 C-9.33 12.01 -9.66 11.02 -10 10 C-9.34 10 -8.68 10 -8 10 C-8 7.69 -8 5.38 -8 3 C-5.36 2.67 -2.72 2.34 0 2 C0 1.34 0 0.68 0 0 Z " fill="#61636A" transform="translate(340,121)"/>
<path d="M0 0 C2.64 0 5.28 0 8 0 C8 1.65 8 3.3 8 5 C5.36 5 2.72 5 0 5 C0 3.35 0 1.7 0 0 Z " fill="#3E3F46" transform="translate(170,256)"/>
<path d="M0 0 C0 1.32 0 2.64 0 4 C1.98 4 3.96 4 6 4 C6 4.33 6 4.66 6 5 C4.37509046 5.02698189 2.75005367 5.04638757 1.125 5.0625 C-0.23238281 5.07990234 -0.23238281 5.07990234 -1.6171875 5.09765625 C-4 5 -4 5 -6 4 C-6 3.01 -6 2.02 -6 1 C-4 0 -4 0 0 0 Z " fill="#47464B" transform="translate(156,403)"/>
<path d="M0 0 C0.66 0 1.32 0 2 0 C2 5.28 2 10.56 2 16 C0 13 0 13 0 10 C-0.66 9.67 -1.32 9.34 -2 9 C-1.34 9 -0.68 9 0 9 C0 6.03 0 3.06 0 0 Z " fill="#393941" transform="translate(165,398)"/>
<path d="M0 0 C2.97 0 5.94 0 9 0 C8.01 1.485 8.01 1.485 7 3 C5.0546875 3.29296875 5.0546875 3.29296875 2.875 3.1875 C1.59625 3.125625 0.3175 3.06375 -1 3 C-0.67 2.01 -0.34 1.02 0 0 Z " fill="#6E6F75" transform="translate(420,265)"/>
<path d="M0 0 C1.32 0.33 2.64 0.66 4 1 C4 2.65 4 4.3 4 6 C2.68 5.67 1.36 5.34 0 5 C0 3.35 0 1.7 0 0 Z " fill="#5C5D5E" transform="translate(433,402)"/>
<path d="M0 0 C1.65 0 3.3 0 5 0 C5 2.31 5 4.62 5 7 C4.34 7 3.68 7 3 7 C3 5.35 3 3.7 3 2 C2.01 2 1.02 2 0 2 C0 1.34 0 0.68 0 0 Z " fill="#7E7E83" transform="translate(419,396)"/>
<path d="M0 0 C2.64 0.33 5.28 0.66 8 1 C8 1.66 8 2.32 8 3 C5.36 3 2.72 3 0 3 C0 2.01 0 1.02 0 0 Z " fill="#53555A" transform="translate(160,267)"/>
<path d="M0 0 C0.66 0.99 1.32 1.98 2 3 C1.67 3.99 1.34 4.98 1 6 C-1.97 6 -4.94 6 -8 6 C-8 5.67 -8 5.34 -8 5 C-7.05125 4.855625 -6.1025 4.71125 -5.125 4.5625 C-2.1065506 4.17064601 -2.1065506 4.17064601 0 3 C0 2.01 0 1.02 0 0 Z " fill="#616267" transform="translate(178,256)"/>
<path d="M0 0 C1.98 0 3.96 0 6 0 C6 0.99 6 1.98 6 3 C4.02 3 2.04 3 0 3 C0 2.01 0 1.02 0 0 Z " fill="#747478" transform="translate(412,253)"/>
</svg>
